<svg
width="495"
height="194"
viewBox="0 0 495 194"
fill="none"
xmlns="http://www.w3.org/2000/svg"
>
<path
d="M13.5371 0.197192C16.054 -0.0112297 19.3533 0.211624 21.8606 0.517504C22.6465 0.612372 22.2486 1.03644 22.791 1.12102C23.8519 1.2859 24.8404 1.07792 25.8888 1.27434C26.2362 1.34151 25.8037 2.01323 26.1681 2.06828C28.1646 2.36514 30.0533 2.19405 32.0758 2.33683C41.94 3.0344 51.638 3.28848 61.6174 3.59053C61.7163 3.59352 61.8152 3.59652 61.9142 3.59953C65.2391 3.69986 69.2809 4.30948 72.7153 4.04288C73.1162 4.01116 72.8771 3.42156 72.9534 3.37296C74.1498 2.62903 73.752 3.81931 74.5331 3.97745C77.6334 4.60186 81.081 4.65617 84.0646 4.42862C85.334 4.33009 84.0613 3.15899 85.3394 3.81632C85.4281 3.86073 85.1061 4.48685 85.4542 4.55362C86.2436 4.70382 87.7414 4.59191 88.3532 4.64151C89.5324 4.74029 89.7274 4.73399 90.8427 4.74112C92.3674 4.75633 94.1808 5.06756 95.8166 4.92569C96.1658 4.89355 95.7036 4.25171 96.2604 4.14249C96.8178 4.03345 98.2923 4.08787 98.7894 4.23917C99.2866 4.39055 99.0749 4.89502 99.1629 5.01065C99.8868 5.98663 101.592 4.6349 101.812 4.60148C105.813 4.03188 109.244 4.80191 113 4.79972C113.323 4.79934 113.649 4.79575 113.976 4.78972C116.538 4.74253 119.207 4.54615 121.613 4.57706C124.845 4.62108 127.585 4.96888 130.725 4.90909C131.056 4.90352 130.668 4.14887 131.073 4.14054C135.373 4.05272 139.643 4.13499 143.925 4.64444C144.354 4.6962 143.801 5.35878 144.23 5.45011C146.856 5.99462 151.012 7.30269 152.572 4.41788C154.351 4.53053 156.511 4.64692 158.103 5.22843C159.129 5.6027 158.132 6.32451 159.393 6.01651C159.677 5.94789 159.308 5.31576 159.734 5.26065C161.529 5.02924 163.491 5.23472 165.266 4.90812C165.628 4.8402 165.529 4.27379 165.631 4.17179C165.84 3.97139 166.082 3.89998 166.334 3.90818C167.121 3.93379 167.999 4.73531 168.236 4.81046C170.613 5.55036 172.349 5.25919 174.563 5.27725C175.077 5.28176 174.47 4.52095 174.964 4.49796C177.529 4.38892 180.185 4.45431 182.697 4.7919C183.255 4.86883 182.742 5.51691 183.008 5.58682C184.185 5.88723 184.446 4.66317 185.575 4.92765C185.813 4.98183 185.679 5.53663 185.722 5.59757C186.402 6.55406 186.992 5.19878 187.167 5.16886C189.377 4.76002 190.79 6.17486 192.925 5.97452C193.181 5.94912 192.605 5.24713 193.323 5.21866C198.107 5.02487 203.167 5.21771 207.902 5.77921C208.638 5.86556 208.113 6.39291 208.159 6.45791C208.914 7.47366 209.403 6.11268 209.643 6.06143C211.537 5.69249 213.306 6.83382 214.593 5.2128C215.96 5.30873 217.327 5.36183 218.693 5.39112C225.336 5.5336 231.954 5.11269 238.553 6.31729C238.654 6.33411 238.472 7.00439 238.674 7.03506C241.104 7.41142 240.637 6.36968 242.245 5.09561C242.65 4.77569 243.882 6.31391 243.991 6.42667C244.388 6.84217 243.976 7.83936 244.109 7.91982C245.209 8.55169 245.03 5.25391 246.515 5.25284C246.561 5.25834 246.366 5.86534 246.491 5.92569C246.878 6.11517 247.262 5.87397 247.64 6.08292C248.507 6.5664 248.816 8.16884 250.14 7.23623C250.308 7.11519 250.052 5.24455 251.377 5.33292C251.906 5.36973 254.244 5.33767 254.9 5.45889C255.555 5.57998 255.105 6.18279 255.152 6.20889C256.916 7.00601 256.247 7.33637 257.131 8.5165C258.014 9.69218 257.769 6.88808 258.13 6.5751C258.49 6.26301 259.784 6.92069 260.102 7.14932C260.419 7.37805 260.023 7.7611 260.306 7.89053C262.178 8.7362 261.128 6.49867 261.745 6.05362C263.2 4.99981 264.333 7.07934 265.665 7.28311C266.025 7.33814 265.731 6.86451 266.052 6.82022C267.323 6.65107 268.088 7.29994 269.534 6.70498C269.709 6.63304 270.398 5.92606 271.051 5.94099C271.278 5.94618 271.501 6.03861 271.696 6.2753C271.803 6.4076 271.499 6.92582 272.04 7.0419C272.85 7.21611 274.308 7.32937 275.178 7.15615C275.82 7.028 275.084 6.1741 275.892 6.43936C276.251 6.5578 275.586 7.05734 276.26 7.23819C276.932 7.41898 278.648 7.39703 279.302 7.37979C279.954 7.36216 279.597 6.71444 279.65 6.6708C279.968 6.42084 281.22 6.10851 281.33 6.10928C286.908 6.03021 292.052 7.12201 297.482 6.76065C297.908 6.73323 297.625 6.0502 297.69 6.03897C299.149 5.7528 297.998 7.56881 299.018 8.17666C298.87 6.79059 299.472 7.04156 300.5 6.88955C300.995 6.81518 300.725 6.27848 300.77 6.22354C301.505 5.40836 302.016 6.46127 302.148 6.67666C302.634 7.46899 303.164 6.5328 303.495 7.06241C303.825 7.58805 303.064 8.36731 304.05 8.35732C304.326 7.86116 303.594 6.56454 304.343 6.3544C307.166 5.55952 312.437 6.57685 314.707 6.68252C316.973 6.78811 317.704 6.69657 319.025 6.87588C321.409 7.2001 320.535 6.2381 322.016 5.79776C323.501 5.35748 322.779 7.72446 322.993 8.2333C323.123 8.55006 323.261 8.46647 323.41 8.42588C323.5 8.40129 323.594 8.39248 323.692 8.49794C323.952 8.77746 323.389 9.12346 324 9.22839C324.612 9.33325 326.284 8.42793 326.5 7.89577C326.958 6.7684 326.204 5.58573 327.822 6.00067C327.915 6.02529 327.613 6.64783 327.97 6.71055C330.799 7.18828 333.739 7.21555 336.566 7.63766C336.954 7.69667 336.607 8.38926 336.834 8.43144C339.19 8.87305 338.347 7.70606 339.638 6.40864C339.373 7.99035 339.95 9.00898 341.424 9.17591C341.559 9.19115 341.701 9.19929 341.85 9.20013C342.925 9.20681 342.74 8.45305 343.435 7.92186C343.644 7.76173 344.404 8.27949 344.542 7.92506C344.997 6.76648 344.281 5.46884 346.125 5.98638C346.206 6.01098 345.948 6.64511 346.227 6.68371C348.034 6.93654 348.251 5.7246 350.205 5.58068C351.737 5.46769 354.459 6.21314 356.202 6.33967C356.159 8.27983 357.806 7.8415 358.48 6.5067C358.797 6.52338 359.12 6.52995 359.446 6.53495C360.285 6.54783 361.14 6.55031 361.927 6.68805C362.303 6.75328 362.053 7.31363 362.1 7.37461C362.822 8.33108 363.321 7.0327 363.566 6.98325C366.218 6.50468 368.366 7.50909 370.902 6.57101C370.992 6.53724 371.151 5.19087 371.817 6.18229C371.86 6.25061 371.018 6.8547 372.207 6.91515C373.395 6.97562 375.626 7.72577 377.285 7.12545C377.337 7.10672 377.4 7.07232 377.471 7.0285C377.948 6.73391 378.817 6.01416 379.512 6.76959C379.618 6.88739 379.494 7.27202 379.646 7.48961C380.139 8.18309 380.436 6.82545 381.009 7.99274C381.582 9.16008 382.795 10.0478 384.472 9.28229C384.525 9.26013 384.94 8.18829 385.463 8.21611C386.298 8.26134 387.478 8.51192 388.35 8.52501C388.767 8.53088 388.515 7.8544 388.588 7.84381C391.108 7.56648 392.962 8.0579 395.47 8.4141C395.766 8.45615 396.071 8.49636 396.387 8.53331C396.936 8.59858 398.55 7.73436 399.593 8.49299C400.737 9.32406 399.423 12.5709 402.133 11.8825C403.224 11.6084 404.761 7.48651 406.625 9.72863C408.971 9.4943 411.183 9.88939 413.428 10.0947C414.823 10.2223 416.23 10.2768 417.698 10.0634C417.87 10.0388 418.473 8.90479 418.874 8.94324C419.468 9.00252 419.764 9.56517 420.186 9.62558C421.957 9.8927 423.614 9.52776 425.326 9.71171C425.976 9.7806 425.711 10.3275 426.485 10.4105C427.258 10.4934 427.828 9.78851 428.854 10.2194C429.618 10.5427 430.292 12.0698 431.305 12.3583C431.305 12.3583 431.305 12.3583 431.305 12.3583C431.32 12.3626 431.336 12.3667 431.351 12.3705C431.502 10.8832 432.219 10.9625 433.538 10.6903C433.792 10.6376 433.576 10.0941 433.699 10.0425C434.203 9.82131 434.603 10.2956 435.085 10.0535C435.203 9.9956 435.263 9.48842 435.363 9.41257C435.595 9.23191 435.848 9.19558 436.099 9.2435C436.768 9.37132 437.403 10.102 437.542 10.2658C438.276 11.1217 438.744 10.5126 439.34 10.8917C439.932 11.271 438.94 11.5179 439.653 11.7946C439.856 11.8734 440.069 11.945 440.288 12.0103C441.663 12.4203 443.314 12.5889 444.653 12.7859C444.673 12.7887 444.692 12.7907 444.709 12.7919C445.252 12.828 444.941 12.1421 445.029 12.1391C446.329 12.1364 447.544 13.0153 448.41 11.7472C448.649 13.5121 448.856 13.4811 449.204 13.0995C449.566 12.7045 450.076 11.9367 450.97 12.3803C451.107 12.4501 451.144 14.1215 450.557 14.3109C450.15 14.4415 449.639 14.1915 449.093 14.1217C448.852 14.0908 448.603 14.0953 448.351 14.184C448.159 14.2531 446.917 15.6727 446.758 15.7473C445.53 16.3382 445.687 13.8543 445.646 13.7122C445.444 13.0707 445.071 12.9534 444.677 13.0399C444.121 13.1618 443.523 13.6881 443.318 13.7288C442.089 13.9723 441.068 13.7235 440.064 13.6857C439.754 13.674 439.445 13.6825 439.133 13.7317C438.268 13.8658 437.982 15.4679 437.342 15.3373C436.57 15.1808 436.016 14.776 435.513 14.4058C434.638 13.759 433.885 13.2106 432.514 14.3446C432.069 14.7088 432.317 16.3655 431.094 15.2042C431.094 15.2042 431.094 15.2042 431.094 15.2042C431.033 15.1483 430.969 15.0858 430.9 15.0163C430.807 14.921 429.72 13.5602 428.98 14.3185C428.887 14.4141 428.852 14.9306 428.737 14.966C427.961 15.1935 427.487 14.7472 426.651 14.8887C425.815 15.0302 424.809 15.2593 423.884 15.0246C423.327 14.8839 422.662 13.8764 422.405 13.6241C421.681 12.8981 420.793 13.9627 420.367 13.1127C419.935 12.2583 420.948 11.0575 419.718 10.4506C419.595 11.7907 419.409 13.1628 419.257 14.5089C417.239 14.3588 415.254 14.0088 413.245 13.8063C412.522 13.7335 411.796 13.6797 411.064 13.6614C410.721 13.6541 411.038 14.3927 410.67 14.4036C409.118 14.4471 407.789 13.8733 406.174 14.0126C404.924 14.1232 403.532 14.8354 402.227 14.9808C401.49 13.4133 399.54 13.8677 398.143 13.6825C397.653 13.6182 397.699 13.2084 397.354 13.0633C396.05 12.5266 396.627 13.9053 396.259 14.1081C395.859 14.3274 395.559 14.2939 395.302 14.1217C394.547 13.6143 394.175 11.8999 392.805 11.9194C392.708 11.9196 391.479 13.5287 391.314 13.6268C390.261 14.2666 391.157 13.0514 390.511 12.9139C389.332 12.6631 388.516 12.2517 387.115 12.7014C386.706 12.8348 385.712 13.8364 384.941 13.0297C384.839 12.924 384.908 12.3829 384.825 12.3495C383.325 11.7902 383.252 13.4938 382.38 14.055C381.508 14.616 380.196 13.4174 379.93 13.074C379.235 12.1854 380.48 12.7081 380.52 12.6228C380.989 11.6062 380.013 11.766 379.271 11.6677C379.19 9.9951 378.147 10.0794 378.502 11.5727C378.542 11.7358 379.123 11.589 379.271 11.6677C378.815 12.7624 378.149 13.2083 377.385 12.9129C377.012 12.7687 376.616 12.448 376.209 11.9399C375.628 11.214 376.198 10.3837 374.397 10.6669C373.581 10.7951 373.881 11.9494 373.159 12.2545C371.509 12.9506 369.387 11.8558 367.691 12.0105C367.076 12.0667 367.669 12.7016 367.248 12.7617C366.133 12.9233 365.153 12.4434 364.032 12.6779C363.93 12.6999 364.174 13.3608 363.825 13.3669C362.292 13.4012 360.874 13.2694 359.415 13.1486C358.363 13.0615 357.288 12.9802 356.133 12.9713C354.801 12.9611 352.419 13.3186 351.038 13.2432C348.647 13.1159 345.703 12.1551 343.657 12.3877C342.323 12.5366 342.616 13.1961 342.044 13.6454C341.858 13.7925 341.648 13.8703 341.425 13.8968C340.33 14.0273 338.944 12.9163 338.725 12.7156C338.717 12.7076 339.865 12.5517 339.253 12.2135C338.896 11.5083 338.738 12.7126 338.725 12.7156C338.553 12.5596 336.258 12.4111 335.803 12.5375C335.556 12.6066 335.695 13.2313 335.566 13.2554C332.498 13.8165 329.423 13.9778 326.31 13.6868C326.255 13.6742 326.337 12.9754 326.208 12.9545C325.108 12.7652 324.25 13.0098 323.409 13.3446C322.874 13.5584 322.345 13.8089 321.766 14.0067C320.28 14.5141 319.102 14.3441 318.223 13.1444C317.102 13.2955 315.494 12.7651 314.568 12.4432C313.643 12.1214 313.514 13.4818 313.432 13.5087C310.892 14.3694 309.424 13.5908 306.789 13.4696C305.537 13.4097 303.052 13.607 301.696 13.7557C300.624 13.8756 299.978 13.5568 298.99 13.7606C298.856 13.7878 298.991 14.3936 298.951 14.4169C297.848 15.1416 298.378 13.6608 298.151 13.3964C297.325 12.4347 296.816 11.9225 295.404 12.3749C295.078 12.4785 294.13 14.6105 293.536 14.7352C292.765 14.8934 293.056 14.1292 292.248 14.3143C292.179 14.3295 292.193 14.8009 291.695 14.7802C289.38 14.6899 286.856 14.4155 284.45 14.4628C284.122 14.4674 284.543 15.2152 284.068 15.2343C281.841 15.3229 279.399 15.2952 277.229 14.9452C276.694 14.8567 277.029 14.3331 276.913 14.1776C276.201 13.2369 275.192 14.6037 275.025 14.6298C273.612 14.8634 272.316 14.8574 271.051 14.7792C268.76 14.6376 266.57 14.2591 263.96 14.6386C263.74 14.6731 262.043 16.1383 261.286 14.8817C261.234 14.7981 260.485 13.5125 259.822 14.3915C259.781 14.4465 260.248 15.1084 259.433 15.0409C258.619 14.9736 257.308 15.4156 256.188 14.6884C255.834 14.4593 254.996 13.1768 253.939 14.1991C253.87 14.2705 252.237 16.5821 251.655 14.9872C251.56 14.7247 251.659 13.0369 250.397 13.9022C250.156 14.07 250.594 14.4464 249.958 14.6815C248.985 15.0438 247.696 14.5918 246.499 15.3436C246.291 15.4767 245.402 16.6223 244.69 15.7528C244.578 15.6166 244.79 15.0532 244.414 14.9901C242.625 14.6876 240.751 15.0645 238.935 14.6747C238.291 14.5377 238.62 13.6268 237.949 13.3827C237.279 13.1387 235.927 12.9039 235.225 13.3202C234.523 13.7366 235.29 15.1884 234.238 15.3046C229.666 15.8091 225.136 14.9575 220.571 14.8329C219.894 14.8143 220.455 15.3338 219.457 15.3436C219.213 15.3462 218.958 15.3507 218.693 15.3566C214.951 15.4398 209.214 15.7963 206.233 14.7655C203.675 13.8814 206.894 13.2083 204.94 12.8485C203.996 12.6769 202.976 14.3647 202.748 14.4179C200.524 14.9576 198.978 14.2099 196.976 14.4393C196.562 14.4869 196.968 15.171 196.616 15.204C195.414 15.3226 194.151 15.0173 193.003 15.0731C192.487 15.0998 192.582 15.6222 192.108 15.5819C190.974 15.4914 189.971 15.2718 188.865 14.7821C188.764 14.7375 189.444 14.0875 188.604 14.0634C187.246 14.0261 185.56 13.543 183.997 14.0419C183.533 14.1919 183.515 15.3861 182.518 14.5614C182.309 14.3892 182.576 12.9553 181.415 14.1942C181.22 14.4001 179.269 16.0712 178.312 14.994C178.06 14.7105 177.415 13.5372 176.857 13.7216C176.782 13.751 177.085 14.3924 176.623 14.455C174.994 14.6643 173.288 14.5959 171.615 14.7968C171.168 14.8517 171.833 15.5154 171.167 15.576C169.686 15.7117 167.908 15.6271 166.334 15.4799C165.962 15.4451 165.602 15.4068 165.26 15.3671C164.599 15.2892 165.056 14.7394 165.008 14.6796C164.235 13.7064 163.779 15.02 163.522 15.0966C161.928 15.5552 160.714 14.9382 159.244 15.1014C158.838 15.1448 159.126 15.7712 159.045 15.827C158.208 16.3727 158.832 15.2479 158.302 15.1239C156.817 14.7728 155.162 14.8232 153.66 14.9032C153.109 14.9335 153.728 15.6598 153.233 15.6786C150.304 15.8037 147.258 15.7342 144.399 15.3339C143.861 15.2572 144.2 14.6979 144.087 14.5702C143.314 13.6766 142.181 14.8955 141.92 15.0116C140.734 15.5418 140.274 15.0472 139.227 15.1395C134.111 15.5991 127.795 15.2716 122.967 15.0692C119.709 14.9344 116.829 14.7267 113.976 14.577C111.319 14.4375 108.685 14.3483 105.792 14.4149C105.411 14.423 105.795 15.167 105.466 15.1835C101.222 15.3628 97.0436 15.0721 92.7908 15.287C92.4418 15.3033 92.9449 16.0086 92.3848 16.0585C91.2358 16.1658 89.7804 16.1274 88.6188 15.9022C88.0522 15.7937 88.8122 15.1885 88.2418 15.0917C86.9139 14.8648 85.4904 14.8145 84.1263 14.9276C83.5458 14.9773 84.4216 15.6986 83.6671 15.7069C78.5275 15.7785 73.4799 15.9027 68.2862 14.9686C67.9301 14.9045 67.6177 13.4385 66.8607 13.7196C66.8036 14.1265 66.8067 14.6051 66.7818 15.0399C65.057 15.0939 63.3362 15.1085 61.6174 15.0979C55.8803 15.0627 50.1647 14.7478 44.3915 14.6874C44.0752 14.6842 44.6219 15.461 44.0094 15.4589C40.4647 15.4474 37.0226 15.6626 33.3968 14.8905C33.037 14.815 33.2216 13.4485 32.1614 13.6552C31.9745 13.6929 30.3777 13.8751 29.9649 14.1718C29.9088 14.2165 30.2001 14.8543 29.6856 14.8729C26.6956 14.9698 23.5622 14.8242 20.5773 14.4345C20.0956 14.3703 20.6086 13.6911 20.2655 13.6395C17.8316 13.279 15.1843 13.7953 12.8586 13.1786C11.3019 12.7633 11.8782 11.5892 11.051 10.4335C10.934 10.2704 9.97 10.2446 9.92015 9.57216C9.79217 7.88128 10.2591 6.02977 10.0675 4.22745C10.027 3.83925 8.73602 4.25737 9.50038 3.31925C9.55378 3.25647 10.4898 2.94511 10.7203 2.62687C10.8808 2.40685 10.5916 1.72298 10.9191 1.44133C11.2465 1.15994 11.6063 1.73319 12.1493 1.40227C12.6919 1.06725 12.4533 0.289285 13.5371 0.197192ZM310.401 11.0048C309.544 10.3515 309.418 12.7442 310.345 12.1718C310.39 12.1413 310.445 11.0368 310.401 11.0048ZM413.934 11.9336C413.73 11.7206 413.534 11.6043 413.356 11.5613C412.605 11.3804 412.175 12.501 412.778 13.1896C412.945 13.3801 413.111 13.4393 413.265 13.4128C413.798 13.3207 414.185 12.1949 413.934 11.9336ZM425.54 11.8307C424.291 10.9156 423.868 14.2886 425.302 13.6942C425.386 13.6608 425.613 11.8839 425.54 11.8307ZM14.8872 10.1044C14.8754 10.0726 14.1825 10.0416 14.1659 10.0731C13.7969 10.8331 15.1825 10.8945 14.8872 10.1044ZM437.033 11.9628C436.683 11.4567 435.458 11.8503 435.895 12.4748C436.243 12.9754 437.465 12.5903 437.033 11.9628ZM265.701 8.45107C265.687 8.41542 265.191 8.38331 265.201 8.58486C265.234 9.23401 265.926 9.05081 265.701 8.45107ZM456.592 14.0029C455.253 13.9121 454.194 13.2312 453.751 12.5805C453.431 12.1129 453.422 11.6619 453.823 11.4379C454.09 11.2892 454.534 11.2395 455.196 11.3383C455.756 11.4233 453.944 12.171 454.645 12.4593C455.956 12.9851 456.864 11.2517 458.181 12.1985C458.434 12.3755 456.771 14.027 456.587 14.0067C456.589 14.0054 456.591 14.0042 456.592 14.0029ZM309.908 8.13076C309.891 8.09912 309.203 8.06912 309.186 8.10049C308.814 8.86012 310.199 8.921 309.908 8.13076ZM236.712 6.97159C236.674 6.90416 235.079 6.8411 235.026 6.90323C234.194 8.14543 237.42 8.2766 236.712 6.97159ZM356.23 6.39152C356.983 5.6299 357.882 5.54347 358.477 6.50571C357.731 6.45155 356.98 6.44114 356.23 6.39152Z"
fill="black"
/>
<path
d="M14.4869 106.832C12.3756 107.04 7.89063 106.814 5.63649 106.503C4.65832 106.406 5.14831 105.983 4.51915 105.896C3.38884 105.728 2.46905 105.935 1.19867 105.727C0.923314 105.656 1.26526 104.989 0.994674 104.93C3.05019 81.9402 4.97743 96.9492 7.16859 93.0431C16.4444 93.6027 25.3821 93.851 34.6664 94.0846C36.1884 94.1245 37.757 94.1641 39.3725 94.2047C43.1511 94.2963 47.1537 94.8974 51.0583 94.623C51.5045 94.5904 51.2373 94.0014 51.3221 93.9526C52.6591 93.206 52.2191 94.3972 53.0388 94.5537C56.272 95.1719 59.9997 95.2195 63.3228 94.9863C64.6833 94.8855 63.3265 93.7167 64.6744 94.3718C64.7679 94.416 64.4302 95.0427 64.7964 95.1089C65.6255 95.2577 67.2158 95.1432 67.8717 95.1918C69.1344 95.2886 69.3448 95.2819 70.5508 95.2872C72.1941 95.2999 74.2082 95.6082 75.9831 95.4638C76.351 95.4311 75.8627 94.79 76.4498 94.6799C77.0363 94.5701 78.6013 94.6223 79.1331 94.7729C79.664 94.9236 79.4388 95.4284 79.5329 95.5439C80.3054 96.5188 82.1391 95.1647 82.3775 95.131C83.884 94.9304 85.328 94.8929 86.7474 94.9288C89.4058 94.9959 91.7891 95.3194 94.4424 95.3152C97.485 95.3087 100.911 95.0512 103.753 95.0837C107.204 95.1247 110.162 95.4703 113.58 95.4082C113.941 95.4024 113.518 94.648 113.959 94.6394C118.58 94.5486 123.148 94.6285 127.807 95.1362C128.274 95.1878 127.673 95.8506 128.139 95.9418C130.968 96.4852 135.422 97.7922 137.11 94.9071C137.64 94.9381 138.201 94.9694 138.773 95.0107C140.272 95.119 141.842 95.296 143.091 95.717C144.193 96.0912 143.122 96.8131 144.476 96.505C144.782 96.4364 144.384 95.8043 144.843 95.7492C146.772 95.5178 148.883 95.7234 150.798 95.397C151.187 95.3292 151.081 94.7627 151.191 94.6608C152.118 93.8349 153.663 95.2006 154 95.2999C156.566 96.0404 158.438 95.7498 160.823 95.7687C161.377 95.7734 160.723 95.0124 161.256 94.9896C164.02 94.8816 166.883 94.9484 169.587 95.2876C170.188 95.3649 169.635 96.0126 169.922 96.0827C171.19 96.3839 171.467 95.16 172.689 95.4253C172.946 95.4797 172.801 96.0344 172.848 96.0953C173.581 97.0523 174.22 95.6975 174.408 95.6677C176.796 95.2606 178.318 96.6767 180.618 96.4784C180.892 96.4533 180.273 95.7507 181.046 95.723C184.231 95.6057 187.543 95.6376 190.831 95.8144C192.84 95.9228 194.828 96.0855 196.758 96.3015C197.548 96.389 196.983 96.9156 197.033 96.9806C197.841 97.9975 198.366 96.6373 198.623 96.5864C200.634 96.2204 202.591 97.3648 203.977 95.7461C212.571 96.3228 221.28 95.4309 229.792 96.9064C229.903 96.9236 229.703 97.5933 229.923 97.6246C232.567 98.0083 232.06 96.9652 233.801 95.6961C234.24 95.3775 235.559 96.9197 235.675 97.0328C236.099 97.4496 235.654 98.4455 235.797 98.5264C236.972 99.1618 236.792 95.8635 238.372 95.8674C238.421 95.8731 238.212 96.4794 238.344 96.5402C238.755 96.731 239.163 96.4911 239.563 96.7013C240.464 97.1878 240.821 98.7914 242.273 97.8637C242.414 97.7715 242.286 96.6512 242.871 96.1744C243.05 96.0289 243.294 95.9433 243.632 95.9651C244.212 96.0039 246.746 95.981 247.446 96.105C248.149 96.2287 247.664 96.8297 247.714 96.856C249.6 97.6603 248.882 97.9879 249.819 99.1717C250.754 100.351 250.504 97.546 250.887 97.2345C251.274 96.924 252.627 97.5872 252.969 97.8172C253.321 98.0474 252.88 98.4287 253.192 98.5594C255.258 99.4138 254.106 97.1714 254.789 96.7292C256.393 95.6823 257.616 97.7673 259.049 97.9777C259.437 98.0346 259.123 97.5595 259.468 97.5168C260.832 97.354 261.644 98.0068 263.17 97.4195C263.437 97.3238 264.606 96.0795 265.49 97.0017C265.608 97.1346 265.268 97.651 265.868 97.7703C266.766 97.9492 268.365 98.0711 269.307 97.9032C270.003 97.779 269.212 96.9206 270.084 97.1908C270.471 97.3115 269.75 97.8069 270.476 97.9919C271.201 98.1769 273.027 98.1658 273.71 98.1528C274.394 98.1394 274.024 97.4894 274.08 97.4461C274.424 97.1982 275.703 96.894 275.854 96.8957C282.073 96.8569 287.454 97.9895 293.316 97.6842C293.757 97.661 293.47 96.9752 293.538 96.9646C295.015 96.6979 293.884 98.4345 294.825 99.0819C294.843 99.0935 294.861 99.1048 294.88 99.1157C294.735 97.7285 295.383 97.9839 296.495 97.8504C297.032 97.7853 296.748 97.2436 296.798 97.1895C297.606 96.3888 298.143 97.4552 298.28 97.6738C298.79 98.4785 299.383 97.5584 299.729 98.0985C300.073 98.6349 299.234 99.3887 300.295 99.4115C300.607 98.9251 299.85 97.6034 300.667 97.4196C303.769 96.7101 309.435 98.0487 311.867 98.3441C312.978 98.4726 313.748 98.54 314.391 98.6017C315.157 98.6756 315.741 98.7415 316.506 98.9049C319.045 99.4535 318.189 98.4129 319.828 98.1227C321.473 97.8379 320.465 100.12 320.645 100.648C320.82 101.176 321.117 100.679 321.368 100.985C321.619 101.291 320.983 101.575 321.626 101.745C322.268 101.913 324.148 101.2 324.438 100.697C325.05 99.6289 324.366 98.3641 326.063 98.967C326.16 99.0025 325.768 99.5855 326.143 99.6901C328.629 100.365 331.224 100.761 333.737 101.341C334.243 101.457 334.746 101.581 335.243 101.717C335.651 101.829 335.192 102.468 335.428 102.541C337.886 103.305 337.137 102.031 338.688 100.928C338.152 102.598 338.776 103.744 340.679 104.012C341.824 104.174 341.729 103.401 342.543 102.976C342.788 102.848 343.528 103.473 343.724 103.143C344.369 102.063 343.782 100.67 345.681 101.458C345.764 101.494 345.401 102.084 345.694 102.164C347.587 102.685 347.989 101.518 350.095 101.671C350.946 101.733 352.103 102.07 353.276 102.435C354.377 102.778 355.493 103.147 356.384 103.336C356.065 105.25 357.883 105.066 358.788 103.847C359.986 104.077 361.298 104.192 362.436 104.545C362.828 104.665 362.484 105.183 362.526 105.25C363.164 106.305 363.875 105.093 364.143 105.08C367.032 104.997 369.19 106.303 372.015 105.723C372.084 105.709 372.268 105.076 372.568 105.043C372.702 105.028 372.858 105.132 373.038 105.463C373.076 105.537 372.103 106.021 373.362 106.243C374.62 106.466 376.913 107.506 378.754 107.117C379.2 107.023 380.415 106.078 381.169 107.036C381.27 107.166 381.095 107.533 381.234 107.768C381.686 108.516 382.149 107.202 382.637 108.429C383.125 109.656 384.343 110.681 386.22 110.098C386.28 110.082 386.827 109.059 387.384 109.141C388.274 109.273 389.517 109.639 390.452 109.734C390.899 109.779 390.685 109.081 390.764 109.077C391.068 109.072 391.362 109.076 391.648 109.087C394.229 109.184 396.199 109.89 399.082 110.378C399.672 110.479 401.44 109.71 402.528 110.518C403.729 111.4 402.192 114.593 405.173 114.017C406.383 113.784 408.091 109.711 410.076 111.981C410.372 111.957 410.666 111.942 410.958 111.933C410.958 111.933 410.958 111.933 410.958 111.933C414.075 111.841 416.986 112.587 420.073 112.574C420.707 112.571 421.348 112.536 422.001 112.456C422.187 112.433 422.84 111.306 423.271 111.35C423.91 111.416 424.227 111.982 424.682 112.047C426.258 112.284 427.751 112.085 429.263 112.118C429.579 112.125 429.896 112.142 430.215 112.176C430.915 112.247 430.633 112.794 431.468 112.879C432.302 112.964 432.907 112.26 434.017 112.69C434.856 113.017 435.616 114.585 436.743 114.832C436.854 113.617 437.392 113.446 438.352 113.256C438.57 113.213 438.808 113.169 439.069 113.111C439.34 113.051 439.085 112.514 439.215 112.459C439.744 112.222 440.193 112.68 440.698 112.417C440.82 112.354 440.856 111.845 440.957 111.764C441.823 111.062 443.113 112.285 443.336 112.497C444.187 113.305 444.641 112.664 445.31 112.998C445.979 113.332 444.936 113.653 445.727 113.875C446.263 114.026 446.853 114.129 447.463 114.204C448.718 114.356 450.057 114.384 451.192 114.446C451.865 114.48 451.433 113.78 451.53 113.769C452.925 113.653 454.309 114.426 455.123 113.093C455.723 115.583 455.902 114.414 456.634 113.766C456.944 113.493 457.351 113.312 457.935 113.535C458.089 113.596 458.25 115.26 457.64 115.489C457.345 115.6 456.98 115.529 456.587 115.467C456.168 115.401 455.718 115.345 455.281 115.527C455.081 115.61 453.891 117.127 453.731 117.216C452.484 117.908 452.406 115.421 452.347 115.283C451.678 113.786 450.227 115.403 449.854 115.502C448.967 115.741 448.16 115.74 447.389 115.729C446.687 115.719 446.015 115.701 445.34 115.846C444.414 116.043 444.237 117.661 443.521 117.572C441.158 117.279 440.454 115.003 438.14 116.744C438.12 116.759 438.1 116.775 438.079 116.791C437.573 117.179 437.942 118.982 436.302 117.481C436.199 117.387 434.999 116.031 434.209 116.791C434.11 116.886 434.08 117.403 433.955 117.439C433.117 117.667 432.596 117.221 431.69 117.36C430.852 117.489 429.853 117.691 428.911 117.528C428.836 117.515 428.761 117.5 428.686 117.482C428.08 117.337 427.356 116.324 427.077 116.069C426.292 115.336 425.333 116.392 424.872 115.537C424.408 114.678 425.501 113.488 424.177 112.867C424.041 114.206 423.838 115.577 423.671 116.921C422.382 116.819 421.108 116.645 419.836 116.473C418.178 116.248 416.519 116.026 414.84 115.967C414.472 115.956 414.808 116.698 414.413 116.705C413.135 116.723 411.997 116.38 410.747 116.276C410.747 116.276 410.747 116.276 410.747 116.276C410.363 116.244 409.97 116.232 409.559 116.258C408.192 116.348 406.653 117.023 405.203 117.119C404.425 115.525 402.268 115.894 400.735 115.626C400.199 115.534 400.269 115.127 399.897 114.962C398.498 114.345 399.057 115.757 398.643 115.937C396.862 116.696 396.996 113.618 395.005 113.504C394.901 113.497 393.45 115.002 393.261 115.085C392.063 115.633 393.131 114.498 392.438 114.305C391.965 114.173 391.55 114.022 391.135 113.902C390.438 113.699 389.739 113.582 388.761 113.776C388.307 113.868 387.134 114.765 386.371 113.879C386.27 113.763 386.395 113.231 386.309 113.189C384.738 112.471 384.494 114.157 383.488 114.617C382.482 115.076 381.183 113.727 380.934 113.354C380.278 112.386 381.568 113.056 381.621 112.975C382.235 112.02 381.164 112.064 380.375 111.876C380.47 110.204 379.342 110.159 379.556 111.687C379.581 111.854 380.224 111.78 380.375 111.876C379.465 113.412 378.2 113.461 377.043 111.762C376.502 110.965 377.213 110.217 375.246 110.261C374.353 110.28 374.536 111.465 373.721 111.671C373.06 111.837 372.362 111.77 371.656 111.61C370.373 111.319 369.063 110.723 367.877 110.664C367.21 110.631 367.763 111.346 367.303 111.345C366.084 111.344 365.098 110.725 363.865 110.791C363.753 110.798 363.924 111.489 363.55 111.443C360.713 111.11 358.317 110.332 355.377 109.891C354.566 109.769 353.375 109.714 352.231 109.636C351.368 109.577 350.532 109.506 349.905 109.384C347.376 108.895 344.378 107.502 342.171 107.433C340.732 107.386 340.954 108.082 340.287 108.445C339 109.148 337.137 107.327 336.888 107.051C336.88 107.042 338.12 107.049 337.514 106.627C337.227 105.878 336.902 107.05 336.888 107.051C336.725 106.871 334.308 106.408 333.809 106.473C333.538 106.508 333.607 107.147 333.467 107.153C333.313 107.16 333.16 107.166 333.007 107.171C329.843 107.277 326.73 107.044 323.621 106.433C323.565 106.415 323.726 105.729 323.591 105.694C321.715 105.183 320.405 105.913 318.79 106.27C317.174 106.628 315.952 106.352 315.121 105.079C314.743 105.095 314.319 105.04 313.885 104.945C312.945 104.739 311.961 104.347 311.306 104.079C310.347 103.689 310.117 105.038 310.03 105.059C307.297 105.74 305.79 104.874 303.033 104.63C301.722 104.51 299.105 104.62 297.666 104.741C296.531 104.836 295.849 104.507 294.794 104.699C294.784 104.701 294.776 104.706 294.768 104.713C294.675 104.808 294.785 105.334 294.747 105.355C293.616 106.068 294.17 104.593 293.94 104.326C293.099 103.356 292.58 102.839 291.074 103.278C290.726 103.378 289.686 105.501 289.034 105.62C288.186 105.771 288.514 105.009 287.617 105.187C287.54 105.202 287.553 105.673 286.996 105.648C284.405 105.536 281.917 105.243 279.248 105.272C278.889 105.274 279.344 106.025 278.825 106.041C276.306 106.112 273.771 106.068 271.467 105.705C270.897 105.613 271.258 105.091 271.135 104.935C270.38 103.99 269.28 105.351 269.099 105.376C264.637 106.008 261.599 104.756 257.172 105.325C256.935 105.358 255.077 106.815 254.246 105.555C254.193 105.471 253.359 104.182 252.641 105.058C252.597 105.113 253.085 105.777 252.229 105.706C251.373 105.635 249.985 106.071 248.791 105.34C248.413 105.109 247.523 103.823 246.379 104.841C246.305 104.912 244.531 107.217 243.901 105.62C243.807 105.379 243.896 103.937 242.843 104.368C242.748 104.407 242.645 104.46 242.531 104.531C242.267 104.698 242.745 105.076 242.048 105.308C240.961 105.667 239.59 105.21 238.323 105.958C238.101 106.09 237.154 107.233 236.394 106.361C236.275 106.225 236.504 105.662 236.102 105.598C234.188 105.289 232.164 105.66 230.186 105.265C229.485 105.126 229.846 104.216 229.115 103.97C228.379 103.724 226.903 103.485 226.171 103.9C225.423 104.314 226.236 105.768 225.116 105.881C220.274 106.374 215.236 105.511 210.399 105.378C209.673 105.358 210.275 105.878 209.204 105.886C205.268 105.917 198.338 106.394 194.953 105.285C192.202 104.398 195.667 103.729 193.564 103.367C192.549 103.194 191.445 104.88 191.199 104.933C191.071 104.962 190.944 104.987 190.82 105.008C188.62 105.392 186.995 104.732 184.962 104.947C184.519 104.995 184.953 105.679 184.575 105.712C183.286 105.829 181.928 105.522 180.692 105.577C180.138 105.603 180.239 106.126 179.729 106.085C178.508 105.993 177.427 105.773 176.234 105.282C176.125 105.238 176.859 104.588 175.954 104.563C174.489 104.525 172.664 104.041 170.981 104.538C170.482 104.688 170.461 105.882 169.389 105.057C169.164 104.885 169.452 103.451 168.201 104.689C167.991 104.895 165.89 106.565 164.859 105.487C164.587 105.204 163.893 104.03 163.292 104.214C163.211 104.243 163.537 104.885 163.039 104.947C161.284 105.156 159.445 105.087 157.643 105.287C157.162 105.342 157.879 106.006 157.161 106.066C155.184 106.233 152.718 106.064 150.789 105.856C150.077 105.778 150.569 105.228 150.517 105.168C149.685 104.195 149.193 105.509 148.917 105.585C147.201 106.044 145.895 105.427 144.316 105.59C143.881 105.633 144.19 106.26 144.103 106.316C143.204 106.861 143.874 105.736 143.304 105.612C141.859 105.296 140.261 105.306 138.774 105.37C138.61 105.377 138.447 105.384 138.286 105.392C137.691 105.423 138.36 106.149 137.826 106.168C134.661 106.293 131.401 106.225 128.327 105.825C127.742 105.749 128.11 105.19 127.988 105.062C127.147 104.169 125.919 105.388 125.637 105.504C124.354 106.035 123.856 105.541 122.726 105.633C117.261 106.096 110.381 105.773 105.208 105.575C98.4939 105.32 93.134 104.795 86.7594 104.938C86.7463 104.938 86.7331 104.939 86.72 104.939C86.3023 104.948 86.7243 105.691 86.3644 105.708C81.6701 105.893 77.3857 105.608 72.6866 105.83C72.3053 105.847 72.8558 106.551 72.2442 106.602C70.9899 106.711 69.4165 106.675 68.1737 106.452C67.5675 106.344 68.3791 105.738 67.7693 105.642C66.3459 105.417 64.8573 105.37 63.4091 105.485C62.7638 105.536 63.7384 106.256 62.9002 106.265C57.1432 106.347 52.0549 106.481 46.2471 105.559C45.8664 105.495 45.5285 104.03 44.7286 104.313C44.6692 104.72 44.6736 105.198 44.6482 105.633C41.5756 105.737 37.8268 105.715 34.695 105.649C29.9004 105.556 25.4551 105.374 20.4746 105.343C20.1333 105.341 20.7246 106.116 20.0656 106.116C16.6223 106.115 12.4637 106.345 8.62008 105.59C8.2333 105.516 8.39958 104.149 7.30993 104.361C7.12023 104.399 5.57919 104.589 4.94019 104.89C4.87697 104.935 5.21367 105.571 4.62363 105.593C-1.93816 117.209 4.18459 80.579 7.03502 92.5882C7.49268 92.6531 7.00252 93.3315 7.33086 93.3836C9.73704 93.7479 12.9994 93.2335 15.2092 93.8508C16.9055 94.2665 16.2817 95.4405 17.2168 96.5964C17.3452 96.7595 18.4797 96.7854 18.5451 97.4578C18.6979 99.1487 18.1397 101 18.3685 102.803C18.4078 103.191 19.9866 102.773 19.0522 103.711C18.9822 103.774 17.8609 104.085 17.5986 104.403C17.412 104.623 17.7477 105.307 17.3677 105.589C16.9896 105.87 16.5776 105.297 15.9776 105.627C15.3861 105.962 15.6312 106.74 14.4869 106.832ZM306.972 102.359C306.094 101.656 305.832 104.038 306.846 103.521C306.895 103.493 307.017 102.394 306.972 102.359ZM417.937 114.277C416.797 113.152 415.886 114.656 416.686 115.518C417.484 116.379 418.284 114.618 417.937 114.277ZM430.46 114.296C429.107 113.375 428.665 116.746 430.217 116.16C430.307 116.127 430.539 114.35 430.46 114.296ZM13.1205 96.9242C13.1294 96.956 13.8232 96.9873 13.8429 96.9558C14.2122 96.196 12.8226 96.134 13.1205 96.9242ZM442.917 114.223C442.502 113.74 441.206 114.197 441.72 114.798C442.134 115.282 443.434 114.823 442.917 114.223ZM259.082 99.1459C259.068 99.1101 258.533 99.0756 258.543 99.2772C258.577 99.9265 259.322 99.7467 259.082 99.1459ZM464.052 114.905C460.916 114.754 459.094 111.91 462.463 112.277C463.075 112.342 461.132 113.155 461.909 113.417C463.336 113.895 464.293 112.142 465.746 113.086C466.012 113.259 464.233 114.921 464.046 114.909C464.048 114.907 464.05 114.906 464.052 114.905ZM306.604 99.4603C306.587 99.4274 305.849 99.3577 305.829 99.3884C305.39 100.126 306.873 100.266 306.604 99.4603ZM227.777 97.5553C227.716 97.4877 226.037 97.4203 225.976 97.4823C225.089 98.7222 228.514 98.8622 227.777 97.5553ZM356.406 103.391C357.316 102.752 358.286 102.802 358.785 103.845C357.997 103.679 357.198 103.554 356.406 103.391Z"
fill="black"
/>
<path
d="M8.91346 171.705C11.6779 171.497 15.3016 171.719 18.0555 172.025C18.9186 172.12 18.4816 172.544 19.0774 172.629C20.2426 172.794 21.3282 172.586 22.4798 172.782C22.8614 172.849 22.3863 173.521 22.7865 173.576C24.9793 173.873 27.0538 173.702 29.2751 173.845C39.7978 174.522 50.1482 174.781 60.7767 175.072C61.1999 175.084 61.6235 175.096 62.0477 175.107C65.6996 175.208 70.1389 175.817 73.9109 175.551C74.3512 175.519 74.0887 174.929 74.1725 174.881C75.4865 174.137 75.0496 175.327 75.9075 175.485C79.3127 176.11 83.0992 176.164 86.3763 175.936C87.7705 175.838 86.3726 174.667 87.7764 175.324C87.8739 175.369 87.5201 175.995 87.9025 176.061C88.7696 176.212 90.4146 176.1 91.0866 176.149C92.3817 176.248 92.5959 176.242 93.8209 176.249C95.4955 176.264 97.4872 176.575 99.284 176.434C99.6674 176.401 99.1598 175.76 99.7714 175.65C100.384 175.541 102.003 175.596 102.549 175.747C103.095 175.898 102.863 176.403 102.959 176.519C103.754 177.495 105.628 176.143 105.869 176.109C109.971 175.578 113.528 176.213 117.339 176.298C117.61 176.304 117.883 176.308 118.157 176.308C121.289 176.304 124.637 176.05 127.617 176.085C131.167 176.129 134.176 176.477 137.625 176.417C137.989 176.411 137.562 175.657 138.007 175.648C142.73 175.561 147.42 175.643 152.123 176.152C152.594 176.204 151.987 176.867 152.458 176.958C155.343 177.502 159.907 178.811 161.62 175.926C163.575 176.038 165.947 176.155 167.695 176.736C168.822 177.111 167.727 177.832 169.112 177.524C169.424 177.456 169.018 176.824 169.487 176.769C170.911 176.601 172.431 176.662 173.901 176.586C174.465 176.556 175.022 176.507 175.563 176.416C175.96 176.348 175.852 175.782 175.964 175.68C176.909 174.854 178.481 176.219 178.824 176.318C181.435 177.058 183.342 176.767 185.774 176.785C186.338 176.79 185.671 176.029 186.214 176.006C189.031 175.897 191.949 175.962 194.707 176.3C195.321 176.377 194.757 177.025 195.05 177.095C196.342 177.395 196.629 176.171 197.869 176.436C198.13 176.49 197.983 177.045 198.031 177.105C198.777 178.062 199.425 176.707 199.617 176.677C202.045 176.268 203.597 177.683 205.942 177.482C206.222 177.457 205.59 176.755 206.378 176.727C211.633 176.533 217.19 176.726 222.391 177.287C223.2 177.373 222.623 177.901 222.673 177.966C223.503 178.982 224.04 177.621 224.303 177.569C226.383 177.2 228.327 178.342 229.74 176.721C229.981 176.736 230.222 176.75 230.463 176.764C239.03 177.235 247.558 176.413 256.056 177.825C256.167 177.842 255.968 178.512 256.189 178.543C258.858 178.919 258.345 177.878 260.111 176.603C260.556 176.284 261.909 177.822 262.029 177.935C262.465 178.35 262.013 179.347 262.159 179.428C263.367 180.06 263.17 176.762 264.801 176.761C264.852 176.766 264.638 177.373 264.774 177.434C265.199 177.623 265.621 177.382 266.037 177.591C266.989 178.074 267.328 179.677 268.783 178.744C268.967 178.623 268.686 176.752 270.141 176.841C270.722 176.878 273.291 176.846 274.011 176.967C274.73 177.088 274.236 177.691 274.287 177.717C276.225 178.514 275.49 178.844 276.461 180.024C277.431 181.2 277.162 178.396 277.558 178.083C277.954 177.771 279.375 178.429 279.724 178.657C280.073 178.886 279.638 179.269 279.948 179.398C282.005 180.244 280.851 178.007 281.529 177.561C283.127 176.508 284.371 178.587 285.834 178.791C286.23 178.846 285.907 178.372 286.26 178.328C286.533 178.295 286.785 178.293 287.025 178.307C288.013 178.365 288.806 178.691 290.083 178.213C290.343 178.116 291.627 176.866 292.458 177.783C292.576 177.915 292.242 178.434 292.837 178.55C293.725 178.724 295.327 178.837 296.282 178.664C296.988 178.536 296.179 177.682 297.067 177.947C297.462 178.066 296.73 178.565 297.472 178.746C298.209 178.927 300.094 178.905 300.812 178.888C301.528 178.87 301.136 178.222 301.194 178.179C301.544 177.929 302.919 177.616 303.04 177.617C309.166 177.538 314.816 178.63 320.78 178.269C321.248 178.241 320.936 177.558 321.008 177.547C322.61 177.261 321.347 179.077 322.466 179.685C322.305 178.298 322.965 178.549 324.094 178.397C324.638 178.323 324.342 177.786 324.392 177.731C325.198 176.916 325.76 177.969 325.905 178.185C326.439 178.977 327.02 178.041 327.384 178.57C327.747 179.096 326.911 179.875 327.993 179.865C328.297 179.369 327.493 178.072 328.315 177.862C331.416 177.067 337.205 178.085 339.698 178.19C341.662 178.274 342.577 178.234 343.587 178.302C343.858 178.32 344.135 178.346 344.441 178.384C347.06 178.707 346.099 177.745 347.726 177.304C349.356 176.863 348.565 179.23 348.8 179.739C349.03 180.247 349.281 179.724 349.567 180.003C349.853 180.282 349.235 180.629 349.907 180.733C350.579 180.838 352.413 179.932 352.651 179.399C353.154 178.272 352.326 177.089 354.104 177.504C354.206 177.529 353.875 178.151 354.266 178.214C355.836 178.456 357.437 178.583 359.037 178.707C360.605 178.827 362.173 178.944 363.709 179.159C364.135 179.22 363.751 179.911 364 179.954C366.585 180.407 365.664 179.236 367.091 177.947C366.763 179.671 367.542 180.73 369.503 180.755C370.682 180.771 370.485 180.016 371.253 179.491C371.484 179.333 372.314 179.859 372.469 179.506C372.98 178.352 372.206 177.046 374.23 177.586C374.318 177.611 374.027 178.242 374.334 178.284C374.391 178.292 374.447 178.299 374.501 178.304C376.333 178.492 376.634 177.349 378.725 177.24C380.414 177.153 383.398 177.954 385.312 178.126C385.222 180.064 387.038 179.668 387.814 178.354C388.519 178.406 389.257 178.419 389.982 178.462C390.536 178.494 391.083 178.545 391.601 178.644C392.013 178.722 391.72 179.273 391.77 179.336C392.534 180.317 393.123 179.038 393.394 178.997C396.328 178.618 398.649 179.716 401.477 178.908C401.577 178.878 401.814 177.541 402.502 178.567C402.545 178.637 401.593 179.196 402.896 179.32C403.537 179.381 404.446 179.623 405.423 179.796C406.436 179.975 407.523 180.081 408.467 179.831C408.915 179.712 410.11 178.704 410.935 179.626C411.045 179.751 410.885 180.127 411.039 180.354C411.536 181.081 411.948 179.748 412.503 180.955C413.058 182.162 414.321 183.137 416.208 182.511C416.267 182.494 416.798 181.458 417.369 181.531C418.281 181.646 419.554 182 420.506 182.094C420.648 182.108 420.725 182.05 420.765 181.964C420.815 181.856 420.809 181.703 420.805 181.59C420.801 181.504 420.798 181.441 420.821 181.438C420.821 181.438 420.822 181.438 420.822 181.438C423.935 181.394 426.055 182.245 429.295 182.935C429.888 183.062 431.744 182.394 432.802 183.279C433.959 184.25 432.162 187.305 435.186 186.973C435.327 186.958 435.481 186.893 435.646 186.793C436.908 186.031 438.753 183.238 440.341 185.409C441.405 185.43 442.433 185.55 443.445 185.714C445.933 186.116 448.326 186.786 450.891 186.902C451.399 186.925 451.912 186.927 452.434 186.9C452.626 186.891 453.363 185.812 453.798 185.884C454.443 185.993 454.73 186.579 455.189 186.674C456.307 186.912 457.397 186.93 458.479 186.962C459.257 186.985 460.031 187.015 460.811 187.14C461.519 187.251 461.203 187.781 462.049 187.914C462.894 188.045 463.546 187.376 464.654 187.865C465.057 188.044 465.425 188.508 465.827 188.976C466.262 189.481 466.733 189.991 467.323 190.151C467.536 188.67 468.325 188.791 469.776 188.555C470.056 188.508 469.823 187.959 469.958 187.91C470.509 187.702 470.943 188.183 471.469 187.947C471.597 187.891 471.658 187.383 471.766 187.309C472.343 186.896 473.052 187.253 473.554 187.631C473.85 187.853 474.072 188.083 474.152 188.166C474.981 189.018 475.472 188.402 476.139 188.772C476.802 189.143 475.724 189.406 476.517 189.671C477.794 190.097 479.386 190.276 480.834 190.424C480.834 190.424 480.834 190.424 480.834 190.424C481.238 190.466 481.637 190.514 482.023 190.566C482.706 190.656 482.323 189.922 482.422 189.919C482.803 189.92 483.188 189.988 483.556 190.062C484.544 190.262 485.435 190.505 486.145 189.606C486.176 189.843 486.207 190.047 486.239 190.223C486.673 192.732 487.162 189.482 488.929 190.384C488.938 190.389 488.946 190.393 488.955 190.397C489.082 190.467 489.05 191.685 488.648 192.137C488.577 192.217 488.494 192.273 488.399 192.294C487.763 192.44 486.928 191.788 486.037 192.043C486.021 192.048 485.999 192.059 485.972 192.077C485.63 192.298 484.465 193.49 484.312 193.557C483.613 193.864 483.328 193.278 483.217 192.653C483.115 192.123 483.136 191.566 483.114 191.5C482.618 190.058 481.183 191.237 480.728 191.488C480.728 191.488 480.728 191.488 480.728 191.488C480.689 191.507 480.656 191.52 480.628 191.526C478.883 191.885 477.479 191.39 476.023 191.619C475.07 191.765 474.81 193.372 474.086 193.245C473.673 193.173 473.315 193.044 472.99 192.889C471.418 192.137 470.658 190.769 468.588 192.178C468.053 192.539 468.339 194.36 466.743 192.774C466.674 192.705 466.116 192.026 465.5 191.826C465.212 191.732 464.912 191.744 464.643 191.972C464.537 192.062 464.48 192.576 464.35 192.605C463.482 192.787 462.974 192.313 462.041 192.401C461.109 192.489 459.979 192.65 458.962 192.349C458.608 192.245 458.23 191.848 457.922 191.48C457.696 191.21 457.508 190.955 457.394 190.841C456.635 190.061 455.59 191.054 455.17 190.17C454.748 189.282 455.935 188.165 454.624 187.459C454.402 188.786 454.109 190.141 453.854 191.472C452.681 191.303 451.523 191.075 450.368 190.837C448.539 190.461 446.718 190.061 444.848 189.835C444.469 189.79 444.755 190.561 444.346 190.531C443.804 190.491 443.292 190.392 442.789 190.272C441.693 190.012 440.639 189.658 439.406 189.616C438.074 189.573 436.534 190.049 435.132 190.064C435.065 190.065 434.998 190.065 434.932 190.063C434.309 188.407 432.146 188.609 430.663 188.261C430.143 188.14 430.236 187.738 429.879 187.553C428.529 186.869 429.009 188.307 428.594 188.467C426.819 189.155 427.07 186.082 425.073 185.914C424.966 185.903 423.492 187.381 423.305 187.463C422.111 187.997 423.185 186.874 422.498 186.674C421.706 186.444 421.077 186.167 420.328 186.073C419.888 186.018 419.408 186.026 418.832 186.146C418.378 186.243 417.225 187.156 416.449 186.288C416.346 186.174 416.459 185.64 416.372 185.6C414.781 184.919 414.582 186.614 413.6 187.107C412.619 187.6 411.275 186.31 411.006 185.949C410.304 185.013 411.626 185.622 411.675 185.54C412.25 184.56 411.177 184.648 410.375 184.499C410.388 182.823 409.243 182.837 409.542 184.352C409.577 184.517 410.218 184.41 410.375 184.499C409.536 186.078 408.29 186.194 407.023 184.57C406.438 183.821 407.075 183.038 405.203 183.182C405.174 183.185 405.144 183.187 405.114 183.19C404.215 183.271 404.486 184.441 403.684 184.705C401.855 185.308 399.591 184.109 397.733 184.189C397.059 184.218 397.682 184.879 397.221 184.92C395.999 185.033 394.948 184.514 393.717 184.706C393.605 184.724 393.848 185.394 393.469 185.387C392.181 185.37 390.972 185.26 389.758 185.135C388.258 184.981 386.752 184.804 385.089 184.754C383.634 184.71 381.025 185.016 379.518 184.917C377.926 184.813 376.113 184.399 374.43 184.142C373.353 183.977 372.33 183.876 371.456 183.959C369.995 184.095 370.309 184.757 369.68 185.202C368.469 186.062 366.341 184.491 366.054 184.248C366.045 184.24 367.303 184.091 366.634 183.749C366.248 183.042 366.068 184.245 366.054 184.248C365.866 184.09 363.352 183.93 362.853 184.056C362.582 184.124 362.732 184.749 362.59 184.773C361.404 184.966 360.219 185.112 359.03 185.206C356.847 185.378 354.655 185.378 352.444 185.19C352.383 185.178 352.474 184.479 352.332 184.458C350.355 184.149 349.087 185.005 347.455 185.513C345.837 186.017 344.552 185.855 343.587 184.686C343.578 184.675 343.569 184.663 343.56 184.652C342.329 184.803 340.563 184.273 339.546 183.951C338.53 183.629 338.388 184.99 338.298 185.017C335.509 185.877 333.896 185.099 331.002 184.977C329.627 184.918 326.897 185.115 325.408 185.264C324.23 185.383 323.521 185.065 322.436 185.268C322.29 185.296 322.438 185.901 322.393 185.925C321.182 186.649 321.764 185.169 321.514 184.904C320.608 183.943 320.048 183.43 318.498 183.883C318.14 183.986 317.098 186.118 316.446 186.243C315.599 186.401 315.919 185.637 315.031 185.822C314.955 185.837 314.971 186.309 314.423 186.288C311.881 186.198 309.109 185.923 306.467 185.971C306.106 185.975 306.569 186.723 306.047 186.742C303.6 186.831 300.918 186.803 298.535 186.453C297.948 186.365 298.316 185.841 298.189 185.685C297.407 184.745 296.298 186.112 296.115 186.138C292.806 186.636 290.086 186.045 287.025 185.987C286.049 185.968 285.038 186.004 283.962 186.146C283.72 186.181 281.856 187.646 281.024 186.39C280.967 186.306 280.145 185.02 279.417 185.899C279.372 185.954 279.885 186.616 278.99 186.549C278.095 186.481 276.655 186.923 275.426 186.196C275.036 185.967 274.116 184.685 272.955 185.707C272.879 185.778 271.086 188.09 270.446 186.495C270.343 186.233 270.451 184.545 269.065 185.41C268.8 185.578 269.281 185.954 268.583 186.189C267.514 186.552 266.098 186.1 264.784 186.852C264.555 186.985 263.579 188.13 262.797 187.261C262.674 187.125 262.907 186.561 262.494 186.498C260.528 186.196 258.471 186.572 256.475 186.183C255.769 186.046 256.13 185.135 255.393 184.891C254.656 184.647 253.172 184.412 252.401 184.828C251.63 185.245 252.472 186.696 251.317 186.812C246.295 187.317 241.32 186.465 236.306 186.341C235.562 186.322 236.178 186.842 235.082 186.852C233.777 186.864 232.165 186.923 230.463 186.961C226.896 187.039 222.932 187.021 220.558 186.273C217.749 185.389 221.284 184.716 219.137 184.356C218.101 184.185 216.981 185.873 216.731 185.926C214.287 186.465 212.59 185.718 210.391 185.947C209.937 185.995 210.382 186.679 209.995 186.712C208.675 186.83 207.288 186.525 206.027 186.581C205.461 186.608 205.565 187.13 205.044 187.09C203.798 186.999 202.697 186.78 201.482 186.29C201.371 186.245 202.118 185.595 201.196 185.571C199.704 185.534 197.852 185.051 196.136 185.55C195.626 185.7 195.606 186.894 194.512 186.069C194.282 185.897 194.575 184.463 193.3 185.702C193.085 185.908 190.943 187.579 189.892 186.502C189.614 186.218 188.906 185.045 188.294 185.229C188.211 185.259 188.544 185.9 188.036 185.963C186.247 186.172 184.373 186.104 182.535 186.305C182.045 186.36 182.776 187.023 182.044 187.084C180.033 187.252 177.522 187.083 175.556 186.875C174.831 186.797 175.332 186.247 175.279 186.187C174.642 185.457 174.201 186.015 173.901 186.371C173.801 186.489 173.718 186.585 173.647 186.604C171.896 187.063 170.563 186.446 168.948 186.609C168.503 186.653 168.819 187.279 168.73 187.335C167.81 187.881 168.495 186.756 167.913 186.632C166.283 186.281 164.465 186.331 162.815 186.411C162.21 186.441 162.89 187.168 162.347 187.186C159.129 187.312 155.784 187.242 152.644 186.842C152.053 186.765 152.425 186.206 152.301 186.078C151.452 185.184 150.207 186.403 149.921 186.519C148.619 187.05 148.113 186.555 146.963 186.647C141.344 187.107 134.407 186.779 129.104 186.577C124.806 186.415 121.107 186.148 117.339 186.003C115.048 185.914 112.732 185.871 110.24 185.923C109.821 185.931 110.244 186.675 109.883 186.691C105.221 186.871 100.632 186.58 95.9606 186.795C95.5773 186.811 96.1298 187.516 95.5146 187.566C94.2527 187.674 92.6541 187.635 91.3783 187.41C90.7559 187.302 91.5907 186.696 90.9643 186.6C89.5057 186.373 87.9422 186.322 86.444 186.435C85.8065 186.485 86.7684 187.206 85.9397 187.215C80.2947 187.286 74.7508 187.411 69.0463 186.477C68.6552 186.412 68.3121 184.946 67.4806 185.227C67.418 185.634 67.4214 186.113 67.394 186.548C65.1834 186.611 62.9789 186.62 60.7767 186.598C54.7926 186.54 48.8258 186.253 42.8019 186.195C42.4545 186.192 43.0549 186.969 42.3823 186.967C38.489 186.955 34.7084 187.17 30.7261 186.398C30.3309 186.323 30.5336 184.956 29.3692 185.163C29.1639 185.201 27.4101 185.383 26.9567 185.68C26.8951 185.724 27.2151 186.362 26.65 186.381C23.3659 186.478 19.9244 186.332 16.646 185.942C16.1169 185.878 16.6804 185.199 16.3035 185.147C13.6303 184.787 10.7226 185.303 8.16825 184.686C6.45844 184.271 7.09146 183.097 6.18289 181.941C6.05438 181.778 4.99562 181.752 4.94087 181.08C4.8003 179.389 5.31313 177.538 5.10271 175.735C5.05825 175.347 3.64029 175.765 4.47981 174.827C4.53846 174.764 5.56649 174.453 5.81969 174.135C5.99598 173.915 5.6783 173.231 6.03799 172.949C6.39764 172.668 6.79286 173.241 7.38916 172.91C7.9852 172.575 7.72312 171.797 8.91346 171.705ZM334.969 182.513C334.028 181.859 333.889 184.252 334.907 183.68C334.957 183.649 335.018 182.545 334.969 182.513ZM448.16 188.412C447.08 187.199 446.031 188.619 446.783 189.547C447.536 190.473 448.49 188.779 448.16 188.412ZM460.947 189.272C459.617 188.273 458.98 191.613 460.599 191.118C460.693 191.091 461.025 189.33 460.947 189.272ZM10.3964 181.612C10.3834 181.58 9.62229 181.55 9.6041 181.581C9.19884 182.341 10.7207 182.402 10.3964 181.612ZM473.639 189.867C473.565 189.773 473.457 189.71 473.335 189.674C472.803 189.517 471.991 189.868 472.392 190.378C472.569 190.602 472.932 190.651 473.238 190.58C473.622 190.492 473.915 190.216 473.639 189.867ZM285.874 179.959C285.859 179.923 285.313 179.891 285.324 180.093C285.361 180.742 286.121 180.559 285.874 179.959ZM492.708 191.333C492.982 191.331 493.321 191.338 493.451 191.363C492.103 192.595 490.413 188.531 493.967 190.058C494.637 190.307 492.205 190.489 493.028 190.978C493.2 191.615 494.588 190.234 493.865 192.727C492.82 193.255 492.098 193.82 491.025 193.196C490.789 193.03 492.572 191.347 492.713 191.329C492.711 191.33 492.709 191.332 492.708 191.333ZM334.427 179.639C334.409 179.607 333.653 179.577 333.635 179.608C333.226 180.368 334.748 180.429 334.427 179.639ZM254.035 178.479C253.993 178.412 252.24 178.349 252.183 178.411C251.268 179.653 254.812 179.784 254.035 178.479ZM385.341 178.178C386.187 177.436 387.181 177.374 387.81 178.353C386.991 178.277 386.165 178.247 385.341 178.178Z"
fill="black"
/>
</svg>