<svg width="1124" height="1124" viewBox="0 0 1124 1124" fill="none" xmlns="http://www.w3.org/2000/svg">
<g filter="url(#filter0_f_257_77)">
<rect x="100" y="100" width="924" height="924" rx="462" fill="white"/>
<rect x="100" y="100" width="924" height="924" rx="462" fill="black" fill-opacity="0.2"/>
</g>
<path d="M489.774 564.553C490.121 563.834 490.467 563.11 490.812 562.38C492.782 558.213 494.706 553.92 496.589 549.566C498.435 545.298 500.278 540.877 502.06 536.503C503.914 531.986 505.465 527.949 507.568 522.928C507.568 522.928 507.568 522.928 507.568 522.928C509.656 518.011 511.903 512.826 514.203 507.664C516.448 502.62 518.813 497.435 521.177 492.403C523.565 487.323 526.018 482.251 528.548 477.231C531.097 472.176 533.74 467.134 536.525 462.172C539.344 457.169 542.338 452.121 545.782 447.203C547.609 444.628 549.441 442.163 552.018 439.462C557.485 434.258 559.978 433.833 565.481 433.433C567.819 433.426 569.956 434.439 571.126 435.163C573.859 436.578 575.662 439.727 576.066 440.843C576.726 442.422 576.94 443.476 577.136 444.391C577.329 445.364 577.435 446.146 577.519 446.86C577.605 447.601 577.658 448.257 577.692 448.87C577.726 449.481 577.738 450.052 577.734 450.545C577.731 450.837 577.723 451.118 577.714 451.256C577.71 451.319 577.707 451.154 577.696 451.094C577.771 453.69 577.861 456.232 577.96 458.788C578.06 461.379 578.168 463.958 578.275 466.534C578.383 469.134 578.491 471.731 578.589 474.335C578.687 476.943 578.776 479.558 578.846 482.19C578.916 484.806 578.967 487.44 578.991 490.099C579.002 491.395 579.007 492.693 579.004 494.007C579.001 495.596 578.964 496.936 578.904 498.058C578.904 498.058 578.904 498.058 578.904 498.058C578.38 507.747 576.543 502.537 576.084 507.203C575.077 517.37 577.903 508.714 578.56 512.708C578.531 515.237 578.495 517.776 578.45 520.316C578.32 527.737 578.122 535.194 577.859 542.638C577.796 544.388 577.731 546.14 577.662 547.888C577.521 546.138 577.379 544.387 577.238 542.632C577.148 541.513 577.059 540.389 576.97 539.263C576.951 540.343 576.912 541.523 576.856 542.629C576.644 546.752 576.207 549.861 575.692 543.115C575.468 545.002 575.208 546.763 574.981 548.701C576.024 549.245 575.949 558.294 576.536 559.138C577.137 559.979 577.103 554.881 577.153 554.914C577.514 555.081 577.385 559.865 577.08 565.013C576.75 570.72 576.182 576.868 576.1 577.659C575.694 581.638 574.564 578.083 574.489 581.476C574.378 585.887 575.959 584.825 575.047 587.378C574.751 588.2 574.195 589.398 573.228 591.266C574.161 594.474 573.559 594.712 573.195 598.678C573.147 599.2 573.832 598.843 573.832 599.074C573.857 605.131 572.996 600.408 572.927 600.437C571.775 600.898 571.745 607.376 571.504 608.724C571.454 609.016 571.404 609.307 571.355 609.597C569.978 617.603 568.634 624.626 567.263 631.669C566.528 635.436 565.747 639.251 564.939 643.216C564.199 646.848 563.429 650.632 562.641 654.701C562.592 654.955 562.543 655.21 562.494 655.466C562.093 657.555 561.432 662.025 560.826 666.227C560.327 669.665 559.875 672.925 559.549 674.569C558.904 677.847 558.417 676.437 557.842 677.552C557.785 677.663 557.728 677.798 557.67 677.965C559.064 680.997 559.027 683.657 557.583 689.212C557.445 689.749 557.295 690.314 557.134 690.911C558.367 693.568 557.205 693.161 557.268 698.049C557.283 698.843 557.357 699.759 557.461 700.748C557.537 701.367 557.665 701.954 557.81 702.692C557.946 703.37 558.096 704.096 558.225 704.866C558.351 705.622 558.457 706.421 558.501 707.266C558.544 708.125 558.526 709.033 558.358 710.001C558.182 711.007 557.828 712.118 557.132 713.139C556.378 714.28 555.142 715.164 554.016 715.461C555.369 714.82 556.27 713.764 556.742 712.909C557.442 711.612 557.542 710.677 557.605 709.873C557.651 708.972 557.569 708.204 557.441 707.263C557.348 706.599 557.223 705.852 557.072 704.941C556.984 704.41 556.886 703.822 556.79 703.168C556.776 703.076 556.76 702.938 556.741 702.764C556.695 702.292 556.623 701.59 556.616 700.731C556.601 697.791 556.757 693.074 556.899 689.151C557.031 685.167 557.07 682.04 556.395 682.589C555.763 683.103 555.572 686.96 555.503 689.027C555.475 689.752 555.454 690.258 555.412 690.323C554.905 691.112 554.463 690.333 554.282 688.918C554.13 687.735 554.167 686.109 554.492 684.606C554.564 685.454 554.626 686.476 554.704 687.384C556.508 680.022 552.06 684.697 556.136 679.434C556.642 678.789 557.038 679.116 557.633 678.027C557.482 677.766 556.842 679.112 556.924 677.89C556.933 677.749 556.957 677.597 556.99 677.435C557.251 676.162 558.127 674.37 557.532 673.967C556.874 673.507 556.504 675.737 556.316 677.343C556.226 678.11 556.174 678.733 556.138 678.855C556.144 678.86 556.149 678.865 556.155 678.87C555.553 680.887 555.619 679.092 555.773 677.269C555.874 676.066 556.015 674.852 555.995 674.711C555.666 672.408 554.933 673.839 554.9 670.439C554.891 669.317 555.206 667.243 555.519 665.352C555.747 663.972 555.972 662.687 556.057 661.934C556.254 660.159 555.294 662.81 555.389 661.609C555.484 660.407 556.113 659.001 556.23 657.594C556.279 656.992 555.722 656.926 555.752 656.636C556.037 653.889 556.69 655.292 557.126 653.739C557.184 653.531 557.238 653.271 557.287 652.942C557.559 651.126 557.529 644.906 556.493 649.012C556.728 646.992 556.98 645.03 557.223 643.032C556.851 644.255 556.52 645.531 556.117 646.72C556.623 644.65 556.634 643.162 556.6 641.841C556.573 640.807 556.52 639.872 556.652 638.845C556.952 636.499 558.404 634.611 558.211 631.963C557.809 626.355 556.43 639.891 555.869 641.568C555.679 642.209 555.203 639.547 555.238 639.158C555.403 637.422 556.35 635.498 556.514 634.184C556.692 632.755 556.772 631.473 556.806 630.255C556.885 627.434 556.744 624.997 556.997 621.837C557.335 617.6 557.664 613.028 557.952 608.365C558.4 601.133 558.751 593.623 559.005 586.478C559.184 581.464 559.318 576.63 559.427 572.201C559.506 568.983 559.889 566.521 560.205 564.534C560.43 563.115 560.62 561.938 560.634 560.903C560.705 555.092 559.882 554.364 559.916 549.294C559.926 547.206 559.996 544.881 560.091 542.477C560.343 536.186 560.768 529.336 560.88 524.756C560.918 523.197 560.839 521.693 560.72 520.347C560.505 517.908 560.16 515.998 560.145 515.262C560.03 509.836 559.939 504 559.874 498.138C559.874 498.138 559.874 498.138 559.874 498.138C559.845 495.584 559.792 493.112 559.717 490.589C559.642 488.022 559.546 485.477 559.438 482.99C559.325 480.361 559.198 477.797 559.07 475.341C558.928 472.62 558.783 470.033 558.647 467.638C558.643 467.565 558.639 467.493 558.635 467.421C558.44 464.02 558.575 461.574 558.723 459.851C558.843 458.448 558.969 457.525 558.926 456.948C558.702 453.906 558.398 452.993 558.14 452.048C558.006 450.87 557.976 450.34 557.942 449.736C557.925 449.35 557.921 448.947 557.927 448.523C557.929 448.366 557.932 448.207 557.935 448.053C557.939 447.891 557.949 447.761 557.964 447.657C558.01 447.357 558.108 447.269 558.231 447.253C558.448 447.242 558.726 447.358 558.777 447.463C558.822 447.566 558.877 447.7 558.954 447.872C558.924 448.206 560.764 450.778 561.942 451.236C562.455 452.635 566.884 453.122 567.699 452.299C567.687 452.196 564.333 455.78 562.36 458.694C559.469 462.708 556.59 467.261 553.902 471.842C552.569 474.119 551.284 476.409 550.015 478.78C549.595 479.565 549.25 479.296 549.002 479.82C547.947 482.084 549.075 481.372 547.936 483.705C547.513 484.574 547.084 485.449 546.65 486.327C544.657 490.36 542.548 494.489 540.446 498.753C540.192 499.27 539.58 499.27 539.022 500.453C538.976 500.549 538.935 500.645 538.897 500.742C538.476 501.806 538.429 502.94 537.615 504.628C535.833 508.332 533.832 511.822 531.93 515.598C531.291 516.876 530.737 518.015 530.147 519.327C529.737 520.243 529.931 521.453 529.314 522.844C528.27 525.193 526.845 527.985 525.441 530.813C525.441 530.813 525.441 530.813 525.441 530.813C524.558 532.53 523.604 534.617 522.979 536.127C521.91 538.734 520.899 541.246 519.864 543.816C518.042 548.344 516.216 552.888 514.368 557.303C512.555 561.633 510.685 565.933 508.662 570.218C508.579 570.393 508.495 570.564 508.409 570.733C507.208 573.099 505.687 574.969 505.048 576.215C503.478 579.252 505.167 577.226 503.585 580.3C502.932 581.555 502.284 582.77 501.609 584.004C499.155 588.447 496.603 592.818 493.233 597.3C489.263 599.471 487.663 612.888 468.595 604.431C467.73 603.671 466.542 602.365 465.852 601.44C465.076 600.427 464.426 599.421 463.86 598.441C463.294 597.461 462.812 596.507 462.381 595.584C461.951 594.662 461.574 593.77 461.228 592.912C460.883 592.055 460.57 591.231 460.275 590.449C459.977 589.655 459.718 588.955 459.445 588.249C459.445 588.249 459.445 588.249 459.445 588.249C458.259 585.184 457.087 581.956 456.017 578.818C454.939 575.659 453.922 572.483 452.961 569.291C452.001 566.103 451.097 562.899 450.246 559.68C449.714 557.671 449.203 555.656 448.713 553.635C448.425 552.448 448.131 551.233 447.835 549.996C447.086 546.862 446.327 543.585 445.617 540.259C444.925 537.021 444.264 533.634 443.718 530.438C443.718 530.438 443.718 530.437 443.718 530.437C443.031 526.421 442.419 522.476 441.967 518.838C441.427 514.454 442.124 513.556 441.722 510.467C441.545 509.098 441.344 508.016 441.127 507.073C440.472 504.217 439.665 502.639 439.069 498.265C438.458 493.75 438.857 488.478 438.372 483.747C438.358 483.611 438.343 483.475 438.328 483.339C437.779 478.503 436.566 476.36 435.952 470.792C435.627 467.82 435.484 464.063 435.314 460.426C435.221 458.451 435.118 456.51 434.969 454.75C434.464 448.818 434.021 442.893 433.641 436.97C433.139 429.135 432.747 421.305 432.472 413.475C432.196 405.653 432.035 397.749 431.998 389.948C431.982 389.229 431.921 387.779 431.865 386.614C431.806 385.385 431.741 384.164 431.671 382.93C431.601 381.699 431.526 380.478 431.444 379.258C431.363 378.039 431.275 376.833 431.177 375.643C431.079 374.453 430.973 373.297 430.848 372.235C437.004 371.417 413.224 369.595 449.561 372.058C445.515 381.14 441.385 390.23 437.177 399.301C434.46 405.158 431.707 411.014 428.916 416.873C427.44 419.971 425.945 423.147 424.431 426.37C420.27 435.224 415.956 444.431 411.463 453.323C409.873 456.469 408.261 459.576 406.626 462.614C405.88 463.999 406.015 461.413 404.077 466.064C403.035 468.563 402.197 472.339 399.59 478.022C399.244 478.777 398.896 479.532 398.546 480.288C394.424 489.207 390.097 498.211 385.671 507.262C381.319 516.159 376.871 525.104 372.43 534.054C368.319 542.338 364.211 550.628 360.201 558.897C356.597 566.326 353.072 573.742 349.692 581.127C349.267 582.056 348.844 582.986 348.423 583.918C344.64 592.284 341.005 600.767 337.467 609.284C333.928 617.802 330.486 626.353 327.087 634.856C323.65 643.454 320.257 652.002 316.846 660.421C313.351 669.049 309.862 677.478 306.244 685.775C305.093 688.416 303.99 690.929 302.893 693.47C301.787 696.032 300.714 698.553 299.688 701.053C298.647 703.586 297.656 706.096 296.724 708.594C295.777 711.134 294.891 713.666 294.07 716.205C293.233 718.793 292.464 721.388 291.757 724.009C291.148 726.263 290.585 728.54 290.061 730.827C289.554 733.122 287.128 731.892 286.458 730.447C286.972 729.129 287.598 727.939 288.228 726.611C286.428 725.453 286.026 725.107 286.172 723.534C286.27 722.548 286.577 721.083 287.012 718.627C287.76 714.705 286.005 717.667 285.975 715.488C285.974 715.303 285.977 715.075 285.984 714.81C286.019 712.904 286.351 709.083 286.99 706.113C287.613 703.151 288.441 701.055 289.002 702.45C288.895 701.572 288.79 700.757 288.699 699.893C288.9 699.159 289.105 698.423 289.313 697.695C290.117 694.876 290.971 692.101 291.855 689.349C292.745 686.576 293.668 683.817 294.596 681.081C295.495 678.43 296.393 675.78 297.296 673.122C297.812 671.601 297.257 671.294 297.797 669.723C299.246 665.502 300.99 662.404 302.717 658.157C303.315 656.689 303.317 655.912 303.58 654.77C303.73 654.119 303.965 653.35 304.447 652.267C305.775 649.288 306.646 649.743 307.432 645.238C305.144 647.404 311.117 635.904 312.922 631.681C313.032 631.422 313.309 630.303 313.693 628.901C314.218 626.978 314.944 624.521 315.699 623.017C317.006 620.404 319.469 616.658 320.969 612.387C321.672 610.384 321.42 608.859 322.324 606.763C322.796 605.667 323.746 604.594 324.562 603.363C324.844 602.938 325.11 602.495 325.335 602.025C326.211 600.193 327.479 595.941 327.809 595.207C328.99 592.552 328.134 595.687 328.993 593.896C331.348 588.973 333.976 583.625 336.486 578.328C338.387 574.316 340.22 570.333 341.814 566.583C342.269 565.514 341.01 566.697 341.056 566.549C343.713 559.085 342.668 563.244 344.089 561.562C344.774 560.751 346.645 556.936 348.238 553.239C349.847 549.502 351.172 545.883 350.695 545.596C352.142 545.768 352.622 542.287 352.958 541.483C354.267 538.354 355.063 539.466 356.134 536.34C356.527 535.193 354.793 536.968 355.369 535.808C356.622 533.281 358.639 531.39 360.427 528.379C360.669 527.973 360.905 527.547 361.136 527.095C361.604 526.179 361.225 525.629 362.024 523.984C362.825 522.337 366.741 515.7 364.126 518.381C366.997 514.589 366.912 513.513 369.245 508.628C369.837 507.391 371.432 506.191 372.414 503.427C372.724 502.553 372.022 502.185 372.443 501.037C372.472 500.958 372.506 500.876 372.547 500.789C373.975 497.707 376.179 495.206 378.044 491.319C380.655 485.882 383.019 480.008 385.619 474.247C386.494 472.306 387.397 470.378 388.346 468.484C389.369 466.441 389.947 467.339 391.365 464.335C391.572 463.892 392.553 459.935 393.587 457.884C394.21 456.65 397.721 450.387 398.367 449.095C398.68 448.469 398.849 447.961 398.949 447.528C399.188 446.485 399.028 445.878 399.526 445.089C401.559 441.864 401.454 445.157 401.766 440.289C403.278 439.34 404.303 436.884 405.75 436.613C405.203 434.656 407.191 433.362 408.045 430.45C408.898 427.537 407.609 424.238 410.403 424.72C410.544 424.014 411.108 422.244 411.683 420.534C412.258 418.823 412.845 417.171 413.036 416.704C414.163 413.954 414.193 415.713 415.03 413.632C415.178 413.266 414.535 413.427 415.632 411.144C416.356 409.648 421.42 398.574 421.781 397.94C425.94 390.716 420.387 402.271 420.153 404.136C419.888 404.363 419.623 404.587 419.351 404.835C417.611 408.071 419.541 406.656 420.476 405.255C421.412 403.853 422.219 400.809 423.14 399.709C423.599 399.161 424.703 400.13 423.689 401.957C425.003 400.105 424.162 403.066 424.897 402.431C425.408 401.988 427.306 398.183 428.449 395.36C429.11 393.73 429.52 392.428 429.27 392.294C428.861 393.166 428.415 394.156 427.969 395.143C427.548 396.073 427.126 397.002 426.734 397.832C425.536 398.739 424.669 396.674 424.802 393.713C424.919 391.124 425.799 387.851 427.897 385.272C431.153 381.259 428.747 389.206 432.565 377.964C431.774 379.601 431.03 380.952 430.303 382.436C429.311 382.183 431.419 380.193 431.69 378.801C431.818 378.132 429.495 381.571 430.729 378.234C433.293 376.037 432.928 373.301 434.995 368.617C434.651 370.021 434.305 371.427 433.96 372.831C438.441 365.353 430.568 383.853 437.956 368.719C437.175 370.589 436.344 372.424 435.579 374.312C436.464 373.627 437.239 375.702 437.899 375.028C439.407 373.491 440.3 370.757 441.309 368.39C438.718 369.582 439.482 367.822 439.426 368.705C439.615 369.768 439.065 369.187 439.083 369.275C439.254 370.505 439.62 370.521 439.883 371.172C439.949 371.346 440.007 371.571 440.046 371.86C440.137 372.533 440.178 373.678 440.186 374.911C440.196 376.251 440.169 377.672 440.166 378.692C440.164 379.301 440.171 379.764 440.2 379.969C440.487 382.063 441.366 378.874 441.561 378.602C441.576 378.582 441.587 378.578 441.594 378.592C441.595 378.595 441.596 378.597 441.597 378.599C442.095 379.635 442.056 381.514 442.297 382.358C442.384 382.665 442.509 382.834 442.71 382.783C442.692 382.641 442.674 382.493 442.656 382.338C442.53 381.271 442.412 379.964 442.298 378.554C442.2 377.331 442.106 376.042 442.015 374.763C441.919 373.433 441.831 372.148 441.736 370.954C440.999 369.57 443.173 367.415 439.306 367.5C438.67 368.541 438.383 368.675 438.745 367.251C444.954 366.961 441.699 369.249 443.026 370.803C443.19 371.618 443.353 372.549 443.516 373.594C443.737 372.105 444.016 371.133 444.341 370.648C444.606 370.262 444.908 370.225 445.222 370.545C445.699 371.033 446.194 372.356 446.545 374.395C446.682 375.19 446.799 376.102 446.887 377.123C446.924 377.545 446.953 377.92 446.975 378.251C447.244 382.539 446.504 379.883 445.974 382.16C445.944 382.287 445.915 382.428 445.886 382.586C445.856 382.746 445.852 384.272 445.88 386.002C445.899 387.327 445.944 388.691 445.998 389.948C446.033 390.915 446.114 391.618 446.261 391.733C445.032 391.408 443.951 394.053 442.679 392.281C442.557 392.112 442.543 390.632 442.267 389.948C442.117 389.593 441.891 389.454 441.544 389.866C441.518 389.893 441.49 389.921 441.46 389.948C440.918 390.598 439.887 392.091 439.268 391.836C439.723 392.523 440.235 393.241 440.711 393.937C440.871 398.944 440.398 399.659 439.587 402.414C439.938 402.282 441.385 399.734 440.988 403.582C440.965 403.78 440.434 403.957 440.204 405.915C439.748 409.872 439.606 410.706 437.981 407.701C438.273 409.976 438.36 411.758 438.346 413.324C438.314 417.388 437.582 420.024 438.184 426.077C440.13 424.326 439.498 421.404 438.902 413.725C439.137 413.551 439.372 413.422 439.608 413.292C439.842 413.162 440.077 413.031 440.313 412.854C440.301 412.997 440.29 413.137 440.279 413.274C439.522 422.965 439.502 418.138 440.653 423.81C440.933 425.218 441.008 432.776 442.25 430.197C442.538 429.59 442.31 424.909 442.835 425.426C442.93 425.527 443.413 431.204 443.311 431.711C442.289 436.727 441.044 430.85 441.26 436.58C441.322 438.129 441.493 440.525 441.836 444.208C441.881 444.686 442.475 444.818 442.613 445.747C442.873 447.493 442.199 447.558 442.455 449.116C442.713 450.676 443.768 452.785 443.096 455.201C441.876 459.629 440.256 449.502 440.813 444.909C439.752 444.039 439.689 451.843 440.085 460.061C440.46 468.164 441.296 476.655 441.479 477.642C443.071 486.335 441.226 471.791 441.742 470.989C441.95 470.655 444.928 470.552 442.687 467.033C442.023 465.988 441.66 470.617 441.112 467.92C440.567 465.219 441.534 466.227 441.578 466.024C441.729 465.329 441.172 462.457 441.267 462.07C441.471 461.224 441.705 460.506 441.946 459.919C442.965 457.443 444.096 457.302 443.608 459.792C443.401 460.853 442.902 462.392 441.985 464.441C443.206 467.696 444.101 459.927 445.08 464.014C446.271 468.972 445.256 472.754 445.252 473.394C445.241 481.031 446.38 472.12 446.648 481.417C446.799 486.138 444.943 475.969 445.602 483.011C445.668 483.697 445.758 484.546 445.878 485.587C447.044 495.409 447.164 490.021 448.798 490.564C449.182 490.693 450.225 496.01 449.256 488.718C448.827 488.556 448.249 488.224 447.824 487.799C447.907 486.333 449.032 483.983 449.465 482.618C449.572 482.279 449.636 482.001 449.631 481.81C449.506 477.127 448.476 477.451 449.463 474.59C448.283 476.677 448.805 473.411 448.411 472.239C446.96 467.886 447.056 473.751 447.582 463.645C447.047 464.999 446.518 466.23 445.988 467.547C445.864 466.348 445.741 465.149 445.622 463.949C446.305 462.918 446.42 460.586 446.681 459.557C446.826 458.983 447.014 458.815 447.369 459.505C447.554 459.864 447.784 460.457 448.079 461.347C448.065 460.678 448.049 460.048 448.029 459.454C447.847 453.865 447.348 451.468 446.263 450.158C446.034 449.883 445.881 448.845 445.784 447.62C445.49 447.871 444.555 448.229 444.426 448.043C443.286 446.375 444.903 443.581 445.636 444.456C445.617 443.596 445.616 442.915 445.618 442.674C445.635 441.149 446.422 444.092 446.56 442.848C446.602 442.439 446.231 438.166 446.479 438.07C447.76 437.582 447.479 442.2 447.43 436.265C447.421 434.914 447.427 433.018 447.482 430.392C446.005 430.115 446.641 436.67 445.014 435.06C443.26 433.325 445.322 429.52 443.25 428.801C443.573 428.485 443.846 428.34 444.217 428.065C443.095 422.363 444.803 422.222 445.115 420.461C445.362 419.084 445.416 415.741 445.339 413.144C445.238 409.689 444.874 407.553 444.311 413.17C444.246 413.832 444.179 414.602 444.111 415.49C444.034 414.725 443.97 413.953 443.91 413.181C443.809 411.884 443.721 410.582 443.612 409.302C446.658 408.772 445.433 410.037 445.762 400.207C445.841 398.043 447.175 397.333 445.57 395.22C446.722 395.428 446.493 392.004 446.381 389.948C446.334 389.105 446.279 388.517 446.325 388.373C446.712 386.984 447.269 387.785 447.646 389.948C448.242 393.294 448.364 399.528 446.614 400.714C447.719 403.096 446.298 403.106 446.532 405.783C446.828 409.12 447.086 409.969 446.549 413.113C446.465 413.61 446.361 414.165 446.235 414.796C446.735 416.192 446.936 414.998 447.054 413.1C447.311 408.903 447.205 401.278 448.738 410.505C448.853 411.19 448.971 412.043 449.093 413.047C449.673 417.855 450.332 426.14 451.197 436.072C451.809 443.119 452.525 450.995 453.344 459.048C454.121 466.712 454.991 474.535 455.895 481.963C456.914 490.345 457.977 498.222 458.926 504.805C459.845 511.181 460.653 516.349 461.172 519.573C461.615 522.331 462.056 524.988 462.493 527.555C462.493 527.555 462.493 527.555 462.493 527.555C463.048 530.809 463.618 533.771 464.227 536.708C464.886 539.874 465.572 542.889 466.282 545.802C467.039 548.908 467.823 551.896 468.637 554.818C469.481 557.843 470.357 560.798 471.281 563.739C472.202 566.671 473.17 569.589 474.21 572.546C475.22 575.413 476.25 578.196 477.435 581.209C477.435 581.209 477.435 581.209 477.435 581.209C477.752 582.014 478.066 582.848 478.343 583.573C478.621 584.299 478.885 584.981 479.144 585.618C479.399 586.242 479.649 586.823 479.895 587.347C480.135 587.86 480.373 588.319 480.596 588.705C480.815 589.084 481.02 589.392 481.19 589.614C481.443 589.921 481.273 589.749 481.538 590.017C481.543 590.022 481.549 590.027 481.554 590.032C477.39 586.019 472.254 591.382 477.896 585.702C480.375 582.716 482.417 579.937 482.057 582.051C482.003 582.79 477.61 590.086 482.927 584.823C481.435 585.664 483.41 581.697 483.527 581.283C484.771 577.621 484.831 576.293 485.141 574.993C485.501 573.307 486.274 571.742 489.774 564.553ZM520.788 531.039C513.254 548.574 519.584 536.011 520.477 540.663C521.419 538.37 522.343 536.094 523.267 533.833C522.862 534.402 522.508 534.847 522.102 535.421C522.101 535.424 522.1 535.426 522.099 535.429C521.658 533.97 521.243 532.447 520.788 531.039ZM554.313 651.964C554.107 651.172 553.898 650.388 553.708 649.539C554.242 647.078 554.767 644.633 555.28 642.187C555.458 642.519 555.64 642.842 555.818 643.174C555.321 646.091 554.803 649.01 554.313 651.964ZM440.284 442.252C440.867 439.382 439.956 439.038 439.801 436.655C439.76 436.019 439.774 435.239 439.886 434.229C438.674 434.872 437.493 435.582 436.296 436.261C436.316 436.459 436.337 436.649 436.358 436.831C436.723 439.988 437.179 440.907 437.112 444.657C437.483 444.174 437.856 443.68 438.231 443.208C438.107 442.556 437.97 441.862 437.859 441.23C438.914 440.158 439.445 446.443 440.287 442.265C440.286 442.26 440.285 442.256 440.284 442.252ZM438.415 405.508C438.533 403.576 439.06 395.911 438.549 394.874C436.75 391.326 438.105 412.968 436.376 397.025C436.131 397.1 435.891 397.029 435.649 397.03C435.586 399.944 435.549 402.859 435.531 405.788C436.493 405.615 437.448 405.703 438.415 405.508ZM490.368 594.371C490.261 594.505 490.135 594.666 489.993 594.85C492.156 599.333 467.599 606.783 475.71 605.489C483.453 606.649 487.649 598.489 489.19 596.866C490.17 595.708 489.929 597.065 491.012 595.621C491.181 595.391 491.382 595.086 491.624 594.68C491.227 594.577 490.83 594.402 490.365 594.38C490.366 594.377 490.367 594.374 490.368 594.371ZM489.432 586.785C488.433 588.556 487.416 590.289 486.254 592.023C485.693 592.866 485.025 593.79 484.415 594.565C485.222 594.215 486.131 593.331 486.888 592.502C488.186 591.08 489.23 589.642 490.05 589.976C489.644 590.772 489.291 591.469 488.829 592.292C488.396 592.544 487.97 592.779 487.547 593.001C487.339 593.11 487.132 593.216 486.925 593.318C485.672 595.952 487.364 594.981 483.211 598.651C486.068 598.153 487.666 597.973 489.759 594.673C490.527 593.423 491.304 591.749 492.128 589.39C492.15 591.408 496.236 592.11 496.483 586.481C496.515 585.468 494.324 588.514 494.198 588.539C493.061 588.529 493.641 586.389 492.523 586.452C492.019 586.493 490.822 588.425 490.159 588.371C489.842 588.351 490.288 586.14 489.432 586.785ZM496.852 583.974C496.877 584.706 498.088 584.057 499.258 582.718C499.887 581.999 500.476 581.129 500.867 580.177C502.191 576.889 499.79 579.646 498.07 582.068C497.568 582.779 497.127 583.458 496.852 583.974ZM554.311 651.98C554.312 651.975 554.312 651.969 554.313 651.964C554.314 651.967 554.315 651.97 554.315 651.973C554.314 651.975 554.313 651.978 554.311 651.98ZM437.957 415.484C437.793 414.826 437.675 414.073 437.572 413.344C437.32 411.567 437.157 409.925 436.595 410.114C436.727 409.002 436.859 407.878 436.995 406.767C436.755 406.782 436.515 406.807 436.278 406.822C436.221 409.01 436.171 411.195 436.129 413.381C436.106 414.532 436.086 415.684 436.068 416.836C436.697 416.399 437.329 415.993 437.957 415.484ZM437.671 379.505C437.66 379.263 437.647 379.048 437.632 378.857C437.378 375.8 436.593 378.856 436.043 378.045C435.726 377.581 435.63 376.283 435.483 375.293C435.362 374.469 435.205 373.838 434.881 374.061C434.914 374.484 434.944 374.902 434.974 375.334C435.057 376.542 435.13 377.775 435.196 379.015C435.237 379.793 435.276 380.568 435.312 381.342C436.092 380.652 436.896 380.153 437.67 379.497C437.67 379.5 437.67 379.502 437.671 379.505ZM555.303 462.108C553.714 464.291 553.51 462.947 551.647 468.137C551.649 468.134 551.651 468.13 551.653 468.127C554.175 464.779 557.195 460.667 559.664 456.826C560.322 455.809 560.86 454.927 561.421 453.976C560.455 454.729 559.774 455.487 559.086 456.425C557.927 458.005 556.961 459.862 555.303 462.108ZM438.465 452.323C439.199 453.475 439.373 447.863 438.694 446.67C437.584 444.735 437.34 450.563 438.465 452.323ZM569.912 533.331C571.913 537.646 574.229 529.489 573.231 520.944C573.145 520.206 572.507 525.721 572.112 524.087C572.076 523.932 572.113 521.289 571.888 520.327C571.872 520.258 571.854 520.198 571.835 520.148C571.552 519.399 570.9 520.187 570.623 518.96C570.14 516.81 571.012 511.942 570.376 510.333C570.291 510.12 569.427 513.142 569.395 513.33C568.876 516.429 570.026 519.409 570.034 519.889C570.037 520.048 570.036 520.194 570.031 520.331C569.965 522.309 569.167 522.022 568.97 522.605C568.575 523.779 568.972 525.847 568.942 525.993C568.204 529.497 568.359 522.204 568.107 520.334C568.091 520.21 568.073 520.11 568.053 520.038C567.173 516.934 566.372 519.812 565.856 512.366C565.808 511.658 565.828 503.193 564.864 513.865C563.283 498.655 563.404 511.097 563.744 520.341C563.873 523.827 564.03 526.862 564.155 527.795C564.367 529.369 565.224 526.988 565.607 527.942C566.485 530.123 566.628 533.838 567.868 533.511C570.478 532.802 568.783 527.911 569.219 524.546C569.785 524.899 570.337 525.034 570.89 525.689C570.149 524.681 569.766 533.018 569.907 533.331C569.908 533.331 569.91 533.331 569.912 533.331ZM566.385 480.401C566.756 477.334 566.191 476.43 565.952 474.986C565.822 474.207 565.786 473.27 566.033 471.746C564.718 468.845 564.744 472.778 564.792 475.046C564.805 475.68 564.821 476.184 564.812 476.375C564.662 479.775 563.465 480.258 563.531 482.822C563.541 483.263 563.589 483.766 563.684 484.356C564.035 483.799 564.389 483.279 564.742 482.772C565.292 481.984 565.842 481.226 566.385 480.401ZM566.267 521.225C566.135 520.731 566.024 520.454 565.931 520.338C565.858 520.247 565.795 520.256 565.741 520.338C565.428 520.818 565.406 523.772 565.291 523.937C564.578 524.987 564.224 522.585 564.226 520.341C564.228 517.418 564.84 514.759 566.079 520.337C566.14 520.613 566.203 520.909 566.267 521.225ZM471.008 596.132C470.248 594.89 470.082 595.627 469.445 595.192C469.322 595.105 469.184 594.972 469.026 594.767C468.742 594.399 468.386 593.701 468.057 592.915C467.722 592.12 467.413 591.237 467.151 590.501C466.79 589.482 466.506 588.742 466.333 588.862C466.207 588.951 466.3 589.823 466.43 590.794C466.71 592.793 467.161 595.261 465.161 591.311C464.941 590.854 464.7 590.314 464.438 589.691C464.29 590.082 464.058 590.06 463.878 590.293C464.045 590.728 464.219 591.172 464.4 591.621C464.729 592.437 465.084 593.274 465.481 594.126C465.878 594.978 466.318 595.845 466.822 596.718C467.059 597.129 467.311 597.541 467.581 597.952C467.501 597.418 467.448 596.89 467.415 596.373C467.344 595.262 467.367 594.201 467.431 593.209C467.443 593.031 467.456 592.855 467.47 592.681C467.6 592.799 467.712 592.916 467.808 593.032C468.597 593.975 468.363 594.883 468.399 594.953C468.399 594.952 468.4 594.952 468.401 594.951C468.521 595.159 468.654 595.367 468.798 595.569C469.407 596.433 470.222 597.195 470.857 597.581C471.681 598.074 472.112 598.002 471.56 597.039C471.428 596.799 471.244 596.501 471.008 596.132ZM535.79 495.874C534.657 494.956 534.519 496.906 534.398 498.624C534.35 499.321 534.294 500.001 534.168 500.441C533.729 501.958 532.186 503.533 533.294 503.184C534.05 502.236 534.712 500.491 535.154 498.98C535.625 497.371 535.882 495.947 535.788 495.873C535.789 495.873 535.79 495.874 535.79 495.874ZM565.014 454.877C564.742 453.326 564.504 452.489 564.336 451.746C564.228 450.974 564.208 450.54 564.211 449.992C564.217 449.593 564.248 449.157 564.3 448.635C564.336 448.264 564.383 447.85 564.428 447.394C564.444 447.22 564.46 447.041 564.474 446.86C564.005 447.041 563.522 447.21 563.053 447.368C563.055 447.395 563.056 447.422 563.057 447.45C563.076 447.866 563.108 448.258 563.155 448.615C563.219 449.111 563.312 449.54 563.413 449.959C563.538 450.472 563.646 450.871 563.784 451.773C564.002 452.587 564.131 453.599 564.003 455.347C563.949 456.081 562.747 454.58 563.283 457.851C563.827 456.862 564.437 455.857 565.014 454.877ZM563.159 449.508C565.362 447.37 565.849 442.37 561.433 448.102C560.838 449.111 561.249 451.657 563.159 449.508ZM499.509 571.791C495.927 578.675 500.469 571.096 501.863 569.51C495.459 583.236 500.365 572.771 503.537 568.42C504.171 567.556 504.744 566.94 505.171 566.807C505.6 564.555 506.129 560.252 503.9 564.283C502.964 565.958 503.796 565.575 503.746 565.679C503.194 566.744 502.745 567.352 502.322 567.844C501.494 568.8 500.783 569.289 499.509 571.791ZM566.789 488.531C566.751 488.243 566.091 488.715 565.928 487.801C565.767 486.888 566.163 484.79 565.741 484.599C565.321 484.412 565.145 488.588 565.476 489.855C565.541 490.098 565.641 490.294 565.758 490.435C566.028 490.76 566.389 490.792 566.619 490.413C566.812 490.096 566.913 489.491 566.789 488.531ZM566.997 458.962C566.6 456.776 565.73 457.942 565.071 459.5C564.578 460.667 564.202 462.051 564.228 462.409C564.7 468.776 565.833 461.379 566.649 459.413C566.774 459.112 566.891 458.939 566.997 458.962ZM503.196 553.771C500.904 561.67 504.322 558.537 507.59 554.354C508.031 553.79 508.467 553.209 508.893 552.619C508.955 551.8 509.02 550.969 509.071 550.176C509.143 552.085 508.904 554.671 509.2 555.054C509.232 555.098 509.27 555.117 509.316 555.105C509.67 555.024 510.538 552.996 512.304 547.179C509.031 553.944 511.092 547.959 511.016 547.898C509.324 546.552 507.329 551.407 505.456 553.425C504.659 554.287 503.888 554.638 503.199 553.763C503.198 553.766 503.197 553.768 503.196 553.771ZM566.26 500.988C566.29 505.033 566.844 515.542 568.124 510.632C567.504 507.415 566.882 504.207 566.26 500.988ZM452.094 505.752C452.097 505.726 452.099 505.7 452.101 505.675C452.409 502.342 452.027 499.348 451.514 495.35C450.866 499.108 450.462 496.737 450.057 495.54C449.445 493.725 450.002 498.229 449.934 498.25C448.908 498.29 448.398 495.43 449.215 501.978C448.661 500.403 448.111 498.846 447.568 497.266C448.084 502.002 447.656 503.381 447.26 506.291C447.237 506.458 447.215 506.629 447.193 506.805C447.293 506.596 447.383 506.417 447.466 506.265C447.979 505.324 448.184 505.449 448.346 506.153C448.573 507.144 448.719 509.29 449.528 511.23C450.264 512.994 451.924 507.459 452.093 505.74C452.093 505.744 452.094 505.748 452.094 505.752ZM498.911 562.319C498.839 563.331 498.912 564.326 498.892 565.334C498.788 565.578 498.683 565.823 498.578 566.067C498.285 566.747 497.99 567.426 497.695 568.102C497.355 568.075 497.01 568.023 496.672 568.019C496.013 569.163 496.634 568.897 496.5 569.268C496.498 569.268 496.497 569.267 496.495 569.266C494.831 573.785 493.733 575.933 491.62 578.538C491.248 578.996 490.847 579.463 490.407 579.949C491.258 580.427 492.108 580.905 492.959 581.382C493.207 580.823 493.458 580.255 493.708 579.681C493.869 579.313 494.018 578.967 494.169 578.613C493.957 577.902 493.743 577.188 493.527 576.476C494.328 575.579 495.093 574.725 495.876 573.825C496.13 572.912 496.449 571.834 496.636 571.043C501.13 568.129 494.808 576.678 495.717 577.254C496.303 577.63 500.237 569.961 501.07 567.249C501.166 566.953 501.227 566.718 501.247 566.56C501.271 566.333 498.469 567.525 501.064 564.488C501.462 564.017 505.56 565.661 504.051 560.381C503.833 559.634 500.502 560.397 498.911 562.319ZM479.091 592.993C483.368 592.187 475.212 597.326 476.773 595.344C476.404 595.061 476.26 595.079 476.508 595.639C476.636 595.945 476.89 596.299 477.098 596.507C475.252 597.023 474.582 596.978 476.79 598.888C477.055 599.152 474.884 598.847 475.071 598.855C478.026 601.215 481.363 598.018 481.824 599.147C482.504 598.589 482.93 598.157 483.484 597.569C480.462 598.766 483.684 595.087 483.927 593.141C484.1 592.297 482.881 593.536 483.016 592.817C483.04 592.638 484.336 591.314 484.549 590.733C484.595 590.62 484.606 590.531 484.566 590.482C484.411 590.294 484.158 590.2 483.832 590.191C483.001 590.131 481.583 590.807 480.127 591.707C480.126 591.707 480.126 591.706 480.125 591.706C479.755 592.185 479.486 592.553 479.091 592.993ZM535.592 481.891C536.015 481.842 536.459 481.624 536.856 481.406C537.781 480.898 538.457 480.391 538.055 482.009C537.88 482.718 537.498 483.84 536.85 485.553C537.294 485.344 537.742 485.125 538.186 484.918C538.55 484.144 538.909 483.387 539.275 482.621C539.468 482.217 539.664 481.809 539.863 481.396C537.575 475.74 545.58 471.68 540.527 474.3C539.977 474.584 538.887 477.54 539.46 474.362C539.457 474.366 539.454 474.369 539.452 474.372C537.892 477.944 537.956 478.874 536.236 481.094C536.045 481.342 535.831 481.606 535.592 481.891ZM524.274 508.313C523.145 518.705 531.593 496.636 529.19 499.886C528.966 500.142 525.362 509.708 524.274 508.313ZM568.103 439.797C557.913 438.886 561.333 443.306 561.468 442.784C561.854 442.89 565.854 440.817 566.519 441.76C567.905 442.635 564.633 441.721 566.368 442.782C566.413 442.816 566.516 442.88 566.657 442.984C566.963 443.178 567.388 443.725 567.555 444.339C567.692 444.784 567.765 445.286 567.799 445.804C567.83 446.28 567.828 446.772 567.809 447.256C567.789 447.752 567.752 448.239 567.71 448.695C567.661 449.231 567.607 449.723 567.566 450.129C567.503 450.731 567.477 451.15 567.494 451.229C567.523 451.378 567.56 451.498 567.604 451.586C567.872 452.14 568.261 451.901 568.619 451.537C569.041 451.197 569.471 450.673 569.543 450.939C569.604 451.161 569.647 451.316 569.687 451.485C570.007 453.181 569.61 455.17 570.313 455.599C571.948 456.604 570.21 452.509 570.005 451.469C569.996 451.44 569.991 451.413 569.99 451.39C569.967 451.037 570.032 450.544 570.117 450.233C570.286 449.587 570.568 449.249 570.798 448.749C570.94 448.433 571.064 448.051 571.104 447.453C571.111 447.341 571.116 447.231 571.119 447.121C571.135 446.502 571.084 445.917 570.976 445.324C570.85 444.665 570.673 444.004 570.32 443.203C570.003 442.546 569.556 441.576 568.311 440.692C568.201 440.618 568.124 440.564 568.067 440.516C567.674 440.158 568.417 439.973 568.103 439.797ZM555.213 451.554C556.011 449.358 554.511 450.145 552.647 451.962C550.866 453.656 548.901 456.247 548.685 456.897C547.619 460.102 552.107 455.771 554.253 453.075C554.729 452.461 555.076 451.936 555.213 451.554ZM490.75 584.322C492.045 580.236 486.462 588.24 485.027 590.553C485.727 590.425 490.318 585.826 490.75 584.322ZM504.221 551.426C503.958 552.193 503.928 552.626 504.053 552.814C504.108 552.896 504.192 552.93 504.301 552.922C505.127 552.887 507.386 550.338 508.246 548.24C507.668 545.927 507.234 547.694 506.348 549.617C505.462 551.532 505.208 548.542 504.221 551.426ZM571.941 490.665C571.941 490.602 571.933 490.469 571.917 490.279C571.807 488.873 571.253 484.387 570.76 482.523C570.504 481.548 570.277 481.287 570.157 482.548C570.121 482.925 570.095 483.439 570.078 484.11C570.071 484.441 570.245 487.525 570.405 490.317C570.535 492.536 570.659 494.571 570.761 494.889C571.225 496.336 571.936 492.84 571.941 490.665ZM509.408 533.478C509.813 535.781 508.999 537.729 511.073 536.495C511.075 536.492 511.076 536.49 511.077 536.487C510.627 537.937 510.068 538.877 509.476 539.549C508.085 541.068 506.568 540.86 506.306 541.61C505.021 545.276 508.399 542.68 508.089 545.227C509.197 541.382 509.899 541.155 510.784 540.086C511.17 539.603 511.607 538.917 512.106 537.765C512.504 536.846 513.187 532.884 512.889 532.201C512.591 531.52 510.418 532.644 509.408 533.478ZM572.409 509.805C572.866 505.238 570.839 501.072 570.547 507.401C570.403 510.489 572.131 512.593 572.409 509.805ZM445.395 398.832C444.875 399.53 444.359 400.25 443.846 401.003C443.698 399.325 443.552 397.644 443.411 395.964C443.587 397.292 443.763 398.621 443.942 399.956C444.093 396.801 445.042 395.358 445.395 398.824C445.395 398.827 445.395 398.829 445.395 398.832ZM403.575 440.035C402.523 441.105 402.78 444.292 403.04 444.022C404.984 441.991 405.035 438.549 403.575 440.035ZM483.471 586.87C482.478 588.174 482.24 588.855 482.461 589.155C482.503 589.213 482.562 589.256 482.635 589.286C483.291 589.597 485.281 588.535 486.389 587.03C484.928 588.336 485.138 584.627 483.471 586.87ZM420.153 404.136C420.547 403.797 420.944 403.455 421.362 403.065C420.398 404.452 420.092 404.629 420.153 404.136ZM574.136 488.438C574.265 487.84 574.279 484.456 574.151 482.384C574.105 481.63 574.044 481.049 573.97 480.836C573.653 479.94 573.156 480.921 572.85 482.437C572.593 483.714 572.468 485.371 572.708 486.617C572.766 486.916 573.965 489.248 574.136 488.425C574.136 488.43 574.136 488.434 574.136 488.438ZM446.331 391.745C446.306 391.754 446.283 391.749 446.261 391.733C446.284 391.739 446.308 391.737 446.331 391.745ZM350.57 545.587C350.619 545.575 350.662 545.576 350.695 545.596C350.656 545.591 350.61 545.597 350.57 545.587ZM574.487 446.302C574.799 445.877 575.022 445.344 575.132 444.694C575.271 443.829 575.24 442.751 574.766 441.377C574.589 440.06 571.839 436.733 570.416 436.406C569.106 435.888 568.699 436.089 569.957 437.209C570.336 437.431 572.271 439.226 572.725 440.428C572.813 440.596 573.184 441.22 573.466 441.911C573.897 442.93 574.158 444.019 574.296 444.821C574.42 445.53 574.471 446.066 574.487 446.302Z" fill="#FF0000"/>
<path d="M727.232 524.275C728.54 519.056 729.89 513.739 731.278 508.369C733.964 497.978 736.794 487.39 739.721 476.93C742.436 467.224 745.233 457.628 748.067 448.397C748.534 446.873 748.925 446.232 749.239 445.861C749.54 445.504 749.772 445.397 749.935 444.997C750.848 442.77 750.451 441.154 750.997 439.495C753.647 431.433 755.989 423.858 758.58 415.959C758.703 415.584 758.822 415.236 758.938 414.913C761.338 408.223 762.277 412.2 763.563 409.621C766.198 404.34 762.067 408.279 762.092 405.907C764.127 399.564 766.304 393.213 768.463 386.897C768.266 388.535 768.062 390.171 767.84 391.819C768.709 389.047 770.292 385.174 769.652 390.056C770.15 389.081 770.661 388.183 771.162 387.178C770.768 386.927 770.794 385.863 770.915 384.684C770.915 384.684 770.915 384.684 770.915 384.684C771.075 383.124 771.397 381.364 771.134 381.009C770.671 380.387 770.005 383.203 769.958 383.171C769.276 382.776 773.567 371.671 773.888 370.864C773.896 370.846 773.903 370.829 773.91 370.811C774.747 368.789 775.429 371.001 775.879 369.142C776.662 365.916 773.525 367.309 778.127 363.965C777.535 361.933 778.144 361.947 778.853 359.795C778.945 359.512 778.25 359.55 778.27 359.419C778.764 355.991 779.197 358.864 779.265 358.865C779.66 358.87 779.984 358.454 780.253 357.873C780.778 356.736 781.095 354.97 781.309 354.498C782.905 350.959 784.333 347.796 785.685 344.666C787.501 340.467 789.175 336.327 790.968 331.427C791.219 330.741 791.473 330.04 791.73 329.323C792.467 327.231 794.171 320.672 795.061 318.703C795.214 318.359 795.353 318.118 795.481 317.949C796.08 317.163 796.453 317.936 797.053 317.18C795.798 314.866 796.153 313.179 798.718 309.857C797.892 307.972 798.9 308.541 799.621 305.774C799.726 305.376 799.808 304.913 799.885 304.41C799.957 303.974 800.045 303.489 800.172 302.962C800.285 302.481 800.413 302.002 800.576 301.514C800.735 301.04 800.92 300.572 801.14 300.117C801.36 299.662 801.618 299.219 801.875 298.851C800.697 294.158 805.207 307.593 806.049 303.064C805.751 303.103 805.238 303.199 804.787 303.176C805.266 302.962 805.664 302.756 805.857 302.645C798.853 297.916 804.164 298.956 802.518 299.295C802.365 299.702 802.234 300.133 802.057 300.681C801.935 301.061 801.785 301.505 801.597 302.053C801.5 302.335 801.397 302.637 801.281 302.978C801.254 303.06 801.196 303.205 801.125 303.387C800.997 303.712 800.821 304.168 800.644 304.695C799.512 308.015 797.254 315.109 798.598 314.835C799.458 314.659 800.101 310.795 800.288 310.702C801.347 310.166 801.553 312.523 800.588 314.198C800.592 313.696 800.627 313.101 800.645 312.566C798.251 316.261 802.918 314.781 798.62 316.72C798.092 316.962 797.731 316.671 797.092 317.153C797.221 317.342 797.919 316.724 797.766 317.412C797.693 317.743 797.372 318.141 797.121 318.514C796.84 318.931 796.645 319.317 796.974 319.543C797.381 319.825 797.718 319.391 797.979 318.81C798.3 318.095 798.508 317.158 798.581 317.054C798.575 317.049 798.57 317.045 798.565 317.041C799.519 315.691 798.855 317.978 798.588 319.02C798.525 319.267 798.483 319.443 798.489 319.485C798.703 320.899 799.464 320.246 799.368 322.22C799.313 323.345 798.263 325.902 798.04 326.901C797.82 327.893 798.79 326.557 798.679 327.237C798.568 327.916 797.941 328.601 797.811 329.399C797.757 329.741 798.295 329.898 798.262 330.062C797.919 331.814 797.171 330.348 796.742 331.901C796.663 332.191 796.603 332.702 796.584 333.229C796.537 334.533 796.737 335.937 797.477 334.373C797.232 335.511 796.969 336.611 796.707 337.737C797.085 337.094 797.419 336.412 797.82 335.797C796.91 337.781 797.531 339.005 797.195 340.321C796.859 341.638 795.4 342.462 795.497 344.057C795.699 347.456 797.494 339.745 798 338.879C798.194 338.54 798.614 340.207 798.572 340.43C798.381 341.419 797.415 342.36 797.215 343.108C796.725 344.946 796.723 346.404 796.575 347.971C796.508 348.685 796.411 349.423 796.224 350.23C795.39 353.823 794.451 357.768 793.486 361.744C792.343 366.45 791.161 371.202 790.057 375.462C789.817 376.39 789.58 377.294 789.349 378.17C788.531 381.258 787.08 382.844 786.708 384.231C786.064 386.633 786.271 387.599 786.11 389.086C786.11 389.086 786.11 389.086 786.11 389.086C786.053 389.607 785.951 390.194 785.75 390.929C784.602 395.133 782.185 400.829 781.015 404.276C780.205 406.664 780.339 409.076 780.174 409.71C779.306 413.072 778.313 416.694 777.301 420.291C775.659 426.125 773.967 431.889 772.668 436.361C771.681 439.761 770.342 441.122 770.163 441.831C769.393 444.879 770.372 444.286 769.586 446.71C769.163 448.019 768.377 448.059 768.298 448.228C767.646 449.642 768.374 450.237 768.172 451.342C768.162 451.4 768.149 451.459 768.133 451.52C766.288 458.555 763.745 465.108 761.692 472.003C761.543 472.503 761.142 472.341 761.071 472.672C760.777 474.098 761.612 473.633 761.247 475.106C760.656 477.499 759.927 479.906 759.168 482.369C758.956 483.059 758.741 483.753 758.527 484.452C758.43 484.769 757.858 484.764 757.654 485.493C757.451 486.224 757.802 486.918 757.455 488.057C756.552 491.034 755.133 493.827 754.233 496.995C754.085 497.52 754.55 498.346 754.329 499.133C753.634 501.6 752.064 505.108 751.477 507.225C750.908 509.275 750.393 511.288 749.906 513.277C748.735 518.064 747.729 522.707 746.546 527.376C746.151 528.927 745.206 530.153 744.988 530.958C744.5 532.773 745.41 531.54 744.95 533.386C744.026 537.102 743.1 540.819 742.18 544.543C739.615 554.932 737.123 565.288 734.884 575.854C734.662 576.902 734.441 577.95 734.219 578.999C733.698 581.471 733.224 584.164 732.759 586.876C732.109 590.664 731.481 594.483 730.757 597.791C730.718 597.967 730.679 598.143 730.639 598.317C730.098 600.708 729.226 600.992 728.899 602.692C728.398 605.359 729.052 606.245 728.917 608.592C728.899 608.913 728.867 609.262 728.816 609.647C728.475 612.191 727.015 614.939 726.728 617.588C726.663 618.184 726.657 618.714 726.684 619.21C726.78 620.92 727.247 622.241 727.106 624.572C727.012 626.131 726.686 628.053 726.45 629.936C726.31 631.048 726.201 632.145 726.179 633.14C726.126 635.621 726.129 637.94 726.189 640.484C726.189 640.484 726.189 640.484 726.189 640.484C726.199 640.454 726.223 640.868 726.254 641.266C726.283 641.672 726.315 642.111 726.345 642.569C726.375 643.026 726.404 643.501 726.427 644.002C726.45 644.505 726.468 645.034 726.472 645.63C726.471 646.243 726.478 646.858 726.372 647.924C723.884 645.445 733.652 659.459 708.908 654.6C707.065 652.844 705.02 650.456 703.522 648.433C701.939 646.315 700.551 644.171 699.287 642.039C698.024 639.906 696.886 637.785 695.821 635.698C694.757 633.611 693.766 631.557 692.81 629.553C691.855 627.552 690.936 625.602 690.019 623.727C689.08 621.811 688.252 620.172 687.267 618.396C683.582 611.786 679.941 605.147 676.349 598.388C674.215 594.373 671.873 590.198 669.583 585.936C667.21 581.519 664.898 577.016 662.94 572.519C662.579 571.689 664.098 572.415 662.505 569.998C661.648 568.698 659.861 567.22 658.075 564.104C656.036 560.546 654.045 556.893 652.092 553.181C646.389 542.339 641.005 530.966 635.61 519.756C633.236 514.825 630.859 509.925 628.443 505.11C625.311 498.869 621.975 492.649 618.686 486.391C612.783 475.167 607.024 463.783 602.89 452.169C598.542 439.981 596.003 427.527 596.967 415.368C597.086 413.889 599.625 414.006 600.503 414.627C600.227 415.498 599.849 416.339 599.526 417.267C602.72 417.445 601.897 417.478 602.665 421.168C603.144 423.437 603.876 421.303 604.571 422.382C605.454 423.793 609.075 430.471 606.743 429.697C607.214 430.036 607.66 430.344 608.12 430.671C610.036 435.729 612.19 440.536 614.502 445.304C614.903 446.127 615.509 445.954 615.922 446.802C616.012 446.985 616.096 447.167 616.177 447.348C617.091 449.404 617.422 451.291 618.322 453.504C618.855 454.811 619.603 454.734 620.224 456.473C620.848 458.209 619.917 458.532 621.836 460.482C622.371 458.508 624.247 465.624 625.331 467.994C625.484 468.341 627.698 470.767 628.226 472.324C628.756 473.888 629.099 476.474 630.494 478.649C630.974 479.397 631.685 479.765 632.253 480.365C632.46 480.583 632.648 480.832 632.8 481.14C633.2 481.954 632.947 483.262 633.391 484.322C633.834 485.384 635.44 487.384 635.641 487.792C636.366 489.268 635.118 487.846 635.564 488.879C637.725 493.86 640.188 499.69 642.878 504.343C643.208 504.915 643.376 503.817 643.434 503.886C646.107 507.553 644.312 505.778 644.337 507.113C644.353 507.958 646.108 511.471 647.622 513.672C648.423 514.839 649.152 515.639 649.503 515.484C648.391 516.347 650.199 517.564 650.462 517.985C651.482 519.625 650.246 519.838 651.433 521.328C651.868 521.874 651.972 520.318 652.289 520.982C653.074 522.624 652.68 524.678 653.695 526.888C653.939 527.421 654.539 527.32 655.008 528.251C655.474 529.183 656.903 533.375 657.032 531.021C657.416 533.82 658.141 534.04 659.577 536.769C659.941 537.461 659.598 538.789 660.645 540.116C660.999 540.564 661.781 540.121 662.191 540.862C663.097 542.49 663.184 544.447 664.216 546.531C664.256 546.613 664.298 546.694 664.341 546.776C666.492 550.843 669.439 554.811 671.579 559.113C672.16 560.282 671.212 560.439 672.125 562.103C672.261 562.346 674.062 563.958 674.642 565.137C674.99 565.848 676.521 569.678 676.891 570.42C677.502 571.644 678.382 571.426 678.602 572.16C679.239 574.283 677.266 573.41 680.079 574.804C679.653 576.029 680.49 577.305 679.687 578.321C680.503 578.383 680.757 578.846 680.98 579.454C681.19 580.024 681.373 580.722 681.969 581.338C683.203 582.613 686.114 582.577 683.938 584.295C684.625 584.829 686.811 587.513 687.134 587.996C688.079 589.415 686.97 589.001 687.694 590.065C687.821 590.253 688.154 589.791 688.828 591.075C689.268 591.914 692.699 597.996 692.842 598.39C694.489 602.921 691.114 596.395 690.116 595.78C690.154 595.55 690.194 595.321 690.224 595.08C689.396 593.134 688.971 594.753 689.207 595.715C689.443 596.677 690.777 597.964 690.834 598.841C690.861 599.279 689.52 599.762 689.078 598.643C689.333 599.965 688.074 598.678 687.971 599.317C687.857 600.017 690.576 605.067 691.262 604.711C690.757 603.768 690.074 602.622 689.565 601.665C690.032 599.767 696.158 601.24 696.51 605.574C696.769 608.72 693.522 605.136 697.832 610.477C697.366 609.545 697.041 608.717 696.623 607.866C697.451 607.281 697.243 609.163 697.912 609.693C698.236 609.946 697.703 607.557 698.912 609.209C698.738 610.199 699.02 610.839 699.514 611.467C700.141 612.268 701.123 613.116 701.914 614.633C701.298 613.996 700.667 613.348 700.038 612.731C701.535 617.721 695.649 607.503 699.764 616.461C699.194 615.44 698.652 614.381 698.021 613.381C697.833 614.139 696.036 614.095 695.993 614.699C695.871 616.261 697.209 617.718 697.855 619.203C698.137 619.846 697.568 619.641 697.592 619.695C697.636 619.797 697.682 619.881 697.728 619.952C698.078 620.488 698.48 620.205 698.836 620.863C699.346 621.799 700.121 624.845 700.396 625.271C701.106 626.369 701.284 623.9 701.419 623.974C701.811 624.195 702.083 624.657 702.323 625.07C702.624 625.588 702.873 626.025 703.239 625.797C703.07 625.534 702.89 625.229 702.701 624.891C701.733 623.156 700.576 620.599 699.931 618.873C699.215 616.965 699.178 616.049 700.901 618.398C701.284 618.927 701.75 619.617 702.308 620.5C702.145 617.305 704.075 617.325 706.015 621.108C706.607 622.266 706.756 622.744 706.719 622.997C706.656 623.423 706.056 623.199 706.11 624.422C706.12 624.683 707.782 628.981 708.372 628.939C707.79 629.127 707.418 629.662 707.004 630.12C706.623 630.54 706.206 630.896 705.549 630.845C705.469 630.839 705.386 630.827 705.299 630.808C705.064 630.76 704.291 629.014 703.668 630.06C703.353 630.583 702.783 631.943 702.131 632.093C702.327 632.146 702.531 632.198 702.737 632.248C703.143 632.348 703.56 632.444 703.96 632.541C705.393 635.057 705.168 635.635 705.208 637.456C705.478 637.213 706.056 635.217 706.755 637.378C706.772 637.436 706.67 637.558 706.615 637.817C706.563 638.059 706.553 638.421 706.725 638.963C707.467 641.219 707.636 641.754 705.331 641.018C706.781 642.643 707.499 643.872 708.128 645.094C708.96 646.671 709.637 648.326 711.977 650.379C712.658 648.432 711.298 647.441 708.79 644.614C708.533 644.32 708.263 644.005 707.986 643.668C708.264 643.229 708.6 642.884 708.884 642.444C709.162 643.065 709.401 643.584 709.606 644.022C711.349 647.523 710.224 645.809 712.917 647.639C713.21 647.827 713.827 648.475 714.479 649.029C720.393 649.949 717.768 646.762 718.396 647.014C718.314 646.162 718.02 645.852 717.46 646.429C717.394 646.492 717.335 646.663 717.268 646.885C716.987 646.935 717.555 648.642 715.535 647.972C715.148 647.456 714.866 646.981 715.139 646.923C715.179 646.915 715.517 647.197 715.948 647.56C716.382 647.92 716.384 647.104 716.421 646.789C716.454 646.224 716.444 645.721 716.482 645.536C716.486 645.512 716.491 645.493 716.497 645.48C716.859 644.672 717.177 644.351 717.473 644.247C717.674 644.175 717.86 644.202 718.023 644.232C718.193 644.263 718.34 644.296 718.454 644.22C718.616 644.113 718.716 643.775 718.711 642.911C718.709 642.573 718.689 642.147 718.654 641.638C718.629 641.278 718.592 640.845 718.568 640.484C718.568 640.484 718.568 640.484 718.568 640.484C718.542 639.887 718.51 639.201 718.474 638.413C718.461 638.143 717.877 638.041 717.806 637.51C717.675 636.511 718.353 636.515 718.223 635.626C718.094 634.742 717.231 633.461 718.143 632.166C719.805 629.833 720.362 635.566 719.542 638.065C720.558 638.577 721.11 634.209 721.676 629.607C722.193 625.201 722.708 620.612 722.692 620.055C722.67 619.373 722.644 618.938 722.61 618.698C722.562 618.364 722.5 618.405 722.426 618.675C722.157 619.621 721.812 623.37 721.422 623.614C721.173 623.761 718.206 623.385 719.94 625.643C720.454 626.303 721.443 623.827 721.616 625.374C721.794 626.918 720.975 626.241 720.903 626.346C720.659 626.706 720.854 628.351 720.716 628.551C720.468 628.911 720.212 629.224 719.959 629.489C718.55 630.974 717.23 630.947 718.236 629.37C718.594 628.815 719.245 628.073 720.297 627.161C719.501 625.197 717.636 629.407 717.181 627.005C716.633 624.059 718.222 622.098 718.32 621.752C719.438 617.863 717.356 621.582 718.013 618.12C718.07 617.827 718.148 617.482 718.251 617.078C718.986 614.206 718.982 621.611 719.742 614.94C720.446 609.364 719.328 612.26 717.831 611.622C717.482 611.472 717.509 608.324 717.029 612.541C717.416 612.719 717.917 613.021 718.251 613.341C717.805 614.317 715.541 615.758 715.398 616.303C715.239 616.911 715.175 617.381 715.152 617.76C715.078 619.031 715.46 619.279 714.362 620.397C715.852 619.415 714.819 621.171 715.035 621.897C715.839 624.587 716.537 621.229 714.657 626.896C715.358 626.191 716.045 625.567 716.749 624.901C716.707 625.592 716.67 626.282 716.635 626.973C715.904 627.419 715.508 628.536 715.162 629.158C714.885 629.656 714.635 629.837 714.258 629.096C714.144 628.871 714.019 628.562 713.88 628.15C713.825 628.467 713.775 628.771 713.732 629.06C713.238 632.433 713.541 633.917 714.519 634.768C714.723 634.944 714.785 635.554 714.786 636.269C715.098 636.141 716.058 635.993 716.172 636.108C717.172 637.118 715.371 638.635 714.699 638.104C714.659 638.602 714.618 638.994 714.6 639.133C714.487 640.014 713.888 638.282 713.671 638.995C713.634 639.115 713.646 639.818 713.639 640.484C713.639 640.484 713.639 640.484 713.639 640.484C713.643 641.281 713.653 641.8 713.542 641.888C713.538 641.891 713.534 641.893 713.529 641.894C713.4 641.926 713.288 641.926 713.19 641.906C712.433 641.764 712.562 640.264 712.554 641.937C712.553 642.246 712.548 642.653 712.527 643.188C712.513 643.535 712.492 643.935 712.457 644.384C712.429 644.732 712.392 645.115 712.337 645.496C712.315 645.652 712.29 645.804 712.26 645.947C712.67 646.005 712.951 645.833 713.164 645.504C713.37 645.193 713.511 644.747 713.665 644.351C713.917 643.703 714.212 643.186 714.918 643.581C715.267 643.777 715.454 644.026 715.545 644.3C715.675 644.688 715.612 645.127 715.553 645.527C715.484 645.999 715.418 646.401 715.68 646.704C715.806 646.843 716.005 646.982 716.317 647.11C715.963 647.19 715.646 647.22 715.324 647.003C714.909 646.62 717.398 646.736 716.664 646.844C714.339 645.273 715.492 644.15 715.188 643.257C715.016 642.722 714.474 641.815 713.897 640.912C712.473 638.627 710.575 636.362 712.84 641.597C712.05 640.756 711.338 639.817 710.613 638.914C712.68 637.346 712.494 638.013 710.982 635.3C710.707 634.796 710.391 634.172 710.049 633.392C709.566 632.281 710.577 631.324 708.621 631C709.301 630.734 709.131 630 708.762 629.243C708.339 628.375 707.653 627.469 707.666 627.263C707.752 626.014 709.057 627.04 710.088 628.581C711.11 630.121 711.889 632.138 710.929 633.238C712.055 633.69 711.74 634.159 711.798 634.83C711.822 635.096 711.905 635.393 712.162 635.722C713.488 637.382 713.838 637.451 714.379 640.066C716.823 641.274 709.844 631.781 715.289 636.763C715.767 637.182 716.384 637.811 717.129 638.569C718.257 639.719 719.441 640.898 721.161 642.347C703.964 639.084 710.724 648.433 709.087 645.952C709.053 646.015 709.042 645.741 709.013 645.465C708.988 645.183 708.955 644.842 708.917 644.481C708.88 644.128 708.838 643.751 708.794 643.355C708.751 642.967 708.705 642.565 708.658 642.127C708.614 641.69 708.559 641.272 708.528 640.484C708.528 640.484 708.528 640.484 708.528 640.484C708.323 636.874 708.279 632.718 708.392 628.692C708.5 624.776 708.756 620.809 709.107 617C709.483 612.894 709.966 608.972 710.455 605.469C711.116 600.745 711.781 596.78 712.234 594.119C712.324 593.59 712.406 593.112 712.479 592.69C713.092 589.14 713.674 585.927 714.223 582.936C714.956 578.945 715.629 575.365 716.282 571.904C717.788 563.945 719.34 556.549 721.619 547.058C721.81 546.259 722.566 542.919 723.429 540.023C724.352 536.922 725.39 534.329 725.919 535.878C726.063 536.31 725.394 541.821 727.812 537.542C726.816 538.29 726.975 535.466 726.951 535.22C726.399 529.57 725.194 532.462 727.232 524.275ZM748.246 504.041C745.058 514.481 748.225 507.03 750.132 509.881C750.498 508.532 750.864 507.189 751.232 505.84C750.981 506.153 750.732 506.462 750.481 506.775C750.481 506.776 750.48 506.778 750.48 506.779C749.734 505.869 748.99 504.953 748.246 504.041ZM799.612 333.097C799.769 333.511 799.929 333.922 800.078 334.351C800.112 334.447 800.145 334.544 800.177 334.643C799.64 335.973 799.11 337.301 798.58 338.636C798.412 338.404 798.239 338.176 798.071 337.944C798.483 336.662 798.897 335.386 799.3 334.101C799.405 333.767 799.509 333.433 799.612 333.097ZM719.898 639.571C719.725 639.936 719.639 640.231 719.611 640.484C719.611 640.484 719.611 640.484 719.611 640.484C719.558 640.823 719.746 641.185 719.914 641.576C720.049 641.9 720.177 642.271 720.174 642.845C720.172 643.168 720.129 643.554 720.017 644.032C721.248 643.641 722.446 643.196 723.658 642.767C723.655 642.741 723.652 642.715 723.648 642.69C723.577 642.16 723.493 641.756 723.412 641.405C723.308 640.966 723.21 640.599 723.157 640.484C723.157 640.484 723.157 640.484 723.157 640.484C723.085 639.918 723.074 639.294 723.218 638.365C722.815 638.613 722.41 638.868 722.006 639.115C722.088 639.479 722.184 639.868 722.259 640.224C721.134 640.787 720.998 637.267 719.896 639.564C719.896 639.566 719.897 639.569 719.898 639.571ZM705.06 639.646C704.986 639.47 704.878 639.209 704.746 638.893C704.055 637.28 702.879 634.263 702.273 634.003C699.657 632.928 706.829 643.785 700.908 636.129C700.711 636.281 700.478 636.353 700.263 636.465C700.863 637.765 701.498 639.065 702.183 640.37C702.334 640.658 702.488 640.946 702.644 641.235C703.426 640.66 704.278 640.231 705.06 639.646ZM738.571 542.269C738.479 542.548 738.371 543.021 738.263 543.598C737.748 546.346 737.277 551.477 738.662 549.584C739.152 548.911 738.445 545.06 738.833 543.751C738.834 543.746 738.835 543.741 738.837 543.737C739.089 542.917 739.693 544.058 739.792 542.302C739.403 542.287 738.98 542.233 738.572 542.274C738.572 542.273 738.571 542.271 738.571 542.269ZM734.421 538.002C734.193 539.494 733.992 541.01 733.781 542.518C733.746 542.764 733.711 543.009 733.676 543.254C733.889 543.082 734.065 542.865 734.218 542.624C734.968 541.437 735.149 539.665 736.3 539.818C736.288 540.31 736.278 540.797 736.267 541.289C735.885 541.575 735.504 541.856 735.124 542.136C735.204 542.481 735.292 542.718 735.374 542.902C735.683 543.597 735.899 543.54 735.215 545.659C736.633 544.981 737.622 544.686 738.015 543.539C738.298 542.715 738.274 541.452 737.888 539.289C738.78 540.44 742.585 540.492 740.644 537.28C740.284 536.679 739.469 538.619 739.387 538.623C738.365 538.702 738.035 537.433 737.059 537.547C736.618 537.598 736.322 538.833 735.716 538.881C735.421 538.9 734.926 537.533 734.421 538.002ZM740.051 535.804C740.495 536.468 742.296 535.017 742.407 533.398C742.583 530.872 740.337 534.365 740.051 535.804ZM799.613 333.088C799.613 333.091 799.612 333.094 799.612 333.097C799.611 333.096 799.61 333.094 799.609 333.092C799.611 333.091 799.612 333.089 799.613 333.088ZM707.789 645.11C706.543 644.256 705.476 642.46 704.89 643.019C704.651 642.355 704.417 641.685 704.202 641.025C704 641.154 703.801 641.289 703.601 641.417C704.442 643.073 705.354 644.725 706.374 646.365C706.487 646.547 706.601 646.728 706.717 646.909C706.996 646.437 707.289 645.978 707.568 645.5C707.643 645.371 707.717 645.241 707.789 645.11ZM697.987 626.012C697.046 623.827 696.914 626.092 696.217 625.844C695.521 625.593 695.008 623.52 694.435 624.068C695.001 625.322 695.592 626.649 696.176 627.952C696.756 627.263 697.398 626.671 697.985 626.008C697.985 626.009 697.986 626.01 697.987 626.012ZM761.023 461.359C760.352 462.846 759.736 461.985 759.793 465.318C759.793 465.315 759.794 465.313 759.795 465.311C761.28 462.579 762.938 458.993 763.235 455.593C761.828 457.32 762.076 459.017 761.023 461.359ZM722.474 634.152C721.841 633.468 721.177 636.507 721.781 637.195C722.743 638.286 723.418 635.187 722.474 634.152ZM773.707 397.03C772.454 394.103 768.974 397.943 768.545 402.902C768.509 403.331 770.01 400.486 770.126 401.493C770.137 401.594 769.606 403.242 769.755 403.731C769.906 404.221 770.659 403.973 770.726 404.724C770.841 406.04 769.207 408.461 769.552 409.523C769.599 409.663 770.923 408.252 770.985 408.157C771.99 406.605 771.372 404.645 771.442 404.38C771.8 403.016 772.6 403.472 772.902 403.189C773.471 402.654 773.423 401.407 773.474 401.336C774.829 399.502 773.242 404.132 773.367 404.856C773.705 406.808 774.946 405.455 774.221 409.687C774.151 410.089 772.739 414.727 775.418 409.145C774.056 421.246 778.254 403.695 778.359 401.683C778.407 400.756 777.204 401.829 776.988 401.196C776.494 399.75 776.942 397.662 775.698 397.498C773.081 397.164 773.938 400.325 772.977 402.053C772.49 401.7 771.982 401.471 771.556 400.956C772.109 401.719 773.803 397.244 773.712 397.031C773.71 397.031 773.708 397.03 773.707 397.03ZM768.04 427.008C766.529 429.372 768.162 429.651 766.566 431.755C767.374 434.258 768.482 430.111 768.703 429.654C769.701 427.568 771.228 428.069 771.409 425.689C770.272 426.192 769.167 426.55 768.04 427.008ZM775.274 404.707C775.567 406.671 776.459 403.571 776.648 403.489C778.67 402.597 775.644 411.775 775.274 404.707ZM732.929 551.687C732.666 552.565 733.574 552.181 733.621 553.019C733.669 553.858 732.384 556.393 732.884 556.437C733.384 556.477 735.776 551.85 734.909 556.849C735.22 556.744 735.41 556.847 735.674 556.823C735.993 555.469 736.322 554.103 736.645 552.75C735.689 553.311 734.688 553.883 733.766 554.425C733.32 553.517 734.219 553.274 734.228 553.234C734.227 553.233 734.226 553.233 734.225 553.233C734.493 551.798 733.519 549.717 732.929 551.687ZM753.378 482.659C751.529 481.86 753.097 484.535 753.1 485.453C753.1 486.371 752.064 487.345 753.014 487.134C753.966 485.914 753.585 482.748 753.376 482.658C753.377 482.659 753.378 482.659 753.378 482.659ZM763.944 441.055C763.778 443.358 764.377 443.158 763.038 445.645C763.531 445.677 764.035 445.711 764.521 445.741C765.142 443.638 763.754 443.395 765.003 441.116C765.209 440.742 766.034 441.91 766.214 440.007C765.487 440.365 764.696 440.711 763.944 441.055ZM762.546 452.296C762.812 451.268 762.436 450.149 761.924 449.533C761.556 449.09 761.118 448.907 760.798 449.207C760.475 449.508 760.272 450.298 760.381 451.801C760.437 452.554 762.06 454.183 762.546 452.296ZM738.476 528.451C737.293 532.697 739.122 527.994 739.987 527.032C737.952 537.09 740.105 525.865 742.298 525.371C742.056 524.019 741.379 521.425 740.396 523.862C739.988 524.879 740.662 524.642 740.643 524.704C740.007 526.607 739.124 526.132 738.476 528.451ZM769.263 422.488C769.244 422.656 769.964 422.596 769.945 423.141C769.924 423.687 769.135 424.706 769.498 424.936C769.865 425.167 770.85 422.949 770.766 422.155C770.68 421.361 769.436 420.971 769.263 422.488ZM762.921 438.268C762.77 440.519 766.162 437.754 766.285 437.292C767.339 433.215 763.641 438.607 762.921 438.268ZM736.926 517.479C736.818 522.95 739.91 519.72 742.018 516.834C741.87 516.342 741.725 515.838 741.579 515.352C742.645 517.694 743.314 521.477 743.91 513.597C742.463 517.619 742.943 514.06 742.862 514.01C740.097 512.799 739.845 519.262 736.927 517.474C736.926 517.476 736.926 517.477 736.926 517.479ZM771.958 415.809C772.599 413.585 773.795 407.666 771.761 409.996C771.826 411.936 771.893 413.869 771.958 415.809ZM717.845 602.585C717.089 603.815 716.723 605.046 716.455 606.484C716.343 607.081 716.249 607.714 716.153 608.398C717.563 606.483 717.457 607.879 717.604 608.623C717.824 609.751 718.213 607.168 718.288 607.173C719.087 607.347 719.176 608.432 719.482 606.996C719.561 606.626 719.655 606.089 719.783 605.325C719.9 605.923 720.02 606.515 720.141 607.107C720.218 607.488 720.296 607.868 720.374 608.25C720.446 607.853 720.524 607.502 720.608 607.186C721.122 605.252 721.834 604.647 722.803 603.239C720.524 604.617 722.161 602.557 721.577 600.299C721.284 599.166 718.389 601.693 717.844 602.592C717.844 602.59 717.845 602.587 717.845 602.585ZM735.166 522.71C735.379 523.33 735.728 523.937 735.996 524.552C735.892 525.121 735.783 525.69 735.679 526.26C735.353 526.251 735.015 526.227 734.698 526.233C734.422 526.948 734.924 526.769 734.909 526.999C734.907 526.998 734.906 526.998 734.904 526.998C734.681 530.288 734.297 531.558 732.73 533.79C733.677 534.025 734.623 534.259 735.57 534.493C735.617 533.917 735.668 533.335 735.717 532.76C735.282 532.339 734.847 531.917 734.411 531.495C734.852 530.924 735.289 530.359 735.73 529.788C735.676 529.229 735.638 528.564 735.572 528.075C738.859 526.186 735.602 531.54 736.69 531.867C737.384 532.077 738.822 526.227 738.553 525.263C738.512 525.124 736.223 525.887 737.792 524.009C738.04 523.715 742.323 524.687 739.469 521.502C739.064 521.048 736.127 521.516 735.166 522.71ZM728.518 543.679C732.034 541.024 726.252 552.542 729.748 547.807C730.65 549.605 730.7 549.321 732.171 548.074C732.303 547.965 732.402 549.089 732.466 549.011C733.414 547.745 733.493 545.968 734.613 546.223C734.644 545.828 734.677 545.456 734.708 545.061C733.276 546.398 733.171 543.703 732.519 542.511C732.224 541.969 731.854 542.963 731.592 542.503C731.56 542.446 731.608 542.249 731.671 542.01C731.795 541.544 731.978 540.915 731.744 540.818C731.173 540.588 730.33 540.837 729.537 541.495C729.214 541.764 728.899 542.1 728.615 542.499C728.614 542.499 728.613 542.499 728.612 542.499C728.575 542.894 728.553 543.282 728.518 543.679ZM749.238 474.075C750.89 473.94 751.944 471.836 751.471 476.318C751.825 476.189 752.179 476.053 752.533 475.924C752.71 475.196 752.881 474.491 753.064 473.752C749.28 470.31 755.388 467.706 751.536 469.39C751.117 469.574 751.012 471.392 750.569 469.442C750.568 469.444 750.566 469.446 750.565 469.448C750.179 471.887 750.625 472.333 749.238 474.075ZM745.881 490.171C747.533 496.482 749.712 483.131 748.283 485.066C748.151 485.24 747.286 491.014 745.881 490.171ZM755.515 445.746C755.253 446.579 755.277 447.202 755.448 447.658C755.775 448.528 756.637 448.793 757.084 448.748C757.298 448.726 757.433 448.527 757.521 448.258C757.713 447.672 757.686 446.755 757.796 446.626C758.319 446.009 758.093 447.573 758.795 446.779C759.024 446.515 760.858 442.453 760.842 442.238C760.75 441.043 758.895 442.212 758.825 441.857C758.592 440.7 759.716 439.546 759.059 439.039C757.657 437.949 758.58 440.978 758.482 441.416C758.18 442.734 757.321 442.362 756.86 443.282C756.4 444.201 756.521 444.924 756.21 445.762C756.106 446.041 755.556 445.625 755.515 445.746ZM756.766 454.83C756.216 451.917 753.037 457.708 753.128 458.53C753.4 460.948 757.026 456.222 756.766 454.83ZM734.642 536.415C734.281 533.832 732.173 539.125 732.175 540.787C732.635 540.589 734.766 537.302 734.642 536.415ZM737.301 516.05C737.034 518.282 739.884 515.97 740.321 514.168C739.21 512.753 739.225 513.815 738.862 514.975C738.499 516.134 737.512 514.309 737.301 516.05ZM764.741 419.808C764.584 420.263 763.548 428.019 765.269 423.892C765.399 423.577 766.72 418.322 766.624 417.866C766.428 416.948 765.15 418.639 764.741 419.808ZM737.976 505.173C738.869 506.633 738.556 507.749 740.24 507.075C740.241 507.073 740.241 507.072 740.242 507.07C739.948 509.701 737.67 509.536 737.048 509.889C736.962 509.938 736.907 509.997 736.895 510.075C736.538 512.31 739.129 510.786 739.444 512.327C739.492 511.52 739.596 510.982 739.736 510.597C740.174 509.39 740.963 509.685 741.513 507.876C741.675 507.34 741.427 504.958 740.998 504.504C740.569 504.051 738.733 504.745 737.976 505.173ZM767.515 409.236C766.326 411.608 767.582 414.466 768.905 411.081C769.551 409.43 768.24 407.788 767.515 409.236ZM709.375 632.884C709.093 633.473 708.823 634.076 708.568 634.696C708 633.927 707.439 633.146 706.886 632.358C707.379 632.951 707.876 633.542 708.38 634.127C707.697 632.467 708.185 631.315 709.373 632.88C709.373 632.881 709.374 632.883 709.375 632.884ZM679.022 576.054C679.063 575.101 676.913 574.492 676.906 574.728C676.861 576.5 678.965 577.378 679.022 576.054ZM729.159 538.762C728.235 541.644 731.204 540.226 731.81 538.475C731.069 539.458 729.685 537.128 729.159 538.762ZM690.116 595.78C690.059 596.124 690.003 596.469 689.962 596.841C689.756 595.863 689.853 595.618 690.116 595.78ZM762.232 420.355C761.915 420.741 760.806 423.954 760.909 424.463C761.131 425.519 763.228 423.373 763.249 421.756C763.253 421.578 762.548 419.972 762.23 420.362C762.23 420.36 762.231 420.358 762.232 420.355ZM708.437 628.915C708.418 628.93 708.396 628.938 708.372 628.939C708.394 628.932 708.415 628.921 708.437 628.915ZM649.595 515.408C649.568 515.443 649.538 515.469 649.503 515.484C649.533 515.461 649.561 515.431 649.595 515.408ZM753.439 442.747C750.788 443.156 751.304 446.022 753.033 444.377C753.126 444.284 753.358 443.009 753.439 442.747Z" fill="#FF0000"/>
<path d="M707.608 753.48C707.248 755.342 706.906 757.279 706.578 759.245C705.975 762.856 705.383 766.496 704.731 770.078C704.328 772.293 703.903 774.476 703.441 776.593C703.242 777.505 702.557 777.331 702.423 777.575C702.058 778.241 702.813 778.795 702.672 779.299C702.538 779.785 702.412 780.266 702.292 780.743C701.804 782.675 701.409 784.549 700.924 786.484C700.305 788.97 698.297 787.483 697.649 788.294C696.384 789.882 699.411 788.789 699.959 789.548C699.828 790.143 699.686 790.737 699.536 791.331C699.196 792.68 698.816 794.028 698.444 795.371C698.234 794.86 698.03 794.348 697.842 793.831C697.682 794.684 697.103 795.87 696.527 794.339C696.286 794.635 696.012 794.906 695.775 795.213C696.798 795.421 696.712 796.958 697.312 797.163C697.911 797.368 697.863 796.497 697.916 796.509C698.669 796.648 697.257 800.044 697.153 800.293C696.861 800.941 695.633 800.229 695.661 800.809C695.698 801.582 697.309 801.508 696.369 801.903C696.094 802.019 695.601 802.174 694.787 802.406C695.869 803.038 695.279 803.031 695.143 803.697C695.125 803.784 695.785 803.771 695.799 803.812C696.2 804.867 695.048 803.986 694.982 803.985C693.854 803.983 694.262 805.12 694.137 805.342C692.713 807.882 691.72 809.841 691.206 812.49C691.156 812.75 691.11 813.016 691.07 813.29C690.97 813.956 691.345 816.003 691.137 816.641C690.928 817.271 690.13 816.905 689.731 817.228C691.663 817.823 691.862 818.325 690.556 819.5C691.968 819.972 690.822 819.894 691.095 820.753C691.32 821.472 693.015 822.71 691.563 823.485C691.697 822.591 690.998 822.683 690.585 821.667C690.439 821.329 690.477 817.814 689.026 818.036C688.264 818.154 688.933 819.346 688.794 819.388C687.976 819.638 686.988 818.959 687.353 818.381C687.513 818.531 687.676 818.71 687.837 818.87C688.884 817.586 684.958 818.385 688.396 817.479C688.817 817.368 689.252 817.427 689.703 817.239C689.52 817.192 689.057 817.426 688.981 817.211C688.905 816.99 689.784 816.606 689.057 816.521C687.999 816.395 688.389 817.311 688.325 817.377C688.332 817.377 688.338 817.378 688.344 817.379C687.764 817.965 687.736 816.707 687.638 816.643C686.99 816.233 686.472 816.483 685.946 815.877C685.647 815.53 685.862 814.682 685.775 814.363C685.685 814.045 685.164 814.512 685.065 814.297C684.966 814.081 685.358 813.834 685.244 813.58C685.194 813.472 684.634 813.452 684.617 813.4C684.427 812.837 685.574 813.253 685.526 812.751C685.514 812.63 685.364 812.397 685.163 812.188C684.822 811.837 684.331 811.555 684.104 812.017C684.01 811.65 683.946 811.293 683.878 810.928C683.699 811.146 683.574 811.375 683.366 811.586C683.668 810.922 682.729 810.563 682.682 810.132C682.636 809.7 683.806 809.389 683.276 808.887C682.147 807.811 682.543 810.325 682.317 810.621C682.227 810.737 681.353 810.225 681.332 810.151C681.238 809.828 681.903 809.491 681.889 809.246C681.834 808.368 681.021 807.779 680.907 806.933C680.638 804.926 680.472 802.587 680.429 800.44C680.41 799.508 680.414 798.613 680.439 797.796C680.471 796.791 681.486 796.292 681.506 795.844C681.555 794.795 680.741 794.576 680.8 793.66C680.884 792.295 681.834 790.477 682.132 789.374C682.152 789.298 682.163 789.22 682.167 789.144C682.201 788.455 681.628 787.783 681.635 787.598C681.711 784.745 682.215 781.335 682.554 779.019C682.635 778.462 682.93 778.09 683.199 777.83C683.457 777.581 683.692 777.433 683.696 777.322C683.733 776.342 682.928 776.481 683.128 775.711C683.235 775.296 683.982 775.333 684.019 775.281C684.339 774.823 683.397 774.572 683.427 774.179C683.601 771.921 684.583 769.883 685.048 767.707C685.082 767.549 685.504 767.635 685.5 767.528C685.471 767.068 684.768 767.16 684.799 766.689C684.8 766.678 684.801 766.667 684.801 766.656C684.867 765.688 685.145 764.73 685.405 763.74C685.431 763.64 685.983 763.691 686.024 763.46C686.065 763.23 685.579 762.964 685.672 762.607C685.914 761.675 686.698 760.85 686.912 759.856C686.946 759.692 686.328 759.368 686.38 759.121C686.542 758.346 687.346 757.305 687.489 756.646C687.551 756.354 687.606 756.064 687.654 755.776C687.965 753.9 688.028 752.061 688.385 750.247C688.483 749.754 689.177 749.436 689.243 749.182C689.391 748.61 688.731 748.933 688.848 748.344C689.736 743.926 690.906 739.649 691.91 735.289C692.001 734.896 692.09 734.502 692.178 734.107C692.593 732.238 692.54 729.836 693.131 728.081C693.378 727.352 694.195 727.405 694.328 726.88C694.563 725.944 693.6 725.53 693.739 724.517C693.851 723.709 695.072 723.048 695.21 722.213C695.348 721.378 694.466 720.764 694.579 719.795C694.673 718.998 695.379 718.024 695.514 717.166C695.628 716.439 695.743 715.714 695.861 714.991C696.97 708.209 698.304 701.611 700.406 695.116C700.507 694.805 700.609 694.493 700.714 694.182C701.602 691.537 702.124 688.513 703.679 685.924C703.826 685.681 704.687 686.283 704.666 685.398C704.654 684.922 703.97 684.121 704.143 683.068C704.547 680.622 705.246 678.175 705.981 675.714C707.124 671.885 708.354 668.006 708.693 664.123C708.926 661.447 708.623 658.684 708.28 655.969C707.406 648.929 706.229 642.584 713.484 636.695C713.979 636.289 716.404 636.507 717.092 636.759C716.6 636.989 716.014 637.2 715.457 637.437C718.484 637.758 717.698 637.705 717.412 638.833C717.232 639.528 718.536 638.991 718.898 639.371C719.37 639.86 720.801 642.202 718.807 641.699C719.15 641.851 719.479 641.993 719.815 642.143C720.063 643.815 720.489 645.452 720.966 647.121C721.05 647.409 721.677 647.461 721.759 647.76C721.983 648.564 721.528 649.159 721.532 649.972C721.534 650.413 722.255 650.529 722.163 651.103C722.07 651.677 721.093 651.582 722.09 652.456C723.363 652.048 722.273 654.26 722.265 655.076C722.264 655.194 723.269 656.274 723.087 656.776C723.011 656.992 722.823 657.245 722.657 657.529C722.435 657.91 722.253 658.345 722.429 658.826C722.574 659.221 723.404 659.548 723.405 659.959C723.405 660.248 722.603 660.497 722.528 660.851C722.453 661.204 722.979 662.058 722.97 662.203C722.946 662.721 722.484 662.086 722.412 662.434C722.073 664.113 721.513 666.024 721.623 667.738C721.636 667.949 722.306 667.76 722.322 667.791C722.883 669.294 722.177 668.43 721.559 668.718C720.964 668.997 720.839 671.682 721.921 671.882C720.545 671.74 721.489 672.497 721.503 672.657C721.559 673.277 720.399 672.962 720.667 673.597C720.764 673.831 721.63 673.555 721.568 673.778C721.414 674.33 720.049 674.613 719.79 675.333C719.727 675.506 720.287 675.665 720.211 675.98C720.135 676.297 719.197 677.507 720.509 677.107C719.73 677.555 719.744 677.814 719.751 678.255C719.754 678.442 719.757 678.661 719.696 678.941C719.644 679.178 718.671 679.313 718.859 679.872C718.923 680.061 719.806 680.224 719.764 680.484C719.67 681.078 718.65 681.458 718.468 682.197C718.125 683.579 718.467 685.191 717.939 686.598C717.794 686.98 716.931 686.698 716.794 687.266C716.777 687.35 717.397 688.199 717.241 688.58C717.148 688.809 716.349 689.927 716.252 690.166C716.094 690.561 716.932 690.819 716.717 691.008C716.094 691.553 714.952 690.758 716.5 691.914C715.491 691.963 715.487 692.44 714.282 692.328C715.509 692.875 714.199 692.947 714.515 693.556C714.831 694.165 717.223 695.144 714.52 694.669C714.792 694.982 715.116 696.129 715.117 696.311C715.116 696.846 714.439 696.406 714.451 696.812C714.453 696.883 714.975 696.928 714.826 697.35C714.785 697.465 714.672 697.895 714.548 698.364C714.374 699.017 714.177 699.746 714.12 699.808C713 701.041 713.798 698.921 713.321 698.489C713.477 698.468 713.633 698.447 713.789 698.422C713.847 698.335 713.868 698.264 713.861 698.206C713.834 697.991 713.416 697.962 713.058 698.022C712.877 698.052 712.711 698.105 712.617 698.168C712.287 698.39 712.674 699.036 712.245 699.185C712.029 699.259 710.678 698.869 710.925 698.554C710.416 698.835 710.091 698.215 709.66 698.273C709.188 698.337 708.66 700.003 709.411 700.189C709.511 699.877 709.577 699.476 709.683 699.163C711.091 699.045 715.267 701.367 713.204 702.125C711.711 702.672 711.014 701.028 711.624 703.294C711.75 702.998 711.934 702.765 712.055 702.497C713.044 702.698 711.857 702.9 712.114 703.209C712.24 703.358 713.099 702.825 713.188 703.485C711.661 703.673 712.978 704.407 712.787 705.283C712.595 704.981 712.403 704.679 712.211 704.378C710.843 705.607 711.32 702.112 710.07 704.835C710.107 704.48 710.2 704.141 710.213 703.779C709.659 703.824 708.211 703.197 707.856 703.271C706.925 703.464 707.292 704.164 707.104 704.625C707.023 704.827 706.646 704.6 706.639 704.617C706.526 704.893 707.139 704.972 707.117 705.233C707.088 705.561 706.288 706.336 706.318 706.5C706.395 706.924 707.728 706.569 707.807 706.627C708.32 707.009 707.726 707.395 708.479 707.549C708.256 706.224 709.745 702.911 710.23 706.347C711.646 705.77 713.252 706.418 713.083 707.698C712.944 708.756 712.437 707.93 711.575 708.29C711.466 708.337 710.782 709.632 711.283 709.828C710.103 709.484 708.937 709.676 707.778 709.077C707.608 708.989 707.816 708.441 706.778 708.399C706.256 708.377 705.105 708.397 704.483 708.199C704.895 708.421 705.361 708.662 705.792 708.891C705.715 709.768 705.212 709.773 704.278 710.036C704.626 710.098 706.17 710.021 705.574 710.563C705.54 710.59 705.016 710.493 704.68 710.76C704.003 711.301 703.81 711.401 702.416 710.52C702.946 712.109 701.182 711.994 701.331 713.528C703.35 713.724 702.989 713.109 702.929 711.722C703.407 711.779 703.873 711.865 704.356 711.921C702.883 713.389 703.198 712.562 703.902 713.77C704.074 714.065 703.515 715.279 704.933 715.175C705.266 715.151 705.424 714.35 705.889 714.56C705.978 714.6 705.978 715.621 705.832 715.675C704.116 716.323 703.471 714.418 703.277 716.808C703.266 716.945 703.256 717.097 703.248 717.264C703.245 717.349 703.806 717.516 703.846 717.694C703.921 718.027 703.262 717.87 703.349 718.172C703.436 718.475 704.231 719.059 703.315 719.258C701.647 719.623 701.212 717.692 702.189 717.119C700.32 716.329 698.934 721.802 699.019 722.184C699.383 723.846 699.566 721.273 700.137 721.278C700.379 721.28 703.268 722.014 701.542 720.93C701.03 720.609 700.108 721.203 699.913 720.667C699.719 720.13 700.527 720.522 700.595 720.503C700.826 720.438 700.63 719.87 700.767 719.836C702.841 719.306 705.591 720.074 701.179 720.369C701.966 721.161 703.759 720.225 704.215 721.08C704.77 722.12 703.298 722.42 703.212 722.513C702.195 723.626 704.484 722.614 703.485 724.034C702.93 724.826 702.521 722.412 702.161 724.442C701.862 726.141 702.752 725.4 704.249 725.891C704.599 726.007 704.815 727.028 704.96 725.744C704.571 725.612 704.063 725.418 703.716 725.25C704.08 725.015 706.194 724.989 706.303 724.843C706.826 724.131 705.785 723.918 707.114 723.748C705.703 723.757 706.637 723.409 706.406 723.137C705.556 722.128 704.928 723.026 706.674 721.652C705.996 721.721 705.335 721.772 704.662 721.834C704.69 721.625 704.718 721.416 704.746 721.207C706.194 721.238 706.283 720.112 707.426 721.431C708.107 720.347 707.924 719.798 706.919 719.278C706.727 719.179 706.689 718.982 706.721 718.769C706.411 718.734 705.471 718.557 705.365 718.497C704.436 717.958 706.276 717.926 706.898 718.243C706.966 718.105 707.031 717.999 707.057 717.962C707.223 717.729 707.695 718.381 707.951 718.222C707.98 718.204 708.005 718.1 708.036 717.973C708.092 717.738 708.169 717.426 708.329 717.456C709.906 717.749 708.491 718.671 709.983 716.488C708.582 716.084 708.62 717.276 707.186 716.622C705.646 715.918 707.967 715.821 706.018 715.199C706.356 715.228 706.634 715.272 707.015 715.318C706.39 714.135 708.044 714.526 708.481 714.317C709.334 713.914 709.874 711.233 707.863 713.267C707.805 712.884 707.826 712.512 707.784 712.135C710.763 712.777 709.534 712.702 710.393 711.14C710.582 710.796 711.913 710.992 710.454 710.255C711.96 710.672 711.307 709.36 711.516 709.303C712.872 708.938 713.951 711.769 711.193 711.428C712.138 712.09 710.758 711.753 710.83 712.254C710.934 712.977 711.18 713.134 709.971 713.668C711.218 714.788 711.337 710.808 712.682 713.566C713.132 714.492 713.184 716.638 713.035 719.198C712.735 724.279 711.678 730.958 711.385 733.053C711.017 735.633 710.752 737.653 710.459 739.558C710.104 741.875 709.706 744.011 709.062 746.744C708.942 747.24 708.301 750.961 706.793 749.846C706.575 749.688 706.278 747.953 704.677 749.051C705.51 748.934 705.844 749.846 705.911 749.929C707.444 751.858 708.08 751.048 707.608 753.48ZM691.245 758.031C691.495 757.212 691.581 756.746 691.529 756.486C691.44 756.037 690.944 756.202 690.185 756.24C689.661 756.266 689.011 756.231 688.282 755.891C688.273 755.887 688.264 755.882 688.255 755.878C688.254 755.881 688.254 755.883 688.253 755.886C688.169 756.303 688.086 756.719 688.002 757.138C688.181 757.056 688.36 756.975 688.539 756.894C688.539 756.893 688.539 756.893 688.54 756.892C689.441 757.271 690.343 757.652 691.245 758.031ZM682.435 812.522C682.103 812.372 681.77 812.224 681.445 812.062C681.451 812.043 681.457 812.023 681.462 812.004C681.584 811.576 681.706 811.15 681.83 810.723C682.057 810.789 682.287 810.854 682.514 810.92C682.486 811.298 682.459 811.674 682.445 812.053C682.439 812.209 682.436 812.365 682.435 812.522ZM701.938 716.578C701.995 716.557 702.045 716.537 702.087 716.516C702.832 716.159 701.405 715.818 702.296 715.23C701.065 715.033 699.859 714.854 698.639 714.665C698.659 715.132 698.882 715.394 698.841 715.721C698.825 715.852 698.766 715.994 698.635 716.164C699.041 716.181 699.451 716.198 699.859 716.218C699.821 716.127 699.777 716.032 699.739 715.941C699.721 715.9 699.705 715.859 699.69 715.821C700.033 715.85 700.262 715.972 700.45 716.115C700.879 716.444 701.09 716.884 701.94 716.58C701.939 716.58 701.939 716.579 701.938 716.578ZM702.967 710.265C703.203 709.979 704.106 708.835 703.649 708.538C702.098 707.532 702.292 711.421 701.435 708.381C701.194 708.336 700.964 708.267 700.729 708.21C700.527 708.677 700.337 709.146 700.151 709.621C701.095 709.823 702.017 710.065 702.967 710.265ZM693.482 746.064C693.72 745.577 693.44 742.985 692.191 743.54C691.823 743.706 693.136 745.12 692.981 745.52C692.881 745.779 692.097 745.299 692.297 745.895C692.675 745.95 693.093 746.023 693.48 746.062C693.481 746.062 693.481 746.063 693.482 746.064ZM698.216 748.049C698.174 747.496 698.094 746.927 698.045 746.368C696.998 746.547 697.459 747.433 696.09 747.193C696.018 747.027 695.945 746.863 695.873 746.697C696.193 746.649 696.514 746.603 696.834 746.557C696.192 745.948 695.767 746.143 696.16 745.347C693.999 745.414 692.873 745.284 694.647 747.172C693.589 746.663 689.901 746.167 692.329 747.516C692.78 747.767 693.234 747.202 693.312 747.211C694.286 747.312 694.823 747.787 695.746 747.87C696.163 747.908 696.237 747.525 696.815 747.586C697.096 747.618 697.808 748.143 698.216 748.049ZM693.158 748.096C692.614 747.813 691.125 748.093 691.304 748.638C691.581 749.487 693.131 748.55 693.158 748.096ZM682.437 812.525C682.436 812.524 682.436 812.523 682.435 812.522C682.437 812.523 682.438 812.523 682.439 812.524C682.438 812.524 682.437 812.525 682.437 812.525ZM701.894 711.778C701.5 711.276 701.709 710.727 700.924 710.58C701.122 710.431 701.317 710.28 701.515 710.131C701.282 710.076 701.047 710.023 700.816 709.968C700.535 710.492 700.253 711.015 699.968 711.539C700.609 711.621 701.251 711.709 701.894 711.778ZM703.917 705.81C704.165 705.126 702.968 705.462 702.495 705.185C702.022 704.908 702.587 704.382 701.838 704.28C701.711 704.687 701.578 705.111 701.451 705.523C702.273 705.604 703.102 705.722 703.918 705.809C703.917 705.809 703.917 705.81 703.917 705.81ZM688.048 771.355C688.362 770.903 689.145 771.24 688.35 770.113C688.35 770.114 688.35 770.114 688.35 770.115C687.526 770.923 686.733 772.013 687.215 773.138C688.179 772.656 687.558 772.067 688.048 771.355ZM699.154 717.669C699.742 718.027 700.505 717.217 699.964 716.864C699.087 716.294 698.261 717.124 699.154 717.669ZM690.924 791.982C692.653 792.868 694.788 792.037 694.615 790.712C694.596 790.567 694.55 790.415 694.473 790.259C694.432 790.178 694.147 790.45 693.848 790.615C693.645 790.728 693.435 790.79 693.291 790.657C693.281 790.648 693.282 790.605 693.284 790.544C693.289 790.375 693.299 790.067 693.107 789.946C692.844 789.782 692.178 789.835 691.933 789.588C691.504 789.156 692.495 788.432 691.907 788.072C691.829 788.024 690.893 788.431 690.856 788.46C690.261 788.928 691.329 789.59 691.326 789.673C691.311 790.104 690.43 789.927 690.207 790.008C690.118 790.041 690.064 790.085 690.033 790.134C689.919 790.318 690.13 790.575 690.104 790.592C689.569 790.935 689.524 790.501 689.496 790.067C689.479 789.803 689.469 789.539 689.357 789.448C688.562 788.797 687.692 789.195 687.373 787.832C687.343 787.703 687.591 786.229 686.35 787.964C685.061 784.758 684.921 787.877 685.13 789.517C685.178 789.895 685.244 790.193 685.316 790.317C685.493 790.619 686.393 790.306 686.754 790.521C687.579 791.01 687.654 791.678 688.892 791.768C691.493 791.957 689.902 790.906 690.41 790.375C690.964 790.507 691.509 790.599 692.044 790.781C691.326 790.513 690.779 791.909 690.919 791.981C690.92 791.981 690.922 791.981 690.924 791.982ZM689.199 782.395C690.096 781.692 688.46 781.511 689.501 780.9C688.138 780.023 688.043 781.341 687.938 781.481C687.469 782.122 685.881 781.876 686.268 782.66C687.244 782.55 688.223 782.488 689.199 782.395ZM687.557 789.428C686.926 788.881 686.744 789.479 686.606 789.703C686.579 789.747 686.554 789.776 686.527 789.78C686.174 789.826 685.922 789.741 685.762 789.596C685.138 789.031 685.919 787.569 687.557 789.428ZM697.394 743.612C697.509 743.35 696.692 743.354 696.514 743.062C696.335 742.769 697.184 742.089 696.695 742.003C696.204 741.915 694.61 743.159 694.674 741.573C694.39 741.564 694.19 741.502 693.939 741.473C693.839 741.891 693.733 742.313 693.635 742.731C694.47 742.672 695.347 742.617 696.154 742.563C696.727 742.935 695.897 742.891 695.894 742.904C695.895 742.904 695.896 742.904 695.897 742.904C695.864 743.357 697.138 744.199 697.394 743.612ZM690.746 764.784C692.698 765.212 690.616 764.176 690.419 763.866C690.224 763.556 691.016 763.318 690.146 763.306C689.486 763.635 690.528 764.737 690.748 764.785C690.748 764.785 690.747 764.784 690.746 764.784ZM689.859 777.961C689.486 777.204 688.956 777.232 689.672 776.487C689.19 776.445 688.698 776.401 688.223 776.359C688.109 777.024 689.501 777.192 688.825 777.876C688.714 777.988 687.65 777.547 687.917 778.172C688.533 778.096 689.214 778.029 689.859 777.961ZM688.626 774.294C688.572 775.093 692.33 776.326 690.821 774.608C690.595 774.353 688.665 773.694 688.626 774.294ZM695.986 750.788C696.365 749.486 695.442 750.866 694.784 751.097C694.938 747.912 694.873 751.475 692.856 751.403C693.338 751.892 694.476 752.843 694.972 752.125C695.178 751.826 694.572 751.832 694.578 751.813C694.842 751.238 695.781 751.498 695.986 750.788ZM689.091 783.829C689.069 783.774 688.39 783.759 688.28 783.579C688.17 783.399 688.689 783.101 688.285 783.007C687.878 782.911 687.454 783.598 687.723 783.865C687.994 784.133 689.284 784.321 689.091 783.829ZM691.489 778.951C691.255 778.494 690.16 778.592 689.358 778.77C688.865 778.879 688.483 779.018 688.479 779.074C688.426 780.134 689.953 779.272 690.935 779.01C691.155 778.951 691.347 778.922 691.489 778.951ZM699.525 754.645C698.593 752.829 696.214 753.566 694.731 754.329C694.968 754.511 695.205 754.695 695.44 754.874C693.961 753.976 692.587 752.621 693.53 755.23C694.148 754.017 694.372 755.172 694.461 755.196C697.361 755.883 696.363 753.737 699.524 754.646C699.525 754.646 699.525 754.645 699.525 754.645ZM688.085 785.908C687.998 786.615 688.268 788.512 689.667 787.828C689.138 787.19 688.611 786.551 688.085 785.908ZM705.053 728.86C705.91 728.474 706.021 727.957 706.14 727.257C704.94 727.623 704.918 727.187 704.712 726.915C704.401 726.504 704.247 727.28 704.176 727.266C703.182 727.011 703.145 726.482 702.899 727.605C702.619 727.245 702.334 726.888 702.056 726.528C701.805 727.368 701.105 727.413 700.18 727.763C702.25 727.705 700.866 728.105 701.683 728.964C702.092 729.393 704.616 729.055 705.054 728.857C705.054 728.858 705.054 728.859 705.053 728.86ZM700.237 753.091C699.916 752.861 699.467 752.619 699.094 752.383C699.09 752.204 699.091 752.026 699.087 751.847C699.403 751.887 699.733 751.934 700.039 751.968C700.175 751.761 699.722 751.763 699.695 751.688C699.697 751.688 699.698 751.688 699.7 751.689C699.317 750.614 699.464 750.228 700.583 749.676C699.627 749.48 698.671 749.285 697.716 749.09C697.772 749.278 697.825 749.468 697.879 749.656C698.374 749.85 698.87 750.045 699.365 750.238C699.042 750.377 698.72 750.516 698.397 750.656C698.55 750.85 698.706 751.078 698.859 751.25C696.026 751.506 698.203 750.079 697.098 749.84C696.386 749.685 696.051 751.501 696.494 751.857C696.559 751.908 698.628 751.909 697.46 752.364C697.276 752.433 692.956 751.637 696.308 753.023C696.784 753.219 699.532 753.381 700.237 753.091ZM702.956 746.915C699.993 747.328 703.694 744.257 701.09 745.364C699.927 744.635 699.925 744.721 698.705 744.941C698.596 744.96 698.319 744.566 698.269 744.583C697.557 744.882 697.773 745.473 696.649 745.236C696.684 745.366 696.713 745.487 696.748 745.617C697.911 745.357 698.457 746.283 699.287 746.772C699.663 746.994 699.854 746.708 700.184 746.898C700.304 746.967 699.954 747.349 700.321 747.445C701.152 747.659 702.343 747.625 703.06 747.296C703.06 747.296 703.061 747.296 703.062 747.297C703.032 747.169 702.989 747.043 702.956 746.915ZM696.583 768.012C695.022 767.92 694.464 768.54 693.946 767.077C693.633 767.091 693.323 767.107 693.01 767.121C692.997 767.351 692.986 767.573 692.971 767.806C693.458 767.968 693.825 768.117 694.099 768.252C696.294 769.34 692.43 769.617 695.396 769.39C695.758 769.362 695.461 768.763 696.315 769.45C696.316 769.449 696.317 769.449 696.318 769.448C696.232 769.038 696.046 768.792 696.027 768.583C696.008 768.394 696.127 768.235 696.583 768.012ZM696.378 762.918C693.463 760.647 694.166 764.94 695.141 764.415C695.228 764.369 694.846 762.508 696.378 762.918ZM696.885 776.95C697.061 776.203 695.328 775.874 694.689 775.85C694.048 775.826 694.599 776.454 694.49 776.506C694.128 776.675 693.987 776.172 693.493 776.388C693.333 776.46 692.503 777.689 692.569 777.762C692.934 778.165 694.448 777.895 694.597 778.017C695.088 778.415 694.274 778.725 695.025 778.934C696.626 779.38 695.036 778.324 695.029 778.185C695.015 777.769 695.927 777.947 696.158 777.674C696.389 777.401 696.106 777.154 696.213 776.898C696.249 776.813 696.873 776.987 696.885 776.95ZM693.612 773.85C694.8 774.857 696.547 773.162 696.277 772.884C695.473 772.058 693.045 773.365 693.612 773.85ZM698.276 748.556C699.075 749.47 700.189 747.957 699.91 747.399C699.498 747.403 698.002 748.24 698.276 748.556ZM699.435 755.083C699.267 754.364 696.955 754.838 696.884 755.401C698.23 755.989 698.009 755.631 698.136 755.28C698.263 754.93 699.567 755.643 699.435 755.083ZM694.078 784.932C694.119 784.793 693.281 782.302 692.602 783.567C692.55 783.664 692.526 785.323 692.729 785.476C693.136 785.786 693.963 785.294 694.078 784.932ZM700.923 758.641C700.389 758.375 700.119 758.159 699.836 758.009C699.537 757.852 699.224 757.768 698.573 757.778C698.505 757.779 698.433 757.781 698.358 757.784C698.357 757.784 698.357 757.785 698.357 757.785C698.352 757.768 698.349 757.752 698.346 757.736C698.183 756.834 701.017 757.315 700.99 757.116C700.895 756.409 698.694 756.654 698.089 756.108C698.549 757.204 697.196 756.664 696.97 757.391C696.963 757.413 696.97 757.446 696.988 757.487C697.105 757.761 697.703 758.404 698.142 758.572C698.647 758.765 700.277 758.71 700.923 758.641ZM693.937 788.25C694.511 787.532 692.618 786.543 692.156 787.591C691.93 788.104 693.588 788.69 693.937 788.25ZM710.107 710.822C709.567 710.816 709.028 710.813 708.49 710.817C708.436 710.502 708.379 710.186 708.322 709.87C708.429 710.135 708.533 710.399 708.638 710.665C708.946 710.173 709.937 710.154 710.108 710.82C710.107 710.821 710.107 710.821 710.107 710.822ZM714.961 691.756C715.51 691.621 714.079 690.81 713.946 690.845C712.956 691.105 714.201 691.941 714.961 691.756ZM703.167 748.471C703.569 747.632 700.942 747.712 700.656 748.223C701.204 747.991 702.939 748.947 703.167 748.471ZM713.321 698.489C713.089 698.52 712.856 698.551 712.621 698.592C712.984 698.378 713.195 698.374 713.321 698.489ZM696.363 784.879C696.575 784.77 696.88 783.781 696.661 783.61C696.197 783.252 694.688 783.842 695.051 784.371C695.089 784.429 696.149 784.988 696.363 784.877C696.363 784.878 696.363 784.879 696.363 784.879ZM711.35 709.846C711.326 709.842 711.303 709.836 711.283 709.828C711.305 709.834 711.328 709.84 711.35 709.846ZM722.038 671.893C721.998 671.892 721.958 671.889 721.921 671.882C721.958 671.886 721.997 671.888 722.038 671.893ZM699.571 778.075C702.027 778.118 700.871 777.145 699.586 777.567C699.519 777.592 699.589 777.995 699.571 778.075Z" fill="#FF0000"/>
<defs>
<filter id="filter0_f_257_77" x="0" y="0" width="1124" height="1124" filterUnits="userSpaceOnUse" color-interpolation-filters="sRGB">
<feFlood flood-opacity="0" result="BackgroundImageFix"/>
<feBlend mode="normal" in="SourceGraphic" in2="BackgroundImageFix" result="shape"/>
<feGaussianBlur stdDeviation="50" result="effect1_foregroundBlur_257_77"/>
</filter>
</defs>
</svg>
