<svg width="372" height="418" viewBox="0 0 372 418" fill="none" xmlns="http://www.w3.org/2000/svg">
<path d="M21.8125 78.3274C21.8281 78.9255 21.8413 79.5375 21.8523 80.1614C21.9355 84.9087 21.8864 90.3421 21.77 95.5324C21.698 98.7429 21.6003 101.86 21.4922 104.665C21.3973 107.151 20.9732 105.892 20.8887 107.609C20.8337 108.727 20.8202 109.82 20.8193 110.903C20.8175 113.071 20.8663 115.199 20.7353 117.411C20.6682 118.51 19.9964 117.142 19.9414 118.294C19.8144 120.997 19.773 123.637 19.7561 126.274C19.7335 129.802 19.7545 133.326 19.6728 136.988C19.6381 138.541 19.6045 140.094 19.5719 141.645C19.464 146.779 19.3676 151.901 19.2803 157.016C19.223 160.461 19.0761 163.997 18.8678 167.431C18.659 170.885 18.3875 174.322 18.0776 177.744C17.7679 181.163 17.4197 184.567 17.0563 187.961C16.6935 191.35 16.3155 194.727 15.9449 198.099C15.5753 201.462 15.2132 204.819 14.881 208.174C14.5494 211.527 14.2507 214.836 14.001 218.201C13.7185 222.017 13.5189 225.784 13.3753 229.631C13.3546 230.188 13.3351 230.746 13.3168 231.304C13.2148 234.409 13.1017 237.72 13.0127 241.128C12.9136 244.91 12.8438 248.812 12.8348 252.681C12.8255 256.636 12.8787 260.556 13.0239 264.274C13.0372 264.616 13.0514 264.956 13.0663 265.294C13.1229 266.562 13.6976 265.794 13.7509 266.034C14.5682 269.808 13.3539 268.572 13.2417 271.05C13.1695 272.644 13.111 274.267 13.0632 275.91C12.9516 279.74 12.8978 283.694 12.8626 287.584C12.8626 287.584 12.8626 287.584 12.8626 287.584C12.8224 292.044 12.813 296.466 12.8558 300.595C12.8584 300.84 12.8611 301.084 12.8639 301.327C12.9128 305.346 14.1336 301.334 13.4262 305.368C13.3784 305.649 12.7648 304.623 12.6845 305.722C12.5369 307.754 12.5488 311.269 12.5293 313.543C12.5246 314.061 12.518 314.515 12.5066 314.873C12.3893 318.588 12.3938 319.203 12.4006 322.711C12.4034 323.905 12.3922 325.157 12.3801 326.44C12.3426 330.307 12.305 334.477 12.5941 338.312C12.6707 339.297 13.1452 338.184 13.3791 339.246C13.4039 339.358 13.426 339.493 13.445 339.658C13.6318 341.391 13.8876 345.97 13.8804 347.522C13.8624 349.075 13.3043 348.465 13.2128 348.748C12.9321 349.599 13.0018 350.83 13.2211 352.078C13.5999 354.259 14.4461 356.469 14.5254 356.893C14.9985 359.521 15.4514 362.026 15.9284 364.543C16.3484 366.741 16.823 368.741 17.4038 370.815C17.9924 372.909 18.6661 374.961 19.4355 376.981C20.2069 379.005 21.0744 380.997 22.0558 382.954C23.0219 384.879 24.0989 386.771 25.3094 388.618C25.3162 388.629 25.323 388.639 25.3299 388.65C26.5028 390.436 27.7929 392.187 29.1795 393.867C30.577 395.558 31.9898 397.093 33.576 398.641C35.0408 400.059 36.3662 401.132 37.9143 402.17C39.4777 403.212 41.0984 404.052 42.7591 404.717C43.0541 404.835 43.3489 404.948 43.6465 405.055C45.1088 405.585 46.5934 405.986 48.0974 406.293C49.9916 406.679 51.9158 406.919 53.8628 407.078C55.8527 407.24 57.8657 407.318 59.92 407.363C61.9504 407.407 64.0288 407.417 66.1551 407.43C67.7598 407.439 69.3867 407.438 71.0473 407.422C72.0932 407.412 70.8656 406.663 72.1425 406.649C76.3115 406.604 80.4795 406.558 84.6413 406.523C90.8136 406.471 96.9782 406.442 103.149 406.476C106.346 406.493 109.546 406.527 112.748 406.582C114.107 406.607 112.371 407.305 113.729 407.368C116.095 407.475 118.854 407.635 121.703 407.74C128.872 408.004 136.61 407.932 140.107 405.804C140.14 405.804 140.174 405.804 140.208 405.805C145.824 405.812 152.618 405.822 157.638 406.341C158.167 406.395 158.527 406.461 158.775 406.531C160.06 406.895 158.392 407.377 161.734 407.084C162.634 407.006 161.457 406.385 162.807 406.317C167.495 406.082 172.559 406.16 177.338 406.02C178.353 405.991 179.355 405.95 180.34 405.892C181.483 405.825 181.171 405.258 181.495 405.156C182.193 404.944 183.011 404.877 183.857 404.895C186.309 404.948 189.001 405.721 189.735 405.795C189.95 405.816 190.164 405.836 190.375 405.856C192.702 406.07 194.838 406.186 196.894 406.246C199.114 406.311 201.241 406.31 203.412 406.295C205.45 406.281 207.527 406.256 209.757 406.262C209.82 406.262 209.878 406.261 209.931 406.259C211.238 406.208 209.521 405.504 211.025 405.482C212.822 405.458 214.632 405.443 216.449 405.437C218.148 405.43 219.759 405.383 221.448 405.3C223.125 405.217 224.806 405.101 226.489 404.965C228.188 404.827 229.89 404.669 231.587 404.51C232.716 404.404 233.843 404.297 234.967 404.195C236.727 404.036 235.204 404.894 236.05 404.851C236.335 404.836 236.604 404.814 236.856 404.787C239.142 404.54 240.18 403.837 241.971 403.435C242.569 403.302 243.251 403.202 244.092 403.17C244.862 403.14 244.491 403.739 244.637 403.785C245.665 404.106 246.576 403.978 247.324 403.735C247.324 403.735 247.324 403.735 247.324 403.735C248.213 403.44 248.828 402.946 249.112 402.896C250.066 402.721 251 402.569 251.891 402.438C253.543 402.197 255.092 402.028 256.623 401.879C258.227 401.721 259.808 401.583 261.456 401.388C262.986 401.207 264.573 400.975 266.301 400.64C266.537 400.594 266.775 400.546 267.017 400.497C267.825 400.332 265.868 399.953 268.156 399.537C269.123 399.366 270.101 399.207 271.09 399.067C272.726 398.833 274.47 398.644 276.141 398.543C276.141 398.543 276.141 398.543 276.141 398.543C277.958 398.431 279.821 398.356 281.653 398.312C283.483 398.267 285.314 398.253 287.142 398.26C288.967 398.267 290.789 398.296 292.606 398.338C294.425 398.38 296.238 398.436 298.042 398.498C299.856 398.559 301.661 398.627 303.455 398.693C305.266 398.76 307.055 398.824 308.846 398.879C308.846 398.879 308.846 398.879 308.846 398.879C310.363 398.926 311.872 398.976 313.372 399.03C313.813 399.045 314.254 399.062 314.694 399.078C317.024 399.164 315.361 399.692 315.507 399.757C316.428 400.148 317.224 400.187 317.898 400.083C318.972 399.918 319.735 399.392 320.202 399.36C320.949 399.314 321.691 399.292 322.423 399.284C323.976 399.269 325.492 399.322 326.949 399.364C328.536 399.41 330.054 399.443 331.475 399.362C333.072 399.271 334.548 399.036 335.865 398.512C335.91 398.513 335.956 398.514 336.001 398.515C336.001 398.515 336.001 398.515 336.001 398.515C337.114 398.538 338.255 398.634 339.27 398.723C340.309 398.815 341.311 398.91 342.292 398.979C343.273 399.048 344.231 399.092 345.153 399.084C346.073 399.075 346.958 399.014 347.756 398.87C348.551 398.728 349.253 398.496 349.763 398.196C350.336 397.816 350.471 397.73 350.866 397.078C351.445 395.979 351.841 394.929 352.225 393.68C352.595 392.463 352.893 391.185 353.147 389.88C353.402 388.575 353.613 387.24 353.804 385.889C353.994 384.537 354.165 383.169 354.335 381.787C354.506 380.404 354.677 379.009 354.874 377.597C355.069 376.202 355.301 374.724 355.591 373.31C356.091 370.88 356.609 368.457 357.131 366.047C357.653 363.633 358.18 361.229 358.696 358.828C359.212 356.426 359.716 354.029 360.193 351.631C360.671 349.231 361.122 346.83 361.534 344.424C361.671 343.622 361.803 342.822 361.931 342.019C361.979 341.706 362.59 342.338 362.683 341.711C362.985 339.65 363.076 338.245 363.058 337.2C362.983 334.41 362.208 334.143 361.33 330.527C361.286 330.349 361.278 330.12 361.298 329.854C361.43 328.259 362.475 325.406 362.551 325.089C362.907 323.829 363.965 325.068 364.025 324.648C364.071 324.3 364.079 323.994 364.056 323.72C363.841 321.341 361.412 321.45 360.869 317.855C360.843 317.686 360.821 317.51 360.803 317.325C360.794 317.18 361.457 317.729 361.48 317.335C361.552 316.109 361.186 314.934 361.265 313.727C361.317 312.934 361.475 312.273 361.641 311.638C362.055 310.058 362.515 308.643 361.516 305.746C361.464 305.599 361.281 305.577 361.038 305.522C360.436 305.385 359.45 305.048 359.199 302.04C359.161 301.569 359.072 300.648 358.973 299.514C358.807 297.657 358.625 295.181 358.557 293.274C358.518 292.229 358.476 291.36 358.467 290.838C358.422 288.832 359.137 290.15 359.152 290.008C359.302 287.311 359.448 286.394 359.709 285.843C359.974 285.263 360.339 285.074 360.742 283.573C361.505 280.62 358.836 281.812 358.355 280.747C358.176 280.355 358.061 279.554 357.983 278.646C357.849 277.082 357.813 275.192 357.834 274.542C357.868 273.514 358.483 274.669 358.439 273.769C358.373 272.471 358.24 271.629 358.071 271.089C357.46 269.143 356.388 271.104 355.737 269.684C354.877 267.822 354.629 266.026 354.568 264.242C354.488 261.936 354.719 259.656 354.341 257.305C354.277 256.904 354.202 256.773 354.12 256.726C353.97 256.64 353.799 256.835 353.637 256.197C353 253.662 352.85 251.7 352.456 249.449C352.456 249.449 352.456 249.449 352.456 249.449C352.243 248.228 351.944 246.918 351.439 245.379C351.263 244.84 350.13 242.789 349.76 240.736C349.639 240.062 349.601 239.387 349.707 238.763C349.77 238.406 350.468 239.247 350.244 237.546C350.041 236.005 349.661 233.73 349.226 231.585C348.944 230.193 348.64 228.855 348.351 227.808C347.808 225.847 347.451 228.301 347.185 225.744C347.067 224.608 347.99 226.566 347.727 224.439C347.67 223.98 347.572 223.37 347.448 222.675C347.002 220.172 346.228 216.573 345.886 214.991C345.695 214.115 345.511 213.853 345.358 213.824C345.312 213.816 345.269 213.828 345.229 213.851C345.096 213.928 345 214.125 344.967 214.058C344.947 214.017 344.926 213.97 344.904 213.918C344.42 212.793 343.408 209.283 343.344 208.954C343.076 207.665 342.819 206.381 342.571 205.102C341.988 202.09 341.457 199.093 340.976 196.125C340.02 190.234 339.093 184.441 338.095 178.652C337.096 172.862 336.027 167.085 334.787 161.242C334.604 160.379 334.417 159.516 334.226 158.65C333.936 157.333 333.441 158.347 333.39 158.147C332.212 153.672 334.7 156.891 334.671 153.61C333.402 154.335 333.278 152.419 332.505 149.255C332.131 147.73 331.768 148.671 331.687 148.541C330.442 146.413 331.169 144.621 331.302 144.171C331.335 144.059 331.36 143.948 331.378 143.838C331.631 142.313 330.578 140.962 330.882 139.909C331.204 138.783 332.416 141.005 331.829 137.943C331.18 137.174 330.333 139.691 329.69 137.4C328.867 134.466 328.096 130.611 327.421 126.516C326.41 120.418 325.631 113.787 325.075 108.892C324.902 107.386 324.748 106.042 324.608 104.931C323.726 97.7969 323.377 95.4902 323.079 91.3148C323.077 91.2858 323.075 91.2569 323.073 91.2285C322.293 83.9401 321.745 86.7694 320.195 82.6126C319.763 81.6033 319.579 80.9386 319.579 80.4798C319.554 79.0433 321.305 79.5662 321.48 78.9608C321.701 78.1422 320.941 77.6872 320.844 76.8123C320.739 75.9347 321.835 77.4359 321.074 75.6001C320.399 73.7759 316.949 69.9891 315.848 69.5817C315.798 69.5586 315.754 69.5421 315.717 69.5324C313.92 69.1388 314.545 71.5766 311.633 67.6695C311.456 67.4463 312.544 67.6896 311.838 66.8554C310.383 65.1648 308.75 63.5806 307.002 62.1044C304.081 59.6367 300.838 57.4684 297.52 55.4817C295.08 54.0206 292.596 52.6538 290.125 51.316C289.043 50.7315 290.334 50.5817 289.704 50.2343C288.885 49.783 288.197 49.4282 287.609 49.1464C283.502 47.2008 284.522 48.8093 280.804 48.3866C282.17 47.3196 281.04 45.7173 277.164 43.7635C276.666 43.512 276.121 43.2568 275.531 42.9997C272.394 41.6509 272.63 42.5788 270.396 42.2403C269.727 42.1384 267.678 40.7807 267.141 40.9591C265.384 41.5433 267.046 43.5119 261.8 41.0549C261.569 40.9467 262.544 40.62 261.729 40.2899C261.093 40.0323 260.516 39.8217 259.985 39.6469C256.114 38.3952 254.706 38.9228 249.522 37.4976C247.756 37.0198 245.498 36.2896 243.075 35.5084C239.148 34.2369 234.781 32.8434 231.489 32.0041C231.917 30.5709 228.954 29.7992 226.494 29.9271C225.754 29.9646 225.061 30.0818 224.52 30.2815C221.044 29.4746 217.252 28.7767 213.901 27.9265C212.747 27.6347 213.622 27.2345 213.486 27.146C211.75 25.9909 210.219 26.4946 209.319 26.6323C209.145 26.6589 208.994 26.6719 208.87 26.6564C202.747 25.8541 197.59 24.4575 192.085 23.5582C190.122 23.2378 188.112 22.9807 186.001 22.8368C185.716 22.8176 185.01 24.0566 183.094 22.6858C182.971 22.5929 185.682 22.4912 181.994 21.7314C180.197 21.3593 177.654 20.674 174.918 20.0064C172.053 19.3043 168.959 18.7457 166.283 18.6817C165.382 18.6576 163.462 18.9805 161.564 18.7772C160.793 18.6939 160.024 18.5226 159.321 18.1997C158.996 18.0486 159.406 17.7031 158.941 17.4379C157.426 16.5934 156.44 17.8673 154.68 16.5569C153.484 15.6707 151.328 14.8478 148.4 14.5938C147.008 14.4729 145.442 14.481 143.732 14.6716C143.562 14.6884 142.275 15.7173 140.625 15.6519C138.962 15.5847 136.86 15.4426 134.84 15.3492C133.657 15.2941 132.501 15.2547 131.482 15.2514C130.161 15.2483 131.003 15.9232 130.774 15.9342C127.362 16.0642 124.33 16.0832 121.346 16.0435C117.064 15.9871 112.883 15.8154 107.841 15.7255C107.261 15.7151 106.669 15.7056 106.064 15.6975C104.322 15.6739 99.3136 16.6503 95.9299 15.9328C95.0878 15.7555 94.634 15.4471 94.3352 15.0869C93.3164 13.8554 94.1007 12.042 87.5306 12.6096C86.93 12.6604 86.3003 12.8288 85.6369 13.0604C83.2343 13.8998 80.3904 15.5641 76.9008 15.4768C75.845 15.4506 74.7297 15.2646 73.5459 14.8484C71.7386 14.9267 69.9521 14.9742 68.1796 15.0059C65.2417 15.0584 62.3419 15.0674 59.4504 15.1014C56.5385 15.1357 53.6345 15.1953 50.7145 15.3528C47.8339 15.5081 44.9275 15.7598 42.0076 16.1795C40.842 16.3472 39.671 16.5261 38.49 16.7258C38.2045 16.7738 37.622 17.1769 36.9492 17.5612C36.3608 17.8969 35.7065 18.2181 35.1186 18.2758C33.724 18.4109 32.765 18.2153 31.8112 18.1617C31.4843 18.1436 31.1591 18.1421 30.8175 18.1772C29.4024 18.319 28.0244 18.5143 26.6725 18.7521C24.9532 19.0546 23.2769 19.4253 21.6208 19.8436C19.9555 20.2645 18.3113 20.7328 16.6592 21.2368C16.1229 21.4004 15.5856 21.568 15.0462 21.7394C13.1954 22.354 13.5392 21.6754 11.5773 22.3716C11.476 22.4092 11.3716 22.4507 11.2643 22.4967C10.8562 22.6721 10.4863 22.8844 10.1564 23.1308C9.71174 23.4629 9.33885 23.8584 9.06023 24.3134C8.79111 24.7494 8.621 25.235 8.50119 25.7634C8.39381 26.2267 8.31763 26.7322 8.18963 27.2884C8.08628 27.7355 7.94757 28.216 7.72513 28.7131C7.71286 28.7403 7.70026 28.7675 7.68734 28.7947C7.45934 29.2765 7.14704 29.7029 6.7681 30.0898C5.95493 30.9217 5.14438 32.0315 4.55888 33.2932C4.09556 34.2891 3.75973 35.4099 3.6457 36.6251C3.94359 36.665 4.17599 36.7955 4.36178 37.0027C4.87941 37.5869 5.03574 38.798 5.28323 40.5792C5.38982 41.3515 5.51278 42.2309 5.67975 43.2093C5.81397 43.9864 6.27078 43.1083 6.36118 43.4738C6.40929 43.6617 6.44637 43.848 6.47525 44.0328C6.66175 45.2305 6.50962 46.3961 6.77105 47.551C6.78949 47.6332 6.80994 47.715 6.83265 47.7965C6.92761 48.1398 7.43822 48.1222 7.54358 48.4075C7.83207 49.1599 7.93558 50.1664 7.88211 51.1274C7.79722 52.6082 7.45812 54.0942 7.23244 54.9558C7.15336 55.2578 7.08821 55.483 7.05279 55.6045C6.67133 56.9254 6.64894 57.8929 6.68329 58.7844C6.71735 59.6681 6.80718 60.4771 6.65826 61.4814C6.36944 63.4264 6.01087 60.6849 5.82315 62.6129C5.81647 62.6815 5.81001 62.7559 5.80377 62.8368C5.71622 63.9742 5.65357 65.1871 5.60868 66.4414C5.56405 67.688 5.53697 68.9754 5.5204 70.2699C5.50401 71.5499 5.49791 72.837 5.4953 74.0984C5.4953 74.0984 5.4953 74.0984 5.4953 74.0984C5.49241 75.3717 5.53093 76.6341 5.59575 77.8234C5.61711 78.2168 5.64127 78.6035 5.66749 78.9821C5.82426 80.9739 6.39162 79.5548 6.42954 79.8394C6.49998 80.3785 6.56136 80.9188 6.62003 81.4559C6.75743 82.7163 6.88102 83.9605 7.06158 85.1176C7.27207 86.469 7.55977 87.7012 8.02043 88.6841C8.26124 89.1981 8.54909 89.6438 8.89749 90.0026C7.92334 91.239 7.75485 91.9142 7.96657 92.492C8.26495 93.2987 9.29332 93.9283 10.0503 95.7522C10.0503 95.7522 10.0503 95.7522 10.0503 95.7522C10.3081 96.3719 10.524 97.1486 10.6407 98.1147C10.6942 98.586 9.216 99.5086 8.56609 97.8986C8.37927 97.4447 8.22961 96.9082 8.07682 96.316C8.07682 96.316 8.07682 96.316 8.07682 96.316C7.79312 95.2205 7.54961 93.9345 7.18957 92.6894C7.04666 92.1955 6.88449 91.7051 6.692 91.2305C6.58207 90.9597 5.97455 90.114 5.3773 89.2487C4.75593 88.3537 4.1474 87.4337 4.0567 87.2051C3.82904 86.6351 3.70596 86.128 3.65857 85.6816C3.42379 83.3649 5.14854 82.7526 5.23496 82.5812C5.39289 82.2692 5.49303 81.9305 5.54917 81.5764C5.73233 80.4094 5.44414 79.055 5.11925 77.8502C4.79974 76.6784 4.44134 75.6456 4.38454 75.172C4.34037 74.8062 4.30391 74.4518 4.27411 74.0984C4.27411 74.0983 4.27411 74.0984 4.27411 74.0984C4.16031 72.7745 4.10479 71.503 4.07364 70.2699C4.04045 68.9559 4.03493 67.6855 4.01607 66.4414C3.99639 65.143 3.96217 63.8733 3.86679 62.6129C3.85136 62.409 3.83433 62.2053 3.8155 62.0019C3.66318 60.336 2.9765 59.6052 2.49133 58.7844C2.19671 58.2859 1.9764 57.7543 1.99519 56.9599C2.01195 56.2477 2.05054 55.5828 2.10425 54.9558C2.22761 53.5162 2.43076 52.2772 2.63252 51.1274C2.84483 50.0291 2.99027 48.9912 3.01895 47.8313C3.04565 46.7473 2.96289 45.6152 2.70063 44.327C2.50825 43.3788 2.21697 42.3453 1.81295 41.1507C1.75457 40.9768 1.6796 40.8448 1.59437 40.7384C1.04779 40.006 -0.0884158 40.5196 0.674793 36.8792C0.763017 36.4939 0.877684 36.0635 1.02987 35.5757C1.09082 35.3979 1.48526 34.2596 1.98518 32.8134C2.4153 31.5434 3.11229 29.6691 3.58197 28.3197C3.59972 28.2256 3.60463 28.1399 3.59732 28.0645C3.57516 27.8759 3.1017 27.6638 3.10377 27.547C3.11075 27.4662 3.12978 27.3614 3.14599 27.2661C3.19336 26.9965 3.25932 26.7028 3.35926 26.2677C3.4686 25.8148 3.5958 25.1949 3.89261 24.3069C4.16687 23.4841 4.67245 22.3771 5.45616 21.41C6.02575 20.693 6.70992 20.0727 7.37055 19.5758C7.49182 19.484 7.62046 19.3914 7.74302 19.3062C8.42255 18.8247 9.29008 18.3714 9.82369 18.113C11.3706 17.3378 13.2932 16.5392 15.0941 16.0119C15.7117 15.8297 16.3316 15.6712 16.95 15.5406C18.1064 15.2942 19.5279 15.3436 20.662 15.4471C21.4015 15.5133 22.0229 15.5985 22.3894 15.6207C23.6882 15.7059 24.9394 15.3813 26.0858 15.1057C27.2553 14.8242 28.3113 14.5934 29.1421 14.8994C30.7378 15.4971 28.1372 17.0541 31.6867 17.1593C31.7957 17.1632 31.9104 17.1657 32.0311 17.167C32.0148 15.814 32.1909 14.402 32.2733 13.0302C33.6673 12.8719 35.0511 12.7374 36.4245 12.6149C38.1621 12.4599 39.8736 12.3251 41.5796 12.1845C44.5148 11.9405 47.5293 11.7696 50.4781 11.6369C53.2433 11.5119 56.0088 11.4148 58.7843 11.3068C59.3372 11.2848 59.3248 11.1022 59.3229 10.9166C59.3209 10.7315 59.3294 10.5433 59.9221 10.5121C62.7849 10.3652 65.4384 10.4653 68.1455 10.5381C70.1715 10.593 72.2283 10.6337 74.4301 10.5513C75.2482 10.5201 76.082 10.4646 76.9265 10.3949C79.7848 10.1588 82.7652 9.7594 85.6634 9.57634C86.0766 9.55024 86.4883 9.52853 86.8976 9.51232C88.4366 10.4642 91.3102 10.6549 94.3353 10.6773C96.2563 10.6917 98.2274 10.6353 99.9466 10.6753C101.497 10.7101 101.399 11.1216 102.506 11.2438C106.691 11.6892 104.715 10.3522 105.858 10.1236C106.576 9.98019 107.198 9.92307 107.756 9.92978C111.017 9.96911 112.084 12.1831 117.055 12.0491C117.322 12.0422 120.2 10.7635 121.29 10.3636C121.452 10.3037 121.575 10.2633 121.642 10.2494C124.952 9.55475 122.196 10.8147 124.27 10.9206C127.987 11.1176 130.588 11.4933 134.898 11.108C134.983 11.1004 135.07 11.0926 135.157 11.0844C136.456 10.9583 139.614 9.99443 142.13 10.8736C142.46 10.9885 142.257 11.5242 142.524 11.5652C146.123 12.0919 147.153 11.3118 148.619 10.6929C149.12 10.4828 149.672 10.2941 150.394 10.192C153.236 9.7792 157.475 11.3339 158.31 11.7665C160.514 12.8671 156.519 11.9648 156.386 12.0491C154.844 12.9437 157.985 13.0292 160.361 13.3822C160.444 14.2316 161.315 14.7232 162.035 14.8071C162.755 14.8903 163.334 14.5633 162.823 13.7507C162.781 13.6878 162.52 13.638 162.179 13.5953C161.556 13.5165 160.665 13.4647 160.361 13.3822C160.922 13.0364 161.572 12.7901 162.292 12.6483C164.49 12.2148 167.337 12.7591 170.215 14.4061C171.962 15.437 170.123 15.8983 175.594 16.6753C175.657 16.6847 175.72 16.6942 175.785 16.7037C178.341 17.078 177.591 15.7539 179.879 15.8885C183.896 16.1216 188.625 17.5384 193.022 18.55C194.336 18.8527 195.617 19.1191 196.84 19.3076C198.767 19.6046 197.017 18.6374 198.337 18.819C201.846 19.2996 204.828 20.3371 208.372 20.7664C208.693 20.8046 208.042 20.0089 209.133 20.2087C209.594 20.2927 210.052 20.3778 210.507 20.4639C216.439 21.5897 221.844 22.8971 227.731 24.2982C229.481 24.7154 231.273 25.1417 233.136 25.5784C236.169 26.2844 240.986 27.2672 245.026 28.2863C246.528 28.6626 247.923 29.0394 249.078 29.39C253.162 30.624 257.667 32.3588 261.907 34.0737C265.348 35.4612 268.599 36.8258 271.408 37.8349C275.482 39.3228 274.855 38.3731 276.739 38.6797C277.479 38.804 278.282 39.0702 279.093 39.423C282.188 40.7641 285.499 43.361 286.032 43.8176C286.049 43.8306 282.647 42.4804 284.29 43.5856C285.036 44.692 285.994 43.8036 286.032 43.8176C286.227 43.982 287.656 44.6992 289.297 45.5084C291.34 46.51 293.714 47.685 294.482 47.9945C295.233 48.2929 295.11 47.5331 295.497 47.7007C297.191 48.4407 298.875 49.2277 300.548 50.0791C304.201 51.9388 307.816 54.1093 311.219 56.7506C314.597 59.3711 317.764 62.481 320.393 66.091C320.502 66.2403 320.61 66.3904 320.717 66.5415C320.825 66.7066 320.09 66.8886 320.345 67.2685C323.029 71.366 324.988 74.3501 326.788 77.7604C327.315 78.7711 327.83 79.8708 328.286 81.0024C329.723 84.5893 330.266 87.9764 330.081 90.4499C330.003 91.4096 329.845 92.2999 329.595 93.1235C330.148 96.5946 330.278 101.627 330.373 104.559C330.459 107.278 331.687 107.642 331.907 107.879C331.924 107.897 331.935 107.914 331.939 107.931C333.681 114.574 333.933 118.943 334.798 125.223C334.943 126.263 335.105 127.354 335.296 128.517C335.848 131.925 337.167 138.226 338.139 142.54C338.276 143.149 338.405 143.719 338.524 144.235C339.284 147.531 339.363 149.593 340.166 152.614C340.275 153.022 340.787 152.487 340.834 152.609C342.22 155.883 340.444 154.53 340.324 155.286C340.046 157.033 339.869 158.349 340.116 160.181C340.257 161.228 340.537 162.443 341.016 164.004C341.318 164.994 343.996 167.522 344.485 169.343C345.116 171.711 344.187 170.953 344.865 173.431C344.922 173.643 345.376 173.507 345.662 175.062C345.785 175.735 345.908 176.413 346.031 177.097C347.044 182.747 348.028 188.79 349.073 194.644C349.257 195.672 349.447 196.689 349.643 197.695C349.839 198.701 350.328 197.272 350.624 198.722C350.93 200.222 351.245 201.763 351.56 203.319C352.15 206.239 352.744 209.225 353.298 212.175C353.787 214.786 354.244 217.369 354.636 219.853C354.898 221.525 354.167 220.596 354.091 220.987C354.072 221.085 354.058 221.184 354.047 221.284C353.796 223.614 355.637 226.256 355.765 226.748C356.061 227.87 356.337 228.971 356.594 230.057C357.325 233.142 357.911 236.099 358.431 239.02C358.968 242.039 359.443 245.054 359.924 248.091C359.924 248.091 359.924 248.091 359.924 248.091C360.295 250.437 360.721 252.752 361.26 255.232C361.666 257.097 362.13 259.02 362.662 261.027C362.711 261.209 362.932 261.698 363.217 262.37C363.989 264.19 365.221 267.386 364.678 269.323C364.667 269.363 364.622 269.52 364.571 269.761C364.389 270.621 364.131 272.54 365.116 274.061C365.194 274.184 365.565 272.564 365.986 275.187C366.08 275.785 366.213 276.46 366.358 277.195C366.802 279.433 367.355 282.233 367.297 284.913C367.29 285.222 367.275 285.528 367.252 285.832C367.162 286.954 366.306 289.666 367.205 292.831C367.257 293.004 367.315 293.178 367.381 293.352C367.442 293.55 369.034 296.389 369.117 298.585C369.138 299.208 369.03 299.774 368.717 300.205C368.49 300.522 366.76 300.375 368.05 304.198C368.249 304.78 368.431 304.007 368.727 304.656C368.802 304.822 368.885 305.079 368.978 305.475C369.336 306.994 369.522 308.803 369.768 310.716C370.006 312.572 370.298 314.524 370.852 316.404C370.884 316.514 370.95 316.682 371.035 316.897C371.461 317.975 372.344 320.29 371.741 322.327C371.627 322.707 371.024 322.037 371.034 323.29C371.034 323.304 371.034 323.317 371.034 323.331C371.045 325.431 371.098 327.711 371.096 329.854C371.098 332.387 371.04 335.12 370.827 337.68C370.718 338.994 370.569 340.301 370.367 341.589C370.027 343.7 369.232 342.528 368.751 344.69C368.711 344.866 368.669 345.055 368.626 345.257C368.193 347.32 367.567 350.627 367.462 352.807C367.451 353.045 367.447 353.269 367.451 353.478C367.482 355.791 369.338 353.58 368.863 356.972C368.685 358.209 368.489 359.438 368.281 360.659C367.857 363.148 367.378 365.601 366.875 368.028C366.371 370.464 365.846 372.853 365.318 375.255C365.05 376.474 364.846 377.603 364.629 378.935C364.416 380.235 364.217 381.587 364.01 382.973C363.803 384.36 363.589 385.782 363.348 387.237C363.106 388.691 362.838 390.178 362.509 391.704C362.179 393.231 361.791 394.798 361.276 396.422C360.816 397.873 360.188 399.545 359.38 401.111C359.307 401.253 359.244 401.376 359.189 401.484C357.529 403.84 359.692 402.964 354.836 406.741C354.769 406.781 354.702 406.82 354.634 406.859C352.923 407.837 351.192 408.359 349.618 408.668C348.106 408.961 346.699 409.069 345.357 409.108C344.092 409.143 342.887 409.11 341.727 409.055C340.617 409.002 339.549 408.927 338.551 408.865C337.54 408.803 336.791 408.762 336.001 408.765C336.001 408.765 336.001 408.765 336.001 408.765C334.503 408.774 332.989 408.781 331.475 408.782C329.96 408.784 328.446 408.781 326.949 408.771C325.416 408.761 323.901 408.744 322.423 408.718C320.866 408.691 319.35 408.653 317.898 408.604C316.303 408.549 314.785 408.479 313.372 408.392C311.933 408.302 310.604 408.194 309.413 408.064C309.213 408.043 309.024 408.021 308.846 407.999C308.846 407.999 308.846 407.999 308.846 407.999C301.705 407.116 311.395 406.518 305.279 406.131C304.642 406.089 303.996 406.129 303.364 406.218C301.005 406.55 298.858 407.573 298.29 407.607C298.16 407.615 298.03 407.623 297.902 407.63C295.958 407.737 294.188 407.752 292.509 407.728C290.656 407.701 288.913 407.625 287.174 407.573C285.441 407.521 283.713 407.491 281.891 407.562C281.382 407.582 280.865 407.61 280.34 407.647C279.082 407.74 280.338 408.378 279.276 408.452C278.442 408.514 277.595 408.559 276.716 408.6C276.716 408.6 276.716 408.601 276.716 408.6C275.211 408.674 273.897 408.752 272.397 408.907C271.191 409.032 269.984 409.198 268.81 409.42C268.406 409.497 268.134 409.589 267.928 409.684C267.358 409.949 267.287 410.238 266.238 410.407C265.26 410.567 264.299 410.719 263.341 410.859C261.729 411.093 260.124 411.291 258.443 411.43C257.624 411.498 256.787 411.552 255.922 411.588C255.588 411.601 257.683 410.573 254.949 411.027C254.404 411.114 253.84 411.195 253.257 411.27C251.669 411.474 249.817 411.644 248.053 411.754C248.053 411.754 248.053 411.754 248.053 411.754C246.38 411.856 244.739 412.011 243.044 412.277C242.108 412.425 241.174 412.604 240.256 412.821C239.332 413.041 239.052 413.624 238.078 413.893C237.557 414.036 236.837 414.091 235.703 413.953C235.058 413.874 235.607 412.526 232.765 413.763C232.573 413.845 232.366 413.939 232.142 414.045C231.814 414.199 229.857 415.004 227.554 415.537C225.665 415.979 223.539 416.221 222.047 415.829C222.033 415.825 222.018 415.821 222.004 415.817C221.141 415.585 218.898 414.513 217.039 414.704C216.8 414.733 217.71 415.318 216.449 415.428C216.395 415.433 216.336 415.437 216.273 415.439C214.192 415.524 212.07 415.563 209.931 415.593C207.767 415.623 205.586 415.644 203.412 415.693C202.415 415.715 201.419 415.743 200.426 415.781C199.013 415.836 201.118 416.5 199.011 416.56C198.324 416.58 197.617 416.595 196.894 416.606C194.808 416.638 192.595 416.634 190.375 416.607C188.169 416.58 185.957 416.53 183.857 416.468C182.631 416.432 181.444 416.393 180.318 416.351C178.229 416.274 179.673 415.724 179.521 415.664C178.68 415.329 177.958 415.265 177.339 415.328C176.161 415.448 175.359 416.032 174.829 416.083C169.807 416.553 165.992 415.963 161.356 416.173C160.077 416.23 160.991 416.846 160.737 416.905C158.464 417.401 159.609 416.614 158.889 416.322C158.775 416.276 158.614 416.242 158.385 416.228C153.699 415.932 148.476 416.062 143.736 416.226C141.995 416.287 143.965 416.978 142.403 417.025C141.742 417.046 141.08 417.066 140.416 417.085C134.29 417.262 128.028 417.366 121.902 417.341C119.394 417.33 116.91 417.298 114.467 417.239C112.761 417.197 113.822 416.616 113.464 416.496C110.998 415.652 107.433 416.941 106.608 417.073C105.304 417.282 104.276 417.362 103.349 417.383C101.614 417.423 100.237 417.258 98.0741 417.355C93.8519 417.546 89.3671 417.68 84.7706 417.762C78.6511 417.871 72.3033 417.888 66.1551 417.832C64.0662 417.812 61.9871 417.806 59.8636 417.771C57.6668 417.734 55.4489 417.665 53.2138 417.499C50.8604 417.324 48.4825 417.037 46.1525 416.568C45.808 416.499 45.4628 416.425 45.1208 416.348C43.0036 415.872 40.9039 415.224 38.8991 414.393C36.465 413.388 34.1854 412.117 32.1288 410.671C30.0756 409.243 27.954 407.364 26.4388 405.778C24.7433 404.026 22.9824 401.994 21.4897 400.074C19.9412 398.09 18.5083 396.05 17.1732 393.951C15.8416 391.857 14.6071 389.704 13.4616 387.481C12.3364 385.298 11.2966 383.046 10.3461 380.711C9.42441 378.446 8.58658 376.105 7.84719 373.662C7.61597 372.898 7.39321 372.119 7.18244 371.334C6.84553 370.048 6.45405 371.536 6.15791 370.416C5.81549 369.083 5.51497 367.72 5.28063 366.478C4.45149 362.116 3.82078 357.527 3.36938 353.124C2.91123 348.673 2.60562 344.236 2.37575 339.803C2.18958 336.21 2.05348 332.622 1.92925 329.028C1.89279 327.905 1.21565 329.538 1.13526 327.734C1.11861 327.361 1.10375 326.979 1.0908 326.589C0.972984 323.101 1.02003 318.986 1.24127 315.652C1.36006 313.844 1.95103 316.272 2.05885 314.454C2.07857 314.126 2.09742 313.796 2.11538 313.465C2.32889 309.523 2.41876 305.372 2.36335 301.394C2.33851 299.724 1.71097 301.858 1.6139 300.459C1.6043 300.321 1.59986 300.148 1.60166 299.935C1.63278 295.773 1.65124 291.692 1.6448 287.584C1.6448 287.584 1.6448 287.584 1.6448 287.584C1.63847 283.739 1.60696 279.941 1.58491 276.082C1.56294 272.242 1.55052 268.385 1.5821 264.498C1.61347 260.642 1.68805 256.757 1.84057 252.836C1.85854 252.374 1.87759 251.912 1.89779 251.449C1.94809 250.313 3.40033 249.302 3.10022 246.893C2.69203 246.714 2.21354 246.727 1.77811 246.651C1.74691 244.806 1.72705 242.959 1.72012 241.111C1.70544 237.186 1.74899 233.254 1.86675 229.314C1.98368 225.389 2.17957 221.368 2.46131 217.457C2.70715 214.034 3.01767 210.551 3.35351 207.149C3.69021 203.735 4.05679 200.339 4.42591 196.956C4.79444 193.579 5.16556 190.216 5.51272 186.86C5.85896 183.514 6.18141 180.175 6.4537 176.842C6.49155 176.378 6.52843 175.915 6.56427 175.452C6.639 174.472 5.74167 176.108 5.88043 174.213C6.05786 171.74 6.19594 169.291 6.30089 166.855C6.44334 163.531 6.52355 160.348 6.55915 157.016C6.61062 151.954 6.74864 146.858 7.08756 141.645C7.09791 141.486 7.10844 141.327 7.11916 141.168C7.19467 140.029 8.56118 140.613 8.35451 137.259C8.3168 136.667 8.13455 131.615 7.83791 130.308C7.79317 130.131 7.15533 131.053 7.13674 129.425C7.12604 128.38 7.1183 127.329 7.11352 126.274C7.09055 121.204 7.13598 116.034 7.25006 110.903C7.32711 107.438 7.43547 103.991 7.57522 100.604C7.63933 99.0799 8.31857 100.703 8.37014 99.6175C8.43307 98.2734 8.46929 96.9087 8.48948 95.5324C8.56457 90.4144 8.41804 85.1365 8.59942 80.1614C8.64872 78.809 8.72226 77.4789 8.83107 76.1805C9.24632 71.2547 10.4204 73.0784 11.5762 70.4609C11.7392 70.0907 11.7651 67.0405 12.4375 66.8827C14.1284 66.4778 15.9799 67.9552 17.7822 67.349C18.1704 67.2209 17.7523 63.1359 18.6904 65.5545C18.7532 65.7234 19.0646 68.6851 19.3828 69.4146C19.6028 69.9224 20.2867 69.0072 20.5683 70.0434C20.8497 71.0796 20.2765 72.2182 20.6074 73.9361C20.9424 75.6532 21.7204 74.8981 21.8125 78.3274ZM330.939 117.73C330.736 120.503 333.161 120.498 332.119 117.716C332.066 117.582 330.948 117.587 330.939 117.73ZM49.9269 13.6028C50.1609 13.6551 50.3893 13.6973 50.6113 13.7304C53.8383 14.2183 55.7652 12.7364 53.3595 12.0863C52.2295 11.7873 51.2104 11.995 50.5231 12.3435C49.6412 12.7906 49.3031 13.4651 49.9269 13.6028ZM13.283 20.1251C14.6451 19.9184 15.5251 19.4883 15.9944 19.0172C16.6234 18.3875 16.4794 17.6834 15.5596 17.5659C14.9944 17.4962 14.1347 17.6523 13.0162 18.2311C12.7587 18.3616 13.0267 20.1656 13.283 20.1251ZM11.9053 82.5995C11.9371 82.5621 11.968 80.3695 11.9365 80.3171C11.8894 80.2447 11.845 80.1937 11.8033 80.1614C11.7246 80.1005 11.6556 80.1063 11.5965 80.1614C11.1819 80.5484 11.2566 83.3667 11.9053 82.5995ZM5.3067 54.6558C5.61281 53.7933 5.4791 51.8497 5.18676 51.1273C5.05118 50.8081 4.88287 50.7405 4.71109 51.1273C4.69581 51.163 4.68047 51.2024 4.66511 51.2457C4.32775 52.1962 4.52428 54.4605 4.87876 54.9558C4.96565 55.0773 5.06205 55.0924 5.16239 54.9558C5.20981 54.8913 5.25811 54.7929 5.3067 54.6558ZM355.461 256.953C355.434 257.003 355.728 258.545 355.92 258.473C356.531 258.233 355.901 256.135 355.461 256.953ZM13.859 115.979C13.4054 114.803 13.0921 113.66 12.8732 112.594C12.5303 110.914 12.4197 109.437 12.4299 108.296C12.4797 105.399 13.2186 104.656 14.1382 107.897C14.3533 108.627 14.5839 109.556 14.8578 110.695C15.2497 112.432 13.0348 107.224 13.3516 109.473C13.4906 110.493 13.7586 111.394 14.0947 112.225C14.6413 113.575 15.3572 114.729 16.0306 115.929C16.6433 117.012 17.2082 118.127 17.7268 119.53C17.9365 120.15 15.3251 118.076 14.3281 116.665C14.0646 116.329 13.8893 116.07 13.8491 115.965C13.8524 115.969 13.8557 115.974 13.859 115.979ZM328.358 119.736C328.335 119.795 328.666 121.946 328.706 121.992C329.65 123.026 328.984 118.698 328.358 119.736ZM361.893 347.821C361.838 347.897 361.453 350.271 361.198 351.794C361.086 352.481 361.006 352.996 361.017 353.049C361.322 354.138 361.792 353.285 362.138 351.946C362.689 349.849 362.867 346.578 361.893 347.821ZM231.417 31.9342C229.657 32.0822 227.751 31.8602 226.205 31.2416C225.575 30.9896 225.005 30.6715 224.53 30.2848C225.126 30.427 225.724 30.5677 226.322 30.7082C228.02 31.1072 229.723 31.5047 231.417 31.9342Z" fill="black"/>
<path d="M142.808 258.277C142.451 256.937 142.279 255.615 142.199 254.303C142.096 252.591 142.165 250.972 142.29 249.587C142.36 248.842 142.796 249.205 142.866 248.689C142.962 247.964 142.882 247.323 142.89 246.639C142.894 246.351 142.914 246.064 142.97 245.777C143.035 245.455 143.71 245.851 143.763 245.514C144.049 243.663 143.895 241.934 144.072 240.088C144.094 239.862 144.116 239.636 144.138 239.41C144.369 237.023 144.597 234.654 144.819 232.304C145.041 229.96 145.26 227.588 145.469 225.265C145.671 222.957 145.9 220.499 146.013 218.5C146.068 216.761 146.218 214.962 146.496 213.1C146.901 210.317 147.962 207.383 148.873 204.639C149.08 204.01 149.277 203.392 149.45 202.788C149.559 202.408 148.925 202.418 148.906 202.331C148.647 200.943 149.611 201.749 150.048 201.102C151.793 198.533 153.432 195.682 154.868 193.168C155.436 192.178 154.048 192.405 154.841 191.927C154.904 191.89 154.98 191.848 155.072 191.802C155.158 191.758 155.487 192.374 155.736 192.14C156.296 191.607 157.079 190.401 157.491 189.977C158.28 189.163 158.395 189.019 159.101 188.22C160.076 187.135 161.493 186.109 162.516 184.944C162.735 184.692 161.972 184.53 162.286 184.084C162.599 183.633 163.692 182.728 164.155 182.536C164.615 182.34 164.788 182.857 164.926 182.891C165.063 182.926 165.187 182.929 165.302 182.906C166.146 182.739 166.478 181.129 166.613 180.991C169.286 178.2 172.487 177.073 175.573 175.401C175.796 175.28 176.02 175.158 176.246 175.035C178.4 173.858 180.667 172.612 182.839 171.801C184.899 171.033 186.814 170.592 188.776 170.108C189.535 169.921 190.304 169.729 191.097 169.513C191.398 169.432 190.86 168.788 191.23 168.688C194.684 167.753 198.512 167.199 202.006 167.323C202.441 167.336 202.878 167.359 203.315 167.392C203.722 167.424 203.238 168.111 203.647 168.183C205.242 168.448 207.351 169.1 209.061 168.917C210.071 168.806 210.975 168.401 211.646 167.408C213.123 167.669 214.875 168.06 216.191 168.765C216.384 168.868 216.567 168.977 216.739 169.092C217.602 169.679 216.52 170.16 217.737 170.143C218.012 170.143 217.831 169.443 218.237 169.491C219.844 169.685 221.451 170.369 223.031 170.688C223.136 170.709 223.241 170.729 223.346 170.747C223.691 170.803 223.804 170.241 223.932 170.181C225.013 169.704 225.772 171.5 225.99 171.706C227.147 172.734 228.2 173.282 229.311 173.813C229.895 174.093 230.487 174.365 231.108 174.704C231.524 174.934 231.389 173.996 231.805 174.195C233.166 174.853 234.5 175.624 235.739 176.483C236.462 176.985 237.156 177.518 237.807 178.077C238.198 178.416 237.454 178.711 237.622 178.901C238.361 179.728 239.229 178.832 239.945 179.616C240.097 179.78 239.689 180.176 239.689 180.249C239.673 181.382 240.863 180.546 241.013 180.61C241.061 180.63 241.109 180.65 241.156 180.671C243.094 181.614 243.435 183.76 244.835 185.1C245.018 185.281 245.183 184.381 245.67 184.924C245.775 185.042 245.878 185.162 245.98 185.283C247.366 186.929 248.468 188.798 249.314 190.724C250.161 192.652 250.756 194.638 251.156 196.586C251.232 196.958 251.301 197.329 251.364 197.698C251.477 198.377 250.832 198.06 250.782 198.121C250.005 199.068 251.43 199.119 251.54 199.323C252.086 200.379 251.943 201.556 252.319 202.443C252.51 202.895 252.833 203.273 253.449 203.545C253.663 205.074 253.901 206.571 254.15 208.066C254.472 209.987 254.808 211.891 255.131 213.76C255.131 213.76 255.131 213.76 255.131 213.76C255.725 217.182 256.131 220.739 255.867 224.258C255.846 224.545 255.82 224.832 255.79 225.12C255.782 225.213 255.1 225.112 255.086 225.296C254.904 227.507 255.902 226.996 257.278 228.374C257.624 228.73 256.154 229.942 256.044 230.043C255.648 230.423 254.633 230.103 254.559 230.227C253.975 231.239 257.266 230.927 257.315 232.293C257.311 232.335 256.699 232.177 256.642 232.293C256.464 232.651 256.715 232.995 256.514 233.345C256.187 233.905 255.305 234.22 255.129 234.761C255.053 234.993 255.107 235.266 255.387 235.623C255.506 235.776 257.382 235.539 257.284 236.76C257.249 237.245 257.224 239.398 257.067 239.996C256.918 240.592 256.335 240.149 256.307 240.192C255.426 241.754 255.127 241.126 253.899 241.837C252.671 242.532 255.482 242.525 255.769 242.878C256.056 243.232 255.293 244.35 255.034 244.608C254.777 244.87 254.433 244.475 254.278 244.714C254.186 244.856 254.122 244.979 254.08 245.086C253.652 246.172 255.613 245.662 255.955 246.22C256.834 247.69 254.619 248.441 254.215 249.575C254.104 249.888 254.617 249.707 254.61 250.003C254.566 251.178 253.796 251.725 254.082 253.139C254.132 253.362 255.088 254.727 254.016 255.17C253.862 255.231 253.435 254.828 253.193 255.274C253.156 255.342 253.118 255.415 253.079 255.493C252.739 256.189 252.334 257.25 252.253 257.976C252.187 258.572 253.214 258.207 252.721 258.827C252.5 259.098 252.23 258.36 251.855 258.879C251.486 259.4 250.946 260.851 250.722 261.405C250.505 261.956 251.227 261.916 251.249 261.977C251.368 262.344 251.167 263.537 251.117 263.631C250.786 264.359 250.413 265.059 250.009 265.734C248.118 268.89 245.52 271.485 243.06 273.974C243.06 273.974 243.06 273.974 243.06 273.974C242.618 274.421 242.201 274.855 241.757 275.327C241.487 275.613 242.145 275.936 242.109 275.985C241.284 277.114 240.86 275.056 239.768 275.209C240.779 276.164 240.205 276.342 239.567 277.057C239.262 277.399 239.789 277.663 239.791 277.732C239.759 278.702 238.909 278.355 238.587 278.2C238.552 278.184 238.523 278.17 238.501 278.161C237.667 277.797 237.828 278.835 237.269 278.58C236.722 278.321 236.834 277.294 236.118 277.803C236.188 278.355 237.479 279.045 237.023 279.61C236.294 280.504 234.999 281.326 233.589 281.954C231.624 282.843 229.47 283.324 228.314 283.687C228.083 283.76 227.87 283.828 227.674 283.89C226.173 284.361 225.569 284.597 224.505 284.753C222.337 285.04 223.356 285.746 222.16 286.521C222.135 286.537 222.11 286.552 222.086 286.565C220.953 287.184 221.009 284.815 220.704 284.379C220.4 283.93 220.326 284.488 220.035 284.271C219.745 284.054 220.146 283.601 219.597 283.626C219.049 283.653 217.806 284.867 217.732 285.428C217.579 286.617 218.498 287.625 216.985 287.535C216.898 287.529 217.029 286.863 216.703 286.87C216.46 286.877 216.213 286.888 215.971 286.902C213.975 287.017 211.991 287.34 210.006 287.507C209.666 287.536 209.323 287.556 208.982 287.564C208.626 287.571 208.801 286.834 208.595 286.829C206.468 286.744 207.4 287.765 206.396 289.216C206.427 287.911 205.996 287.05 205.143 286.757C204.853 286.658 204.512 286.623 204.117 286.656C203.179 286.73 203.4 287.466 202.817 288.04C202.64 288.214 201.93 287.737 201.827 288.096C201.487 289.235 202.147 290.463 200.632 290.134C200.583 290.122 200.531 290.11 200.476 290.095C200.402 290.073 200.615 289.431 200.359 289.401C198.717 289.194 198.539 290.408 196.753 290.555C196.482 290.576 196.17 290.564 195.833 290.529C194.432 290.386 192.606 289.837 191.352 289.699C191.377 289.19 191.292 288.842 191.143 288.63C190.725 288.033 189.793 288.502 189.32 289.473C188.371 289.389 187.351 289.418 186.429 289.245C186.371 289.234 186.314 289.222 186.257 289.21C185.925 289.137 186.16 288.582 186.12 288.52C185.496 287.55 185.025 288.841 184.808 288.887C183.723 289.091 182.752 288.993 181.779 288.928C181.779 288.928 181.779 288.928 181.779 288.928C180.636 288.851 179.528 288.819 178.318 289.36C178.24 289.395 178.139 290.667 177.566 289.852C177.548 289.827 177.53 289.801 177.512 289.772C177.504 289.758 177.528 289.721 177.563 289.67C177.668 289.517 177.868 289.241 177.553 289.114C177.464 289.078 177.332 289.055 177.144 289.049C176.239 289.024 174.646 288.521 173.275 288.738C173.033 288.776 172.796 288.837 172.571 288.927C172.214 289.074 171.253 290.149 170.539 289.261C170.446 289.141 170.57 288.759 170.438 288.538C170.019 287.832 169.69 289.179 169.228 287.988C169.173 287.843 169.11 287.701 169.038 287.565C168.515 286.587 167.629 285.935 166.28 286.448C166.234 286.465 165.729 287.484 165.262 287.386C165.113 287.355 164.953 287.312 164.786 287.262C164.129 287.068 163.381 286.754 162.78 286.601C162.419 286.509 162.475 287.218 162.41 287.213C161.694 287.128 161.053 286.959 160.458 286.732C159.122 286.219 157.995 285.428 156.71 284.494C156.502 284.343 156.292 284.183 156.079 284.015C155.719 283.752 153.937 283.537 153.751 282.257C153.639 280.921 156.723 279.57 154.971 278.512C154.399 278.163 150.983 278.864 151.028 277.179C151.04 276.968 151.117 276.723 151.276 276.442C149.726 273.855 149.936 270.921 149.191 268.107C149.097 267.744 148.988 267.38 148.859 267.02C148.807 266.878 147.595 266.527 147.574 266.158C147.545 265.611 148.063 265.279 148.067 264.896C148.099 263.294 147.562 261.858 147.592 260.314C147.603 259.727 148.171 259.917 148.189 259.225C148.193 259.094 148.169 258.971 148.131 258.852C147.967 258.344 147.53 257.891 147.822 257.129C148.096 256.415 149.619 255.724 149.813 254.799C148.319 254.734 148.36 254.091 148.001 252.925C147.932 252.701 147.404 252.923 147.344 252.816C147.09 252.378 147.535 251.998 147.259 251.582C147.192 251.48 146.682 251.455 146.599 251.371C145.937 250.708 146.883 249.747 147.211 249.448C147.242 249.42 147.267 249.397 147.285 249.381C148.081 248.672 147.436 248.292 147.766 247.741C148.097 247.188 148.422 248.063 148.641 247.406C149.093 246.054 149.124 244.289 149.243 242.892C149.286 242.337 148.581 242.67 148.571 242.589C148.497 241.704 148.963 240.806 148.569 240.138C148.454 239.937 148.266 239.747 147.968 239.581C151.526 239.006 147.676 238.883 148.484 237.265C148.548 237.141 150.216 237.077 150.428 237.591C150.639 238.115 150.072 238.832 150.404 239.549C150.447 239.641 150.91 240 151.336 240.326C151.689 240.591 152.017 240.838 152.055 240.898C152.722 241.947 150.236 241.928 150.097 241.971C148.589 242.461 150.184 243.727 150.28 244.034C150.72 245.438 150.299 246.581 150.613 247.754C150.816 248.513 152.435 248.672 152.355 249.253C152.334 249.408 152.3 249.555 152.256 249.694C151.757 251.271 149.956 251.931 151.713 253.662C152.123 254.064 153.905 253.72 152.48 255.072C152.39 255.154 151.096 256.172 151.903 256.773C152.005 256.849 152.522 256.848 152.565 256.946C152.845 257.599 152.434 258.038 152.64 258.746C152.644 258.762 152.649 258.777 152.653 258.793C152.859 259.487 153.156 260.311 153.014 261.095C152.926 261.572 151.994 262.245 151.771 262.491C151.127 263.19 152.288 263.816 151.499 264.283C150.708 264.765 149.386 264.042 148.946 265.194C150.289 265.117 151.673 265.085 153.025 265.023C153.086 265.882 153.109 266.715 153.145 267.56C153.204 268.967 153.3 270.375 153.667 271.696C153.741 271.952 154.375 271.512 154.472 271.779C154.88 272.888 154.7 274.013 155.332 275C155.382 275.076 155.438 275.15 155.5 275.221C156.046 275.858 156.972 276.244 157.474 276.69C156.432 277.943 157.622 278.593 157.913 279.016C158.055 279.211 157.798 279.53 157.871 279.765C158.235 280.668 158.679 279.293 158.962 279.236C159.257 279.176 159.411 279.278 159.495 279.481C159.836 280.166 159.276 281.892 160.267 282.272C160.346 282.309 161.793 281.128 161.922 281.061C162.764 280.723 162.005 281.483 162.173 281.829C162.19 281.862 162.215 281.892 162.252 281.916C163.012 282.407 163.535 282.968 164.69 282.74C164.895 282.697 165.32 282.368 165.714 282.307C165.969 282.268 166.214 282.342 166.401 282.686C166.464 282.801 166.335 283.33 166.396 283.371C167.52 284.073 167.775 282.374 168.489 281.87C168.794 281.655 169.132 281.754 169.447 281.964C169.876 282.252 170.265 282.748 170.383 282.95C170.925 283.855 169.914 283.302 169.881 283.383C169.443 284.382 170.261 284.26 170.886 284.37C170.907 286.045 171.823 285.973 171.538 284.476C171.506 284.313 171.009 284.452 170.886 284.37C171.469 282.854 172.309 282.599 173.305 283.842C173.371 283.923 173.437 284.012 173.504 284.107C174.015 284.824 173.524 285.667 175.104 285.351C175.822 285.205 175.53 284.058 176.16 283.736C176.561 283.531 176.999 283.463 177.458 283.468C178.644 283.481 179.98 283.983 181.101 283.856C181.663 283.792 181.114 283.164 181.499 283.099C181.593 283.083 181.687 283.073 181.779 283.067C181.779 283.067 181.779 283.067 181.779 283.067C182.685 283.01 183.531 283.388 184.474 283.187C184.568 283.166 184.353 282.503 184.674 282.501C185.349 282.494 185.993 282.528 186.626 282.583C188.188 282.718 189.673 282.978 191.323 283.06C191.416 283.065 191.51 283.069 191.604 283.072C192.74 283.115 194.717 282.831 195.917 282.88C195.966 282.883 196.012 282.885 196.058 282.888C197.429 282.985 198.996 283.428 200.403 283.602C201.106 283.689 201.768 283.711 202.333 283.597C203.433 283.372 203.136 282.728 203.561 282.243C203.843 281.916 204.223 281.869 204.617 281.952C205.358 282.111 206.164 282.725 206.326 282.861C206.337 282.87 205.433 283.148 205.972 283.417C206.359 284.077 206.318 282.865 206.326 282.861C206.507 283.003 208.267 282.857 208.64 282.636C208.828 282.527 208.584 281.939 208.683 281.894C208.714 281.88 208.745 281.866 208.776 281.851C210.645 281.04 212.568 280.446 214.489 280.072C215.199 279.933 215.906 279.824 216.62 279.742C216.669 279.744 216.754 280.441 216.867 280.437C218.338 280.396 219.109 279.484 220.057 278.713C220.137 278.649 220.218 278.585 220.301 278.523C221.371 277.718 222.309 277.619 223.353 278.552C223.962 278.249 224.871 278.217 225.637 278.228C225.916 278.233 226.178 278.244 226.396 278.253C227.217 278.284 226.804 276.978 226.853 276.931C227.943 275.816 228.886 275.625 230.048 275.268C230.495 275.129 230.963 274.966 231.465 274.709C232.246 274.322 233.537 273.28 234.301 272.515C234.379 272.438 234.452 272.364 234.519 272.295C235.092 271.701 235.688 271.622 236.116 270.984C236.173 270.899 235.699 270.508 235.706 270.471C235.824 269.403 236.528 270.754 236.833 270.838C237.939 271.124 238.613 271.208 239.147 270.061C239.147 270.061 239.147 270.061 239.147 270.061C239.15 270.054 239.154 270.047 239.157 270.04C239.287 269.767 238.296 267.72 238.486 267.315C238.747 266.781 239.174 267.456 239.417 266.884C239.437 266.836 239.079 266.532 239.313 266.279C240.336 265.176 241.659 263.74 242.489 262.148C242.604 261.931 241.8 261.84 241.952 261.526C241.973 261.482 241.994 261.438 242.015 261.394C242.709 259.956 243.457 258.38 244.339 256.993C244.565 256.641 244.966 257.063 245.143 257.034C246.225 256.827 245.189 255.621 245.201 255.497C245.285 254.744 245.438 254.067 245.631 253.411C246.233 251.341 247.253 249.496 247.19 246.954C247.188 246.761 245.923 245.231 247.237 244.774C247.283 244.757 247.675 244.624 247.92 244.406C248.143 244.208 248.244 243.939 247.853 243.64C247.801 243.602 247.106 243.913 247.237 243.26C247.369 242.602 247.013 241.513 247.792 240.637C248.037 240.365 249.359 239.724 248.369 238.799C248.302 238.727 246.03 237.334 247.627 236.883C247.89 236.81 249.581 236.911 248.721 235.842C248.553 235.64 248.177 236.005 247.941 235.475C247.851 235.274 247.81 235.056 247.787 234.827C247.72 234.136 247.818 233.338 247.229 232.604C247.091 232.431 245.921 231.747 246.76 231.116C246.892 231.017 247.463 231.168 247.511 230.849C247.739 229.334 247.252 227.787 247.5 226.225C247.586 225.672 248.519 225.863 248.707 225.267C248.734 225.18 248.759 225.081 248.782 224.974C248.915 224.344 248.932 223.409 248.517 222.939C248.033 222.393 246.67 223.211 246.447 222.346C245.857 220.062 245.709 217.865 245.511 215.47C245.511 215.47 245.511 215.47 245.511 215.47C245.369 213.812 245.261 212.164 245.029 210.591C244.948 210.041 244.563 210.525 244.383 209.858C244.373 209.821 244.363 209.78 244.355 209.736C244.07 208.285 243.585 206.401 243.153 204.576C242.706 202.669 242.308 200.838 242.343 199.442C242.347 199.309 242.355 199.18 242.367 199.054C242.55 196.871 244.019 199.051 243.844 197.46C243.746 196.673 241.877 196.551 241.767 196.425C241.294 195.865 241.051 195.328 240.861 194.801C240.595 194.063 240.429 193.327 239.897 192.709C239.711 192.496 239.271 193.086 239.121 192.906C238.722 192.441 238.511 191.853 238.204 191.378C238.116 191.241 238.021 191.116 237.913 191.007C237.695 190.792 237.338 191.178 237.194 190.956C236.793 190.391 236.703 190.007 236.572 189.259C236.552 189.185 237.248 188.914 236.889 188.592C236.709 188.436 236.51 188.226 236.268 188.003C235.551 187.375 234.778 186.702 233.797 186.49C233.38 186.401 232.731 187.402 232.458 186.253C232.4 186.014 233.351 184.915 231.858 185.445C231.714 185.494 230.902 185.695 230.221 185.62C229.709 185.561 229.272 185.35 229.21 184.781C229.173 184.43 229.295 183.144 228.794 183.072C228.725 183.067 228.627 183.748 228.262 183.614C227.184 183.208 226.162 182.634 225.087 182.217C224.888 182.14 224.688 182.068 224.486 182.004C224.139 181.897 224.326 182.725 223.824 182.549C222.446 182.066 220.894 181.213 219.676 180.541C219.552 180.471 219.502 180.391 219.495 180.31C219.485 180.209 219.541 180.106 219.601 180.02C219.667 179.927 219.739 179.854 219.733 179.828C219.726 179.792 219.718 179.758 219.709 179.726C219.445 178.775 218.71 179.827 218.511 179.838C217.216 179.885 216.516 179.038 215.389 178.92C215.081 178.888 215.142 179.549 215.069 179.588C214.339 179.973 215.052 178.987 214.692 178.775C214.505 178.666 214.311 178.57 214.11 178.486C213.219 178.115 212.214 177.987 211.288 177.928C210.871 177.904 211.238 178.684 210.87 178.656C210.079 178.601 209.279 178.546 208.471 178.484C207.051 178.374 205.68 178.247 204.309 178.047C203.885 177.989 204.118 177.419 204.023 177.296C203.615 176.761 203.119 177.047 202.751 177.378C202.526 177.582 202.353 177.802 202.275 177.853C201.341 178.467 200.926 178.016 200.109 178.209C197.55 178.834 194.521 179.395 191.662 180.099C190.246 180.443 188.886 180.812 187.663 181.192C185.136 181.981 182.911 182.754 180.777 183.698C178.869 184.546 177.032 185.534 175.201 186.864C174.955 187.043 175.628 187.483 175.424 187.644C174.173 188.613 172.92 189.542 171.717 190.526C170.384 191.616 169.111 192.775 168.014 194.098C167.843 194.303 168.617 194.509 168.365 194.851C167.853 195.554 167.111 196.346 166.391 196.878C166.039 197.141 165.929 196.314 165.582 196.591C164.961 197.088 164.411 197.7 163.968 198.375C163.831 198.583 163.705 198.796 163.59 199.013C163.386 199.404 164.351 199.262 164.044 199.734C162.31 202.457 161.036 205.261 159.549 208.114C159.269 208.655 158.983 209.192 158.683 209.745C158.555 209.978 157.071 209.853 157.211 210.487C157.597 210.622 158.064 210.727 158.483 210.843C158.016 213.433 157.698 215.564 157.583 218.5C157.464 221.317 157.224 223.425 157.046 225.832C156.951 227.043 156.862 228.272 156.792 229.493C156.776 229.772 157.574 229.325 157.548 229.865C157.499 230.865 157.476 231.832 157.441 232.809C157.363 234.922 157.226 237.02 156.648 239.173C156.589 239.393 155.895 239.363 155.556 239.653C155.414 239.775 155.334 239.953 155.39 240.227C155.423 240.391 155.583 241.793 155.877 242.153C155.921 242.202 156.561 241.958 156.575 242.403C156.611 243.748 156.595 245.116 156.532 246.467C156.473 247.721 156.374 248.969 156.242 250.18C156.197 250.578 155.498 250.19 155.46 250.474C155.352 251.35 155.413 252.215 155.501 253.062C155.622 254.229 155.79 255.288 155.628 256.15C155.433 257.032 154.23 257.076 153.307 257.904C153.217 258.109 153.278 258.252 152.764 258.671C151.744 260.061 149.872 260.749 148.709 262.154C147.567 262.567 153.753 264.829 149.837 264.19C148.946 264.083 146.727 261.831 146.488 261.717C146.123 261.492 145.827 262.42 145.223 261.843C144.653 261.297 144.961 260.485 144.42 259.82C143.906 259.207 143.183 259.597 142.808 258.277ZM230.093 278.236C231.026 278.507 230.033 276.327 229.627 277.165C229.609 277.208 230.047 278.223 230.093 278.236ZM151.368 269.863C150.504 270.995 152.17 271.31 152.828 270.497C153.5 269.728 151.633 269.528 151.368 269.863ZM149.684 259.945C148.884 261.129 152.281 261.179 151.56 259.998C151.52 259.929 149.73 259.877 149.684 259.945ZM152.339 255.255C152.308 255.275 152.366 255.837 152.4 255.839C153.194 255.998 153.084 254.918 152.339 255.255ZM149.016 249.734C148.539 250.074 149.024 251.145 149.613 250.718C150.087 250.376 149.608 249.313 149.016 249.734ZM253.059 249.406C253.097 249.401 253.203 248.969 253.003 248.945C252.358 248.867 252.435 249.498 253.059 249.406ZM150.002 232.237C149.794 234.841 146.892 236.246 147.345 233.485C147.424 232.992 148.193 234.589 148.472 233.969C148.983 232.796 147.25 231.972 148.197 230.818C148.374 230.582 150.025 232.066 150.006 232.242C150.005 232.24 150.003 232.239 150.002 232.237ZM231.737 280.631C231.765 280.654 232.328 280.403 232.326 280.367C232.267 279.545 231.159 280.04 231.737 280.631ZM254.973 223.53C255.039 223.492 254.938 222.046 254.869 222.01C253.552 221.417 253.748 224.3 254.973 223.53ZM191.329 289.647C191.255 289.726 191.18 289.797 191.103 289.86C190.463 290.391 189.771 290.348 189.323 289.474C189.915 289.54 190.513 289.571 191.111 289.626C191.184 289.632 191.256 289.639 191.329 289.647Z" fill="black"/>
<path d="M270.482 114.404C269.433 113.827 267.978 112.384 267.333 110.813C265.835 105.116 267.262 105.741 267.15 105.47C267.188 105.472 267.223 105.495 267.257 105.533C267.335 105.637 267.761 105.663 267.832 105.75C267.971 105.932 267.729 106.193 267.929 106.582C267.998 106.706 268.666 106.542 268.724 106.662C268.747 106.708 268.769 106.755 268.789 106.803C269.031 107.399 269.124 108.229 269.6 108.775C269.625 108.803 269.65 108.831 269.675 108.858C270.159 109.382 270.583 109.587 270.873 109.684C271.255 109.842 271.423 109.791 271.374 109.676C271.413 109.481 271.654 109.388 271.375 109.174C271.335 109.135 271.289 109.096 271.237 109.057C271.086 108.933 270.845 108.3 270.563 108.556C270.531 108.586 270.526 109.176 270.518 109.224C270.491 109.399 270.475 109.466 270.465 109.465C270.433 109.461 270.464 108.738 270.421 108.616C270.196 107.984 269.88 107.93 269.621 108.164C269.51 108.265 269.65 109.433 269.523 108.778C269.513 108.734 269.526 108.107 269.493 108.042C269.417 107.893 269.282 108.01 269.224 107.962C269.223 107.962 269.222 107.961 269.221 107.96C269.11 107.868 269.091 107.875 268.986 107.873C268.842 107.864 268.651 107.562 268.498 107.713C268.466 107.747 268.549 108.385 268.502 108.498C268.455 108.61 268.309 108.564 268.25 108.416C268.192 108.269 268.18 107.764 268.164 107.649C268.028 106.68 267.945 108.04 267.927 108.075C267.884 108.145 267.842 108.196 267.798 108.233C267.472 108.508 267.109 107.934 266.756 107.961C266.582 107.976 266.402 108.074 266.222 108.151C266.088 108.208 265.955 108.254 265.82 108.247C265.453 108.224 265.089 107.894 264.694 107.96C264.653 107.966 264.709 108.72 264.657 108.729C264.583 108.742 264.51 108.751 264.441 108.756C264.037 108.788 263.707 108.67 263.321 108.236C263.278 108.186 263.322 107.522 263.279 107.431C263.074 106.976 262.682 105.986 262.557 107.415C262.534 107.681 262.519 108.032 262.515 108.486C262.34 108.38 262.13 108.274 261.959 107.702C261.84 107.334 261.892 106.608 261.785 106.923C261.762 106.993 261.838 107.622 261.801 107.679C261.646 107.921 261.468 107.729 261.338 108.069C261.315 108.14 261.378 108.703 261.379 108.805C261.399 109.633 261.158 108.286 261.113 108.191C261.02 107.947 260.948 107.823 260.892 107.765C260.773 107.655 260.713 107.789 260.651 107.789C260.632 107.789 260.808 108.529 260.803 108.554C260.277 107.559 262.186 111.801 262.014 103.274C261.531 102.872 261.445 103.718 261.227 103.597C260.657 103.505 261.293 102.519 261.025 102.668C260.984 102.709 260.773 103.222 260.746 103.277C260.367 104.155 260.887 102.904 260.883 102.87C260.935 102.731 260.92 102.823 260.901 102.993C260.87 103.291 260.807 103.82 260.949 103.722C260.973 103.701 261.094 103.009 261.147 102.992C261.517 102.878 261.922 103.138 262.293 103.749C262.302 103.765 262.307 103.792 262.309 103.826C262.315 103.969 262.264 104.242 262.243 104.367C262.238 104.395 262.235 104.416 262.234 104.426C262.234 104.431 262.234 104.437 262.233 104.443C262.188 105.428 262.396 104.097 262.424 104.049C262.645 103.703 262.697 104.856 262.981 103.254C263.341 103.581 263.752 103.508 264.146 103.562C264.522 103.614 264.868 103.777 265.239 104.486C265.249 104.503 265.22 105.173 265.24 105.204C265.487 105.585 265.45 104.542 265.617 103.27C265.657 102.95 265.774 104.49 265.786 104.602C265.826 105.018 265.781 106.015 265.795 106.096C265.888 106.612 265.897 104.509 265.978 103.719C265.997 103.541 266.019 103.429 266.048 103.429C266.053 103.435 266.032 104.042 266.045 104.102C266.086 104.291 266.126 104.05 266.166 104.259C266.257 104.743 266.289 106.345 266.428 105.412C266.445 105.291 266.419 103.421 266.557 103.509C266.613 103.546 266.858 103.514 266.927 103.635C266.995 103.756 266.948 104.359 266.953 104.385C267.113 105.073 267.082 105.414 267.131 106.254C267.138 106.387 267.148 106.532 267.161 106.693C267.253 107.868 267.227 105.064 267.265 104.751C267.303 104.439 267.439 105.097 267.472 105.326C267.505 105.554 267.464 105.937 267.493 106.067C267.69 106.912 267.579 104.675 267.644 104.23C267.797 103.176 267.915 105.256 268.055 105.459C268.093 105.514 268.062 105.041 268.096 104.996C268.167 104.906 268.223 105.05 268.283 105.112C268.335 105.165 268.39 105.157 268.46 104.881C268.485 104.784 268.608 103.534 268.687 104.451C268.698 104.584 268.666 105.102 268.723 105.218C268.808 105.392 268.961 105.506 269.052 105.332C269.119 105.204 269.042 104.35 269.127 104.616C269.165 104.734 269.095 105.234 269.166 105.414C269.223 105.562 269.353 105.574 269.436 105.565C269.455 105.563 269.472 105.559 269.484 105.556C269.553 105.538 269.515 104.891 269.521 104.847C269.554 104.597 269.685 104.285 269.697 104.285C270.003 104.244 270.297 104.524 270.589 104.748C270.855 104.952 271.119 105.109 271.39 104.937C271.434 104.909 271.405 104.226 271.412 104.215C271.564 103.929 271.444 105.745 271.551 106.353C271.535 104.967 271.598 105.218 271.706 105.066C271.758 104.991 271.73 104.455 271.734 104.4C271.737 104.373 271.739 104.348 271.742 104.326C271.815 103.653 271.865 104.645 271.879 104.853C271.93 105.645 271.985 104.709 272.02 105.239C272.055 105.764 271.975 106.543 272.078 106.534C272.107 106.037 272.03 104.741 272.109 104.531C272.312 103.986 272.635 104.292 272.895 104.573C272.955 104.701 273.004 104.816 273.035 104.845C273.128 104.935 273.165 104.834 273.301 104.982C273.547 105.221 273.273 104.472 273.176 104.008C273.168 103.969 273.161 103.932 273.155 103.897C273.078 103.457 273.879 105.684 274.072 106.155C274.275 106.622 274.112 106.124 274.24 106.374C274.371 106.622 274.435 106.969 274.544 107.039C274.662 107.105 274.49 106.193 274.279 105.703C273.848 104.661 273.3 103.611 273.577 103.94C273.594 103.959 273.843 104.53 273.896 104.574C274.072 104.713 274.223 104.772 274.369 104.811C274.571 104.864 274.76 104.881 275.028 104.998C275.092 105.026 275.451 105.619 275.495 105.64C275.964 105.854 275.223 104.945 274.529 103.846C275.466 105.131 276.125 105.918 276.379 105.916C276.401 105.916 276.419 105.91 276.433 105.899C276.545 105.814 276.036 105.256 275.738 104.812C275.645 104.68 276.054 105.007 275.821 104.739C275.049 103.874 274.123 102.966 274.535 103.284C274.556 103.298 275.003 103.748 275.042 103.763C275.301 103.855 274.4 103.032 274.229 103.018C274.201 103.017 274.199 103.045 274.217 103.093C274.283 103.267 274.585 103.735 274.75 104.111C276.72 103.935 276.089 103.594 275.134 104.619C275.288 104.747 275.377 104.839 275.452 104.801C275.474 104.791 275.497 104.771 275.519 104.737C275.551 104.682 275.775 104.167 275.801 104.112C276.127 103.216 275.611 104.413 275.61 104.468C275.468 104.934 275.431 103.924 275.12 104.87C275.115 104.884 275.096 105.124 275.076 105.33C275.076 105.33 275.076 105.33 275.076 105.33C275.047 105.619 275.015 105.839 275.01 105.263C275.009 105.195 275.125 104.587 275.011 104.534C274.901 104.48 274.704 103.752 274.532 104.377C274.487 104.528 274.402 105.623 274.331 104.769C274.32 104.653 274.327 104.267 274.31 104.052C274.251 103.367 274.251 104.73 274.167 103.575C274.084 102.42 273.881 101.56 273.739 102.369C273.733 102.393 273.761 103.473 273.708 103.46C273.702 103.459 273.697 103.456 273.691 103.454C273.603 103.412 273.473 103.225 273.388 103.24C273.345 103.248 273.439 103.913 273.433 103.925C273.196 104.327 272.937 103.758 272.584 103.55C272.517 103.512 272.516 104.439 272.283 103.747C272.204 103.517 272.103 103.054 271.997 102.546C271.756 101.386 271.489 99.9835 271.361 100.565C271.272 100.903 272.025 105.012 271.353 102.947C271.153 103.395 270.768 102.992 270.485 103.079C270.386 103.11 270.295 103.208 270.249 103.436C270.241 103.473 270.511 104.609 270.468 104.604C270.402 104.597 270.215 104.084 270.162 104.062C269.94 103.957 269.905 104.455 269.716 104.437C269.642 104.432 269.5 103.886 269.413 103.88C269.324 103.875 269.495 104.598 269.28 104.289C269.253 104.25 269.217 104.178 269.174 104.084C268.956 103.615 268.585 102.599 268.458 102.483C268.876 103.919 268.798 103.91 268.777 104.326C268.772 104.407 268.94 104.9 268.945 104.965C268.964 105.238 268.803 104.835 268.831 105.13C268.837 105.201 268.967 105.694 268.979 105.78C269.076 106.533 268.629 105.459 268.57 105.267C268.312 104.546 268.403 105.205 268.271 104.925C268.153 104.643 268.182 104.258 268.083 104.091C267.925 103.819 267.828 103.81 267.813 103.803C267.81 103.802 267.815 103.801 267.83 103.801C267.863 103.806 267.598 104.435 267.601 104.452C267.299 104.437 267.958 104.178 266.622 104.45C270.026 103.593 266.245 104.41 266.931 103.938C266.991 103.905 268.645 104.058 268.889 104.053C269.13 104.024 268.625 104.026 268.966 103.821C269.1 103.89 270.347 102.775 270.252 102.485C270.011 101 268.345 103.061 268.334 103.173C267.562 104.223 268.058 103.191 267.939 102.787C267.937 102.739 267.934 102.705 267.93 102.692C267.752 102.15 267.779 102.513 267.764 102.128C267.752 101.882 267.427 100.289 267.44 100.337C267.502 100.492 268.194 102.656 267.821 100.718C267.742 100.304 267.205 98.6106 267.724 99.9139C267.757 99.9961 268.224 101.19 268.056 100.397C268.054 100.387 268.05 100.374 268.046 100.358C268.007 100.206 267.884 99.7971 267.882 99.7565C267.871 99.4659 268.04 99.8455 268.062 99.6322C268.083 99.4192 268.106 99.1041 268.253 99.243C268.343 99.3252 268.703 100.224 268.8 100.441C269.082 101.067 268.847 99.973 269.136 100.747C269.422 101.525 269.682 102.76 269.964 103.234C269.589 101.942 269.211 100.614 268.839 99.3141C269.032 99.2862 269.265 99.3857 269.487 99.4452C269.644 99.4882 269.803 99.5089 269.937 99.449C269.976 99.4297 269.753 98.7405 269.793 98.7016C269.963 98.5396 270.262 98.9972 270.422 98.7499C270.549 98.555 270.571 97.7666 270.719 97.5397C270.968 98.4219 271.123 98.5815 271.254 98.588C271.343 98.5925 271.424 98.5248 271.513 98.5673C271.589 98.6033 271.654 99.0093 271.724 99.1335C271.983 99.5933 271.68 98.265 271.696 98.0454C271.782 97.1073 272.261 100.148 272.48 100.041C272.489 100.037 272.439 98.3889 272.455 98.2842C272.526 97.6046 272.548 98.8482 272.653 98.958C272.845 99.1591 272.993 99.5375 273.141 99.0419C273.173 98.9299 273.215 98.3021 273.314 98.3592C273.345 98.3769 273.38 98.4603 273.42 98.6449C273.442 98.7473 273.471 99.2889 273.485 99.3198C273.729 99.8346 273.638 98.1334 273.759 97.5496C273.887 96.9657 274.153 98.1352 274.194 98.4738C274.315 99.3485 274.116 98.8504 274.11 98.937C274.065 99.9631 274.207 99.7822 274.311 99.8673C274.339 101.538 274.463 101.436 274.419 99.949C274.413 99.7864 274.332 99.9433 274.311 99.8673C274.387 98.226 274.602 98.0147 274.742 99.5491C274.803 100.269 274.71 101.103 274.939 100.803C275.044 100.668 275.053 99.5166 275.162 99.2068C275.261 98.925 275.357 98.9291 275.447 99.0261C275.447 99.0261 275.447 99.0261 275.447 99.0261C275.622 99.1748 275.767 99.5339 275.998 99.461C276.144 99.4185 276.084 98.7746 276.194 98.7255C276.492 98.5958 276.738 99.1192 277.19 98.9994C277.234 98.9888 277.324 98.3277 277.461 98.36C277.873 98.4632 278.189 98.6106 278.698 98.9492C279.471 99.4725 281.002 100.877 281.312 103.147C281.575 104.713 281.205 106.341 280.871 106.85C280.847 106.889 280.823 106.925 280.799 106.957C280.08 107.889 278.898 107.647 278.748 108.11C278.637 108.409 279.115 108.864 279.304 109.293C279.364 109.428 279.377 109.517 279.357 109.571C279.248 109.856 278.333 109.13 278.189 108.984C278.183 108.979 278.266 108.723 277.97 108.521C277.5 107.992 278.191 108.978 278.189 108.984C278.069 108.881 277.642 108.995 277.645 109.141C277.645 109.223 278.007 109.733 277.999 109.766C277.918 110.107 277.784 110.382 277.601 110.586C277.36 110.853 277.037 110.994 276.643 110.99C276.628 110.983 276.355 110.339 276.325 110.33C275.892 110.182 276.019 111.052 275.861 111.647C275.859 111.655 275.857 111.662 275.855 111.669C275.694 112.239 275.314 112.161 274.809 111.067C274.618 111.278 273.933 110.873 273.628 110.578C273.332 110.287 273.391 111.642 273.358 111.673C273.178 111.88 273.025 111.991 272.895 112.045C272.719 112.226 272.579 111.739 272.365 111.646C272.234 111.586 271.974 111.783 271.831 111.932C271.798 111.967 271.769 111.964 271.742 111.948C271.676 111.91 271.621 111.793 271.548 111.937C271.534 111.964 271.548 112.57 271.544 112.593C271.428 113.318 271.484 111.837 271.46 111.573C271.373 110.611 271.32 110.099 271.172 110.551C271.138 110.655 271.038 112.787 270.976 112.911C270.895 113.07 270.926 112.305 270.841 112.491C270.834 112.506 270.835 112.977 270.783 112.956C270.72 112.933 270.655 112.897 270.589 112.857C270.403 112.745 270.21 112.604 270.024 112.639C269.989 112.644 270.034 113.391 269.984 113.41C269.807 113.478 269.617 113.478 269.436 113.322C269.379 113.272 269.322 113.206 269.267 113.121C269.211 113.033 269.246 112.509 269.234 112.354C269.159 111.413 269.054 112.78 269.036 112.806C268.762 113.238 268.531 112.851 268.283 112.703C268.155 112.626 268.022 112.613 267.876 112.815C267.853 112.849 267.675 114.315 267.596 113.058C267.591 112.974 267.512 111.689 267.443 112.568C267.438 112.623 267.487 113.285 267.402 113.217C267.333 113.163 267.23 113.442 267.131 113.165C267.107 113.1 267.084 113.003 267.062 112.865C267.025 112.635 266.937 111.353 266.826 112.375C266.819 112.447 266.648 114.758 266.587 113.163C266.577 112.901 266.587 111.213 266.455 112.078C266.429 112.246 266.475 112.623 266.409 112.858C266.307 113.22 266.172 112.768 266.046 113.52C266.036 113.582 266.01 113.867 265.978 114.062C265.937 114.284 265.886 114.391 265.842 113.929C265.83 113.793 265.855 113.229 265.812 113.166C265.603 112.863 265.384 113.237 265.16 112.843C265.083 112.705 265.137 111.795 265.06 111.549C264.982 111.304 264.827 111.065 264.731 111.478C264.634 111.892 264.693 113.346 264.551 113.458C264.221 113.715 263.913 113.589 263.618 113.389C263.362 113.212 263.095 112.974 262.833 112.896C262.749 112.871 262.783 113.394 262.652 113.394C262.259 113.397 261.585 113.671 261.174 113.114C261.088 112.996 261.023 112.842 260.968 112.639C260.736 111.716 261.26 111.108 261.051 110.716C260.957 110.53 260.58 112.18 260.539 112.228C260.128 112.711 260.041 111.939 259.687 112.105C259.614 112.14 259.548 112.824 259.486 112.845C259.275 112.925 259.101 112.576 258.892 112.585C258.789 112.588 258.683 113.1 258.595 113.037C258.404 112.91 258.289 112.702 258.142 112.287C258.12 112.219 258.1 112.146 258.082 112.066C258.073 112.017 258.421 111.444 258.233 111.361C257.863 111.18 257.752 110.72 256.426 110.52C255.858 110.211 255.547 111.886 254.214 109.145C254.32 107.875 254.693 110.195 253.648 103.445C254.328 100.284 256.688 97.7486 257.319 98.6586C257.561 98.8705 258.186 99.8985 258.313 99.6727C258.334 99.6364 258.045 99.0509 258.201 98.9426C258.672 98.5996 259.07 98.6021 259.357 98.3532C259.44 98.285 259.201 97.6498 259.332 97.5687C259.378 97.5418 259.416 97.521 259.455 97.5046C259.744 97.3817 260.118 97.495 260.352 97.6571C260.46 97.7252 260.441 98.2792 260.454 98.338C260.655 99.2968 260.605 97.9828 260.64 97.903C260.831 97.4269 261.034 98.0311 261.228 97.8551C261.282 97.8083 261.203 97.1857 261.211 97.1292C261.297 96.5772 261.278 97.7053 261.358 97.8247C261.563 98.1643 261.767 98.1035 261.961 98.015C262.033 97.9816 261.92 97.2595 261.986 97.2379C262.055 97.2127 262.115 97.1943 262.182 97.1826C262.481 97.1289 262.836 97.2251 263.103 97.5492C263.169 97.6247 263.137 98.1846 263.152 98.3121C263.256 99.2039 263.373 97.9829 263.405 97.8664C263.541 97.3342 263.608 97.8281 263.719 97.7346C263.94 97.5524 264.186 97.4919 264.441 97.4987C264.701 97.507 264.804 97.6708 265.095 97.7793C265.241 97.8436 265.393 97.9273 265.546 98.0111C265.947 98.2297 266.349 98.4499 266.811 98.3161C266.852 98.305 266.756 97.566 266.791 97.547C266.871 97.509 266.954 97.486 267.038 97.4724C267.425 97.4101 267.839 97.5478 268.262 97.3494C268.305 97.3309 268.206 96.6298 268.274 96.5764C268.414 96.4619 268.605 96.4917 268.766 96.7109C268.836 96.8051 268.783 97.2997 268.826 97.472C268.831 97.4928 268.837 97.5089 268.846 97.519C269.025 97.7394 269.211 97.784 269.39 97.6671C269.468 97.6158 269.334 96.8971 269.437 96.8867C269.9 96.8306 270.392 96.7609 270.909 97.0034C271.178 97.1294 271.448 97.3396 271.714 97.6799C271.769 97.7485 271.699 99.2133 271.838 98.9433C271.883 98.5388 271.925 98.0621 271.968 97.6293C272.422 97.5856 272.904 97.656 273.408 97.7997C274.225 98.0313 275.513 98.6099 276.523 99.1795C276.579 99.2109 276.822 98.4643 276.935 98.5228C276.939 98.5248 276.943 98.5268 276.947 98.5289C277.271 98.6982 277.895 98.9395 278.665 99.6227C279.2 100.115 279.703 100.783 280.015 101.793C280.072 101.997 279.081 102.61 279.298 102.981C279.316 103.013 279.342 103.044 279.377 103.073C279.472 103.126 280.044 103.872 280.401 104.049C280.456 104.072 280.991 103.665 281.124 103.996C281.38 104.662 281.511 105.375 281.526 106.007C281.553 107.196 281.221 108.036 280.925 108.315C280.912 108.327 280.899 108.338 280.886 108.348C280.81 108.4 280.159 108.194 280.099 108.225C279.64 108.214 280.526 108.725 279.585 105.487C278.967 104.016 277.401 103.101 276.735 103.086C275.407 103.089 275.666 104.437 275.289 105.518C275.244 105.676 275.193 105.7 275.182 106.372C275.15 108.064 274.983 109.91 274.937 111.712C274.939 112.104 275.382 111.689 275.112 112.625C275.095 112.69 274.736 112.99 274.546 113.289C274.426 113.498 274.552 114.198 274.302 114.456C274.017 114.702 273.897 114.125 273.221 114.299C272.469 114.366 272.741 115.525 270.482 114.404ZM272.744 109.181C272.654 108.528 272.641 110.92 272.738 110.348C272.743 110.317 272.748 109.213 272.744 109.181ZM270.085 101.338C270.482 102.324 270.173 100.801 269.871 100.037C269.564 99.2767 269.962 101.04 270.085 101.338ZM269.066 102.439C269.442 103.194 268.473 99.9421 268.529 100.642C268.532 100.682 269.044 102.395 269.066 102.439ZM276.443 106.74C276.428 106.738 276.117 106.354 276.12 106.341C276.441 105.491 277.353 106.629 276.443 106.74ZM268.208 103.558C268.349 103.997 268.333 103.455 268.146 102.913C268.001 102.476 268.042 103.011 268.208 103.558ZM268.059 106.627C268.057 106.592 268.005 106.559 268.006 106.761C268.01 107.41 268.082 107.227 268.059 106.627ZM268.289 103.63C268.117 103.744 265.3 103.527 265.727 103.085C265.802 103.022 266.549 103.48 266.82 103.439C267.302 103.406 265.644 102.812 266.602 102.917C266.77 102.954 268.3 103.638 268.292 103.632C268.291 103.631 268.29 103.631 268.289 103.63ZM272.692 106.307C272.69 106.275 272.618 106.245 272.617 106.277C272.577 107.036 272.723 107.097 272.692 106.307ZM265.042 105.136C265.039 105.068 264.882 105.001 264.876 105.063C264.756 106.302 265.089 106.443 265.042 105.136ZM274.803 104.111C274.045 104.433 274.285 105.142 275.133 104.619C274.991 104.525 274.877 104.304 274.803 104.111Z" fill="black"/>
<path d="M7.54072 82.2318C7.52887 82.0126 7.51906 81.7891 7.51117 81.5617C7.44412 79.6331 7.51681 77.4327 7.6561 75.3309C7.74714 73.9563 7.86627 72.6234 7.99335 71.4323C8.10009 70.421 8.51817 70.9385 8.6106 70.2409C8.65881 69.8753 8.68 69.5164 8.68913 69.161C8.71404 68.1901 8.64908 67.2459 8.79888 66.2633C8.86867 65.8184 9.53716 66.3768 9.59489 65.9099C9.71364 64.9326 9.7617 63.9762 9.78215 63.024C9.81518 61.4823 9.77615 59.9525 9.84533 58.3598C9.86633 57.877 9.88562 57.3946 9.90316 56.9129C9.97696 54.8665 10.0208 52.8733 10.0269 50.8312C10.0306 50.2257 10.0173 49.7749 9.96864 49.1393C9.92253 48.5375 9.85183 47.9006 9.76687 47.2323C9.68206 46.5643 9.58308 45.8648 9.4829 45.1375C9.38268 44.4097 9.28129 43.654 9.19265 42.8714C9.10405 42.089 9.02834 41.2801 8.98007 40.4476C8.93285 39.6518 8.90889 38.6789 8.93163 37.8912C8.93771 37.382 8.94192 37.3314 8.87911 36.8704C8.82191 36.4935 8.71938 36.0686 8.56761 35.5853C8.41666 35.1028 8.21688 34.5644 7.98284 33.9613C7.75001 33.359 7.48246 32.6922 7.21456 31.941C6.948 31.1908 6.6798 30.3526 6.47702 29.413C6.28111 28.5598 6.12966 27.2477 6.16123 26.363C6.16123 26.363 6.16123 26.363 6.16123 26.363C-1.66392 22.3534 23.2853 26.6679 15.3939 27.9487C15.3935 28.1139 15.3934 28.2837 15.3935 28.4581C15.3947 30.0591 15.3393 31.7283 15.3031 33.4884C15.2648 35.3346 15.2452 37.1981 15.3284 39.0171C15.3791 40.1253 15.4676 41.2075 15.6113 42.2367C15.6826 42.7396 16.2467 42.3916 16.3027 42.4838C17.1554 43.9075 15.9734 43.53 15.8739 44.4798C15.8726 44.4931 15.8714 44.5066 15.8705 44.5203C15.7538 46.29 15.787 48.1154 15.9724 49.904C16.1731 51.7586 16.4745 53.3492 17.0061 54.7992C17.1449 55.1758 17.2877 55.5645 17.4286 55.9487C18 57.5343 18.609 55.7073 18.5205 57.2879C18.5172 57.3418 18.5131 57.4005 18.5078 57.4623C18.4976 57.5916 17.7761 57.333 17.8392 57.8108C17.9251 58.457 18.1779 59.418 18.3796 60.2827C18.5173 60.8673 18.6332 61.4066 18.6791 61.7521C18.7581 62.3543 18.8061 62.777 18.8503 63.1457C18.9237 63.7891 18.9973 64.2647 19.0918 65.2915C19.1144 65.5576 19.13 65.8327 19.1387 66.1137C19.1686 67.085 19.1181 68.1357 18.9916 69.2235C18.8775 70.2405 18.6466 71.5015 18.3933 72.4927C18.3469 72.6718 18.3079 72.8266 18.2218 73.0795C17.747 74.131 19.2618 72.7917 18.067 74.95C18.0597 74.9599 18.0523 74.9698 18.0448 74.9798C18.0834 75.7133 14.1261 77.7644 12.3008 76.2979C10.9983 75.5947 10.599 74.97 10.1908 74.4541C9.78588 73.8856 9.54617 73.3952 9.37792 72.9901C9.28256 72.7574 9.21589 72.5564 9.17372 72.3972C8.93098 71.3792 9.57924 71.6207 9.62318 71.4166C9.63673 71.3693 9.64729 71.3181 9.65661 71.2679C9.75569 70.8385 9.63006 70.2561 9.60304 69.4017C9.57992 68.8403 9.35141 68.2218 9.15073 67.7507C8.99325 67.3811 8.8529 67.1023 8.84241 67.0131C8.80868 66.7061 8.77965 66.4018 8.75488 66.0998C8.70912 65.542 8.67789 64.9921 8.65843 64.4488C8.6385 63.8922 8.63091 63.3425 8.63271 62.7979C8.63453 62.2427 8.6461 61.693 8.66427 61.1469C8.68269 60.5934 8.70788 60.0437 8.73658 59.496C8.82446 57.8675 8.8726 56.2737 8.82725 54.5617C8.81135 53.9693 8.78334 53.3638 8.74114 52.7579C8.66592 51.6844 8.56135 50.5794 8.45026 49.4672C8.27808 47.7445 8.08992 45.9921 7.96548 44.2749C7.89725 43.3348 7.848 42.4056 7.82942 41.4971C7.8122 40.6315 7.81847 39.7856 7.84456 38.9546C7.90351 37.1076 8.05422 35.3275 8.2893 33.5006C8.483 32.0231 8.72322 30.5215 9.09854 28.8616C9.20969 28.3901 8.3398 28.7525 8.48011 28.171C8.5234 27.9966 8.56773 27.8265 8.61301 27.6599C9.38128 25.4223 10.3925 24.7641 11.0769 24.0516C11.8181 23.3855 12.5191 22.8722 13.2153 22.396C13.909 21.9245 14.597 21.5013 15.2819 21.1053C15.9681 20.709 16.6539 20.3395 17.3407 19.9889C18.0271 19.6385 18.7137 19.3078 19.4069 18.9896C20.0889 18.6769 20.7997 18.3673 21.4577 18.0926C22.2221 17.7674 23.065 17.4422 23.8442 17.1743C24.0657 17.0977 24.287 17.0232 24.5077 16.9509C25.062 16.7713 24.635 17.6725 25.2007 17.5319C25.6181 17.4274 26.065 17.3262 26.5281 17.2233C27.2845 17.0552 28.0841 16.8829 28.8724 16.6767C29.6392 16.4762 30.396 16.2426 31.0911 15.9497C31.8433 15.6333 32.5228 15.2466 33.0582 14.7731C33.7934 14.1295 34.1967 13.3671 34.267 12.402C34.267 12.402 34.267 12.402 34.267 12.402C34.2675 12.3975 34.268 12.3931 34.2684 12.3887C36.3548 11.3126 39.1504 10.0487 41.3145 9.72954C42.7241 9.51802 41.7897 10.71 43.2096 9.76535C43.5315 9.55564 42.8316 9.16344 43.3368 8.89257C43.4429 8.83598 43.5501 8.78039 43.6582 8.72571C45.727 7.67807 48.1204 6.99106 50.1715 6.00419C50.6107 5.79146 50.3134 5.29251 50.4137 5.15335C50.9318 4.46524 51.9627 4.46297 52.7846 4.57574C53.3267 4.64906 53.7771 4.7706 53.9475 4.76368C57.2018 4.62789 59.3588 3.82465 62.2475 3.25126C62.8713 3.13036 62.0979 2.6123 62.507 2.41944C62.5371 2.40527 62.5737 2.39287 62.6178 2.38256C65.7848 1.64985 69.1178 1.18314 72.3108 1.08991C72.4809 1.08487 72.6507 1.08087 72.82 1.07793C73.5639 1.06785 72.9639 1.79079 73.3222 1.81929C74.8949 1.94302 75.1095 0.690657 76.6257 0.811429C76.9441 0.83639 76.8182 1.40522 76.8809 1.46062C77.8546 2.33154 78.5121 0.91945 78.7424 0.871201C80.0101 0.590502 81.1013 0.692198 82.1591 0.864593C83.505 1.0849 84.7908 1.41886 86.3538 1.25524C86.6891 1.21926 85.9067 0.541227 86.8545 0.483546C88.5358 0.382523 90.2494 0.333485 91.9442 0.336433C91.9442 0.336433 91.9442 0.336433 91.9442 0.336433C95.9282 0.342804 99.9899 0.543348 103.89 0.915832C104.554 0.979179 105.214 1.04746 105.869 1.12057C106.824 1.22639 106.13 1.73969 106.189 1.80591C107.147 2.84154 107.809 1.49517 108.123 1.45091C110.591 1.13731 112.854 2.33931 114.568 0.765466C114.987 0.79985 115.406 0.832012 115.825 0.862189C119.799 1.14848 123.768 1.25617 127.726 1.38548C131.698 1.51522 135.658 1.66668 139.604 2.04235C141.591 2.23149 143.574 2.47747 145.555 2.80621C145.685 2.82619 145.434 3.49061 145.695 3.52757C148.829 3.97709 148.25 2.92088 150.351 1.68912C150.591 1.54854 151.044 1.79465 151.48 2.11579C152.005 2.50235 152.506 2.99756 152.582 3.0604C153.089 3.48426 152.54 4.47261 152.711 4.55588C154.126 5.20995 153.945 1.91007 155.858 1.93357C155.918 1.9398 155.659 2.54369 155.819 2.606C156.317 2.80155 156.815 2.56586 157.301 2.77967C158.414 3.27363 158.805 4.88043 160.523 3.95709C160.74 3.83664 160.416 1.96619 162.126 2.0594C162.342 2.07151 162.792 2.07711 163.334 2.082C163.334 2.082 163.334 2.082 163.334 2.082C164.504 2.09284 166.1 2.10063 166.68 2.18178C167.526 2.30048 166.947 2.90493 167.007 2.93087C169.292 3.72071 168.428 4.05368 169.577 5.22958C170.727 6.40068 170.398 3.59784 170.863 3.28296C171.173 3.07363 172.024 3.29294 172.677 3.5297C173.004 3.64811 173.283 3.77089 173.42 3.84656C173.833 4.07364 173.321 4.45874 173.688 4.58671C176.117 5.42316 174.748 3.19085 175.546 2.74293C177.43 1.68293 178.906 3.75938 180.632 3.96362C181.099 4.01889 180.718 3.54503 181.134 3.50105C181.455 3.46839 181.752 3.46691 182.034 3.48135C183.203 3.54129 184.139 3.87159 185.653 3.40265C185.959 3.30745 187.491 2.06937 188.466 2.99914C188.603 3.13315 188.202 3.64641 188.904 3.77117C189.543 3.88538 190.494 3.98266 191.396 4.00883C191.974 4.02549 192.532 4.0128 192.974 3.95475C193.811 3.84525 192.874 2.96972 193.919 3.25932C194.383 3.38908 193.506 3.86729 194.378 4.06967C195.245 4.27033 197.473 4.31635 198.321 4.33216C199.167 4.34592 198.729 3.68156 198.799 3.64043C199.149 3.44643 200.33 3.24503 200.813 3.18708C200.914 3.17472 200.985 3.16854 201.01 3.1698C204.161 3.27722 207.198 3.64941 210.191 4.08612C213.304 4.54079 216.391 5.0667 219.519 5.44907C220.313 5.54598 221.113 5.62242 221.917 5.67451C222.464 5.71051 222.182 4.99014 222.266 4.98865C224.155 4.91343 222.481 6.55426 223.724 7.30128C223.685 5.90245 224.427 6.23749 225.76 6.21532C226.402 6.20288 226.108 5.63503 226.171 5.58602C227.186 4.86462 227.743 5.97054 227.894 6.2004C228.205 6.67346 228.582 6.60744 228.918 6.55632C229.183 6.51618 229.424 6.4853 229.592 6.73303C229.975 7.29184 228.928 7.98831 230.203 8.08198C230.598 7.61587 229.761 6.24817 230.739 6.11546C232.766 5.83942 235.702 6.15475 238.433 6.53154C240.67 6.84121 242.765 7.19907 244.084 7.32763C245.901 7.50407 246.957 7.56012 247.904 7.64652C248.481 7.69934 249.019 7.76355 249.662 7.8748C252.729 8.41071 251.664 7.37304 253.621 7.07609C255.588 6.78716 254.46 9.07436 254.697 9.60301C254.927 10.1316 255.263 9.63364 255.577 9.94025C255.889 10.2467 255.136 10.531 255.914 10.7014C256.207 10.7659 256.706 10.704 257.233 10.5767C258.102 10.3661 259.046 9.97923 259.254 9.66688C259.957 8.60479 259.095 7.32554 261.159 7.95605C261.277 7.99338 260.82 8.57078 261.276 8.68238C263.123 9.12523 265.014 9.48201 266.897 9.87049C268.703 10.243 270.501 10.6447 272.236 11.1737C272.722 11.3236 272.151 11.9221 272.43 12.0169C275.326 13.029 274.492 11.6815 276.419 10.7653C276.157 11.3302 276.073 11.849 276.17 12.3063C276.342 13.1462 277.15 13.7797 278.588 14.1313C279.932 14.4642 279.872 13.6752 280.88 13.3812C281.186 13.2927 282.003 14.0404 282.268 13.7449C283.138 12.7807 282.572 11.2742 284.773 12.4186C284.869 12.471 284.371 12.9899 284.714 13.1264C285.143 13.2984 285.509 13.3972 285.843 13.4497C287.222 13.6711 288.024 13.0605 290.042 13.5904C291.451 13.9621 293.486 15.0479 295.269 16.0137C295.97 16.3913 296.636 16.7485 297.223 17.0276C296.447 18.8015 298.564 19.2114 299.919 18.3657C301.256 19.0293 302.744 19.6675 303.94 20.5005C303.953 20.5097 303.965 20.5189 303.977 20.5282C304.316 20.8088 303.801 21.1353 303.828 21.2156C304.22 22.4975 305.396 21.6636 305.708 21.7788C308.327 22.7968 310.042 24.5348 312.227 25.8165C312.795 26.1511 313.397 26.459 314.065 26.7302C314.176 26.7751 315.176 25.8391 315.266 27.1813C315.264 27.2689 314.022 27.0419 315.211 28.0817C316.296 29.0307 317.776 31.179 319.44 32.4717C319.617 32.6079 319.798 32.7348 319.982 32.8495C320.443 33.1272 322.185 33.4584 322.198 34.8587C322.196 35.0442 321.795 35.1604 321.754 35.4557C321.616 36.3927 322.933 35.8739 322.454 37.1871C321.997 38.4225 322.081 39.9723 323.536 41.3668C323.629 41.4583 323.729 41.5482 323.834 41.6366C323.89 41.6881 325.075 41.5851 325.398 42.191C325.878 43.0918 326.395 44.4273 326.905 45.4076C326.936 45.4677 326.969 45.528 327.001 45.5865C327.261 46.0629 327.687 45.4396 327.743 45.5168C328.712 46.9484 329.359 48.3062 329.893 49.7242C330.464 51.2503 330.914 52.8462 331.43 54.7369C331.452 54.8174 331.474 54.8985 331.496 54.9801C331.687 55.6518 333.182 57.4043 332.783 58.9525C332.644 59.4898 332.173 59.7641 331.654 59.9957C330.555 60.4869 329.298 60.7728 330.16 62.8403C330.415 63.4787 331.682 64.0989 332.583 64.9823C333.435 65.811 333.954 66.8715 332.939 68.122C333.032 68.7796 333.084 69.4248 333.105 70.0849C333.116 70.416 333.099 70.7154 333.053 71.0337C333.007 71.3487 332.934 71.6586 332.836 71.9607C332.738 72.2641 332.616 72.5595 332.474 72.8455C332.332 73.1324 332.17 73.4101 331.994 73.6789C331.817 73.9484 331.625 74.2089 331.423 74.4625C331.219 74.7186 331.013 74.9568 330.788 75.2048C330.169 75.8973 329.837 76.8069 329.657 77.6201C329.476 78.4457 329.423 79.2718 329.45 80.091C329.468 80.6103 329.521 81.1271 329.606 81.6433C329.629 81.7885 330.124 82.1237 330.479 82.4703C330.675 82.6631 330.829 82.8613 330.832 83.0443C330.843 83.8034 330.33 84.2604 330.335 84.8134C330.335 84.8202 330.335 84.8269 330.335 84.8336C330.339 85.6415 330.429 86.4185 330.54 87.1872C330.652 87.9752 330.797 88.7527 330.852 89.5548C330.893 90.1852 330.917 90.8177 330.896 91.4596C330.893 91.5541 330.883 91.6344 330.868 91.7038C330.75 92.2552 330.303 92.1221 330.275 93.0177C330.266 93.3167 330.325 93.5862 330.402 93.8529C330.583 94.4718 330.867 95.0762 330.643 96.002C330.638 96.0222 330.633 96.0425 330.627 96.0629C330.451 96.7288 329.757 97.3945 329.239 98.1511C328.955 98.5665 328.724 99.0092 328.662 99.4944C329.453 99.522 329.817 99.7984 330.043 100.3C330.244 100.747 330.335 101.371 330.521 102.158C330.598 102.479 331.118 102.135 331.181 102.287C331.205 102.341 331.223 102.395 331.237 102.449C331.419 103.262 330.491 103.886 330.166 104.392C330.068 104.546 330.34 104.978 330.247 105.138C329.393 106.55 327.249 105.883 326.977 105.743C326.756 105.661 326.562 105.614 326.385 105.593C325.605 105.478 325.2 105.964 324.481 105.828C323.605 105.657 324.778 105.105 323.805 105.065C322.916 105.025 321.944 105.057 320.955 105.111C319.686 105.181 318.391 105.284 317.259 105.33C316.455 105.364 317.036 106.017 316.922 106.038C316.516 106.1 316.113 106.106 315.715 106.101C314.471 106.084 313.329 105.946 312.648 106.99C311.661 104.213 311.623 106.088 310.409 106.627C310.102 106.765 309.724 106.814 309.23 106.675C309.041 106.619 308.791 104.961 309.511 104.712C309.771 104.624 310.061 104.63 310.387 104.657C310.991 104.707 311.67 104.828 312.316 104.568C312.552 104.476 313.859 102.887 314.033 102.786C314.975 102.262 315.412 103.204 315.628 103.92C315.733 104.268 315.783 104.562 315.81 104.606C316.741 106.043 318.312 104.277 318.723 104.131C319.462 103.879 320.148 103.751 320.822 103.654C321.895 103.498 322.917 103.425 323.842 103.05C324.832 102.647 324.638 101.026 325.331 100.933C325.34 100.932 325.351 100.93 325.362 100.929C327.028 101.133 328.91 100.482 327.444 102.449C327.321 102.081 327.112 101.683 326.789 101.239C326.477 100.809 325.415 101.016 325.465 100.3C325.482 100.053 325.631 99.6955 325.99 99.1637C326.034 99.0978 326.383 98.6714 326.613 98.1511C326.837 97.6432 326.947 97.0457 326.547 96.6067C326.445 96.4951 325.928 96.4987 325.884 96.3515C325.85 96.2305 325.826 96.1145 325.81 96.002C325.704 95.2618 325.946 94.6761 325.851 93.8529C325.843 93.7813 325.832 93.708 325.818 93.6325C325.709 93.04 325.571 92.3813 325.498 91.7038C325.439 91.1528 325.423 90.5894 325.501 90.039C325.523 89.8843 325.583 89.7204 325.666 89.5548C325.977 89.1433 326.579 88.5748 326.744 88.275C326.907 88.0091 326.94 87.748 326.915 87.4878C326.846 86.7719 326.348 86.0992 326.913 85.5842C327.571 84.988 328.642 85.7201 329.2 84.9188C329.3 84.7772 329.383 84.5834 329.447 84.3295C328.101 84.3603 326.714 84.3075 325.357 84.2881C325.33 83.7503 325.315 83.2027 325.316 82.6448C325.317 81.7617 325.353 80.8556 325.446 79.8977C325.542 78.939 325.682 77.9347 325.978 76.7966C326.245 75.774 326.812 74.104 327.931 72.8243C328.128 72.6012 328.233 72.4756 328.379 72.2799C328.51 72.1017 328.624 71.9268 328.718 71.7574C328.725 71.7436 328.733 71.7298 328.74 71.7161C328.849 71.5028 328.106 71.3551 328.184 71.1485C328.208 71.0829 328.231 71.0226 328.253 70.9665C328.304 70.8419 328.354 70.7385 328.404 70.6445C328.454 70.5486 328.504 70.4622 328.549 70.3725C328.597 70.2289 328.629 70.3164 328.662 70.0848C328.721 69.3542 328.738 68.6365 328.631 67.913C328.51 67.1079 328.175 66.2442 327.834 65.4123C327.57 64.7661 327.303 64.1342 327.132 63.5169C327.96 62.8664 327.994 61.8451 327.806 60.8094C327.678 60.0915 327.445 59.3698 327.325 58.7221C327.221 58.1685 327.624 58.0895 327.636 57.6617C327.644 56.0395 326.566 57.1542 326.235 56.8297C326.16 56.7575 326.096 56.6864 326.043 56.6158C325.074 55.3711 327.567 54.1344 326.639 52.1977C326.613 52.143 326.074 51.9532 325.52 51.7704C324.967 51.5855 324.402 51.4132 324.313 51.3456C323.161 50.5128 324.736 50.9083 324.489 50.1405C324.149 49.1007 323.979 48.2269 323.399 47.3079C323.198 46.9917 322.94 46.6573 322.613 46.3225C322.235 45.9319 320.749 45.3711 320.934 44.0956C320.958 43.9296 321.466 43.7247 321.441 43.6163C321.348 43.2547 321.218 42.9839 321.062 42.7803C320.404 41.9479 319.256 42.4118 318.429 41.9927C317.428 41.498 317.571 39.7147 317.628 39.2386C317.825 38.0567 318.308 39.5076 318.392 39.4874C319.525 39.3028 318.733 38.5043 318.235 37.7502C319.466 36.6048 318.551 35.6654 317.713 36.9836C317.623 37.1262 318.184 37.5611 318.235 37.7502C316.71 38.102 315.797 37.5537 315.618 36.0372C315.588 35.7898 315.577 35.5161 315.585 35.2155C315.601 34.2129 316.695 34.0859 314.885 32.7678C314.054 32.1859 313.562 33.2958 312.713 32.9579C311.366 32.4322 310.329 31.1234 309.171 30.0205C308.667 29.5393 308.15 29.1016 307.601 28.7941C306.945 28.4301 307.2 29.3569 306.743 29.13C305.535 28.5397 304.767 27.5152 303.462 27.0471C303.345 27.0063 303.277 27.7263 302.909 27.5269C302.219 27.1576 301.558 26.7861 300.904 26.4132C298.911 25.2783 296.998 24.1204 294.638 23.1354C294.133 22.9249 293.476 22.7027 292.765 22.4819C291.347 22.0386 289.713 21.611 288.649 21.2013C287.232 20.6544 285.691 19.8724 284.167 19.1897C282.723 18.5406 281.29 17.9793 280.051 17.7788C278.389 17.5111 278.598 18.2474 277.799 18.5136C276.891 18.8255 275.797 18.221 274.989 17.6198C274.444 17.21 274.038 16.8036 273.928 16.6803C273.918 16.6674 275.367 16.822 274.683 16.3277C274.393 15.5435 273.943 16.6806 273.928 16.6803C273.74 16.4709 270.991 15.7861 270.41 15.8241C270.095 15.8392 270.158 16.4843 269.996 16.4809C268.659 16.448 267.326 16.3892 265.994 16.2983C263.491 16.1276 260.987 15.8432 258.45 15.4071C258.382 15.3879 258.553 14.7023 258.393 14.6658C257.855 14.5396 257.357 14.4862 256.884 14.4826C255.383 14.472 254.144 14.9609 252.68 15.2373C250.754 15.6016 249.265 15.3325 248.215 14.0613C247.987 14.0702 247.744 14.0614 247.493 14.0386C246.148 13.9169 244.545 13.3987 243.555 13.0667C242.379 12.6728 242.129 14.0205 242.022 14.041C240.444 14.3529 239.194 14.3171 237.952 14.1555C236.568 13.9749 235.196 13.6395 233.384 13.4478C232.182 13.3195 230.093 13.2592 228.352 13.223C227.727 13.2106 227.147 13.2019 226.671 13.198C225.243 13.187 224.43 12.7862 223.089 12.8491C222.907 12.8571 223.022 13.4786 222.965 13.4959C221.406 14.055 222.283 12.6605 222.01 12.3644C221.074 11.3393 220.484 10.7616 218.807 10.8837C218.719 10.8905 218.627 10.8994 218.533 10.9105C218.104 10.9584 216.641 12.925 215.901 12.9664C214.932 13.0155 215.378 12.296 214.361 12.3721C214.273 12.3783 214.242 12.8483 213.628 12.764C212.31 12.5868 210.93 12.3789 209.53 12.1943C207.888 11.9776 206.217 11.7928 204.578 11.7205C204.163 11.7007 204.65 12.4783 204.051 12.4624C202.87 12.4314 201.641 12.3856 200.409 12.3119C198.711 12.2101 197.007 12.0556 195.415 11.8073C194.738 11.6998 195.178 11.1883 195.035 11.0288C194.152 10.0629 192.829 11.4005 192.618 11.4224C192.157 11.4724 191.705 11.5077 191.261 11.5309C188.005 11.7026 185.175 11.2187 182.02 11.1611C180.878 11.1405 179.694 11.1762 178.433 11.3205C178.149 11.3551 175.965 12.8257 174.982 11.573C174.915 11.4896 173.943 10.2076 173.088 11.0901C173.037 11.143 173.592 11.7506 172.711 11.7458C172.673 11.7456 172.632 11.7443 172.587 11.7416C171.533 11.6786 169.835 12.1281 168.378 11.406C167.915 11.1785 166.823 9.89992 165.449 10.9248C165.385 10.9769 164.241 12.2163 163.334 12.2729C163.334 12.2729 163.334 12.2729 163.334 12.2729C162.992 12.2942 162.683 12.1494 162.476 11.7143C162.352 11.4512 162.485 9.76535 160.835 10.6246C160.519 10.7909 161.091 11.1701 160.259 11.4011C158.982 11.757 157.288 11.2909 155.716 12.0234C155.441 12.1533 154.262 13.2838 153.342 12.3999C153.199 12.2614 153.484 11.7024 152.994 11.6316C152.439 11.5509 151.877 11.5079 151.312 11.4832C149.5 11.4042 147.647 11.5131 145.85 11.1731C145.015 11.016 145.465 10.1158 144.599 9.85024C143.732 9.58486 141.981 9.3038 141.058 9.69431C140.134 10.0851 141.09 11.5644 139.719 11.6418C139.588 11.6491 139.458 11.6558 139.327 11.6618C135.321 11.8464 131.366 11.4255 127.413 11.0455C125.616 10.8728 123.818 10.7084 122.015 10.6133C121.141 10.5672 121.85 11.1091 120.56 11.0787C119.129 11.0457 117.383 11.0448 115.533 11.029C111.332 10.991 106.598 10.8878 103.726 10.1154C103.664 10.0987 103.604 10.0818 103.544 10.0646C100.271 9.12595 104.421 8.52078 101.912 8.12034C100.698 7.92961 99.3661 9.6014 99.0737 9.65131C96.3206 10.141 94.3964 9.45341 91.9442 9.6091C91.9442 9.6091 91.9442 9.6091 91.9442 9.6091C91.8552 9.6149 91.7654 9.62191 91.675 9.63024C91.1518 9.67915 91.6655 10.3617 91.2215 10.3962C89.7006 10.5213 88.1607 10.2447 86.7438 10.346C86.1074 10.3937 86.2429 10.9118 85.6556 10.8936C84.6332 10.8676 83.6939 10.7791 82.7202 10.5782C82.3549 10.5029 81.9842 10.4119 81.6016 10.3029C81.4729 10.2666 82.2765 9.56296 81.2315 9.6071C79.5432 9.68173 77.3999 9.3769 75.5179 10.0817C74.9596 10.2939 75.0731 11.4793 73.7557 10.8052C73.613 10.7332 73.5847 10.3109 73.4162 10.1092C73.2579 9.91904 72.9701 9.92453 72.3551 10.6114C72.1296 10.8436 70.0038 12.8261 68.6861 11.956C68.3376 11.7247 67.3572 10.6976 66.7065 11.0006C66.6201 11.0459 67.0986 11.6121 66.5501 11.7734C65.8692 11.9705 65.172 12.142 64.4709 12.3104C63.1812 12.6203 61.8723 12.9217 60.6182 13.3526C60.1027 13.532 61.0411 13.9898 60.2722 14.2368C58.9563 14.6626 57.4167 15.041 55.9365 15.3849C55.043 15.5919 54.1712 15.7851 53.3802 15.9588C52.6062 16.1292 52.9528 15.4378 52.8803 15.3984C51.6852 14.7661 51.5841 16.1938 51.3252 16.3652C49.9728 17.2408 48.686 17.3579 47.4005 17.8355C47.1253 17.9382 46.8522 18.057 46.5802 18.204C46.1554 18.4325 46.7154 18.8744 46.6495 18.9633C45.968 19.8532 46.1892 18.5304 45.5672 18.668C43.7845 19.0737 42.1564 19.9257 40.6227 20.8508C40.0572 21.1946 41.0623 21.4716 40.5526 21.7736C40.3245 21.9107 40.0937 22.0501 39.861 22.1913C39.8608 22.1914 39.8611 22.1913 39.861 22.1913C39.1058 22.648 38.1349 23.1687 37.3271 23.5601C36.4866 23.9695 35.6531 24.3348 34.84 24.663C34.0232 24.9927 33.2272 25.285 32.4596 25.5487C31.6816 25.8158 30.9328 26.0536 30.2154 26.2701C29.8792 26.3715 29.5499 26.4682 29.2272 26.5608C28.6097 26.7377 28.7612 26.0671 28.5887 26.0012C28.2689 25.8772 27.9809 25.9055 27.7312 26.0172C27.0253 26.3317 26.7034 27.2357 26.5483 27.4064C26.4526 27.5123 26.3557 27.608 26.2588 27.6948C25.5496 28.2997 25.0149 28.3979 24.3898 28.6489C24.1622 28.7407 23.9284 28.8496 23.6772 29.0069C23.3363 29.221 22.9944 29.4352 22.6518 29.6506C22.1059 29.9939 21.5597 30.3393 21.0328 30.6823C20.5224 31.0146 20.0255 31.3479 19.5887 31.6605C19.1629 31.9636 18.7781 32.2674 18.599 32.4306C18.3553 32.5194 18.6392 32.8423 19.4074 30.7441C19.0358 32.024 18.8423 33.0321 18.6474 34.4868C18.4579 35.9469 18.3532 37.4725 18.3021 38.9386C18.2948 39.148 18.2886 39.3568 18.2834 39.5647C18.2492 40.9765 18.2441 42.3642 18.2533 43.7359C18.265 45.4247 18.299 47.0877 18.3439 48.7527C18.3902 50.4694 18.45 52.1876 18.5096 53.9703C18.5648 55.6838 18.6305 57.5897 18.6335 59.496C18.6342 60.04 18.6379 60.5899 18.645 61.1469C18.648 61.3823 18.6516 61.619 18.6559 61.857C18.6639 62.3511 19.4079 61.8529 19.4244 62.2788C19.4301 62.4519 19.4352 62.6249 19.44 62.7979C19.4551 63.3489 19.4658 63.8992 19.4731 64.4488C19.4803 64.9997 19.4842 65.55 19.4855 66.0998C19.4869 66.6505 19.4858 67.2007 19.4832 67.7507C19.4807 68.3012 19.4766 68.8515 19.4721 69.4017C19.4804 68.6572 19.2995 68.1433 19.3017 68.1585C19.2693 68.0709 19.2658 68.0763 19.2503 68.0483C19.2311 68.0202 19.215 67.9774 19.0715 67.7851C18.8548 67.589 18.8211 67.2252 17.2607 66.347C15.984 64.7364 9.54924 66.5249 9.42223 68.0488C8.543 69.1848 8.48742 69.8809 8.52552 69.6734C8.64834 69.1557 8.63601 69.0896 8.66598 68.4849C8.66899 68.3212 8.66689 68.1491 8.65931 67.9695C8.64664 67.6914 7.93847 68.0771 7.89028 67.6423C7.86007 67.3995 7.83275 67.1268 7.80697 66.8312C7.75668 66.2464 7.70942 65.5696 7.68559 64.8985C7.67692 64.6475 7.67198 64.3976 7.67296 64.1546C7.67006 63.5535 8.41407 64.2264 8.39512 63.6135C8.38283 63.2717 8.35328 62.9205 8.30769 62.5649C8.2118 61.8176 8.04452 61.0489 7.81805 60.2885C7.69779 59.8845 7.55922 59.4774 7.40853 59.0846C7.16651 58.4646 6.77108 59.6321 6.50898 58.8116C6.44933 58.6285 6.38357 58.4289 6.31853 58.2346C5.57101 55.9695 5.12552 53.4899 4.8365 51.5472C4.53611 49.49 4.34756 47.5275 4.23886 45.5509C4.13284 43.5924 4.11279 41.6492 4.18824 39.7008C4.22125 38.8646 4.27142 38.0114 4.34213 37.1772C4.38184 36.6938 5.82489 36.2131 5.49901 35.2267C5.08917 35.1688 4.61124 35.1942 4.17533 35.1802C4.14689 34.7594 4.12155 34.3604 4.09729 33.9382C3.98658 32.0161 3.91994 30.1157 3.88689 28.205C-8.06374 27.0619 29.6869 21.9868 17.7279 26.3629C17.7279 26.363 17.7279 26.3629 17.7279 26.363C17.7375 26.7122 17.698 26.4292 17.7479 26.7916C17.7875 27.0304 17.88 27.3832 18.0368 27.84C18.192 28.2961 18.4093 28.853 18.6636 29.5032C18.917 30.1538 19.2072 30.8987 19.4886 31.746C19.7691 32.5917 20.0398 33.5424 20.2345 34.5841C20.4221 35.5096 20.5603 37.0089 20.5294 37.8912C20.5189 38.5047 20.5262 38.8734 20.5636 39.4747C20.5996 40.0283 20.66 40.6091 20.7411 41.2212C20.7516 41.3006 20.7624 41.3805 20.7736 41.4608C20.8243 41.8177 21.4985 41.0868 21.6022 41.7757C21.6639 42.176 21.7344 42.5897 21.8102 43.018C21.9294 43.6918 22.0624 44.4028 22.1926 45.1586C22.323 45.9169 22.4508 46.7206 22.5525 47.5801C22.6504 48.3905 22.7367 49.4618 22.745 50.3224C22.7617 52.318 22.6695 54.4018 22.3725 56.4616C22.3569 56.5723 22.2713 56.6454 22.1519 56.7098C21.7555 56.9232 20.9888 57.0409 21.1615 58.1108C21.204 58.357 21.405 60.4556 21.7022 60.9969C21.7472 61.0706 22.3835 60.684 22.4049 61.3615C22.4205 61.9128 22.4303 62.4675 22.4343 63.0243C22.4494 65.1044 22.3841 67.2138 22.2453 69.296C22.1561 70.6353 22.0365 71.9635 21.8886 73.2664C21.8164 73.891 21.1458 73.2163 21.0885 73.6609C21.0112 74.2679 20.9661 74.885 20.9391 75.5071C20.8492 77.577 20.9597 79.7013 20.7516 81.6938C20.6973 82.214 20.6212 82.7256 20.514 83.2249C20.084 85.2241 18.9156 84.475 17.754 85.5358C17.5899 85.6863 17.5602 86.9294 16.8881 86.9929C15.1968 87.1564 13.3466 86.546 11.5437 86.791C11.1547 86.8429 11.5722 88.5305 10.6345 87.5309C10.5714 87.4611 10.2623 86.236 9.9457 85.9332C9.72649 85.7222 9.04113 86.0985 8.76121 85.6681C8.48166 85.2375 9.05721 84.7692 8.7311 84.0569C8.40134 83.3448 7.62034 83.6503 7.54072 82.2318ZM238.248 11.3003C238.21 11.2744 238.173 11.2526 238.137 11.2344C237.17 10.7502 236.912 12.884 238.058 12.4767C238.072 12.4717 238.087 12.4662 238.102 12.4603C238.162 12.4335 238.304 11.3358 238.248 11.3003ZM328.232 76.1099C328.908 75.4808 329.419 74.602 329.517 74.1458C329.52 73.6536 329.03 73.2055 328.413 73.2262C328.375 73.2406 328.336 73.2573 328.295 73.277C326.18 74.8055 327.782 76.6675 328.232 76.1099ZM328.795 91.919C328.832 91.8445 328.86 91.7728 328.881 91.7038C329.331 90.2236 326.346 90.0404 326.896 91.7038C326.904 91.7264 326.912 91.7493 326.92 91.7725C326.959 91.8782 328.747 92.0182 328.795 91.919ZM17.4653 80.5779C17.4332 80.5928 17.3927 81.4885 17.4241 81.5102C18.1789 81.9946 18.2592 80.2051 17.4653 80.5779ZM326.912 103.958C327.573 104.287 328.686 103.277 327.92 102.962C327.388 102.705 326.193 103.556 326.912 103.958ZM180.678 5.1316C180.66 5.09588 180.017 5.06373 180.03 5.26533C180.074 5.91436 180.968 5.73142 180.678 5.1316ZM301.844 105.394C303.23 105.441 304.337 105.84 305.099 106.31C306.133 106.973 306.349 107.787 305.093 107.993C304.755 108.046 304.325 108.058 303.783 108.014C303.045 107.953 305.376 107.126 304.437 106.87C302.752 106.409 301.527 108.137 299.879 107.25C299.481 107.074 301.634 105.371 301.85 105.39C301.848 105.392 301.846 105.393 301.844 105.394ZM237.791 8.39154C237.771 8.35869 236.884 8.27164 236.86 8.30141C236.329 9.0285 238.118 9.20459 237.791 8.39154ZM143.158 3.40011C143.111 3.33187 141.048 3.21285 140.979 3.27265C139.866 4.48525 144.041 4.72992 143.158 3.40011ZM297.236 17.0892C298.442 16.7594 299.592 17.162 299.915 18.3629C299.04 17.9108 298.132 17.5105 297.236 17.0892Z" fill="black"/>
</svg>
