<svg width="556" height="807" viewBox="0 0 556 807" fill="none" xmlns="http://www.w3.org/2000/svg">
<path d="M115.713 203.502C115.568 200.766 115.499 197.815 115.49 194.758C115.464 185.718 115.965 175.754 116.594 167.693C116.596 167.665 116.598 167.637 116.601 167.609C116.874 164.341 118.023 166.005 118.254 163.69C118.707 159.126 118.135 154.874 118.675 150.363C118.86 148.869 120.707 150.729 120.859 149.162C121.138 146.221 121.267 143.334 121.331 140.46C121.454 134.941 121.339 129.468 121.597 123.746C121.755 120.264 121.904 116.786 122.046 113.311C122.416 104.243 122.735 95.1992 123.016 86.1625C123.298 77.1125 123.542 68.0694 123.762 59.0136C123.608 54.5085 125.521 46.3554 128.95 41.6201C132.39 36.3783 136.959 32.8079 141.187 30.3312C145.471 27.8387 149.612 26.246 153.605 24.9593C157.582 23.6922 161.429 22.7648 165.168 21.9662C168.893 21.1735 172.514 20.519 176.009 19.882C179.401 19.2609 182.452 18.7119 185.477 18.0224C185.598 17.9948 185.718 17.9669 185.838 17.939C192.007 16.4901 198.875 15.1581 205.831 13.8252C212.594 12.5278 219.462 11.2291 225.977 9.77425C227.874 9.35015 229.753 8.9096 231.578 8.45274C233.292 8.0235 231.946 6.63775 232.25 6.44127C237.055 3.42414 235.95 6.97387 239.412 6.77432C241.701 6.64785 244.025 6.48858 246.371 6.30563C253.203 5.77097 260.225 5.04456 267.05 4.29744C271.975 3.75624 276.8 3.201 281.383 2.65806C286.981 2.01663 281.14 -0.842243 286.919 0.621968C287.319 0.722199 285.988 2.52015 287.54 2.61865C287.61 2.62308 287.681 2.62718 287.753 2.63096C291.307 2.8032 297.671 2.29397 300.363 2.38714C304.395 2.5222 305.789 2.55833 308.48 2.56831C308.48 2.56831 308.48 2.56831 308.48 2.56831C309.249 2.57276 310.125 2.57312 311.199 2.57042C314.621 2.57054 318.427 2.75683 322.323 2.84086C325.709 2.9145 329.152 2.91368 332.441 2.65888C333.951 2.53741 331.907 0.815915 334.318 0.464089C334.84 0.388587 335.548 0.330505 336.361 0.290753C339.312 0.141534 343.674 0.260096 345.398 0.587357C347.595 1.00125 346.657 2.39054 347.045 2.70822C347.981 3.50013 349.289 3.74122 350.701 3.69431C354.069 3.5728 358.114 1.84601 358.818 1.81493C361.022 1.71255 363.198 1.69414 365.35 1.75309C370.421 1.89226 375.356 2.46 380.196 3.37452C385.104 4.29805 390.279 5.67912 394.92 7.24205C398.102 8.29355 401.545 9.7004 404.554 11.0488C406.066 11.7226 407.56 12.4135 409.049 13.1116C410.536 13.8085 412.011 14.5184 413.482 15.2407C416.358 16.653 419.206 18.1058 422.006 19.5607C424.806 21.0158 427.56 22.4741 430.246 23.9021C432.994 25.363 435.668 26.7906 438.245 28.1547C439.604 28.8746 440.946 29.5815 442.233 30.2544C443.48 30.9079 444.706 31.5427 445.98 32.1805C447.757 33.0688 450.483 34.0831 453.105 35.0603C455.848 36.0743 458.618 37.0741 461.439 38.1006C464.242 39.1204 467.091 40.1602 470.016 41.2533C472.587 42.2161 475.204 43.2105 477.964 44.3316C479.146 44.8185 478.77 43.1318 479.583 42.9225C479.76 42.8784 479.989 42.9018 480.31 43.038C483.169 44.2632 486.041 45.6015 489.154 47.5478C492.115 49.8864 497.295 51.8012 499.83 61.3884C499.83 61.3884 499.83 61.3884 499.83 61.3884C500.288 63.9546 500.96 66.1218 502.024 69.0185C503.046 71.7674 504.291 74.644 505.618 77.5641C506.949 80.4899 508.368 83.4724 509.804 86.5169C510.864 88.7643 511.933 91.0458 512.987 93.3709C513.76 95.0852 511.004 93.8371 511.679 95.6004C511.843 96.0238 512.006 96.4539 512.174 96.9012C513.294 99.885 514.505 103.321 515.768 106.876C516.944 110.201 518.258 113.862 519.435 117.137C521.484 122.789 524.075 127.676 528.283 129.815C528.318 129.975 528.352 130.135 528.386 130.296C529.39 134.994 530.356 140.25 530.841 145.245C531.156 148.462 531.276 151.566 531.111 154.325C530.814 158.951 528.176 154.933 529.85 160.261C529.889 160.388 529.94 160.481 530.002 160.548C530.519 161.117 531.748 159.8 532.123 161.443C533.11 165.789 533.665 170.437 534.208 175.037C534.633 178.631 535.053 182.199 535.686 185.607C535.982 187.189 537.505 186.653 537.816 187.089C538.353 187.876 538.619 188.793 538.703 189.777C539.016 193.399 536.779 197.647 536.587 198.772C536.222 200.991 535.947 203.058 535.736 204.998C535.736 204.998 535.736 204.998 535.736 204.998C534.926 212.37 535.431 218.631 535.41 226.185C535.403 228.393 537.489 225.778 537.557 227.903C537.886 238.921 537.755 250.34 536.881 261.145C536.682 263.548 534.888 261.348 534.702 262.497C533.902 267.563 537.274 268.667 536.573 273.526C536.429 274.551 534.901 273.982 534.734 274.17C533.954 275.046 533.74 275.884 533.825 276.65C534.026 278.451 535.887 279.849 535.947 280.376C537.125 289.878 533.269 295.979 533.871 305.163C533.947 306.262 535.864 303.773 535.959 306.862C536.383 320.415 536.342 334.489 535.825 348.344C535.558 355.531 535.162 362.658 534.639 369.622C534.403 372.792 532.952 370.53 532.773 370.73C529.981 373.981 533.723 376.083 533.864 377.117C534.876 385.275 531.719 392.882 536.156 398.44C535.806 405.669 535.62 412.892 535.498 420.109C535.094 444.103 535.405 468.064 532.784 491.883C532.427 495.132 532.015 498.378 531.539 501.62C531.48 502.054 529.66 501.219 529.55 502.085C528.193 512.511 531.115 510.589 534.38 517.642C535.199 519.423 530.775 524.577 530.446 525.032C529.239 526.698 526.566 524.82 526.323 525.384C524.403 530.047 533.498 529.633 533.235 536.036C533.212 536.236 531.579 535.325 531.391 535.855C530.8 537.5 531.391 539.183 530.745 540.789C529.25 544.467 524.791 545.587 527.079 551.403C527.375 552.141 532.572 551.286 532.043 556.989C531.942 558.051 531.794 560.822 531.609 563.758C531.4 567.101 531.141 570.659 530.877 572.152C530.382 574.954 528.839 572.921 528.756 573.119C526.122 580.582 525.383 577.649 521.913 581.247C518.451 584.836 526.211 584.268 526.972 585.873C527.732 587.481 525.562 592.927 524.84 594.249C524.119 595.572 523.184 593.798 522.746 594.987C519.87 602.863 526.32 598.786 527.354 601.528C529.797 608.014 523.724 612.462 522.711 618.126C522.437 619.661 523.836 618.505 523.846 619.894C523.867 625.394 521.814 628.52 522.897 634.867C522.912 634.953 522.946 635.07 522.994 635.21C523.535 636.766 525.782 641.55 523.132 644.331C522.717 644.755 521.452 643.286 520.865 645.587C519.992 649.032 518.853 655.224 518.759 659.017C518.748 659.518 518.828 659.839 518.96 660.049C519.563 661.015 521.273 659.615 520.242 662.376C519.679 663.864 518.769 660.804 517.824 663.612C516.894 666.403 515.696 673.714 515.219 676.494C514.755 679.27 516.785 678.082 516.863 678.327C517.223 679.577 517.153 683.676 517.055 685.214C517.037 685.5 517.019 685.698 517.004 685.772C515.452 694.003 513.422 701.89 511.257 709.624C508.989 717.724 506.569 725.658 504.36 733.676C502.585 740.117 500.944 746.613 499.626 753.29C499.269 755.087 501.381 754.343 501.345 754.622C500.813 759.352 498.584 757.125 496.382 757.396C495.662 757.484 494.946 757.84 494.294 758.793C498.149 759.067 496.87 761.422 496.26 765.812C495.971 767.928 497.674 767.14 497.776 767.363C499.237 770.939 495.925 772.41 495.22 772.828C492.625 774.375 494.631 777.158 492.897 778.223C491.174 779.294 489.802 775.629 488.898 779.774C489.971 781.229 494.136 778.941 494.001 782.199C493.998 782.257 493.996 782.316 493.993 782.375C487.563 796.889 474.378 794.404 464.795 795.752C457.962 795.966 451.823 795.633 447.863 795.613C442.688 795.574 439.259 795.558 436.489 795.504C433.946 795.451 431.793 795.354 429.115 795.065C418.817 793.903 422.517 796.642 416.042 797.609C409.539 798.53 412.983 792.165 412.126 790.727C411.29 789.286 410.241 790.675 409.161 789.849C408.254 789.151 409.869 788.455 408.823 787.999C408.631 787.915 408.349 787.839 407.946 787.773C405.354 787.354 398.028 789.39 397.004 790.78C394.821 793.737 397.843 797.215 390.938 795.579C390.543 795.483 391.964 793.87 390.448 793.586C387.183 792.992 383.948 792.472 380.631 791.974C371.607 790.616 362.544 789.467 353.722 787.636C353.346 787.557 353.147 787.406 353.05 787.217C352.725 786.579 353.555 785.512 352.83 785.341C342.97 782.984 346.063 786.566 340.174 789.432C341.981 784.861 339.387 781.672 331.744 780.521C327.877 779.899 327.647 781.43 325.646 782.422C325.326 782.562 324.965 782.688 324.543 782.79C323.573 783.027 320.688 780.922 319.896 781.742C317.287 784.416 319.526 788.593 312.066 785.426C311.741 785.282 313.214 783.832 312.063 783.457C304.624 781.015 302.955 784.049 294.646 782.44C293.742 782.263 292.757 782.019 291.705 781.721C285.173 779.881 276.228 775.968 270.047 773.995C271.584 768.888 264.445 768.21 260.674 770.965C260.502 770.911 260.329 770.857 260.155 770.804C255.631 769.408 250.716 768.169 246.493 766.403C244.985 765.773 246.45 764.597 246.301 764.379C244.05 760.975 240.991 763.784 239.938 763.609C235.812 762.867 232.116 761.662 228.554 760.385C222.335 758.154 216.537 755.716 209.428 755.028C209.033 754.99 207.209 758.284 205.346 754.756C205.233 754.518 209.192 754.131 204.396 752.293C202.497 751.561 200.033 750.309 197.303 748.995C193.136 746.992 188.366 744.84 183.978 744.231C182.23 743.993 177.031 745.167 174.667 741.656C174.355 741.183 175.231 740.393 174.832 739.59C173.543 737.022 171.005 740.026 169.881 736.1C169.55 734.937 168.973 733.746 168.137 732.622C166.147 729.952 162.7 727.673 157.496 727.017C157.264 726.982 154.501 728.994 152.467 728.005C149.229 726.432 144.884 723.687 141.512 722.054C139.894 721.272 140.109 723.431 139.814 723.324C138.687 722.885 137.605 722.433 136.561 721.971C136.561 721.971 136.561 721.971 136.561 721.971C131.797 719.867 128.213 716.037 125.863 712.013C123.561 708.099 122.047 703.751 120.771 698.808C120.565 698.005 120.364 697.178 120.172 696.344C119.708 694.454 116.817 689.843 116.694 685.436C116.663 684.545 116.741 683.669 116.964 682.848C118.506 677.572 127.851 681.501 124.859 670.897C124.848 670.851 124.835 670.805 124.823 670.759C123.918 667.399 116.692 663.407 116.198 657.691C116.054 656.043 116.488 654.244 117.826 652.34C117.552 649.495 117.44 646.692 117.408 643.906C117.312 636.058 117.61 628.316 117.355 620.554C117.182 615.307 116.749 610.019 115.744 604.643C115.609 603.919 112.277 601.775 112.225 600.049C112.197 599.066 112.39 598.239 112.637 597.49C113.034 596.286 113.574 595.294 113.575 594.163C113.618 587.203 112.316 580.841 112.089 574.185C112.065 573.494 112.053 572.797 112.056 572.098C112.071 569.283 113.634 570.24 113.675 566.893C113.728 563.56 111.673 561.322 112.723 556.784C113.172 554.888 114.691 553.013 116.074 550.995C117.18 549.367 118.199 547.659 118.527 545.692C114.441 545.292 114.651 542.202 114.093 536.583C113.988 535.498 112.451 536.5 112.328 535.978C111.799 533.842 113.197 532.06 112.654 530.013C112.525 529.513 111.136 529.305 110.954 528.882C110.699 528.301 110.587 527.68 110.583 527.047C110.549 523.698 113.573 520.099 114.188 519.426C116.949 516.317 115.568 514.263 117.062 511.766C118.569 509.326 118.489 513.559 119.806 510.626C120.519 509.069 121.23 507.351 121.946 505.6C123.487 501.823 124.777 497.597 125.862 493.717C126.235 492.385 126.586 491.092 126.923 489.86C127.621 487.242 125.341 488.563 125.399 488.177C125.811 485.737 126.664 483.392 127.216 481.194C127.908 478.443 128.126 475.921 126.43 473.841C132.948 472.658 131.051 471.525 129.672 469.011C128.886 467.574 128.268 465.691 129.41 462.976C129.659 462.394 134.302 462.284 134.578 464.805C134.729 466.218 134.153 467.915 133.68 469.741C133.309 471.175 133.002 472.687 133.16 474.237C133.26 475.054 136.486 480.475 136.586 481.171C136.732 482.042 136.668 482.748 136.459 483.321C135.382 486.258 130.558 485.62 130.205 485.755C126.44 487.293 127.783 491.885 128.31 494.4C128.431 494.963 128.515 495.415 128.498 495.692C128.23 499.892 127.08 503.572 126.046 506.967C125.412 509.057 124.908 511.117 124.772 513.192C124.553 516.697 128.86 517.985 128.17 520.484C127.205 524.11 125.515 526.61 124.198 529.035C122.475 532.231 121.393 535.357 124.051 540.462C125.07 542.39 130.023 540.906 125.805 547.153C125.646 547.393 124.21 549.188 123.588 551.264C123.179 552.616 123.12 554.074 123.975 555.223C124.248 555.587 125.671 555.607 125.781 556.077C126.499 559.225 125.352 561.321 125.913 564.778C126.357 567.487 127.001 570.627 127.085 573.782C127.108 574.64 127.089 575.5 127.013 576.354C126.798 578.753 124.271 581.948 123.672 583.139C121.94 586.495 125.178 589.873 123.021 592.022C120.855 594.202 117.189 590.343 116.007 595.84C119.711 595.841 123.527 596.096 127.258 596.216C127.265 596.374 127.272 596.532 127.279 596.69C127.597 604.433 127.521 612.185 127.598 620.053C127.636 624.039 127.713 628.051 127.893 632.123C127.962 633.658 129.904 632.028 130.028 633.679C130.287 637.25 130.047 640.608 129.8 643.906C129.562 647.014 129.354 650.138 129.655 653.442C129.776 654.744 130.009 656.106 130.304 657.446C131.178 661.466 132.6 665.519 133.252 669.346C132.892 669.653 132.58 669.995 132.312 670.367C130.054 673.495 130.899 678.671 131.625 683C131.774 683.912 131.916 684.797 132.013 685.631C132.236 687.463 131.112 687.581 131.037 688.947C130.891 694.076 133.972 690.861 134.865 691.951C135.458 692.631 135.785 693.25 135.919 693.845C136.699 696.955 131.377 700.516 134.252 705.042C134.303 705.116 134.82 705.242 135.531 705.333C137.356 705.657 140.187 705.284 140.477 705.276C143.24 705.4 139.704 706.743 140.408 707.816C140.814 708.451 141.425 709.277 142.515 710.062C142.515 710.062 142.515 710.062 142.515 710.062C144.85 711.62 147.292 712.947 150.96 713.783C152.69 714.179 157.539 713.355 159.645 716.705C159.923 717.145 159.084 718.402 159.369 718.628C164.604 722.595 166.673 718.364 170.626 718.361C171.719 718.359 172.799 718.747 173.813 719.34C176.475 720.896 178.683 723.852 179.196 724.794C181.054 728.171 176.671 724.868 176.435 725.019C173.581 726.877 177.571 728.031 180.411 729.442C179.094 733.873 183.333 735.282 183.362 730.884C183.359 730.402 180.919 729.878 180.411 729.442C184.688 726.319 189.324 727.562 192.813 733.416C194.453 736.153 191.401 737.479 198.879 739.382C199.725 739.595 200.351 739.541 200.861 739.343C202.398 738.747 202.898 736.861 205.272 737.036C212.479 737.569 220.071 743.314 227.083 745.122C229.621 745.776 227.74 743.338 229.49 743.726C230.902 744.036 232.215 744.482 233.494 744.975C236.42 746.104 239.167 747.48 242.47 748.014C242.9 748.081 242.429 746.039 243.847 746.451C251.289 748.583 257.915 751.055 265.041 753.411C268.22 754.461 271.501 755.487 274.99 756.439C280.457 757.942 290.523 759.515 296.176 761.116C296.375 761.173 296.575 761.231 296.775 761.289C306.447 764.132 317.744 769.346 326.27 770.593C327.029 770.706 327.671 770.766 328.22 770.784C331.14 770.688 330.894 769.086 332.916 768.333C337.357 766.62 345.224 771.925 346.176 772.702C346.147 772.725 341.41 772.563 343.793 773.799C345.021 775.907 346.125 772.704 346.176 772.702C346.736 773.059 350.96 773.845 354.487 774.287C356.226 774.507 357.816 774.647 358.475 774.6C359.517 774.52 359.127 772.751 359.668 772.742C367.183 772.648 374.692 772.835 382.189 773.331C387.741 773.698 393.296 774.234 398.872 774.944C399.101 774.994 398.627 776.889 399.167 776.982C403.079 777.68 406.33 777.45 409.409 776.913C412.268 776.413 415.025 775.648 418.046 775.098C424.343 773.959 429.228 774.538 432.82 777.89C433.99 777.805 435.279 777.831 436.6 777.928C440.638 778.229 445.134 779.173 448.074 779.761C451.93 780.541 452.27 776.761 452.62 776.677C456.53 775.602 459.803 775.128 462.768 774.904C467.394 774.544 472.583 774.752 476.589 773.625C479.643 772.747 475.614 772.867 474.705 778.088C475.462 773.911 476.206 769.569 476.696 766.534C477.438 761.904 478.937 759.391 479.389 755.098C479.451 754.518 477.695 754.697 477.674 754.511C477.562 753.822 477.529 753.284 477.556 752.867C477.73 750.191 480.401 752.482 481.212 751.801C484.619 748.957 486.506 747.153 486.734 740.954C486.789 739.525 482.056 734.177 482.323 731.623C482.552 729.494 483.354 729.436 483.984 728.745C484.335 728.36 484.633 727.777 484.747 726.531C484.775 726.234 483.501 725.989 484.055 723.93C485.719 717.705 487.649 711.184 489.349 704.643C490.259 701.139 491.103 697.629 491.806 694.16C492.085 692.803 489.702 694.104 490.07 692.141C490.789 688.296 491.564 684.318 492.397 680.356C493.56 674.825 494.83 669.327 496.247 664.247C496.85 662.101 498.043 663.706 498.543 663.3C500.608 661.594 499.851 658.841 499.153 657.059C498.825 656.219 498.513 655.59 498.523 655.368C498.828 647.161 499.99 640.494 501.057 633.261C502.162 625.653 503.271 618.034 503.115 609.231C503.095 608.28 499.61 600.8 503.277 597.838C503.522 597.637 507.272 594.698 505.049 591.714C504.91 591.529 502.961 593.392 503.378 589.94C503.794 586.485 502.936 580.836 505.216 576.189C505.935 574.719 509.669 571.347 507.112 566.679C507.02 566.522 505.401 564.516 504.458 562.302C503.565 560.207 503.276 557.926 505.467 556.827C506.208 556.462 510.826 557.12 508.716 551.613C508.305 550.561 507.18 552.378 506.666 549.637C505.871 545.44 507.364 539.993 505.513 534.801C505.185 533.894 502.195 529.981 504.702 527.039C505.095 526.577 506.608 527.543 506.844 525.943C507.971 518.336 507.211 510.299 508.517 502.57C508.976 499.83 511.438 501.312 512.193 498.461C512.648 496.743 513.121 493.964 513.19 491.362C513.235 489.647 513.105 488.01 512.68 486.804C511.61 483.771 507.538 486.953 507.328 482.449C506.406 462.876 509.035 443.536 509.546 423.969C509.617 421.245 508.345 423.188 508.195 419.898C508.185 419.683 508.18 419.447 508.18 419.186C508.211 403.421 506.916 376.186 509.919 362.474C512.331 351.485 514.207 365.307 515.181 356.909C515.556 353.632 512.587 350.147 511.356 348.416C511.064 348.006 510.87 347.694 510.841 347.506C509.327 337.957 511.354 331.307 510.683 322.704C510.543 320.928 508.671 322.68 508.573 321.168C508.221 316.004 509.032 310.569 508.852 305.632C508.766 303.416 507.332 303.833 507.431 301.793C507.653 296.914 508.233 292.595 509.552 287.83C509.673 287.395 511.477 290.309 511.523 286.698C511.559 283.677 511.92 280.278 512.066 276.77C512.203 273.491 512.153 270.117 511.473 266.871C511.05 264.877 507.765 264.815 510.012 260.512C510.481 259.609 514.429 260.739 510.998 255.756C510.428 254.919 505.794 246.539 508.741 242.4C509.516 241.309 512.732 238.52 512.217 236.118C512.135 235.793 510.376 237.104 510.197 235.113C509.598 228.094 509.769 220.735 509.208 213.526C509.055 211.601 507.233 214.47 507.063 211.601C506.94 209.512 506.881 207.286 506.874 204.998C506.874 204.998 506.874 204.998 506.874 204.998C506.857 200.442 506.916 195.969 506.955 191.553C506.968 190.18 506.981 188.861 506.992 187.587C507.014 184.922 508.655 186.64 508.805 186.438C511.241 183.098 507.464 181.538 507.16 180.536C506.892 179.624 506.684 178.745 506.521 177.879C505.607 173.074 506.111 168.847 505.23 164.2C505.175 163.912 505.114 163.622 505.048 163.331C504.683 161.726 503.156 163.137 502.955 162.837C500.953 159.746 504.399 161.742 504.396 159.574C504.39 156.643 504.06 153.597 503.539 150.584C502.979 147.344 502.198 144.145 501.377 141.155C500.788 139.039 499.417 141.897 498.91 140.006C498.718 139.309 498.526 138.614 498.331 137.915C497.119 133.584 495.987 129.696 494.644 125.4C493.872 122.978 493.163 121.099 492.003 118.279C490.891 115.58 489.638 112.709 488.375 109.761C488.296 109.576 488.216 109.389 488.138 109.205C487.259 107.148 489.278 107.642 489.365 107.065C489.853 103.859 486.555 101.502 484.776 100.214C484.329 99.8928 483.979 99.6409 483.812 99.4673C480.776 96.3223 480.272 94.0235 478.953 91.0447C478.622 90.2917 478.228 89.4691 477.735 88.5756C476.362 86.0826 474.986 83.3748 473.681 80.366C472.105 76.7767 470.275 71.6413 469.394 66.7596C469.394 66.7596 469.394 66.7596 469.394 66.7596C472.072 75.6889 473.986 73.9481 472.536 73.673C471.549 73.0303 469.591 72.0153 467.474 71.0753C465.316 70.1096 462.902 69.1392 460.415 68.1927C457.871 67.2241 455.231 66.2732 452.572 65.3319C449.787 64.3459 447.001 63.3799 444.122 62.3508C441.442 61.3757 439.184 60.5997 435.447 58.9958C434.856 58.7349 434.193 58.4246 433.672 58.1633C430.601 56.615 427.4 54.8407 424.701 53.2676C421.802 51.5825 419.095 49.9347 416.495 48.3424C413.81 46.6966 411.245 45.1104 408.75 43.6042C406.206 42.0676 403.735 40.6126 401.318 39.2728C398.884 37.9243 396.504 36.6917 394.182 35.6258C391.745 34.5247 389.982 33.7952 387.549 33.0402C383.54 31.8446 380.173 31.1033 375.868 30.447C374.969 30.3129 374.057 30.1905 373.132 30.0796C371.697 29.9105 372.868 32.1285 371.64 32.0147C368.892 31.7517 366.102 31.5326 363.271 31.3555C359.065 31.0924 354.767 30.9218 350.377 30.8377C345.984 30.7535 341.501 30.756 336.926 30.8374C332.369 30.9182 327.721 31.0776 322.968 31.3017C321.992 31.3477 321.007 31.3965 320.021 31.4477C318.488 31.5228 320.743 33.4192 318.273 33.6034C315.361 33.8277 311.794 33.911 308.48 33.7908C308.48 33.7908 308.48 33.7908 308.48 33.7908C306.16 33.7038 303.955 33.5558 301.969 33.3293C299.693 33.0742 302.715 31.3505 300.418 31.1302C296.867 30.7898 293.02 30.7287 289.264 30.9355C287.372 31.0393 285.519 31.2077 283.671 31.4407C281.33 31.7457 285.012 33.4673 281.97 33.7132C278.11 34.0417 274.263 34.4423 270.435 34.893C264.132 35.6348 257.847 36.5171 251.523 37.4387C245.217 38.3572 238.863 39.3161 232.388 40.205C228.129 40.7894 223.806 41.3457 219.421 41.8356C217.939 42.0006 215.716 38.3784 212.789 39.8765C212.816 41.0208 213.137 42.2972 213.315 43.4845C213.213 43.5112 213.111 43.5379 213.009 43.5647C206.601 45.2479 200.226 46.9031 193.713 48.5605C189.815 49.5534 185.711 50.3502 182.301 51.0038C178.776 51.6768 175.463 52.2925 172.351 52.955C169.245 53.6145 166.339 54.3217 163.799 55.1082C161.264 55.8859 159.094 56.7721 157.684 57.5515C156.243 58.3313 155.778 58.8828 155.804 58.7483C155.745 59.2909 156.019 56.6492 155.686 59.0138C155.631 62.9245 155.587 66.8407 155.561 70.7627C155.552 72.1236 157.689 69.7716 157.683 72.4064C157.673 77.0208 157.721 81.5949 157.733 86.1625C157.757 95.1498 157.643 104.113 156.688 113.311C156.525 114.888 156.336 116.471 156.12 118.063C155.912 119.611 152.154 118.817 152.722 123.378C152.826 124.182 153.327 131.052 154.143 132.828C154.266 133.069 156.02 131.816 156.071 134.029C156.115 136.158 156.141 138.303 156.149 140.46C156.18 149.453 155.894 158.64 155.288 167.609C155.161 169.488 155.02 171.358 154.866 173.214C154.689 175.286 152.821 173.079 152.68 174.555C152.058 181.118 152.384 188.041 152.296 194.758C152.244 198.759 152.045 202.686 151.412 206.421C150.27 213.118 147.041 210.639 143.863 214.197C143.414 214.701 143.343 218.848 141.494 219.062C136.844 219.613 131.753 217.604 126.796 218.428C125.729 218.603 126.879 224.157 124.299 220.868C124.126 220.639 123.27 216.612 122.395 215.62C121.79 214.929 119.909 216.174 119.134 214.765C118.361 213.356 119.937 211.808 119.027 209.472C118.106 207.138 115.966 208.164 115.713 203.502ZM465.404 782.649C469.047 784.024 468.582 777.442 465.273 779.435C465.108 779.538 465.216 782.581 465.404 782.649ZM122.271 620.136C122.238 620.197 122.207 620.258 122.176 620.318C119.716 625.188 124.022 628.219 126.095 624.732C127.284 622.701 126.136 620.999 124.78 620.191C123.757 619.581 122.617 619.481 122.271 620.136ZM117.799 570.456C117.179 572.057 117.501 573.264 118.228 574.02C119.457 575.301 121.839 575.304 122.815 573.897C123.289 573.215 123.433 572.2 122.964 570.831C122.851 570.492 117.926 570.129 117.799 570.456ZM142.958 197.693C142.87 197.744 142.785 200.725 142.872 200.797C144.962 202.384 145.131 196.423 142.958 197.693ZM118.655 521.611C117.065 523.077 117.729 528.266 119.616 526.38C121.104 524.888 120.592 519.825 118.655 521.611ZM519.498 618.017C519.601 617.967 519.857 615.845 519.301 615.843C517.511 615.843 517.778 618.844 519.498 618.017ZM135.424 438.903C135.282 440.931 134.919 442.818 134.425 444.484C131.742 453.192 126.093 455.796 127.866 444.863C128.225 442.462 129.879 450.25 130.832 447.247C131.162 446.207 131.264 445.215 131.231 444.252C131.078 440.057 128.435 436.669 130.558 432.059C131.066 430.959 135.54 438.131 135.434 438.926C135.431 438.919 135.427 438.911 135.424 438.903ZM468.355 790.257C468.348 790.357 471.461 790.002 471.472 789.9C472.745 787.612 466.802 788.293 468.355 790.257ZM529.966 493.645C530.028 493.594 530.108 492.829 530.181 491.814C530.333 489.715 530.454 486.546 530.342 486.392C528.248 484.083 527.195 488.726 527.608 491.745C527.852 493.522 528.606 494.738 529.966 493.645ZM269.97 773.827C266.293 775.012 262.463 774.211 260.688 770.972C263.752 771.976 266.877 772.857 269.97 773.827Z" fill="black"/>
<path d="M3.13324 333.018C4.79071 332.444 6.96338 333.057 8.61459 333.898C9.13208 334.159 8.87004 335.325 9.22726 335.558C9.92593 336.012 10.5768 335.44 11.2673 335.98C11.4961 336.164 11.2112 338.012 11.4512 338.163C12.7659 338.979 14.0097 338.509 15.3416 338.902C21.9019 340.839 28.3506 341.532 34.9912 342.374C37.1808 342.65 39.8425 344.326 42.1041 343.593C42.3681 343.506 42.2107 341.885 42.2609 341.751C43.0488 339.705 42.7868 342.978 43.3012 343.413C45.3429 345.13 47.6132 345.28 49.578 344.654C49.5899 344.65 49.6014 344.646 49.6126 344.641C50.3905 344.293 49.5878 341.188 50.4175 342.97C50.4759 343.092 50.2639 344.814 50.4931 344.998C51.013 345.411 51.9993 345.103 52.4022 345.239C53.1787 345.511 53.3072 345.494 54.0416 345.513C55.0457 345.555 56.2399 346.411 57.3171 346.021C57.5471 345.933 57.2427 344.167 57.6094 343.867C57.9764 343.567 58.9474 343.717 59.2748 344.133C59.6022 344.549 59.4628 345.937 59.5207 346.255C59.9974 348.939 61.1207 345.221 61.2651 345.129C63.9 343.563 66.1596 345.681 68.633 345.675C70.5107 345.665 72.5184 344.966 74.305 345.062C76.4336 345.183 78.2376 346.14 80.3054 345.975C80.5236 345.96 80.2679 343.885 80.5345 343.862C83.3662 343.62 86.1784 343.846 88.9979 345.248C89.2807 345.39 88.9163 347.212 89.1988 347.463C90.9284 348.96 93.6652 352.558 94.6925 344.624C95.8642 344.934 97.2866 345.254 98.3347 346.853C98.913 347.734 98.5159 349.315 98.9093 349.222C98.9757 349.206 99.0645 349.143 99.1844 349.021C99.3716 348.832 99.1281 347.094 99.4089 346.942C100.591 346.306 101.883 346.871 103.052 345.973C103.29 345.786 103.225 344.228 103.293 343.948C103.859 341.676 104.802 345.431 105.008 345.704C106.573 347.739 107.716 346.938 109.174 346.988C109.513 347 109.113 344.908 109.438 344.845C111.127 344.545 112.877 344.725 114.531 345.653C114.898 345.865 114.56 347.647 114.736 347.839C115.511 348.665 115.683 345.299 116.426 346.026C116.583 346.175 116.495 347.701 116.523 347.869C116.971 350.499 117.359 346.772 117.474 346.69C118.93 345.565 119.86 349.456 121.267 348.905C121.435 348.835 121.055 346.905 121.528 346.827C124.679 346.294 128.011 346.824 131.129 348.368C131.614 348.606 131.268 350.056 131.298 350.235C131.796 353.028 132.117 349.285 132.276 349.144C133.523 348.13 134.688 351.268 135.535 346.81C139.774 348.052 143.996 346.685 148.206 348.16C149.243 348.523 150.279 349.059 151.314 349.848C151.38 349.894 151.261 351.737 151.394 351.822C152.994 352.857 152.686 349.992 153.745 346.488C154.012 345.608 154.823 349.839 154.895 350.149C155.156 351.291 154.885 354.034 154.973 354.255C155.697 355.992 155.579 346.924 156.557 346.921C156.587 346.936 156.459 348.605 156.541 348.771C156.796 349.292 157.049 348.629 157.298 349.203C157.869 350.533 158.072 354.94 158.944 352.375C159.055 352.042 158.886 346.898 159.759 347.141C160.107 347.242 161.647 347.154 162.079 347.487C162.51 347.82 162.214 349.478 162.245 349.55C163.406 351.742 162.966 352.65 163.548 355.896C164.13 359.129 163.968 351.418 164.206 350.557C164.443 349.699 165.295 351.507 165.504 352.136C165.714 352.765 165.453 353.818 165.639 354.174C166.872 356.5 166.18 350.347 166.586 349.123C167.545 346.225 168.291 351.943 169.168 352.504C169.405 352.655 169.212 351.353 169.423 351.231C170.26 350.766 170.763 352.55 171.716 350.914C171.872 350.647 172.641 347.209 173.14 349.732C173.21 350.096 173.01 351.521 173.366 351.84C173.899 352.32 174.86 352.631 175.432 352.155C175.855 351.802 175.371 349.454 175.903 350.184C176.139 350.509 175.701 351.883 176.146 352.38C176.588 352.877 177.718 352.817 178.148 352.77C178.578 352.721 178.343 350.94 178.377 350.82C178.587 350.133 179.411 349.274 179.484 349.276C183.157 349.058 186.545 352.061 190.121 351.067C190.402 350.992 190.214 349.113 190.257 349.082C191.218 348.295 190.461 353.29 191.132 354.961C191.035 351.149 191.431 351.84 192.108 351.422C192.434 351.217 192.256 349.741 192.286 349.59C192.77 347.348 193.106 350.244 193.193 350.836C193.514 353.015 193.862 350.44 194.08 351.897C194.298 353.342 193.797 355.485 194.446 355.458C194.628 354.093 194.146 350.528 194.639 349.95C195.404 349.05 196.442 348.995 197.503 349.261C199.02 349.642 200.584 350.681 201.464 350.852C202.956 351.143 203.438 350.891 204.307 351.384C205.878 352.276 205.302 349.63 206.277 348.419C207.255 347.208 206.78 353.718 206.92 355.117C207.058 356.516 207.209 355.076 207.381 355.845C207.552 356.613 207.181 357.565 207.584 357.853C207.986 358.142 209.087 355.653 209.23 354.19C209.532 351.091 209.036 347.837 210.101 348.98C210.162 349.048 209.963 350.76 210.198 350.933C212.062 352.25 213.998 352.332 215.859 353.497C216.115 353.66 215.886 355.564 216.035 355.681C217.586 356.899 217.032 353.688 217.882 350.122C217.691 354.868 218.161 357.772 219.339 357.8C220.046 357.818 219.924 355.745 220.382 354.284C220.52 353.844 221.02 355.267 221.111 354.292C221.41 351.106 220.939 347.538 222.153 348.959C222.206 349.026 222.036 350.771 222.22 350.876C223.41 351.568 223.552 348.235 224.838 347.831C225.846 347.514 227.638 349.547 228.786 349.877C228.762 355.213 229.846 353.992 230.285 350.312C231.03 350.463 231.835 350.255 232.554 350.764C232.802 350.937 232.639 352.482 232.671 352.649C233.15 355.267 233.474 351.688 233.634 351.548C235.377 350.184 236.796 352.897 238.459 350.245C238.518 350.15 238.614 346.443 239.058 349.15C239.087 349.336 238.538 351.023 239.32 351.153C240.102 351.284 241.577 353.271 242.663 351.553C242.926 351.14 243.591 348.131 244.124 350.482C244.195 350.801 244.117 351.864 244.22 352.455C244.552 354.34 244.733 350.594 245.123 353.777C245.435 356.326 246.017 358.362 246.799 357.944C246.994 357.84 247.201 357.584 247.419 357.147C247.454 357.083 247.713 354.114 248.057 354.161C248.607 354.238 249.388 354.857 249.962 354.838C250.237 354.827 250.061 352.983 250.109 352.95C251.957 351.916 253.273 353.56 255.253 354.274C255.616 354.408 256.659 351.894 257.362 353.882C258.133 356.058 257.34 365.11 259.114 362.953C259.829 362.091 260.735 350.606 262.02 356.556C264.514 355.082 266.819 358.127 269.319 356.022C269.432 355.929 269.787 352.723 270.052 352.767C270.444 352.838 270.66 354.336 270.94 354.435C272.114 354.886 273.188 353.604 274.32 353.804C274.75 353.876 274.6 355.425 275.112 355.512C275.624 355.597 275.966 353.557 276.66 354.542C277.185 355.293 277.709 359.462 278.405 359.948C278.431 355.836 278.909 355.92 279.759 354.835C279.922 354.624 279.747 353.193 279.824 353.019C280.138 352.282 280.429 353.468 280.728 352.665C280.8 352.472 280.804 351.068 280.863 350.831C281.368 348.762 282.2 351.922 282.342 352.472C282.89 354.561 283.146 352.734 283.566 353.557C283.985 354.379 283.358 355.407 283.848 355.906C284.863 356.939 286.167 356.712 287.198 356.777C287.609 356.794 287.328 354.919 287.387 354.878C288.238 354.402 289.098 356.396 289.569 352.662C290.159 362.318 290.082 351.726 291.298 353.659C291.394 353.815 291.515 358.381 291.148 359.051C290.78 359.721 290.223 358.294 289.713 359.339C289.592 359.584 288.9 363.862 288.805 364.121C288.066 366.147 287.961 359.324 287.922 358.949C287.478 354.905 286.633 359.514 286.41 359.833C285.391 361.292 284.526 360.332 283.674 361.374C283.117 362.047 283.062 366.517 282.625 366.38C281.17 365.928 280.662 359.693 279.292 365.099C278.998 366.252 279.29 371.137 278.237 367.296C278.17 367.054 277.388 363.54 276.937 365.762C276.88 366.043 276.882 367.466 276.807 367.586C276.306 368.359 275.971 367.225 275.425 367.768C274.879 368.312 274.222 369.121 273.598 368.639C273.222 368.35 272.74 365.697 272.56 365.048C272.052 363.177 271.507 366.244 271.192 363.979C270.875 361.702 271.496 358.245 270.663 356.774C270.633 360.473 270.562 364.269 270.512 367.989C268.688 367.858 266.893 366.662 265.063 366.826C264.837 366.85 265.069 368.838 264.825 368.915C263.799 369.231 262.903 367.814 261.839 368.378C261.015 368.823 260.112 370.928 259.25 371.458C258.724 367.226 257.446 368.663 256.518 368.276C256.192 368.142 256.214 367.012 255.983 366.643C255.11 365.279 255.519 369.019 255.28 369.608C254.253 372.12 254.166 363.654 252.956 363.864C252.891 363.872 252.108 368.384 252 368.665C251.314 370.498 251.886 367.095 251.457 366.761C250.673 366.152 250.129 365.074 249.209 366.396C248.941 366.788 248.298 369.6 247.778 367.425C247.709 367.14 247.747 365.648 247.692 365.561C247.245 364.908 246.993 365.49 246.799 366.472C246.561 367.683 246.412 369.503 246.098 370.379C245.527 371.966 244.646 368.73 244.467 367.798C243.998 365.386 244.827 366.767 244.852 366.53C245.15 363.713 244.508 364.198 244.017 363.96C243.946 359.365 243.259 359.641 243.508 363.732C243.536 364.179 243.918 363.75 244.017 363.96C243.586 368.469 242.832 369.046 241.998 364.833C241.608 362.858 241.977 360.556 240.792 361.398C240.255 361.779 240.462 364.943 239.988 365.805C238.904 367.774 237.495 364.822 236.377 365.287C235.972 365.456 236.367 367.188 236.089 367.363C235.354 367.833 234.705 366.533 233.966 367.199C233.899 367.262 234.063 369.075 233.833 369.098C232.091 369.308 230.574 368.147 228.755 368.115C227.877 368.1 226.306 369.1 225.395 368.899C223.818 368.561 221.877 365.925 220.529 366.565C219.65 366.975 219.843 368.789 219.466 370.024C218.739 372.419 217.453 368.129 217.279 367.465C217.274 367.443 218.031 367.015 217.627 366.085C217.392 364.145 217.288 367.457 217.279 367.465C217.166 367.036 215.654 366.624 215.354 366.971C215.191 367.16 215.283 368.878 215.198 368.945C213.177 370.482 211.153 370.919 209.104 370.116C209.068 370.081 209.122 368.159 209.037 368.101C207.851 367.247 207.091 369.598 206.112 370.994C205.134 372.389 204.358 371.922 203.779 368.622C203.041 369.038 201.982 367.579 201.372 366.694C200.763 365.809 200.678 369.55 200.624 369.624C199.398 371.36 198.551 370.672 197.503 370.05C197.121 369.823 196.713 369.606 196.25 369.517C195.425 369.352 193.789 369.894 192.895 370.304C192.189 370.633 191.764 369.756 191.114 370.317C191.026 370.392 191.115 372.058 191.088 372.122C190.362 374.115 190.711 370.043 190.561 369.315C190.017 366.671 189.682 365.262 188.752 366.506C188.538 366.791 187.913 372.654 187.522 372.997C187.014 373.432 187.206 371.331 186.674 371.84C186.628 371.881 186.638 373.178 186.309 373.121C184.785 372.872 183.123 372.118 181.539 372.248C181.322 372.261 181.6 374.317 181.287 374.369C179.82 374.613 178.212 374.537 176.783 373.575C176.431 373.331 176.652 371.891 176.575 371.464C176.107 368.877 175.442 372.636 175.332 372.707C172.715 374.513 170.712 371.112 168.045 372.731C167.9 372.826 166.783 376.856 166.284 373.4C166.25 373.17 165.757 369.635 165.32 372.052C165.293 372.203 165.601 374.023 165.064 373.838C164.528 373.653 163.665 374.868 162.927 372.868C162.694 372.238 162.142 368.711 161.446 371.523C161.4 371.719 160.326 378.076 159.942 373.69C159.88 372.968 159.945 368.327 159.114 370.706C158.955 371.168 159.243 372.203 158.825 372.849C158.184 373.846 157.335 372.603 156.547 374.67C156.409 375.036 155.824 378.187 155.355 375.795C155.282 375.421 155.421 373.872 155.174 373.698C153.995 372.866 152.762 373.903 151.565 372.831C151.141 372.454 151.358 369.949 150.916 369.278C150.475 368.607 149.585 367.961 149.122 369.106C148.66 370.251 149.165 374.243 148.473 374.563C148.384 374.604 148.295 374.641 148.206 374.676C145.285 375.814 142.39 373.598 139.472 373.266C139.026 373.215 139.396 374.643 138.739 374.67C136.316 374.777 132.133 376.116 130.03 373.08C128.346 370.649 130.466 368.798 129.178 367.809C128.557 367.337 127.885 371.978 127.735 372.124C126.27 373.609 125.252 371.553 123.934 372.183C123.662 372.314 123.929 374.196 123.697 374.286C122.906 374.612 122.074 373.773 121.317 373.926C120.978 374 121.041 375.436 120.728 375.326C119.981 375.077 119.321 374.473 118.592 373.126C118.526 373.003 118.974 371.216 118.421 371.15C117.526 371.047 116.416 369.719 115.387 371.09C115.082 371.503 115.07 374.787 114.413 372.519C114.276 372.045 114.451 368.102 113.687 371.509C113.558 372.076 112.274 376.671 111.643 373.709C111.477 372.929 111.052 369.702 110.685 370.21C110.635 370.29 110.835 372.054 110.531 372.226C109.458 372.802 108.334 372.614 107.233 373.166C106.938 373.317 107.377 375.143 106.938 375.309C105.732 375.771 104.227 375.306 103.048 374.735C102.613 374.521 102.913 373.009 102.882 372.844C102.373 370.168 102.072 373.78 101.904 373.991C100.854 375.252 100.054 373.555 99.0862 374.004C98.8191 374.124 99.0085 375.846 98.9553 376C98.9392 376.044 98.9238 376.084 98.9093 376.12C98.4273 377.321 98.8044 374.397 98.4656 374.066C97.4878 373.101 96.3978 373.239 95.409 373.459C95.0458 373.542 95.454 375.54 95.1281 375.591C93.1988 375.936 91.1933 375.744 89.3105 374.643C88.956 374.432 89.179 372.895 89.1051 372.543C88.5959 370.086 87.8496 373.438 87.6778 373.757C86.897 375.215 86.5937 373.855 85.9041 374.109C82.5355 375.373 78.3762 374.472 75.1964 373.916C71.0528 373.199 67.8375 371.736 63.8862 372.116C63.635 372.139 63.8883 374.184 63.6718 374.23C60.8768 374.723 58.1251 373.924 55.3245 374.514C55.0947 374.559 55.426 376.499 55.0571 376.636C54.3005 376.931 53.3421 376.826 52.5771 376.206C52.204 375.908 52.7044 374.244 52.3289 373.977C51.4543 373.353 50.5169 373.215 49.6186 373.526C49.6166 373.527 49.6146 373.528 49.6126 373.529C49.2425 373.684 49.8105 375.647 49.3163 375.669C45.9317 375.866 42.6077 376.208 39.1874 373.639C38.9529 373.463 38.7472 369.431 38.2486 370.204C38.2111 371.323 38.2131 372.639 38.1967 373.835C33.2696 374.479 28.3928 373.082 23.4519 372.866C23.2436 372.857 23.6036 374.993 23.2003 374.987C20.866 374.956 18.5993 375.547 16.2115 373.424C15.9746 373.217 16.0962 369.459 15.398 370.027C15.2749 370.131 14.2234 370.632 13.9515 371.448C13.9146 371.571 14.1064 373.325 13.7676 373.376C11.7986 373.642 9.73511 373.242 7.76948 372.17C7.45224 371.994 7.79008 370.126 7.56413 369.984C5.96134 368.992 4.21797 370.412 2.68643 368.716C1.66127 367.574 2.04081 364.346 1.49606 361.167C1.41901 360.719 0.784197 360.648 0.751369 358.799C0.66709 354.149 0.974571 349.057 0.848404 344.101C0.821748 343.033 -0.0284252 344.183 0.474932 341.603C0.510097 341.431 1.12648 340.574 1.27829 339.699C1.38399 339.094 1.19352 337.213 1.40918 336.439C1.62482 335.665 1.86178 337.242 2.21931 336.332C2.57667 335.41 2.41954 333.271 3.13324 333.018ZM198.628 362.738C198.064 360.942 197.981 367.522 198.591 365.948C198.621 365.864 198.657 362.827 198.628 362.738ZM266.904 361.699C266.166 358.797 265.661 363.064 266.182 365.306C266.702 367.545 267.128 362.579 266.904 361.699ZM274.554 359.58C273.691 357.292 273.556 366.623 274.479 364.736C274.533 364.63 274.604 359.713 274.554 359.58ZM4.02235 360.262C4.01456 360.175 3.55824 360.09 3.54733 360.176C3.30435 362.266 4.21681 362.435 4.02235 360.262ZM282.145 357.273C281.876 356.011 281.101 357.468 281.435 359.038C281.704 360.3 282.48 358.843 282.145 357.273ZM169.192 355.716C169.183 355.618 168.856 355.529 168.862 356.084C168.884 357.869 169.34 357.365 169.192 355.716ZM295.047 357.166C293.141 356.815 291.985 349.107 294.061 349.977C294.437 350.134 293.251 352.435 293.729 353.13C294.605 354.396 295.186 349.556 296.08 352.149C296.241 352.624 295.156 357.203 295.044 357.177C295.045 357.173 295.046 357.17 295.047 357.166ZM198.303 354.835C198.292 354.748 197.839 354.665 197.828 354.752C197.583 356.841 198.495 357.008 198.303 354.835ZM150.102 351.647C150.077 351.462 149.026 351.288 148.992 351.459C148.443 354.875 150.568 355.236 150.102 351.647ZM228.804 350.02C229.298 347.918 229.889 347.671 230.283 350.31C229.792 350.17 229.298 350.149 228.804 350.02Z" fill="black"/>
<path d="M154.781 466.986C154.838 469.066 154.858 471.253 154.846 473.502C154.798 482.624 154.209 492.849 153.437 501.975C153.208 504.686 152.964 507.301 152.715 509.763C152.311 513.773 151.219 511.696 150.886 514.461C150.239 519.844 150.615 524.888 149.886 530.185C149.883 530.207 149.88 530.228 149.877 530.25C149.626 532.013 147.863 529.74 147.641 531.59C146.574 540.616 146.543 549.226 146.033 558.231C145.97 559.341 145.9 560.456 145.82 561.577C145.232 569.83 144.71 578.043 144.276 586.235C143.782 595.587 143.403 604.807 143.172 614.137C143.078 617.948 142.989 621.758 142.904 625.568C142.818 629.378 142.737 633.188 142.658 637C142.58 640.808 142.504 644.618 142.431 648.431C142.359 652.238 142.288 656.048 142.22 659.862C142.152 663.668 142.086 667.478 142.021 671.293C141.956 675.098 141.892 678.908 141.83 682.724C141.83 682.724 141.83 682.724 141.83 682.724C141.779 685.884 141.867 688.476 142.137 690.818C142.396 693.183 142.94 695.107 143.352 695.91C143.803 696.69 143.694 696.82 145.468 697.965C145.61 698.052 145.757 698.139 145.917 698.231C147.623 699.228 150.531 700.569 153.727 702.359C157.071 704.221 160.642 706.627 163.828 709.458C166.843 712.087 170.025 715.657 172.093 718.483C172.005 718.705 174.343 720.536 177.009 721.825C179.756 723.219 182.884 724.444 186.014 725.447C187.272 725.851 188.553 726.225 189.81 726.558C191.661 727.041 191.048 725.152 191.434 725.132C195.382 724.91 195.55 725.929 196.216 727.094C196.558 727.687 197.032 728.31 198.233 728.776C200.697 729.728 203.261 730.602 205.875 731.386C209.18 732.376 212.588 733.23 215.981 733.894C219.328 734.545 222.731 735.037 225.366 735.075C227.313 735.084 229.251 735.209 230.975 735.349C232.754 735.496 234.476 735.677 236.171 735.88C237.899 736.086 239.597 736.316 241.278 736.568C242.675 736.778 244.061 737.003 245.438 737.248C245.797 737.311 246.123 737.362 246.416 737.399C251.674 738.174 247.041 734.334 252.159 736.971C252.441 737.121 252.755 737.295 253.095 737.492C253.574 737.77 251.188 738.828 253.165 739.642C254.12 740.05 255.767 740.689 257.132 741.338C257.132 741.338 257.132 741.338 257.132 741.338C258.369 741.907 258.902 742.047 260.299 742.335C261.726 742.606 263.318 742.723 264.488 742.83C264.639 742.845 264.784 742.859 264.919 742.873C266.795 743.068 268.28 743.148 269.604 743.22C271.452 743.323 272.983 743.353 275.595 743.556C276.372 743.621 277.251 743.705 278.283 743.844C279.601 744.024 281.006 744.287 282.474 744.679C284.654 745.229 287.748 746.456 289.76 747.713C292.092 749.156 294.777 750.063 298.39 750.645C299.64 750.838 300.901 750.962 302.184 751.019C303.772 751.072 301.842 749.141 304.371 749.041C305.483 748.989 307.427 749.051 309.49 749.119C312.094 749.212 314.89 749.319 316.237 749.518C318.654 749.872 317.678 751.283 318.114 751.589C318.937 752.174 320.012 752.414 321.188 752.428C325.194 752.485 330.337 749.879 331.177 749.746C331.803 749.652 332.425 749.561 333.043 749.473C337.161 748.888 341.216 748.425 345.264 748.104C349.47 747.776 353.829 747.562 358.253 747.679C362.085 747.798 365.882 747.961 369.684 748.119C373.477 748.275 377.274 748.426 381.115 748.521C383.665 748.584 386.233 748.622 388.833 748.621C390.064 748.621 391.302 748.615 392.546 748.605C396.321 748.575 400.146 748.509 403.977 748.43C407.798 748.351 411.623 748.26 415.408 748.182C419.278 748.103 423.104 748.037 426.839 748.011C428.514 747.988 430.122 747.881 432.013 747.76C433.422 747.668 434.866 747.566 436.292 747.466C439.778 747.219 443.198 746.988 446.613 746.797C450.134 746.6 453.639 746.441 457.172 746.335C460.709 746.23 464.291 746.171 467.987 746.211C471.603 746.26 475.315 746.371 479.399 746.829C479.689 746.863 479.978 746.898 480.267 746.935C482.287 747.224 480.157 744.781 482.778 745.196C485.724 745.737 490.698 746.765 494.913 750.106C495.88 750.862 496.497 751.298 497.469 751.959C498.401 752.589 499.37 753.199 500.566 753.957C498.688 759.411 511.423 742.294 500.656 776.074C495.048 777.612 495.113 776.967 493.145 777.198C491.624 777.238 490.212 777.239 488.825 777.233C487.423 777.226 486.09 777.208 484.71 777.185C482.619 777.148 480.528 777.104 478.438 777.052C476.348 777 474.257 776.939 472.167 776.871C470.077 776.802 467.986 776.724 465.896 776.637C463.806 776.55 461.715 776.454 459.625 776.348C457.535 776.241 455.444 776.125 453.353 775.999C452.615 775.954 451.877 775.908 451.139 775.86C448.95 775.718 451.771 773.896 449.584 773.645C448.777 773.554 447.941 773.457 447.082 773.354C447.082 773.354 447.082 773.354 447.082 773.354C440.54 772.562 432.425 771.492 425.07 771.523C417.543 771.553 410.877 772.723 407.066 776.483C405.761 776.439 404.413 776.393 403.029 776.344C395.676 776.083 387.588 775.706 380.979 774.632C380.254 774.515 379.55 774.389 378.867 774.254C373.65 773.225 378.711 771.24 372.289 772.087C370.848 772.276 372.726 774.014 370.558 774.166C366.773 774.428 362.845 774.486 358.943 774.527C353.361 774.585 347.627 774.607 342.318 775.135C340.485 775.322 340.996 776.88 340.484 777.16C339.451 777.711 338.115 777.908 336.884 777.885C332.838 777.815 328.46 775.61 327.188 775.404C317.913 788.538 327.824 744.126 330.389 758.503C330.389 758.503 330.389 758.503 330.389 758.503C334.427 758.667 338.564 758.827 342.574 759.122C345.398 759.329 348.269 759.606 351.27 760.022C353.96 760.404 351.061 757.889 353.668 758.191C354.052 758.237 354.435 758.285 354.818 758.334C358.753 758.836 362.657 759.466 366.493 760.155C370.316 760.842 374.072 761.587 377.751 762.325C381.475 763.073 385.118 763.813 388.682 764.501C389.843 764.725 390.999 764.944 392.143 765.156C394.798 765.642 392.159 767.164 393.422 767.485C396.001 768.119 397.733 767.714 399.402 767.214C399.402 767.214 399.402 767.214 399.402 767.214C401.493 766.652 403.958 766.081 407.539 767.212C408.893 767.655 407.779 768.977 407.994 769.195C408.917 770.17 409.865 770.653 410.803 770.858C413.138 771.369 415.504 770.156 416.191 770.328C418.395 770.87 420.331 771.576 422.081 772.349C425.585 773.901 428.36 775.72 431.122 777.348C433.836 778.945 436.572 780.401 439.738 781.052C440.479 781.203 441.236 781.306 442.015 781.349C443.065 781.383 440.979 779.256 443.817 779.422C445.263 779.465 446.667 779.393 448.071 779.199C450.791 778.786 452.691 778.247 455.674 776.952C461.43 774.301 465.316 771.535 469.353 767.271C473.194 763.143 476.252 758.067 478.694 752.474C480.842 747.569 482.532 742.303 483.995 736.949C484.924 733.457 485.853 736.255 486.072 736.072C486.54 735.648 486.884 735.219 487.13 734.795C488.698 732.062 486.224 729.648 486.264 728.616C486.501 723.695 487.695 719.028 488.312 714.664C488.88 710.627 488.952 706.879 487.249 703.43C487.783 700.298 488.323 697.146 488.908 693.971C490.155 687.188 491.696 679.887 493.81 673.158C498.483 658.228 502.304 643.272 506.038 628.152C509.621 613.641 513.086 599.119 517.046 584.622C517.177 584.123 518.841 585.338 519.095 584.342C519.212 583.885 519.319 583.449 519.418 583.031C521.87 572.46 518.813 573.87 516.643 565.651C516.076 563.507 521.13 557.936 521.509 557.419C522.913 555.575 525.348 558.018 525.658 557.379C528.126 552.048 519.026 551.768 519.953 544.331C519.997 544.1 521.533 545.283 521.775 544.678C522.532 542.796 522.105 540.786 522.899 538.946C523.343 537.923 523.947 537.087 524.582 536.306C526.557 533.872 528.844 531.957 527.444 526.681C527.197 525.801 521.962 526.559 522.867 519.912C523.247 517.265 524.219 505.469 524.799 502.185C525.396 498.907 526.866 501.307 526.957 501.078C529.836 492.322 530.476 495.772 534.041 491.516C534.561 490.89 534.837 490.37 534.927 489.934C535.45 487.392 529.692 487.684 529.064 486.077C528.335 484.194 530.546 477.754 531.263 476.172C531.984 474.595 532.919 476.669 533.357 475.254C536.205 465.85 529.765 470.868 528.709 467.674C526.189 460.169 532.146 454.687 532.951 447.921C533.168 446.093 531.813 447.542 531.748 445.908C531.704 444.719 531.73 443.62 531.795 442.572C532.08 437.912 533.128 434.239 531.924 428.208C531.687 426.993 528.365 421.005 530.938 417.205C531.309 416.665 532.714 418.232 533.07 415.483C533.606 411.374 533.975 403.958 533.505 399.524C533.159 396.255 530.806 399.998 531.539 395.887C531.568 395.726 531.605 395.605 531.649 395.517C531.649 395.517 531.649 395.517 531.649 395.517C531.838 395.133 532.156 395.358 532.494 395.517C532.494 395.517 532.494 395.517 532.494 395.517C532.734 395.629 532.985 395.709 533.207 395.517C533.207 395.517 533.207 395.517 533.207 395.517C533.42 395.333 533.607 394.901 533.737 394.01C534.232 390.587 534.208 381.829 534.184 378.499C534.156 375.173 532.363 376.982 532.245 376.713C531.567 375.082 530.753 368.694 530.76 368.131C530.759 365.611 530.783 363.105 530.827 360.619C531.036 348.761 531.682 337.264 532.112 325.825C532.545 314.273 532.761 302.772 532.065 291.092C531.964 289.41 531.845 287.725 531.704 286.038C531.526 283.883 529.718 285.412 529.672 285.084C528.506 277.755 533.801 283.312 535.183 278.039C531.417 279.008 531.947 275.915 531.168 270.747C530.786 268.257 529.411 269.728 529.244 269.51C526.74 265.981 529.407 263.19 529.941 262.468C531.594 260.244 529.864 258.158 530.042 256.484C530.075 256.168 530.176 255.866 530.38 255.58C531.652 253.764 534.171 257.416 533.641 252.416C532.14 251.163 528.975 255.21 528.009 251.509C526.049 244.023 524.902 232.933 523.616 222.515C522.536 213.53 521.359 205.042 520.249 199.885C519.191 194.938 518.287 191.496 517.521 188.621C516.547 184.947 515.926 182.045 515.459 178.229C515.075 174.991 514.753 172.936 514.375 171.535C513.346 167.568 511.792 168.775 510.248 163.189C508.265 155.578 515.139 158.75 516.419 157.519C517.653 156.391 516.33 155.406 516.765 154.118C516.788 154.051 516.815 153.983 516.848 153.915C517.514 152.542 518.679 155.307 518.734 152.206C518.771 149.123 515.827 140.786 514.323 139.74C511.949 138.122 509.653 139.892 508.923 137.549C508.667 136.725 508.605 135.393 508.807 133.233C508.854 132.755 510.632 134.219 510.725 132.395C510.91 128.449 511.007 124.478 511.029 120.495C511.059 114.873 510.939 109.238 510.692 103.636C510.47 98.6464 510.15 93.7088 509.731 88.807C509.558 86.8365 511.733 88.2424 511.649 87.087C511.634 86.8758 511.617 86.6699 511.599 86.4696C511.599 86.4696 511.599 86.4696 511.599 86.4696C510.991 77.8472 509.515 78.4678 506.766 76.4644C505.967 75.8672 505.077 75.049 504.097 73.7013C508.215 74.3995 510.722 71.7337 510.368 65.1779C510.29 64.0057 510.103 62.6999 509.767 61.2833C508.518 56.4404 506.891 56.9162 504.854 55.4609C504.507 55.2255 504.139 54.9453 503.739 54.6014C503.01 53.8777 502.022 49.8727 500.713 50.0166C497.717 50.5305 496.842 53.4297 494.666 52.0082C494.059 51.6623 493.349 51.0534 492.163 50.1485C491.888 49.9433 493.616 48.8317 492.598 48.2362C490.89 47.2813 489.317 46.9375 487.918 46.85C484.509 46.706 482.653 47.8511 478.28 48.4686C478.28 48.4686 478.28 48.4686 478.28 48.4686C477.114 48.6402 475.804 48.7668 474.288 48.8222C468.474 49.0408 459.303 47.8751 451.357 46.9947C448.571 46.6885 445.928 46.4213 443.621 46.273C443.948 40.948 435.538 41.929 432.006 45.4878C429.569 45.3439 427.048 45.2574 424.53 45.1506C421.09 45.0047 417.655 44.821 414.449 44.4037C412.538 44.1564 413.858 42.6613 413.622 42.4851C410.019 39.7249 407.374 43.2016 406.124 43.2924C403.229 43.4693 400.456 43.4631 397.758 43.3658C388.568 43.0345 380.248 41.6436 370.975 42.8241C370.25 42.9165 369.52 43.0246 368.783 43.1502C368.322 43.2302 367.46 46.9073 364.121 44.0889C363.904 43.8953 368.202 42.3487 362.165 42.021C357.889 41.7906 350.957 40.5611 344.275 40.437C341.524 40.3851 338.816 40.5195 336.362 40.9807C334.317 41.3592 329.173 44.2966 325.084 41.9195C324.537 41.5965 325.143 40.5374 324.354 39.9407C321.837 38.0727 320.441 41.6564 317.53 38.753C317.53 38.753 317.53 38.753 317.53 38.753C317.479 38.7031 317.428 38.6512 317.377 38.5974C314.322 35.4123 308.202 32.9985 299.71 34.8403C299.44 34.8927 297.31 37.7779 294.641 37.5935C294.624 37.5923 294.607 37.5911 294.59 37.5899C290.34 37.2955 284.379 36.2951 279.967 35.9792C277.846 35.8293 279.063 37.7703 278.692 37.7761C276.207 37.7655 273.856 37.6738 271.582 37.5199C263.702 36.9843 256.808 35.7158 248.838 34.386C245.799 33.8787 242.603 33.3618 239.134 32.8754C236.857 32.5529 230.936 33.6705 225.99 32.7864C224.879 32.5873 223.813 32.2861 222.85 31.843C217.058 29.2255 223.923 20.6022 209.899 21.8219C207.996 21.9955 205.856 23.3671 203.504 24.8757C198.841 27.8535 193.489 31.3563 186.945 27.2984C184.72 27.4311 182.541 27.5226 180.356 27.5874C180.356 27.5874 180.356 27.5874 180.356 27.5874C177.089 27.686 173.863 27.7738 170.609 28.0221C167.339 28.2802 164.066 28.6788 160.797 29.6216C157.556 30.5536 154.298 32.1344 151.727 34.6602C149.162 37.1378 147.446 40.3884 146.465 43.6569C145.488 46.8937 145.108 50.2138 145.075 53.5512C145.071 54.1681 145.08 54.7796 145.1 55.4137C145.115 56.3395 148.171 59.196 148.106 61.1885C148.075 61.9551 147.956 62.6515 147.794 63.3003C147.794 63.3003 147.794 63.3003 147.794 63.3003C147.331 65.1357 146.456 66.4611 146.313 68.0622C146.095 70.37 145.919 72.6231 145.752 74.8489C145.458 78.7484 145.188 82.5717 144.732 86.3895C144.423 88.9758 144.027 91.5547 143.479 94.1424C142.993 96.4354 142.201 96.4039 141.487 97.5361C141.186 98.0129 140.898 98.6964 140.653 99.8466C139.99 102.971 140.838 105.507 140.236 109.033C140.09 109.891 139.86 110.809 139.507 111.815C138.579 114.447 136.132 116.884 134.361 119.98C133.523 121.444 132.841 123.052 132.568 124.852C135.807 125.236 136.224 127.667 136.867 131.887C137.042 133 137.243 134.267 137.524 135.657C137.784 136.896 139.161 135.508 139.358 136.088C140.194 138.434 139.159 140.747 140.131 142.98C140.171 143.075 140.247 143.151 140.346 143.214C140.818 143.516 141.815 143.522 142.039 143.878C144.076 147.056 142.436 152.479 141.651 154.647C141.528 154.988 141.426 155.244 141.364 155.401C139.635 159.802 141.607 161.641 140.998 164.959C140.433 167.945 139.298 164.3 138.887 166.419C138.844 166.638 138.808 166.92 138.781 167.278C138.53 170.556 138.455 174.188 138.327 177.868C138.196 181.687 137.997 185.573 137.508 189.101C137.336 190.346 137.133 191.529 136.89 192.658C136.206 195.631 138.485 194.043 138.432 194.473C138.086 196.585 137.333 198.599 136.426 200.425C134.617 204.043 133.697 207.808 135.423 210.511C135.516 210.659 135.618 210.803 135.728 210.945C127.07 213.633 133.371 214.848 134.113 220.381C134.254 221.381 134.236 222.544 133.96 223.939C133.813 224.662 129.249 225.711 128.562 222.79C128.391 222.043 128.361 221.197 128.404 220.274C128.529 217.566 129.29 214.327 128.957 211.084C128.93 210.81 128.67 210.164 128.324 209.322C127.312 207.021 125.924 202.934 126.007 202.105C126.124 199.058 127.34 197.594 128.66 196.973C130.594 196.397 133.183 197.042 133.461 196.974C136.983 195.984 136.363 191.438 135.425 188.817C135.091 187.802 134.764 186.966 134.721 186.522C134.427 183.479 134.339 180.612 134.268 177.842C134.166 174.013 134.092 170.348 133.348 166.741C133.315 166.584 133.281 166.426 133.246 166.269C132.306 162.092 127.806 162.024 127.683 158.712C127.642 157.703 127.651 156.744 127.699 155.832C127.937 151.151 129.174 147.617 129.595 144.028C130.01 140.608 129.612 137.175 127.184 132.049C127.157 131.992 127.127 131.939 127.095 131.887C125.873 129.731 121.059 131.853 125.336 122.94C125.469 122.686 126.416 121.146 127.242 119.24C128.177 117.063 128.966 114.419 128.084 112.302C127.874 111.802 126.464 111.607 126.438 110.979C126.383 109.391 126.582 108.05 126.861 106.762C127.32 104.642 127.994 102.662 128.157 99.9627C128.251 98.4026 128.335 96.7398 128.463 95.0456C128.693 92.0302 129.06 88.9251 129.873 86.0719C130.061 85.4115 130.394 84.7312 130.801 84.0625C132.054 82.0108 133.991 80.0366 134.611 79.1188C135.771 77.4421 135.728 75.5352 135.651 73.832C135.573 72.0576 135.46 70.4991 136.682 69.4333C139.071 67.2611 142.324 72.0801 144.05 65.8742C140.358 65.5683 136.573 65.0046 132.858 64.6274C132.869 64.1928 132.878 63.75 132.885 63.3004C132.885 63.3002 132.885 63.3003 132.885 63.3003C132.928 60.0002 133.139 56.1053 133.627 52.4165C134.136 48.6141 134.892 44.6481 136.421 40.3669C137.927 36.147 140.462 31.3475 144.456 27.4729C148.406 23.5707 153.289 21.149 157.58 19.7652C158.591 19.4339 159.587 19.1475 160.56 18.8958C162.841 18.3383 160.046 16.9244 162.515 16.3185C164.968 15.7554 167.269 15.4855 169.422 15.3537C173.246 15.1239 177.02 15.3126 180.356 15.4605C180.356 15.4605 180.356 15.4605 180.356 15.4605C182.975 15.5783 185.664 15.6377 188.55 15.5034C193.536 15.2667 198.817 14.1952 204.077 13.6257C205.848 13.4335 207.603 13.2971 209.338 13.2671C212.686 17.0739 220.535 17.102 227.254 17.6849C228.412 17.7837 229.536 17.8971 230.598 18.0463C233.122 18.4007 232.85 19.5125 234.616 20.0406C241.264 22.0147 238.433 18.0031 240.344 17.5874C245.324 16.5182 247.223 19.2409 250.047 21.69C251.869 23.2708 254.076 24.7405 257.731 25.0018C258.229 25.0424 264.653 21.1056 265.495 20.8964C270.892 19.5386 266.223 22.54 269.471 23.161C270.617 23.3792 271.694 23.6072 272.735 23.8274C277.079 24.7431 280.842 25.5423 286.544 24.8575C288.242 24.6491 291.947 22.9213 295.31 23.6167C296.04 23.7675 296.755 24.0322 297.433 24.4513C297.936 24.7601 297.581 26.2367 297.994 26.3432C305.497 28.1198 305.85 23.4092 310.079 21.9225C312.271 21.1447 315.082 21.6455 317.53 22.4181C317.53 22.4181 317.53 22.4181 317.53 22.4181C319.867 23.1398 321.818 24.1346 322.492 24.5877C326.149 27.0181 319.682 25.6045 319.487 25.8456C317.164 28.6601 322.156 28.176 325.994 28.4471C326.52 33.043 331.861 32.8245 329.969 28.7129C329.752 28.2626 326.761 28.6617 325.994 28.4471C329.389 23.9632 335.354 23.4525 341.759 27.7968C343.477 28.9642 343.25 30.1999 344.484 30.9199C345.403 31.4567 347.124 31.7055 351.062 31.4477C355.247 31.1794 353.722 27.9724 357.439 27.2164C361.727 26.3484 366.62 26.7686 371.523 27.3847C376.333 27.9886 381.154 28.7801 385.451 28.7175C388.6 28.6719 385.607 26.8211 387.761 26.7306C391.485 26.571 394.891 27.1526 398.397 27.4569C400.276 27.62 402.183 27.7036 404.184 27.5512C404.703 27.5094 403.512 25.6473 405.288 25.6952C412.217 25.8633 418.657 26.3698 425.184 26.8809C431.339 27.3624 437.572 27.8498 444.349 28.0485C446.423 28.109 449.003 28.0831 451.78 28.0219C458.034 27.8879 465.291 27.5563 470.08 27.7292C472.696 27.8231 475.451 28.0174 478.28 28.2509C478.28 28.2509 478.28 28.2509 478.28 28.2509C481.947 28.5181 487.108 29.2009 491.573 30.5738C496.365 31.9898 501.398 34.3284 505.622 37.8292C509.289 40.8211 512.036 44.4787 513.953 47.6477C514.695 48.8675 515.246 49.8425 515.728 50.6687C518.443 55.6751 519.37 54.2433 521.342 57.1857C522.377 58.8039 523.001 60.8168 523.296 62.827C523.977 67.4953 523.002 72.066 522.374 74.4649C522.162 75.258 521.982 75.8269 521.89 76.0866C521.884 76.102 521.727 75.3714 521.505 74.5762C521.114 73.1659 520.514 71.5549 520.182 73.6202C519.785 74.1021 519.667 74.493 519.72 74.8049C519.891 75.8189 521.878 76.0386 521.89 76.0866C521.717 76.7199 521.964 80.8198 522.548 84.4789C522.548 84.4789 522.548 84.4789 522.548 84.4789C522.979 87.1354 523.377 89.6766 523.654 90.6458C524.035 91.975 525.627 90.9705 525.792 91.6758C526.604 95.2154 527.253 98.6107 527.797 102.058C528.727 107.953 529.321 113.785 529.699 119.551C530.073 125.285 530.232 130.95 530.269 136.553C530.276 137.678 530.279 138.801 530.277 139.92C530.256 140.196 528.316 139.879 528.291 140.527C528.073 145.521 528.824 149.429 529.893 153.088C530.765 156.06 531.844 158.869 532.822 161.932C533.581 164.306 534.134 166.483 534.433 168.505C534.992 172.28 534.676 175.591 533.116 178.482C533.602 180.035 533.985 181.898 534.364 183.942C535.242 188.467 535.62 193.458 535.804 196.814C536.068 201.797 539.841 201.655 540.014 202.067C542.608 208.391 543.662 213.596 544.312 218.908C544.961 224.28 545.193 229.75 545.947 236.681C546.427 241.072 547.491 248.308 548.369 254.728C548.807 257.895 549.211 260.86 549.534 263.187C550.307 268.757 549.657 272.181 550.521 277.288C550.636 277.98 552.258 277.181 552.335 277.389C554.645 283.036 550.422 280.487 549.761 281.709C548.082 284.776 546.946 287.001 546.915 290.493C546.9 292.037 547.101 293.829 547.558 296.054C547.902 297.716 553.908 302.459 554.319 305.54C554.841 309.535 552.71 308.068 553.295 312.24C553.342 312.597 554.639 312.501 554.62 315.084C554.598 318.546 554.52 322.093 554.42 325.683C554.175 334.52 553.797 343.613 553.84 352.368C553.843 354.049 555.912 351.906 555.95 354.336C555.982 356.458 556.002 358.618 556.006 360.796C556.025 370.319 555.748 380.193 554.94 389.113C554.689 391.819 553.254 390.12 552.825 390.707C551.76 392.188 551.765 393.926 552.148 395.517C552.148 395.517 552.148 395.517 552.148 395.517C552.697 397.821 554.015 399.832 554.056 400.336C555.377 415.929 553.505 428.816 552.907 443.244C552.718 447.764 552.648 452.448 552.822 457.444C552.877 458.576 556.5 467.551 552.831 471.289C552.587 471.549 548.851 475.213 551.061 478.768C551.198 478.991 553.16 476.685 552.723 480.884C552.442 483.556 552.654 487.304 552.213 491.135C551.962 493.323 551.499 495.535 550.616 497.583C549.849 499.374 546.007 503.4 548.343 509.083C548.517 509.438 554.098 518.464 549.429 521.065C548.659 521.485 544.105 520.524 545.814 527.256C546.144 528.545 547.409 526.394 547.711 529.737C547.958 532.466 547.513 535.599 547.237 538.889C546.995 541.777 546.882 544.795 547.486 547.798C547.72 548.91 550.269 553.916 547.406 557.286C546.958 557.812 545.568 556.515 545.137 558.431C543.076 567.526 542.655 577.321 540.042 586.475C540.04 586.483 540.038 586.49 540.036 586.498C539.108 589.74 536.925 587.635 535.674 590.949C534.427 594.267 532.541 601.031 532.974 604.824C533.407 608.623 538.091 605.458 537.35 610.91C536.258 618.809 534.646 626.594 532.712 634.301C528.86 649.657 523.623 665.039 518.778 680.06C518.689 680.336 518.622 680.573 518.574 680.779C518.156 682.77 519.745 681.475 518.751 685.29C517.896 688.714 517.071 693.194 516.341 698.361C515.495 704.276 514.774 710.99 513.883 717.873C512.954 725.045 511.801 732.408 510.113 739.063C508.962 743.628 507.56 747.842 505.991 751.31C499.194 765.255 503.162 746.402 498.697 757.086C498.312 757.949 498.047 758.868 497.863 759.813C497.011 764.422 497.713 770.099 497.182 771.294C495.037 776.422 492.071 780.736 488.705 784.374C483.266 790.292 476.048 795.003 468.843 798.993C466.571 800.237 469.654 800.852 467.696 801.87C467.437 802.002 467.179 802.13 466.919 802.256C463.335 804.111 456.364 806.058 451.263 806.374C447.267 806.728 443.302 806.59 439.717 806.268C436.839 805.989 436.351 806.641 434.918 806.775C434.38 806.819 433.711 806.778 432.774 806.54C428.401 805.421 424.873 803.965 421.802 802.404C419.17 801.057 416.875 799.611 414.74 798.074C414.319 797.771 418.146 797.394 414.29 795.76C413.861 795.58 413.437 795.395 413.012 795.208C410.268 793.993 407.593 792.675 405.017 791.819C402.291 790.966 400.905 790.701 398.083 790.972C398.082 790.972 398.083 790.972 398.082 790.972C397.652 791.004 397.219 791.041 396.783 791.082C394.255 791.311 393.661 794.612 388.284 791.76C387.407 791.279 388.426 788.839 385.541 789.135C384.783 789.21 383.76 789.47 382.354 789.987C381.664 790.246 377.149 791.473 372.806 791.441C370.069 791.427 367.42 790.937 365.759 789.478C365.014 788.826 363.616 786.988 361.952 785.806C361.078 785.185 360.127 784.746 359.158 784.756C358.777 784.772 359.949 786.763 357.674 786.547C355.348 786.32 353.041 786.049 350.756 785.787C347.228 785.382 343.756 785.002 340.353 784.83C338.415 784.731 336.399 784.698 334.621 784.772C332.745 784.858 335.484 786.77 332.684 786.856C331.966 786.882 331.203 786.906 330.39 786.933C330.39 786.933 330.389 786.933 330.389 786.933C314.395 822.528 331.96 710.158 336.884 746.063C338.744 746.159 340.658 746.264 342.353 746.373C345.79 746.587 343.411 748.099 343.659 748.264C347.534 750.94 349.976 747.328 351.219 747.117C354.029 746.691 356.455 746.602 358.943 746.655C363.677 746.758 368.085 747.401 373.046 747.104C375.112 746.984 373.646 745.262 374.058 745.108C378.341 743.608 375.164 746.701 377.857 747.042C378.879 747.173 379.921 747.283 380.979 747.376C387.702 747.968 394.908 747.839 401.523 747.649C404.014 747.575 401.841 746.014 403.029 745.61C403.188 745.556 403.407 745.523 403.706 745.516C410.777 745.354 417.877 745.311 425.07 745.426C432.521 745.546 439.981 745.837 447.082 746.345C447.082 746.345 447.082 746.345 447.082 746.345C447.629 746.383 448.175 746.423 448.72 746.464C451.464 746.675 449.737 748.213 450.309 748.565C451.248 749.15 452.291 749.406 453.353 749.451C455.636 749.549 458.007 748.677 459.625 748.02C460.414 747.7 461.024 747.43 461.356 747.351C463.132 746.922 464.589 746.737 465.896 746.683C468.141 746.59 469.945 746.883 472.167 746.992C473.054 747.036 474.008 747.05 475.084 746.999C476.191 746.945 477.31 746.895 478.438 746.849C480.498 746.765 482.59 746.694 484.709 746.633C486.059 746.595 487.352 746.559 488.606 746.52C489.818 746.482 491.077 746.44 492.072 746.384C492.21 746.606 496.161 745.477 489.655 747.185C473.328 805.208 489.592 772.228 483.965 780.087C482.969 779.464 481.527 778.566 480.077 777.583C478.729 776.68 476.786 775.257 475.579 774.273C479.244 776.727 478.05 775.386 475.916 775.309C473.82 775.011 471.004 774.851 468.111 774.808C465.138 774.761 461.999 774.821 458.866 774.935C455.595 775.054 452.302 775.233 449.054 775.432C446.446 775.592 443.857 775.767 441.29 775.938C440.453 775.994 439.624 776.049 438.771 776.103C435.163 776.312 431.485 776.589 426.839 776.533C422.949 776.421 419.148 776.303 415.408 776.184C411.542 776.061 407.741 775.936 403.977 775.817C400.14 775.695 396.34 775.579 392.546 775.474C388.741 775.368 384.941 775.275 381.115 775.199C377.34 775.124 373.54 775.067 369.684 775.034C365.936 775.002 362.135 774.992 358.253 775.01C356.42 775.025 354.889 775.103 353 775.224C351.223 775.343 353.141 777.285 351.592 777.419C350.241 777.533 348.84 777.656 347.406 777.782C343.485 778.128 339.394 778.488 335.222 778.799C331.046 779.109 326.77 779.376 322.393 779.546C318.008 779.716 313.53 779.796 308.843 779.687C304.175 779.568 299.316 779.292 293.982 778.496C289.241 777.734 283.859 776.713 277.413 773.69C275.247 772.602 276.914 775.135 274.843 774.564C274.732 774.588 274.616 774.59 274.59 774.607C274.808 774.847 275.384 775.069 275.035 774.988C274.821 774.959 274.184 774.831 273.119 774.705C272.056 774.574 270.585 774.445 268.863 774.288C267.654 774.176 266.321 774.047 264.931 773.872C261.384 773.411 266.204 772.005 262.722 771.538C262.695 771.534 262.667 771.53 262.639 771.526C260.352 771.217 257.743 770.838 254.848 770.174C252.313 769.632 248.077 768.289 245.676 767.115C245.676 767.115 245.676 767.115 245.676 767.115C245.142 766.861 244.676 766.69 243.517 766.362C242.476 766.074 241.272 765.811 240.033 765.597C239.881 765.571 239.727 765.545 239.573 765.52C237.198 765.155 240.318 767.834 237.281 767.232C236.796 767.141 236.306 767.054 235.814 766.97C234.533 766.752 233.237 766.559 231.959 766.395C230.682 766.231 229.415 766.095 228.244 766.002C226.98 765.903 226.202 765.868 225.366 765.869C219.634 765.823 215.303 765.17 211.199 764.553C207.048 763.894 203.088 763.101 199.165 762.193C195.24 761.281 191.36 760.25 187.475 759.068C183.601 757.888 179.737 756.565 175.803 755.002C171.887 753.437 167.936 751.677 163.724 749.336C160.868 747.712 158.164 746.102 154.52 743.124C152.707 741.622 151.547 738.528 150.607 735.672C150.563 734.625 150.283 733.671 149.361 733.111C148.392 733.712 147.424 734.604 146.485 735.352C145.733 734.617 145.065 734.015 144.151 733.285C142.698 732.141 141.272 731.235 139.206 730.168C137.13 729.052 134.333 727.984 129.715 725.401C125.205 723.026 118.636 717.395 115.527 711.182C112.252 705.023 111.285 699.736 110.647 695.228C110.045 690.626 109.959 686.17 110.009 682.724C110.009 682.724 110.009 682.724 110.009 682.724C110.067 678.914 110.13 675.104 110.194 671.293C110.258 667.484 110.324 663.674 110.389 659.862C110.453 656.054 110.515 652.244 110.573 648.431C110.63 644.624 110.683 640.814 110.728 637C110.772 633.193 110.808 629.383 110.834 625.568C110.837 624.983 110.841 624.398 110.844 623.812C110.853 622.2 108.717 624.986 108.723 621.865C108.727 619.28 108.719 616.705 108.708 614.137C108.666 604.617 108.712 595.009 109.281 585.478C109.64 579.438 110.209 573.364 111.101 567.216C111.366 565.375 115.09 566.44 114.697 560.992C114.668 560.604 114.613 559.036 114.51 557.162C114.358 554.402 114.104 550.982 113.663 549.708C113.551 549.417 111.744 550.843 111.788 548.212C111.906 541.81 112.158 535.293 112.526 528.777C113.038 519.728 113.774 510.676 114.693 501.901C114.928 499.678 116.431 501.702 116.844 500.754C116.884 500.663 116.913 500.545 116.931 500.394C117.955 491.4 117.672 481.805 118.166 472.734C118.349 469.387 118.639 466.113 119.142 462.956C120.387 455.114 123.575 458.062 126.793 453.897C127.249 453.306 127.346 448.422 129.193 448.171C133.845 447.529 138.928 449.935 143.888 448.973C144.961 448.768 143.815 442.121 146.393 446.058C146.568 446.332 147.408 451.164 148.273 452.358C148.872 453.19 150.763 451.708 151.526 453.406C152.287 455.109 150.695 456.952 151.572 459.766C152.456 462.582 154.618 461.376 154.781 466.986ZM536.365 219.036C536.265 219.514 536.241 219.937 536.279 220.308C536.574 223.326 540.936 222.934 539.956 219.667C539.871 219.388 539.747 219.088 539.577 218.767C539.453 218.549 536.412 218.794 536.365 219.036ZM146.033 33.6785C147.07 33.0018 147.982 32.373 148.793 31.7605C153.357 28.558 155.109 24.33 149.582 25.3174C147.684 25.836 146.213 27.0495 145.341 28.3484C143.158 31.6564 144.585 34.7232 146.033 33.6785ZM137.467 94.84C140.945 88.7232 131.938 86.0779 132.509 93.3146C132.537 93.7377 137.264 95.197 137.467 94.84ZM127.409 473.381C127.428 473.369 127.451 473.195 127.473 472.929C127.556 471.964 127.636 469.786 127.569 469.719C126.121 468.37 125.544 471.468 126.097 472.9C126.329 473.5 126.759 473.81 127.409 473.381ZM136.45 154.283C137.528 152.102 135.565 146.249 134.221 148.959C133.142 151.156 135.108 156.997 136.45 154.283ZM536.168 447.852C536.068 447.918 535.887 450.446 536.442 450.416C538.234 450.312 537.857 446.763 536.168 447.852ZM129.342 252.312C129.511 251.672 129.679 251.041 129.845 250.422C130.854 246.634 131.858 243.2 132.948 240.716C134.915 236.073 137.409 234.84 137.848 240.839C137.919 242.122 137.876 243.74 137.61 245.727C137.269 248.734 135.555 239.011 134.639 242.844C133.923 245.896 134.292 248.534 134.453 251.291C134.654 254.635 134.486 258.395 131.343 261.546C130.651 262.348 129.486 252.884 129.337 252.285C129.338 252.294 129.34 252.303 129.342 252.312ZM529.015 222.895C528.948 222.996 529.441 226.466 529.536 226.536C531.911 228.085 530.916 221.054 529.015 222.895ZM517.207 594.125C517.001 594.285 515.344 602.212 515.451 602.503C518.029 607.323 521.411 591.217 517.207 594.125ZM443.485 46.127C439.594 48.1245 434.989 48.2298 432.024 45.491C435.825 45.7563 439.658 45.8937 443.485 46.127Z" fill="black"/>
<path d="M217.827 189.5C221.182 189.377 225.46 190.966 228.39 192.916C228.541 193.014 228.688 193.112 228.831 193.21C229.757 193.85 228.813 194.733 229.403 195.222C230.536 196.178 231.98 196.218 232.969 197.333C233.288 197.706 231.943 199.089 232.283 199.437C234.102 201.313 236.286 202.137 238.005 203.875C238.466 204.344 238.915 204.816 239.352 205.288C242.601 208.807 245.175 212.321 247.404 215.729C249.619 219.129 251.495 222.444 253.188 225.705C253.699 226.69 254.189 227.665 254.666 228.641C255.67 230.688 256.046 233.452 257.135 235.521C257.434 236.088 257.789 236.608 258.226 237.046C258.465 237.282 259.769 236.299 259.915 236.285C262.168 236.089 259.179 237.459 259.118 238.22C258.926 240.774 259.743 242.813 261.099 244.422C261.361 244.74 261.638 245.045 261.926 245.338C262.728 246.154 264.914 243.528 263.945 245.442C263.88 245.572 262.255 246.205 262.254 246.565C262.252 247.376 263.187 248.399 263.335 248.949C263.609 250.006 263.701 250.141 264.145 251.011C264.551 251.832 264.659 252.936 264.999 253.893C265.154 254.329 265.358 254.736 265.662 255.075C265.874 255.306 267.28 254.165 267.763 254.467C268.249 254.771 268.671 255.989 268.478 256.555C268.286 257.121 266.954 257.55 266.699 257.755C264.535 259.451 268.508 259.183 268.672 259.322C269.665 260.174 270.216 261.162 270.563 262.203C271.209 264.145 271.142 266.262 271.931 268.111C272.399 269.204 273.04 270.26 273.658 271.302C274.259 272.316 274.837 273.315 275.211 274.322C275.94 276.3 276.058 278.233 276.697 280.063C276.844 280.482 277.018 280.895 277.232 281.3C277.351 281.53 279.123 280.408 279.272 280.685C280.441 282.86 281.385 285.057 281.895 287.453C282.074 288.295 282.201 289.162 282.268 290.065C282.293 290.416 280.488 290.903 280.419 291.308C280.034 293.556 278.752 297.699 284.444 295.86C284.912 295.719 285.425 295.538 285.988 295.314C286.525 296.779 287.285 298.767 286.537 300.764C286.052 302.043 283.892 302.205 285.147 302.77C285.427 302.901 286.82 301.812 287.127 302.073C287.652 302.522 288.006 303.088 288.338 303.665C288.822 304.505 289.257 305.367 290.126 305.964C290.427 306.167 291.802 305.43 292.094 305.393C294.478 305.126 291.581 307.828 291.436 308.173C290.868 309.667 291.012 310.631 291.373 311.497C291.661 312.189 292.087 312.815 292.384 313.578C292.539 313.977 294.271 312.698 294.489 313.054C295.437 314.646 296.058 316.407 296.162 318.276C296.179 318.589 296.182 318.907 296.17 319.227C296.146 319.724 294.34 320.019 294.244 320.292C293.842 321.484 297.034 320.394 296.706 321.503C296.641 321.735 295.191 322.222 295.05 322.318C292.831 323.832 296.452 322.833 296.581 322.927C297.86 323.807 296.429 325.437 296.118 326.771C296.012 327.224 296.034 327.641 296.334 327.973C296.478 328.127 298.063 326.937 298.36 327.416C299.435 329.13 300.265 330.967 300.868 332.884C301.377 334.51 301.741 336.226 301.912 337.921C301.981 338.507 300.543 338.923 300.406 339.042C298.308 340.984 301.704 339.362 301.913 339.434C302.316 339.607 302.5 339.912 302.619 340.251C302.994 341.298 302.747 342.626 305.981 341.471C306.213 342.127 306.488 342.768 306.797 343.41C307.539 344.96 308.465 346.478 309.39 348.161C310.306 349.838 311.252 351.708 311.844 353.981C312.435 356.232 312.632 359.066 311.693 361.761C311.195 363.208 310.375 364.542 309.341 365.551C309.252 365.642 307.639 364.727 307.475 364.893C305.989 366.238 307.037 366.964 308.411 368.86C308.889 369.515 309.389 370.312 309.768 371.306C310.096 372.334 305.92 370.652 305.665 370.45C304.558 369.952 302.892 367.729 302.641 367.672C300.828 367.028 307.094 373.611 305.861 374.685C305.818 374.703 304.896 373.296 304.697 373.247C304.222 373.121 304.2 373.533 303.918 373.623C303.918 373.623 303.918 373.623 303.918 373.623C303.851 373.637 303.763 373.622 303.635 373.558C302.378 372.879 299.256 369.74 300.287 372.316C300.449 372.628 304.077 376.262 303.52 376.505C303.295 376.578 302.503 377.674 302.02 377.801C301.521 377.924 300.327 376.745 300.255 376.722C299.752 376.653 299.326 376.575 298.943 376.476C297.447 376.111 296.647 375.32 294.164 374.409C291.015 373.345 297.693 377.214 298.3 377.871C298.911 378.513 296.888 378.413 296.215 378.344C295.546 378.259 294.764 377.49 294.345 377.517C291.579 377.791 297.45 379.842 298.338 380.793C299.866 382.348 297.554 381.88 295.717 381.83C294.973 381.802 294.315 381.831 294.048 382.045C293.8 382.246 295.089 382.54 295.106 382.814C295.169 383.878 293.285 383.791 294.418 385.429C294.599 385.704 297.524 387.712 294.954 387.413C294.583 387.371 293.32 386.667 292.876 386.965C292.633 387.129 292.387 387.368 292.186 387.644C291.837 388.122 291.62 388.718 291.765 389.233C291.934 389.835 294.348 390.023 293.451 390.404C293.05 390.575 291.918 389.631 291.273 389.989C290.63 390.344 290.249 391.685 290.126 392.204C290.004 392.723 291.786 393.011 291.886 393.09C292.457 393.553 292.943 394.803 292.911 394.891C292.882 394.993 292.851 395.094 292.819 395.195C292.07 397.523 290.487 399.535 288.992 401.549C287.727 403.248 286.526 404.969 285.804 407.093C285.677 407.458 287.413 408.212 287.41 408.277C287.397 409.746 284.046 406.659 282.111 406.208C282.009 406.183 281.911 406.165 281.817 406.156C285.107 408.085 284.262 408.128 284.192 409.04C284.162 409.481 285.53 410.073 285.64 410.183C287.256 411.838 284.586 410.662 284.022 410.451C281.956 409.659 283.955 411.335 282.569 410.819C281.188 410.316 279.654 408.696 279.272 409.402C280.338 410.281 283.708 411.581 283.91 412.382C284.076 413.034 284 413.646 283.766 414.223C283.015 416.074 280.612 417.62 279.451 418.761C279.304 418.906 279.178 419.043 279.077 419.173C277.938 420.647 277.869 421.295 276.914 422.001C275.368 423.141 277.331 423.792 278.086 425.111C278.174 425.266 278.246 425.431 278.293 425.608C278.729 427.291 273.377 423.534 272.074 422.994C270.776 422.446 271.934 423.322 271.162 423.121C270.392 422.918 269.792 422.054 269.298 422.331C268.81 422.604 270.279 425.012 271.439 425.921C273.904 427.836 277.024 428.965 275.332 429.553C275.234 429.585 273.904 428.478 273.6 428.643C273.26 428.836 272.94 429.042 272.635 429.258C270.824 430.533 269.496 432.167 267.514 433.208C267.228 433.355 266.095 432.288 265.716 432.123C265.672 432.103 265.639 432.096 265.618 432.104C263.52 432.899 266.509 434.252 268.662 437.309C265.054 434.212 262.407 432.91 261.539 433.929C260.999 434.554 262.67 435.785 263.413 437.167C263.584 437.488 262.751 437.289 262.654 437.506C262.626 437.571 262.664 437.674 262.818 437.842C264.993 440.202 268.019 442.142 266.075 442.242C265.985 442.244 264.772 440.976 264.558 441.068C263.405 441.572 264.858 443.177 265.123 444.48C265.18 444.771 265.181 445.045 265.08 445.298C264.79 446.027 263.43 446.451 262.248 446.957C261.666 447.204 261.128 447.467 260.793 447.77C256.388 444.753 256.641 446.582 259.479 448.983C259.361 449.112 259.255 449.251 259.153 449.394C258.742 449.973 258.413 450.619 257.726 450.988C257.433 451.148 256.19 450.212 256.028 450.159C253.466 449.357 256.388 451.468 256.426 451.69C256.44 451.855 256.44 452.009 256.427 452.153C256.306 453.591 254.888 454.191 254.73 455.455C254.675 455.92 254.8 456.469 255.264 457.129C255.328 457.23 258.754 458.638 256.077 458.079C255.887 458.056 254.498 456.938 254.102 457.653C253.952 457.927 253.501 458.23 253.084 458.649C252.395 459.437 251.713 460.339 252.348 461.574C252.617 462.022 255.011 464.094 252.565 463.794C252.235 463.749 251.308 463.218 250.714 463.096C248.827 462.691 252.125 464.485 249.032 463.577C248.387 463.386 247.769 463.219 247.204 463.102C245.054 462.664 243.706 462.838 244.76 464.562C244.799 464.626 247.275 466.297 247.026 466.659C246.636 467.22 245.627 467.764 245.293 468.387C245.134 468.687 246.842 469.414 246.842 469.482C246.831 469.597 246.815 469.708 246.795 469.816C246.37 472.068 244.222 472.664 242.404 474.269C242.39 474.281 242.379 474.296 242.37 474.315C242.164 474.759 243.381 477.015 241.323 476.674C238.98 476.276 231.948 470.504 232.588 473.435C232.704 473.974 234.645 475.815 236.14 477.457C237.899 479.389 239.031 481.06 235.9 479.927C235.67 481.373 234.76 482.295 233.796 483.161C232.526 484.304 231.177 485.333 231.062 487.421C231.059 487.577 233.284 489.932 233.051 490.154C233.031 490.172 233.007 490.188 232.981 490.2C232.981 490.2 232.981 490.2 232.981 490.2C232.554 490.395 231.352 489.767 231.084 489.969C229.851 490.869 230.216 492.67 229.378 493.727C229.341 493.774 229.292 493.804 229.233 493.82C228.782 493.949 227.753 493.281 227.413 493.741C227.026 494.277 228.646 495.578 227.389 495.889C226.437 496.118 222.383 494.929 221.559 495.551C223.429 496.436 224.274 497.005 224.725 497.528C225.171 498.044 225.23 498.521 225.508 499.216C225.618 499.486 227.011 499.878 227.131 500.035C227.645 500.69 226.417 500.53 226.998 501.195C227.137 501.357 228.416 501.937 228.601 502.101C230.23 503.525 226.911 503.187 226.339 503.11C225.037 502.958 225.052 503.266 225.067 503.575C225.078 503.783 225.09 503.99 224.697 504.036C223.729 504.141 223.147 502.996 222.435 503.311C220.971 503.949 220.453 505.374 219.753 506.347C219.483 506.738 221.232 507.482 221.231 507.56C221.228 507.582 221.224 507.604 221.219 507.625C220.95 508.732 218.904 508.387 221.411 511.116C213.441 505.606 221.764 512.208 219.175 512.18C218.965 512.174 215.591 509.099 215.354 508.371C215.102 507.661 216.566 508.156 216.089 507.081C216.003 506.801 212.988 503.701 212.799 503.514C211.475 501.894 217.155 505.66 217.498 505.825C218.592 506.395 219.06 506.469 219.168 506.297C219.426 505.886 217.714 504.257 217.6 504.013C216.873 502.375 218.133 502.027 217.62 500.712C217.454 500.291 216.381 499.586 215.381 498.945C214.369 498.296 213.433 497.713 213.594 497.53C214.667 496.296 220.609 498.259 216.396 494.455C215.712 493.821 212.838 492.691 213.387 492.335C213.554 492.227 214.036 492.187 214.988 492.255C215.25 492.266 218.878 492.804 217.164 491.254C216.949 491.057 215.67 490.432 215.612 490.279C215.252 489.263 216.496 489.318 216.414 488.315C216.374 487.754 216.297 487.107 216.405 486.511C216.492 486.027 216.698 485.588 217.131 485.292C217.714 484.885 220.382 485.638 221.087 485.75C223.093 486.098 221.141 483.55 223.266 484.488C225.358 485.49 227.616 488.242 229.44 488.265C226.545 485.962 223.615 483.545 220.738 481.185C220.873 481.027 221.01 480.877 221.149 480.734C221.149 480.734 221.149 480.734 221.149 480.734C222.459 479.487 224.303 478.662 225.367 477.034C225.39 476.998 225.414 476.961 225.437 476.924C225.57 476.699 223.804 475.747 223.904 475.478C224.328 474.351 226.082 474.329 226.318 473C226.429 472.356 226.022 471.325 225.723 470.373C225.54 469.796 225.4 469.243 225.437 468.829C229.284 470.693 228.907 468.663 229.799 467.991C230.112 467.751 231.049 468.384 231.503 468.359C233.144 468.249 229.978 466.729 229.47 466.143C229.455 466.125 229.442 466.108 229.431 466.092C227.913 463.789 235.147 468.192 235.708 466.873C235.746 466.797 232.34 463.707 232.154 463.468C230.966 461.881 233.569 464.163 234.1 463.92C234.594 463.696 235.163 463.582 235.511 463.323C235.841 463.08 235.982 462.684 235.657 461.943C235.464 461.487 233.324 459.544 235.495 460.096C235.781 460.166 237.077 460.905 237.182 460.893C238.974 460.62 234.83 458.422 233.654 457.231C233.24 456.803 233.377 456.622 233.768 456.574C234.481 456.486 236.057 456.807 236.649 456.962C239.024 457.569 237.443 457.702 237.643 457.829C240.06 459.305 239.905 458.506 240.323 458.153C244.548 459.967 244.597 459.159 240.733 457.787C240.314 457.632 240.557 458.145 240.323 458.153C236.385 455.915 236.075 455.176 240.201 456.173C242.156 456.566 244.24 457.628 243.787 456.309C243.727 456.135 243.431 455.955 243.021 455.774C242.02 455.237 240.286 454.769 239.865 454.04C238.903 452.101 240.814 450.86 241.868 449.798C242.21 449.441 242.474 449.075 242.548 448.654C242.661 448.021 240.836 447.826 240.865 447.36C240.948 446.113 242.532 445.823 242.498 444.571C242.497 444.56 242.497 444.55 242.497 444.539C242.49 444.42 240.779 443.771 240.927 443.451C241.611 441.937 242.709 440.861 243.785 439.759C244.452 439.078 245.112 438.385 245.679 437.563C245.96 437.156 246.201 436.538 246.452 435.881C246.841 434.857 247.263 433.732 247.843 433.163C248.225 432.785 248.733 432.458 249.29 432.164C250.822 431.375 252.891 430.686 253.752 429.717C253.871 429.582 253.959 429.433 254.01 429.267C254.301 428.291 252.777 427.28 252.056 426.214C250.583 424.241 254.659 425.985 255.328 426.198C255.351 426.206 255.222 427.075 256.21 427.317C257.899 428.302 255.331 426.208 255.328 426.198C255.595 426.309 256.222 425.93 256.597 425.513C256.798 425.29 256.927 425.06 256.891 424.902C256.834 424.654 255.376 423.74 255.372 423.631C255.315 421.873 255.632 420.413 256.439 419.177C256.803 418.619 257.265 418.109 257.835 417.64C257.885 417.624 259.506 418.658 259.603 418.607C261.015 417.902 259.413 415.967 258.744 414.317C258.722 414.262 258.701 414.209 258.683 414.156C258.135 412.627 259.025 412.138 262.141 413.095C262.202 412.127 264.099 411.699 265.237 411.463C265.503 411.408 265.53 411.263 265.415 411.071C265.038 410.441 263.138 409.314 263.113 409.242C262.045 406.27 264.523 406.203 265.935 404.388C265.991 404.317 266.046 404.238 266.101 404.151C266.714 403.173 267.259 401.27 267.56 400.05C267.797 399.021 268.848 398.988 268.831 397.961C268.829 397.822 267.357 397.035 267.322 396.97C267.295 396.928 267.271 396.889 267.25 396.851C266.109 395.483 269.284 397.78 269.956 398.043C272.441 399.034 273.838 399.434 273.072 398.213C272.914 397.899 267.859 394.902 267.669 394.503C267.438 393.973 269.281 394.993 269 394.385C268.977 394.333 267.792 393.809 267.952 393.59C268.097 393.384 268.263 393.172 268.439 392.953C269.154 392.066 270.051 391.007 270.404 389.694C270.469 389.473 268.432 389.065 268.492 388.737C268.59 388.206 268.731 387.653 268.935 387.097C269.325 386.038 269.944 384.962 270.915 384.042C271.286 383.698 272.564 384.416 273 384.46C275.64 384.721 272.35 382.712 272.33 382.547C272.229 381.917 272.261 381.338 272.384 380.797C272.989 378.179 275.584 376.54 276.072 373.163C276.105 372.95 276.13 372.728 276.147 372.499C276.131 372.287 273.337 368.75 276.853 369.482C277.094 369.514 280.608 370.407 278.852 368.584C278.747 368.463 276.869 368.096 277.519 367.306C278.153 366.541 278.005 364.414 280.509 364.282C280.643 364.275 280.859 364.302 281.116 364.338C282.37 364.488 284.49 364.97 283.346 362.645C283.167 362.53 279.784 356.601 283.776 358.755C284.434 359.118 287.683 362.389 287.321 359.356C287.268 358.76 286.045 358.509 286.327 357.329C286.674 355.941 288.021 355.473 288.491 354.339C288.491 354.339 288.491 354.339 288.491 354.339C288.491 354.094 288.395 353.773 288.138 353.328C287.996 352.97 285.983 350.515 287.398 352.459C287.635 352.75 288.747 353.831 288.803 354.015C288.876 354.607 288.761 354.545 288.487 354.911C288.304 355.163 288.114 355.604 288.319 356.269C288.489 356.811 290.867 357.624 291.388 358.134C291.892 358.659 292.405 359.22 291.327 359.392C291.306 359.396 291.285 359.4 291.263 359.403C290.093 359.661 286.143 358.796 285.779 359.671C285.229 361.13 285.51 362.139 285.787 362.3C286.145 362.533 286.492 361.773 286.389 360.78C286.348 360.356 286.232 359.883 286.024 359.411C285.853 359.03 284.814 360.069 284.469 359.557C284.217 359.187 283.875 358.765 283.482 358.281C282.637 357.247 281.449 355.77 280.694 354.203C279.934 352.665 279.401 350.735 279.79 349.021C280.675 345.605 283.823 347.473 283.782 345.349C283.781 344.364 279.231 345.68 278.995 345.542C278.433 345.246 278.079 344.885 277.846 344.492C277.122 343.268 277.567 341.756 276.548 340.703C276.269 340.414 274.722 341.548 274.502 341.29C273.735 340.414 274.026 339.017 273.47 338.138C273.217 337.746 271.936 338.402 271.867 337.967C271.83 337.753 271.809 337.537 271.808 337.318C271.803 336.484 272.074 335.591 272.761 334.479C272.84 334.352 274.713 334.191 274.494 333.502C274.134 332.388 274.816 330.571 273.056 329.901C272.529 329.705 269.486 330.941 271.272 329.321C271.623 329.003 274.946 327.832 272.41 328.048C272.251 328.061 272.07 328.08 271.863 328.105C271.278 328.171 266.432 328.469 268.883 326.647C269.528 326.165 272.314 324.459 271.677 324.249C271.58 324.226 270.042 325.121 269.745 324.854C268.762 323.938 268.417 322.722 267.496 321.807C267.462 321.773 267.426 321.739 267.39 321.706C267.12 321.462 265.64 322.638 265.293 322.256C264.335 321.206 264.1 319.548 264.091 318.189C264.09 317.686 265.592 317.324 265.727 317.225C267.912 315.586 264.513 316.853 264.25 316.793C263.697 316.645 263.473 316.38 263.381 316.065C263.208 315.466 263.511 314.674 262.958 314.254C262.73 314.076 261.293 315.043 261.132 315.068C259.56 315.305 262.477 314.205 262.619 313.744C263.014 312.437 262.47 311.746 261.773 310.998C261.517 310.73 260.015 312.111 259.805 311.861C259.652 311.685 259.5 311.498 259.35 311.302C257.993 309.463 256.749 306.752 256.505 304.226C256.451 303.677 257.96 303.238 258.22 302.98C260.056 301.2 256.608 301.83 256.209 301.751C255.361 301.602 255.138 301.297 255.072 300.942C254.998 300.543 255.121 300.08 254.775 299.682C252.785 297.416 251.46 294.424 250.515 291.575C249.928 289.81 249.48 288.094 249.072 286.59C248.637 284.991 248.33 283.496 248.044 282.067C247.416 278.928 246.885 276.09 245.389 273.336C245.384 273.327 245.38 273.318 245.375 273.31C245.238 273.055 243.485 274.149 243.343 273.941C241.803 271.547 241.196 268.878 239.769 266.664C239.585 266.379 239.389 266.104 239.176 265.838C239.026 265.647 237.461 266.842 237.165 266.57C236.55 266.025 236.177 265.106 236.371 264.18C236.462 263.727 238.146 263.333 238.204 262.889C238.343 261.855 238.01 260.996 237.252 260.333C236.927 260.056 235.545 261.609 235.255 261.17C235.122 260.975 234.986 260.777 234.847 260.577C232.842 257.627 230.9 254.506 230.549 251.018C230.482 250.404 230.457 249.769 230.48 249.11C230.493 248.783 233.845 246.529 232.879 246.415C231.893 246.946 230.761 247.617 229.722 248.209C228.391 246.442 227.357 244.633 226.434 242.876C225.124 240.379 224.019 237.965 222.683 236.023C222.514 235.778 222.339 235.537 222.162 235.308C222.057 235.172 220.627 236.784 220.422 236.538C219.247 235.145 217.893 234.6 218.03 232.281C218.033 232.207 218.037 232.132 218.043 232.055C218.059 231.806 220.413 228.871 219.672 229.029C219.538 229.054 218.667 229.056 218.09 229.658C218.007 229.751 217.129 231.273 216.95 231.218C216.03 230.911 215.488 230.303 214.975 229.214C214.916 229.091 214.858 228.962 214.8 228.827C214.704 228.609 215.467 226.895 215.391 226.72C214.736 225.461 213.434 226.622 212.657 224.826C212.058 223.612 212.638 220.428 212.384 217.218C212.344 216.763 211.712 216.654 211.753 214.807C211.845 210.156 212.517 205.091 212.59 200.132C212.603 199.059 211.132 200.16 212.07 197.61C212.134 197.437 213.243 196.632 213.578 195.781C213.811 195.19 213.581 193.289 214.041 192.544C214.52 191.803 214.816 193.407 215.602 192.571C216.397 191.732 216.319 189.558 217.827 189.5ZM270.353 410.369C272.267 410.622 266.569 407.329 267.569 408.773C267.624 408.847 270.258 410.359 270.353 410.369ZM228.298 481.686C231.156 482.708 228.065 479.704 225.904 478.859C223.747 478.012 227.44 481.363 228.298 481.686ZM224.21 491.128C224.32 491.132 224.411 491.127 224.484 491.114C226.076 490.888 219.096 486.479 219.749 488.417C219.758 488.44 219.767 488.465 219.778 488.49C219.828 488.618 224.06 491.124 224.21 491.128ZM215.002 216.629C215.011 216.54 214.562 216.38 214.537 216.465C213.995 218.494 214.809 218.797 215.002 216.629ZM222.083 500.873C223.366 501.106 222.431 499.64 220.833 499.363C219.55 499.137 220.492 500.574 222.083 500.873ZM291.078 380.822C291.173 380.85 291.414 380.509 290.902 380.297C289.25 379.617 289.484 380.358 291.078 380.822ZM213.485 512.544C215.222 511.691 221.798 516.082 218.88 517.459C218.382 517.666 218.197 514.837 217.236 514.73C215.617 514.429 217.839 518.809 215.316 517.384C214.925 517.082 213.425 512.554 213.482 512.533C213.483 512.536 213.484 512.54 213.485 512.544ZM277.461 413.849C277.544 413.879 277.887 413.432 277.818 413.378C276.142 412.094 275.445 413.002 277.461 413.849ZM308.324 362.956C308.479 362.965 308.84 361.949 308.86 361.432C308.87 361.282 308.859 361.179 308.821 361.162C307.697 360.755 306.879 360.908 306.427 361.149C305.565 361.604 305.922 362.763 308.324 362.956ZM260.663 447.708C262.088 449.356 261.953 450.016 259.483 448.982C259.906 448.578 260.237 448.111 260.663 447.708Z" fill="black"/>
</svg>
