<svg width="964" height="830" viewBox="0 0 964 830" fill="none" xmlns="http://www.w3.org/2000/svg">
<path d="M393.479 458.92C396.221 456.888 399.364 455.037 401.612 453.904C404.911 452.199 409.009 450.318 412.794 448.809C416.557 447.304 420.487 445.93 424.65 444.743C428.709 443.589 432.981 442.611 437.551 441.943C442.051 441.291 446.85 440.93 452.016 441.164C457.153 441.406 462.705 442.248 468.409 444.255C473.618 445.898 481.094 450.358 484.692 453.943C488.278 457.148 492.248 462.092 494.554 465.749C497.171 469.79 499.196 473.764 500.89 477.645C502.638 481.665 504.022 485.591 505.163 489.412C506.033 492.327 506.759 495.183 507.37 497.98C507.642 499.224 507.838 500.274 507.982 501.164C509.049 508.657 507.427 504.841 508.279 512.102C508.314 512.464 508.35 512.837 508.383 513.204C508.741 517.077 508.995 521.608 508.971 525.438C508.96 529.121 508.866 533.45 508.532 537.573C508.194 541.756 507.615 546.157 506.479 550.786C505.721 553.877 504.693 557.078 503.376 560.184C500.9 565.649 502.085 558.335 499.575 563.524C499.537 563.599 499.497 563.677 499.457 563.757C497.357 567.915 494.939 571.633 492.527 574.943C490.048 578.338 487.556 581.367 485.163 584.208C482.738 587.081 480.385 589.783 478.074 592.457C478.074 592.457 478.074 592.457 478.074 592.457C474.699 596.478 469.352 601.103 464.822 603.999C460.075 607.115 455.126 609.54 450.144 611.469C445.228 613.369 440.273 614.791 435.317 615.876C433.786 616.211 432.25 616.514 430.716 616.787C427.363 617.383 424.039 617.845 420.742 618.206C415.936 618.733 411.193 619.044 406.503 619.214C401.862 619.383 397.075 619.41 392.614 619.349C392.614 619.349 392.614 619.349 392.614 619.349C387.226 619.278 381.466 619.1 375.861 618.712C370.182 618.322 364.429 617.719 358.604 616.75C352.787 615.783 346.889 614.441 341.064 612.587C335.235 610.736 329.471 608.36 323.988 605.459C318.492 602.559 313.295 599.147 308.476 595.35C303.792 591.682 298.971 587.146 295.19 583.053C291.512 579.129 287.811 574.261 284.943 569.872C281.964 565.34 279.348 560.707 276.99 555.984C274.639 551.267 272.55 546.46 270.696 541.572C268.844 536.686 267.226 531.713 265.857 526.647C264.488 521.575 263.366 516.414 262.561 511.109C261.771 505.966 261.247 500.021 261.298 494.71C261.298 494.71 261.298 494.71 261.298 494.71C261.326 490.968 261.247 487.359 261.131 483.475C261.015 479.633 260.864 475.714 260.746 471.721C260.627 467.73 260.539 463.667 260.553 459.529C260.567 455.394 260.681 451.183 260.985 446.891C261.291 442.603 261.785 438.236 262.597 433.796C263.362 429.523 264.644 424.501 266.147 420.383C266.147 420.383 266.147 420.383 266.147 420.383C267.546 416.492 268.947 412.432 270.468 408.278C271.974 404.158 273.572 399.984 275.314 395.809C277.054 391.643 278.94 387.461 281.063 383.295C283.189 379.131 285.545 374.974 288.334 370.869C291.132 366.774 294.35 362.696 298.466 358.9C302.227 355.309 308.536 351.155 314.198 349.588C314.198 349.588 314.198 349.588 314.198 349.588C318.957 348.158 323.61 346.689 328.288 345.164C332.201 343.889 336.215 342.559 340.3 341.192C348.781 338.355 357.597 335.343 366.682 332.32C375.445 329.405 384.459 326.485 393.633 323.768C402.758 321.065 412.049 318.569 421.378 316.469C430.931 314.313 440.514 312.582 449.949 311.352C454.475 310.761 458.943 310.284 463.4 309.912C468.799 309.492 465.498 308.073 466.522 307.877C474.563 306.469 477.152 306.84 479.109 307.42C479.109 307.42 479.109 307.42 479.109 307.42C481.174 308.066 482.37 308.934 487.973 309.556C494.7 310.356 501.027 311.662 507.392 313.452C516.401 315.994 525.154 319.491 533.496 323.713C541.777 327.903 549.652 332.801 557.037 338.191C564.533 343.662 571.527 349.641 577.958 355.933C584.515 362.348 590.486 369.087 595.831 375.984C595.948 376.134 596.062 376.281 596.173 376.424C605.757 389.486 599 373.853 606.94 389.396C607.465 390.499 603.703 387.609 606.009 391.784C607.291 394.141 608.829 396.98 610.357 399.995C614.425 407.929 619.114 417.892 621.575 423.925C621.913 424.741 622.215 425.488 622.476 426.152C626.743 437.204 628.064 441.25 630.581 448.781C631.325 451.064 632.156 453.674 633.123 456.922C634.749 462.395 636.249 468.23 637.586 474.269C639.453 482.685 640.998 491.499 642.23 500.285C643.206 507.221 643.99 514.141 644.65 520.847C645.077 525.386 646.404 519.258 647.2 526.426C647.203 526.453 647.206 526.479 647.208 526.506C647.828 531.955 648.156 544.632 647.648 553.047C647.648 553.047 647.648 553.047 647.648 553.047C647.506 555.895 647.223 558.419 646.951 560.148C645.716 567.235 644.652 563.996 644.189 565.202C642.797 568.465 641.718 573.102 640.514 578.023C638.262 587.739 635.132 598.308 634.285 600.121C633.96 600.845 633.63 601.564 633.293 602.28C629.628 610.057 625.321 617.247 620.625 623.931C615.759 630.848 610.473 637.227 604.908 643.163C599.204 649.244 593.208 654.858 586.959 660.099C580.709 665.343 573.937 670.401 567.243 674.842C567.243 674.842 567.243 674.842 567.243 674.842C558.284 680.809 548.293 686.324 538.321 690.95C533.946 692.987 529.492 694.906 524.966 696.723C519.356 698.977 513.623 701.062 507.815 702.983C497.544 706.383 487.04 709.267 476.54 711.742C465.958 714.238 455.38 716.325 445.019 718.142C435.343 719.838 425.853 721.301 416.698 722.627C415.645 722.779 414.597 722.929 413.554 723.078C402.73 724.623 392.441 726.009 382.34 727.497C371.316 729.134 359.807 729.804 348.806 729.591C337.735 729.385 326.69 728.352 315.499 726.505C309.861 725.573 304.186 724.43 298.456 723.061C294.196 722.013 298.689 725.296 293.459 723.972C289.736 723.003 286.04 721.938 282.375 720.778C271.643 717.382 261.176 713.175 251.095 708.178C240.998 703.173 231.288 697.373 222.116 690.796C213.035 684.302 204.065 676.642 196.384 668.748C183.918 656.033 172.69 640.84 163.896 625.349C163.198 624.126 162.51 622.896 161.834 621.66C159.149 616.68 164.327 622.093 161.778 617.083C155.824 605.328 149.87 590.426 144.873 575.43C138.567 556.779 133.682 538.032 128.627 525.184C127.131 521.406 125.605 518.132 124 515.53C121.762 502.335 119.935 487.428 119.097 473.209C118.473 462.85 118.346 452.851 118.709 444.192C119.364 430.945 121.615 443.734 120.516 427.561C120.308 423.917 118.586 428.682 118.422 423.186C118.397 422.296 118.377 421.404 118.36 420.51C118.025 403.509 119.093 385.199 120.398 368C120.799 362.59 121.469 356.835 122.328 351.447C123.125 346.641 121.366 347.588 121.392 346.165C121.403 345.864 121.421 345.559 121.443 345.251C121.91 338.4 125.378 329.847 129.055 323.514C131.831 318.641 134.589 314.991 135.531 313.471C137.508 310.272 139.515 307.255 141.53 304.384C146.052 297.946 150.605 292.219 155.12 286.838C159.904 281.145 164.659 275.836 169.527 270.554C174.268 265.416 179.131 260.304 184.246 255.014C185.723 253.488 187.233 251.943 188.786 250.378C193.446 245.705 186.444 249.772 190.903 245.214C196.144 239.892 201.493 234.665 207.005 229.518C215.333 221.743 223.99 214.198 232.927 207.061C241.963 199.844 251.286 193.044 260.793 186.841C263.326 185.188 265.867 183.58 268.423 182.014C274.65 178.249 269.991 183.366 273.012 181.658C281.794 176.755 285.399 173.248 290.649 169.498C293.367 167.577 296.537 165.615 301.146 163.58C303.999 162.326 303.104 164.477 303.686 164.374C312.709 162.843 318.231 156.49 320.354 155.525C320.895 155.277 321.433 155.033 321.969 154.795C333.81 149.539 344.754 146.659 355.122 144.682C355.122 144.682 355.122 144.682 355.122 144.682C365.991 142.627 376.918 141.106 389.453 138.863C390.609 138.657 391.78 138.446 392.968 138.227C396.208 137.638 388.556 136.895 397.705 135.375C406.234 134.002 414.862 132.87 423.547 131.951C434.994 130.74 446.54 129.901 458.109 129.345C469.608 128.793 481.13 128.519 492.616 128.427C504.128 128.334 515.603 128.423 526.996 128.593C538.513 128.764 549.932 129.018 561.242 129.258C568.739 129.416 576.258 129.65 583.69 130.059C583.774 130.064 583.858 130.068 583.942 130.073C593.412 130.646 586.582 131.851 587.179 132.049C596.612 135.165 603.044 132.078 606.233 132.15C606.268 132.15 606.301 132.152 606.335 132.153C614.073 132.541 621.649 133.659 628.829 135.169C636.737 136.825 644.165 138.957 651.037 140.933C657.734 142.855 663.917 144.617 669.796 145.604C670.993 146.162 672.191 146.735 673.389 147.324C680.282 150.705 687.206 154.657 693.553 158.741C693.553 158.741 693.553 158.741 693.553 158.741C703.137 164.89 712.661 171.825 721.491 179.133C730.384 186.486 738.825 194.381 746.727 202.788C754.636 211.202 762.004 220.129 768.727 229.523C775.458 238.925 781.542 248.796 786.87 259.067C792.203 269.346 796.775 280.026 800.481 290.997C804.174 301.901 807.072 313.43 808.924 324.674C812.335 345.264 814.226 366.462 814.367 387.347C814.401 392.142 814.346 396.938 814.198 401.724C814.161 403.022 812.302 400.715 812.234 403.296C810.759 434.342 813.539 428.385 815.323 449.445C815.342 449.753 815.34 450.096 815.319 450.468C815.059 456.56 809.303 470.097 808.75 471.31C806.798 476.153 804.949 470.497 804.454 472.142C800.278 485.578 809.815 485.063 805.37 503.882C805.21 504.461 804.202 501.606 803.65 503.131C802.576 506.085 801.917 509.122 801.099 512.097C800.609 513.88 800.06 515.645 799.336 517.341C794.762 527.699 789.57 529.993 785.81 546.647C785.232 548.743 791.56 547.696 784.279 563.379C783.499 565.002 782.041 568.087 780.144 571.853C774.942 582.554 765.438 598.202 761.622 603.24C756.558 610.118 758.484 604.327 758.082 604.799C743.958 621.083 746.799 615.167 739.342 620.183C738.869 620.484 738.353 620.824 737.787 621.209C728.137 627.598 735.897 630.276 733.432 634.34C731.042 638.473 717.849 648.998 714.309 651.13C710.868 653.367 713.948 649.202 711.03 651.326C691.376 664.863 705.381 661.05 699.96 666.997C699.553 667.423 699.142 667.838 698.729 668.243C687.766 679.048 675.503 683.693 663.684 690.841C661.846 691.953 660.014 693.128 658.203 694.393C654.444 697.017 658.219 695.821 655.02 698.361C645.977 705.507 638.837 709.73 630.386 715.875C626.965 718.357 623.327 721.149 619.222 724.553C616.928 726.491 606.443 737.769 596.861 740.822C596.847 740.827 596.833 740.831 596.819 740.835C595.562 741.176 597.968 738.009 592.013 741.391C583.709 746.135 569.236 754.321 559.441 759.835C558.65 760.286 557.891 760.722 557.17 761.14C550.037 765.223 559.507 763.022 549.921 767.061C545.649 768.808 552.684 763.815 544.717 767.169C539.728 769.26 529.978 773.655 521.37 777.085C516.321 779.119 511.682 780.861 508.782 781.918C500.935 784.727 505.809 784.895 505.22 785.235C501.614 787.345 486.304 792.813 484.933 793.058C484.15 793.271 483.367 793.48 482.585 793.685C482.585 793.685 482.585 793.685 482.585 793.685C474.293 795.857 466.055 797.955 457.85 799.954C449.519 801.984 441.223 803.91 432.932 805.705C424.55 807.521 416.177 809.201 407.802 810.717C399.365 812.245 390.922 813.606 382.466 814.777C373.978 815.952 365.482 816.936 356.96 817.716C348.461 818.494 339.88 819.074 331.342 819.445C331.342 819.445 331.342 819.445 331.342 819.445C323.464 819.788 315.629 820.405 307.701 821.177C299.849 821.943 291.965 822.858 284.014 823.807C283.292 823.893 282.569 823.979 281.847 824.066C276.461 824.705 280.248 826.198 279.429 826.315C260.987 828.949 275.087 822.56 262.036 822.09C262.932 823.574 262.184 824.452 260.088 825.065C257.051 825.948 251.2 826.296 243.434 826.922C237.102 827.403 240.609 828.723 240.039 828.902C238.709 829.272 237.43 829.529 236.208 829.695C228.798 830.702 223.697 828.385 222.267 827.853C218.851 826.59 215.262 826.681 211.99 826.692C209.31 826.703 206.848 826.661 204.996 825.824C200.944 823.938 210.754 822.883 198.356 821.487C194.625 822.356 203.569 827.184 193.809 826.402C191.793 826.215 189.708 825.968 187.557 825.653C187.557 825.653 187.557 825.653 187.557 825.653C175.258 823.985 159.828 818.429 146.488 809.87C133.964 802.008 122.7 791.779 113.444 781.553C102.225 769.184 93.7966 756.93 88.1442 748.522C87.889 748.142 87.6364 747.763 87.3888 747.391C75.7935 729.677 70.8388 720.401 65.7038 710.648C64.0547 707.444 62.4579 704.209 60.7164 700.497C50.0741 677.138 50.4122 681.267 45.2754 673.198C44.3294 671.663 43.2279 669.726 41.8637 667.055C33.2884 650.003 42.9511 656.024 43.1686 652.973C43.4545 650.016 40.9873 647.802 40.4799 644.503C39.9471 641.134 43.5221 647.447 40.8718 640.104C40.0838 637.903 38.5139 634.439 36.7639 630.884C32.7626 622.827 27.9703 613.216 26.4311 611.688C22.1999 607.527 21.5303 615.376 17.8437 602.283C17.4406 600.799 17.0104 599.048 16.5549 596.975C16.3017 595.805 18.9836 599.084 17.9342 594.63C15.9689 586.236 14.1926 577.732 12.6303 569.157C10.6478 558.281 9.01021 547.29 7.74031 536.279C6.46702 525.246 5.56216 514.191 5.02725 503.219C4.74399 497.412 4.56402 491.629 4.486 485.883C4.43109 480.937 6.52534 485.269 6.51964 482.395C6.51924 477.156 6.48617 473.166 6.3737 470.06C5.93227 455.426 3.29561 460.394 0.33444 446.789C3.48515 449.259 5.79319 446.083 7.13333 437.074C7.82091 432.495 8.32882 426.52 8.87395 418.957C9.11353 415.672 9.20628 413.301 9.16955 411.491C9.09182 405.863 7.66177 405.423 7.41476 398.653C7.30961 396.239 9.59862 388.5 9.67438 385.571C9.67996 385.223 9.65266 384.942 9.58393 384.742C7.6286 378.484 1.92261 386.789 8.56611 363.786C8.88163 362.79 9.77911 366.428 10.7472 362.96C11.1012 361.709 11.4355 360.519 11.7513 359.383C15.0013 347.905 16.0279 341.779 17.9682 333.759C19.3172 328.416 21.092 322.226 25.1215 313.4C25.7853 311.957 26.5231 310.434 27.3303 308.852C30.7931 302.041 35.7713 293.841 41.5798 286.168C43.9659 283.012 46.0219 279.92 48.0488 276.465C50.0589 273.038 51.8936 269.475 53.5685 265.908C55.3427 262.132 56.9413 258.355 58.3994 254.738C59.4561 252.115 60.439 249.577 61.3513 247.176C62.7781 247.839 64.2985 246.576 65.7338 244.227C67.4505 241.421 69.0469 237.079 70.3365 232.629C71.6241 228.131 72.6879 223.427 72.8979 220.096C72.924 220.045 72.9501 219.994 72.9763 219.943C75.4254 215.162 78.1508 210.203 80.9954 205.429C83.8343 200.661 86.8376 195.985 89.9287 191.535C92.1041 188.402 94.3222 185.38 96.552 182.513C99.528 178.708 98.912 182.186 99.4047 181.791C100.249 181.128 101.011 180.454 101.702 179.776C107.217 174.374 108.232 168.524 109.856 166.261C109.986 166.083 110.115 165.905 110.245 165.728C113.558 161.2 116.91 156.924 120.262 152.812C123.771 148.509 127.286 144.382 130.766 140.346C130.766 140.346 130.766 140.346 130.766 140.346C135.069 135.355 139.489 130.53 143.951 125.822C148.427 121.099 152.977 116.456 157.631 111.755C162.144 107.197 166.754 102.586 171.516 97.8025C171.881 97.4358 172.247 97.0682 172.614 96.6995C173.428 95.9064 172.447 91.7614 180.97 88.3941C181.519 88.2086 174.187 96.1686 186.235 86.8148C186.578 86.5552 186.931 86.2909 187.293 86.0222C191.601 82.823 197.26 79.0074 203.585 75.0444C208.863 71.7325 214.645 68.2935 220.405 64.9589C226.133 61.636 232.067 58.5059 237.518 55.6087C239.061 54.7882 240.567 53.9843 242.033 53.1904C244.59 51.8012 249.174 48.6911 254.676 46.0971C258.887 44.1028 263.614 42.4095 268.207 41.9059C269.618 41.7583 268.536 43.2531 270.609 43.1688C271.889 43.1135 273.001 42.902 274.022 42.5993C278.325 41.328 281.03 38.3929 287.613 39.0213C289.181 39.1723 291.025 39.2086 293.124 39.1112C298.152 38.8748 304.635 37.8881 312.236 35.7972C317.755 34.2748 323.906 32.1535 330.402 29.241C330.575 29.1632 330.748 29.0854 330.922 29.0073C331.505 28.7553 335.066 24.6312 341.195 22.8892C341.409 22.828 341.627 22.7698 341.847 22.7149C345.224 21.8731 349.098 21.0623 353.167 20.3327C357.103 19.6248 361.22 18.9904 365.244 18.4139C369.487 17.8051 373.627 17.257 377.343 16.7252C377.597 16.6889 377.849 16.6526 378.099 16.6164C383.346 15.8625 379.73 14.5126 380.637 14.3501C383.54 13.8566 386.376 13.4008 389.155 12.9678C393.291 12.3236 397.291 11.7307 401.215 11.1456C405.276 10.5397 409.218 9.8999 413.148 9.24987C417.157 8.58654 421.128 7.91572 425.115 7.26223C429.09 6.61096 433.081 5.97609 437.141 5.38396C441.092 4.80806 445.109 4.27191 449.237 3.81143C453.177 3.37274 457.218 3.00241 461.4 2.75091C465.331 2.51518 469.403 2.38387 473.601 2.42254C475.399 2.43934 477.231 2.45087 479.089 2.45723C482.568 2.4728 489.274 1.7655 496.806 1.24637C504.431 0.722282 512.91 0.406394 519.747 1.29772C519.848 1.31088 519.948 1.32439 520.047 1.33824C532.715 3.16251 522.874 10.3483 543.287 10.4835C546.071 10.5161 549.418 10.4293 553.462 10.2182C557.41 10.0149 561.674 8.95542 566.36 7.74537C573.17 5.98778 580.902 3.90268 589.697 3.75722C595.771 3.65858 602.359 4.4934 609.282 7.04994C610.399 7.14674 611.514 7.25065 612.626 7.36181C631.177 9.21524 649.17 12.1958 666.816 15.853C684.683 19.561 702.26 23.9558 720.088 28.8152C728.784 31.1888 737.541 33.6777 746.422 36.2888C748.488 36.8872 756.036 36.1384 760.827 38.0061C766.222 40.1037 769.431 42.3485 772.823 44.2456C773.886 44.8417 774.975 45.4093 776.153 45.9352C792.377 53.2237 807.545 60.1107 822.091 68.8185C826.069 71.2066 829.965 73.7159 833.822 76.432C840.555 81.2877 837.359 80.8147 845.113 86.8621C851.934 92.3824 857.746 95.1724 865.222 102.985C866.112 103.927 867.02 104.943 867.944 106.048C874.457 113.901 877.864 124.223 884.658 135.08C887.594 133.614 891.628 138.122 897.41 147.302C898.825 149.57 900.38 152.09 902.104 154.841C903.78 157.515 903.442 153.862 904.3 155.093C907.823 160.092 909.414 165.608 912.797 170.343C913.618 171.496 914.893 170.905 915.634 171.815C915.815 172.035 915.995 172.262 916.173 172.495C922.282 180.413 926.355 195.503 926.986 198.153C927.285 199.32 927.594 200.403 927.912 201.417C930.426 209.489 933.587 213.226 935.766 220.152C938.155 227.929 932.523 217.187 935.706 226.078C936.282 227.711 936.874 229.383 937.476 231.087C940.701 240.199 944.204 250.279 947.239 260.379C950.062 269.732 952.475 279.101 954.197 287.582C954.434 288.743 954.647 289.604 954.843 290.232C955.934 293.777 956.558 289.846 956.774 290.781C959.123 301.2 959.745 311.944 960.867 320.584C961.48 325.241 962.051 329.35 963.227 332.643C962.696 333.23 962.219 333.772 961.79 334.285C957.099 339.75 958.497 341.91 959.302 347.791C959.726 351.006 959.903 355.311 958.529 361.556C958.242 362.864 957.888 364.256 957.457 365.741C956.935 367.525 952.002 368.904 952.741 361.844C952.787 361.391 952.845 360.924 952.912 360.446C953.445 356.63 954.584 352.065 955.427 347.212C956.122 343.231 956.605 339.045 956.417 335.026C956.406 334.789 956.358 334.432 956.277 333.982C955.811 331.009 953.754 324.857 952.302 321.243C951.824 319.961 951.474 319.006 951.381 318.609C948.032 305.191 954.198 302.427 954.519 301.559C955.489 298.37 955.149 294.34 954.186 290.361C952.47 283.161 948.685 276.231 947.792 273.671C946.346 269.471 944.97 265.419 943.625 261.486C940.13 251.278 936.861 241.834 932.985 232.88C931.845 230.25 930.651 227.661 929.38 225.118C924.586 215.62 920.053 216.538 916.716 208.976C916.431 208.337 916.152 207.708 915.88 207.087C910.716 195.344 908.055 186.671 904.779 178.412C901.415 169.98 897.375 162.041 888.893 151.916C888.862 151.88 888.831 151.842 888.799 151.806C885 147.698 883.86 154.222 876.811 136.64C876.537 135.623 870.814 122.083 863.351 117.525C862.443 116.954 861.424 117.947 860.412 117.044C858.675 115.491 857.143 114.033 855.689 112.602C851.45 108.458 847.941 104.506 841.986 100.081C833.982 94.1335 823.805 87.8073 814.317 81.4012C814.315 81.4 814.313 81.3988 814.312 81.3976C808.647 77.5114 802.116 70.8681 799.421 68.7278C791.877 62.5752 781.277 61.0323 776.793 56.6079C772.338 52.2945 783.599 53.5158 771.762 46.8101C771.322 46.5657 770.848 46.3114 770.341 46.047C768.392 49.2453 765.721 52.2582 763.479 55.3679C748.305 49.2212 732.897 43.769 717.193 39.0103C700.209 33.8688 682.9 29.548 665.16 26.1901C665.043 26.168 664.932 26.1487 664.827 26.132C661.143 25.5538 664.744 28.1558 660.343 27.3978C643.315 24.5064 628.474 21.1344 611.143 19.065C608.945 18.805 606.728 18.5835 604.496 18.4056C599.447 18.0063 594.103 17.8657 588.696 17.8829C581.244 17.9043 573.618 18.2184 566.047 18.4776C562.662 18.5931 559.288 18.6971 555.942 18.7567C552.9 17.4061 548.476 16.595 543.285 16.147C536.469 15.5554 528.335 15.5965 520.278 15.7451C514.567 15.8489 508.896 16.001 503.761 15.9944C499.921 15.9908 498.578 15.5628 497.089 15.1673C496.147 14.9169 495.145 14.6799 493.409 14.5715C476.501 13.5267 484.467 17.1123 479.836 17.782C477.615 18.0971 475.615 18.2682 473.795 18.3244C469.199 18.4864 466.088 17.9839 462.659 17.2886C459.089 16.555 455.553 15.6016 450.853 15.2859C447.587 15.0693 443.76 15.1703 438.974 15.9181C438.23 16.0344 437.462 16.1663 436.669 16.315C436.026 16.4307 431.764 18.5151 427.591 20.5621C423.964 22.341 420.378 24.066 419.432 24.369C418.041 24.8226 416.916 25.1627 416.007 25.4109C408.454 27.4393 416.099 23.3601 408.537 24.3228C406.693 24.5487 404.925 24.7424 403.229 24.9096C398.95 25.3294 394.925 25.6657 390.954 26.0601C387.026 26.4505 383.102 26.9009 378.902 27.559C375.245 28.1334 371.378 28.8634 367.149 29.8745C366.669 29.9893 366.184 30.1079 365.695 30.2303C363.469 30.7906 359.908 32.1072 355.849 33.4314C352.36 34.5672 348.511 35.7138 344.702 36.3723C343.217 36.6283 341.735 36.8096 340.273 36.8834C339.016 36.9495 339.249 35.3287 338.279 35.5225C336.321 35.9311 334.565 36.3973 332.959 36.9101C322.794 40.1278 320.236 43.2263 315.525 46.4601C314.112 47.4229 312.51 48.389 310.448 49.359C306.745 51.1023 302.106 52.4454 297.565 53.4687C289.731 55.2226 282.192 56.0857 279.973 56.2075C279.425 56.2371 278.965 56.2527 278.583 56.2554C276.38 56.2733 276.809 55.8452 278.257 55.2778C280.743 54.297 286.279 52.9651 286.513 52.747C289.938 49.4486 284.288 50.9353 277.526 53.0888C275.272 53.8075 272.897 54.6026 270.689 55.3127C267.884 51.3584 255.708 56.2001 261.592 58.3724C262.237 58.5864 268.846 55.7132 270.689 55.3127C268.332 57.9537 265.01 60.3606 260.972 62.4801C256.127 65.0251 250.269 67.1497 243.702 68.8717C241.335 69.4926 238.876 70.0619 236.327 70.587C230.828 71.7836 232.373 68.9299 225.014 72.7511C222.701 73.9985 219.577 75.8943 215.234 78.9117C211.596 81.45 210.539 83.0187 209.904 84.4096C209.093 86.2193 208.98 87.7376 205.188 91.0112C202.486 93.3564 199.585 95.7291 196.565 98.1481C191.859 101.916 186.862 105.801 181.867 109.823C176.977 113.758 172.09 117.824 167.479 121.973C162.674 126.293 158.169 130.702 154.257 135.081C154.198 135.147 154.141 135.212 154.085 135.275C149.369 140.683 155.467 136.553 152.14 140.446C149.08 144.061 146.15 147.347 143.122 150.771C143.122 150.771 143.122 150.771 143.122 150.771C139.53 154.837 135.966 158.761 132.474 162.922C130.291 165.523 128.142 168.212 126.049 171.071C125.304 172.097 128.651 170.827 125.95 174.223C125.305 175.039 124.665 175.85 124.029 176.659C120.698 180.893 117.481 185.044 114.377 189.168C111.197 193.393 108.135 197.589 105.194 201.816C102.234 206.071 99.3962 210.357 96.696 214.732C93.9941 219.12 91.5747 223.316 89.1279 228.019C87.3419 231.468 85.8729 234.643 84.3038 238.351C82.8165 241.87 81.3874 245.565 79.9488 249.442C79.4007 250.918 78.8511 252.42 78.2944 253.95C77.5087 256.108 76.6497 258.531 75.7037 261.165C74.3687 264.876 72.8624 269.011 71.0946 273.368C69.4644 277.385 67.6041 281.59 65.4623 285.766C63.4049 289.812 60.7442 294.316 58.2788 297.902C54.2773 303.806 51.3182 308.92 48.6761 313.604C47.8027 315.158 46.9245 316.758 46.0579 318.377C42.3975 325.212 38.8436 332.617 35.6363 340.314C32.4749 347.889 29.6506 355.737 27.3002 363.495C24.7793 371.806 22.8014 380.011 21.438 387.632C20.8206 391.079 20.327 394.41 19.9598 397.575C18.8069 407.943 19.5372 410.339 20.1911 412.53C20.5827 413.772 20.9963 414.95 21.2427 417.489C21.7884 423.199 21.2517 430.176 20.5825 437.261C19.6261 447.343 18.0756 456.358 17.7091 458.317C17.6587 458.409 17.2145 444.075 16.292 451.727C14.3621 456.189 17.701 458.161 17.7091 458.317C17.5526 459.15 17.4302 463.922 17.4547 469.793C17.4612 479.17 18.0062 491.331 18.4534 494.798C18.8338 497.864 20.4412 496.034 20.6101 497.629C20.7667 499.102 20.9269 500.576 21.0909 502.047C22.282 512.733 23.6729 523.364 25.3167 533.932C26.9559 544.47 28.8469 554.946 31.0429 565.354C33.2289 575.714 35.7173 586.005 38.5575 596.218C39.7437 600.483 40.9919 604.737 42.304 608.974C42.482 609.616 40.3403 609.274 40.7843 610.778C42.546 616.768 44.5053 622.037 46.6496 627C52.0548 639.492 57.6247 649.232 63.821 660.938C64.4048 662.037 64.9787 663.128 65.5421 664.208C73.2912 679.061 78.6354 691.147 80.6593 701.534C80.8245 701.824 80.9906 702.118 81.1577 702.415C87.2731 713.423 94.9923 728.618 100.673 738.367C101.196 739.279 101.699 740.148 102.175 740.963C107.978 750.751 112.037 749.598 112.655 750.351C118.442 756.766 123.581 762.249 128.468 767.259C137.692 776.608 145.988 784.677 157.348 792.288C161.337 794.922 165.723 797.45 170.691 799.702C175.822 802.006 182.388 804.43 191.27 806.029C191.27 806.029 191.27 806.029 191.27 806.029C198.732 807.344 205.916 808.024 213.136 808.337C218.651 808.572 223.81 808.551 228.066 808.437C230.77 808.364 233.26 808.304 235.616 808.252C243.7 808.057 250.216 808.025 258.591 807.068C259.392 806.976 260.211 806.874 261.049 806.762C262.695 806.543 260.88 805.03 261.379 804.922C274.825 801.674 268.675 806.321 271.571 806.779C275.441 807.366 278.787 807.822 282.34 808.017C288.43 808.356 295.089 807.882 306.247 806.032C306.363 806.013 306.48 805.993 306.598 805.974C310.597 805.288 322.418 798.47 330.226 797.673C330.226 797.673 330.226 797.673 330.226 797.673C330.292 797.666 330.359 797.659 330.425 797.652C339.924 796.657 336.416 799.011 346.208 797.715C347.05 797.592 346.754 796.347 352.824 795.802C353.419 795.747 354.019 795.69 354.619 795.632C362.586 794.864 370.745 793.904 379.018 792.731C387.078 791.59 395.243 790.249 403.425 788.723C411.571 787.205 419.737 785.505 427.837 783.661C432.243 782.659 436.628 781.614 440.983 780.534C444.983 779.542 439.365 778.803 445.131 777.332C447.316 776.771 449.516 776.204 451.737 775.631C459.747 773.561 467.936 771.421 476.247 769.284C476.247 769.284 476.247 769.284 476.247 769.284C489.328 765.909 501.289 762.004 513.446 757.466C517.321 756.017 521.135 754.53 524.87 753.027C530.851 750.594 527.763 753.567 529.219 753.377C538.233 752.153 547.559 743.095 549.269 742.072C549.454 741.965 549.639 741.858 549.823 741.752C562.002 734.687 573.283 727.864 584.222 721.039C595.797 713.807 606.977 706.564 618.253 698.827C629.101 691.381 640.026 683.471 651.45 674.6C655.325 671.591 659.253 668.476 663.264 665.226C664.958 663.853 674.406 653.511 683.14 647.654C685.446 646.115 687.643 644.887 689.623 644.244C690.223 644.079 699.542 641.063 703.543 633.983C703.768 633.546 698.647 635.894 705.596 629.58C710.918 624.68 717.947 616.333 725.06 608.501C727.229 606.126 729.421 603.805 731.651 601.626C734.645 598.714 743.59 592.583 747.773 580.224C748.049 579.557 750.863 566.637 755.131 559.34C756.207 557.546 757.411 556.083 758.779 555.222C759.841 554.497 763.813 557.649 767.633 542.67C768.302 539.809 765.382 544.285 767.623 536.977C770.324 527.994 774.791 517.004 777.164 505.448C777.746 502.631 778.208 499.786 778.499 496.949C778.788 494.402 778.151 483.439 782.001 475.506C782.608 474.253 783.684 477.05 784.653 472.61C786.399 464.497 787.621 456.108 788.513 447.626C789.949 434.013 790.53 420.178 791.228 406.565C791.578 398.726 794.132 402.725 794.643 394.477C794.742 392.699 794.819 390.53 794.846 388.137C794.984 379.422 794.278 367.687 792.659 361.061C790.579 352.684 787.707 362.355 785.853 349.844C784.802 343.131 783.634 336.32 782.332 329.447C780.308 318.922 777.902 309.807 774.602 299.925C771.348 290.253 767.419 280.783 762.833 271.596C758.248 262.408 753.006 253.504 747.143 244.973C741.288 236.453 734.814 228.304 727.771 220.625C724.125 216.649 720.327 212.8 716.384 209.09C710.49 203.691 714.528 209.086 705.611 201.476C705.128 201.075 704.638 200.672 704.141 200.267C696.83 194.316 688.716 188.396 678.773 182.216C678.773 182.216 678.773 182.216 678.773 182.216C672.864 178.567 667.557 175.666 661.327 172.732C655.435 169.971 649.343 167.569 643.095 165.559C636.838 163.544 630.427 161.926 623.978 160.653C617.276 159.328 610.518 158.369 603.898 157.641C596.665 156.845 589.597 156.314 582.923 155.865C575.483 155.367 568.657 154.966 562.548 154.497C562.1 154.463 561.665 154.429 561.242 154.396C531.117 151.975 570.624 150.222 546.096 149.204C539.373 148.925 532.358 150.252 526.991 151.508C522.786 152.492 519.594 153.431 518.332 153.498C509.12 154.008 500.865 154.182 493.044 154.256C481.419 154.369 470.74 154.244 459.391 154.741C455.116 154.929 450.749 155.209 446.211 155.637C441.117 156.129 446.251 157.646 441.928 158.054C436.786 158.555 431.561 158.984 426.349 159.437C416.61 160.28 406.907 161.22 397.927 162.771C395.874 163.127 394.658 163.512 393.74 163.89C391.895 164.656 391.253 165.384 387.474 166.01C378.363 167.558 370.52 168.97 361.824 170.596C361.824 170.596 361.824 170.596 361.824 170.596C357.53 171.398 353.371 172.222 349.183 173.087C348.017 173.333 355.035 169.208 345.707 172.144C341.144 173.635 336.166 175.309 331.081 177.219C321.588 180.773 311.572 185.244 302.358 190.772C300.079 192.137 297.852 193.562 295.691 195.046C291.081 198.292 292.594 201.057 281.305 205.697C279.475 206.48 279.35 203.582 274.834 207.267C273.53 208.341 271.86 209.978 269.723 212.451C268.57 213.739 260.131 222.825 251.755 230.171C248.202 233.256 244.615 236.008 241.413 237.609C238.573 239.012 230.468 241.834 225.743 246.909C225.156 247.555 228.545 246.518 225.698 249.625C225.496 249.847 225.261 250.09 224.992 250.357C217.585 257.676 210.208 265.07 202.698 272.938C197.808 278.063 193.036 283.086 188.477 288.166C186.369 290.515 184.324 292.859 182.348 295.218C178.956 299.32 185.511 294.568 180.481 300.631C179.37 301.993 178.269 303.36 177.157 304.768C173.325 309.615 169.55 314.729 166.182 319.997C162.909 325.106 160.014 330.379 157.622 335.72C155.118 341.292 153.154 346.952 151.671 352.487C151.259 354.017 150.873 355.589 150.533 357.084C149.06 364.031 148.433 358.968 148.174 359.446C146.024 363.523 145.956 367.278 146.353 370.36C146.699 373.129 147.373 375.235 147.351 376.73C147.119 393.182 145.608 406.151 145.419 420.638C145.388 423.437 145.411 426.29 145.515 429.206C145.698 434.185 147.375 430.628 147.541 431.617C149.248 441.822 145.986 434.26 145.821 440.766C145.614 450.379 146.003 460.575 146.875 470.696C147.654 479.766 148.82 488.782 150.204 497.311C151.308 503.928 152.121 496.182 153.109 502.099C154.103 507.873 155.208 513.656 156.429 519.414C159.821 535.411 164.133 551.266 169.456 566.434C173.822 578.885 178.864 590.856 184.545 602.089C187.42 607.685 184.159 604.987 184.493 606.306C184.952 608.08 185.708 609.888 186.644 611.642C190.512 618.989 197.631 625.127 199.287 626.884C207.639 635.755 210.309 640.2 217.516 647.616C218.307 648.41 219.144 649.218 220.038 650.039C226.196 655.679 232.535 660.753 239.818 665.802C247.592 671.178 255.981 676.109 264.813 680.44C273.448 684.677 282.507 688.341 291.791 691.335C301.072 694.33 310.576 696.654 320.086 698.262C329.804 699.907 339.525 700.802 349.016 700.957C359.195 701.099 368.114 700.532 377.824 699.111C383.822 698.213 389.759 697.375 395.469 696.582C400.186 695.927 404.822 695.297 409.383 694.675C420.079 693.217 430.358 691.797 440.302 690.244C450.691 688.622 460.714 686.856 470.429 684.791C480.423 682.666 490.092 680.226 499.464 677.307C508.917 674.363 518.069 670.931 526.89 666.848C535.788 662.702 543.581 658.399 552.009 652.685C552.01 652.684 552.01 652.684 552.01 652.684C558.103 648.519 563.527 644.343 569.178 639.478C574.295 635.06 579.248 630.319 583.969 625.239C584.28 624.904 584.51 624.622 584.675 624.384C586.093 622.317 582.71 623.572 584.958 621.043C589.074 616.382 592.927 611.563 596.447 606.606C600.479 600.927 604.073 595.067 607.097 589.073C610.127 583.07 612.579 576.936 614.309 570.758C616.078 564.23 616.957 559.189 617.226 552.225C617.226 552.225 617.226 552.225 617.226 552.225C617.459 543.96 617.334 536.388 616.841 528.283C616.349 520.324 615.491 512.374 614.26 504.46C613.384 498.833 612.32 493.225 611.067 487.647C610.143 483.616 609.533 489.832 607.957 483.417C607.792 482.767 607.624 482.109 607.453 481.443C605.619 474.302 603.37 466.318 600.92 458.527C598.992 452.375 596.949 446.342 595.042 440.892C592.783 434.554 597.748 442.284 595.407 435.901C595.306 435.632 595.205 435.362 595.103 435.093C592.284 427.652 589.149 420.515 585.325 412.993C581.673 405.868 577.873 400 573.155 393.871C573.106 393.809 573.059 393.749 573.014 393.691C569.187 388.962 573.433 397.665 568.31 391.092C564.566 386.431 560.547 381.992 556.296 377.812C550.866 372.473 545.062 367.557 538.972 363.167C532.868 358.768 526.476 354.897 519.891 351.676C513.305 348.454 506.529 345.888 499.68 344.105C492.475 342.296 486.81 341.401 479.109 341.219C479.109 341.219 479.109 341.219 479.109 341.219C470.225 341.114 462.469 341.464 453.791 342.318C445.353 343.159 436.874 344.466 428.305 346.156C423.568 347.09 418.807 348.138 414.013 349.28C410.777 350.055 407.18 348.55 401.669 349.49C400.061 349.765 398.291 350.252 396.33 351.071C396.004 352.353 396.448 353.592 396.527 354.824C390.045 356.986 383.531 359.269 376.968 361.603C368.299 364.686 359.546 367.854 350.653 370.951C341.815 374.031 332.569 377.126 323.52 379.884C323.52 379.884 323.52 379.884 323.52 379.884C321.811 380.614 322.234 380.377 320.052 382.174C318.398 383.68 316.508 385.942 314.705 388.6C312.894 391.26 311.138 394.314 309.479 397.57C307.818 400.827 306.246 404.295 304.749 407.881C303.249 411.473 301.821 415.194 300.426 419.012C299.018 422.853 297.665 426.771 296.158 430.976C296.158 430.976 296.158 430.976 296.158 430.976C295.084 434.031 294.561 436.101 293.936 439.341C293.375 442.361 292.991 445.582 292.746 448.946C292.502 452.309 292.396 455.812 292.382 459.42C292.368 463.027 292.444 466.739 292.559 470.547C292.673 474.354 292.825 478.254 292.953 482.273C293.077 486.22 293.183 490.574 293.158 494.71C293.158 494.71 293.158 494.71 293.158 494.71C293.154 498.734 293.445 501.972 294.056 506.106C294.658 510.054 295.531 514.076 296.623 518.087C297.714 522.088 299.024 526.08 300.525 529.994C302.024 533.903 303.714 537.741 305.579 541.432C305.962 542.189 306.349 542.934 306.745 543.676C308.391 546.678 307.4 540.541 310.607 546.217C311.529 547.787 312.481 549.307 313.462 550.769C315.758 554.15 317.561 556.496 320.222 559.338C323.659 562.916 326.234 565.229 329.681 567.918C332.975 570.455 336.384 572.636 339.975 574.498C343.559 576.357 347.328 577.896 351.327 579.157C355.31 580.414 359.535 581.395 363.972 582.152C368.392 582.906 373.02 583.439 377.834 583.825C382.669 584.209 387.376 584.446 392.614 584.618C392.614 584.618 392.614 584.618 392.614 584.618C396.834 584.756 400.748 584.84 404.802 584.825C406.434 584.819 408.059 584.797 409.67 584.757C412.656 584.658 412.535 586.741 416.912 587.116C418.533 587.241 420.786 587.118 423.916 586.394C424.464 586.264 426.139 585.903 428.298 585.321C431.35 584.51 435.317 583.197 438.5 581.695C441.437 580.336 443.703 578.855 444.684 577.961C445.006 577.607 442.07 577.37 445.742 575.053C445.744 575.052 445.746 575.05 445.748 575.049C448.377 573.194 449.422 572.348 451.674 569.828C451.674 569.828 451.674 569.828 451.674 569.828C453.976 567.125 456.181 564.547 458.291 561.998C460.365 559.49 462.301 557.053 463.894 554.807C465.497 552.549 466.745 550.502 467.701 548.521C468.659 546.536 469.37 544.562 469.945 542.254C470.519 539.953 470.932 537.35 471.208 534.515C471.489 531.542 471.624 528.893 471.686 525.438C471.727 522.625 471.627 520.377 471.368 517.524C471.112 514.787 470.72 512.018 470.208 509.285C469.693 506.537 469.056 503.823 468.307 501.205C467.632 498.847 466.867 496.569 466.015 494.416C465.899 494.121 465.806 493.867 465.733 493.645C464.67 490.554 467.95 493.608 466.684 490.704C465.924 489.03 465.087 487.45 464.187 486.011C462.771 483.832 461.976 482.748 460.257 481.092C458.464 479.608 458.427 479.67 456.465 478.864C454.863 478.301 452.832 477.939 450.518 477.853C448.208 477.763 445.636 477.941 442.972 478.343C440.289 478.746 437.51 479.369 434.718 480.15C431.896 480.939 429.063 481.887 426.258 482.945C423.348 484.05 420.766 485.129 417.889 486.458C415.325 487.701 414.417 488.239 412.552 489.635C411.795 490.218 411.069 490.845 410.367 491.521C409.406 492.447 408.601 493.318 407.894 494.102C404.991 497.463 403.542 498.767 401.902 499.459C400.294 500.256 398.533 500.575 396.086 504.368C395.905 504.656 395.612 505.5 395.282 506.638C394.492 509.257 393.671 513.508 392.825 515.804C392.503 516.653 392.158 517.228 391.769 517.326C389.034 518.055 386.31 516.343 383.554 515.005C381.527 514.04 379.465 513.295 377.27 514.242C377.212 514.266 377.157 514.337 377.103 514.449C375.858 516.575 376.684 532.159 374.341 522.063C374.265 521.681 374.071 518.143 374.066 514.188C374.034 510.319 374.269 506.024 374.173 504.237C374.051 501.934 371.807 505.079 371.571 501.771C371.551 501.44 371.553 501.044 371.586 500.568C371.831 497.148 373.233 493.676 375.046 489.294C376.043 486.907 377.172 484.239 378.504 481.079C379.401 478.962 379.984 477.495 380.414 476.254C381.805 472.918 381.135 470.818 388.624 463.02C389.933 461.75 391.514 460.369 393.479 458.92ZM132.121 781.974C138.815 790.238 144.085 786.015 134.779 780.053C134.332 779.762 131.786 781.549 132.121 781.974ZM700.452 28.7266C687.433 22.5167 677.044 24.7601 686.244 29.0596C695.341 33.4071 704.374 30.6325 700.452 28.7266ZM834.15 83.7258C821.89 72.5042 814.834 79.1322 830.024 87.1171C830.888 87.5976 834.842 84.387 834.15 83.7258ZM423.481 474.088C423.454 474.083 423.218 474.159 422.845 474.292C420.917 474.923 415.564 477.298 415.453 477.47C413.225 480.243 420.63 477.202 423.316 475.485C424.268 474.837 424.568 474.287 423.481 474.088ZM921.008 196.804C919.925 191.57 911.863 178.926 913.373 185.376C914.622 190.529 922.395 203.268 921.008 196.804ZM655.912 692.097C656.108 692.075 661.207 688.355 660.77 687.988C659.356 686.824 652.642 692.487 655.912 692.097ZM941.282 434.926C942.591 432.881 943.646 430.699 944.535 428.515C945.709 425.619 946.599 422.719 947.352 419.961C948.227 416.738 948.915 413.702 949.531 410.984C950.368 407.265 951.075 404.125 951.747 401.804C953.49 396.097 955.018 395.49 955.319 401.96C955.451 404.196 955.455 407.381 955.1 411.508C954.904 413.73 954.6 416.243 954.082 419.054C953.104 424.089 953.676 414.873 952.97 411.307C952.717 409.724 952.4 409.173 951.98 411.214C951.926 411.468 951.87 411.761 951.811 412.098C951.288 415.061 950.867 417.851 950.44 420.545C949.921 423.795 949.401 426.909 948.619 429.985C947.807 433.15 946.712 436.31 944.904 439.308C943.18 442.171 940.718 444.896 937.451 446.792C934.597 448.464 931.195 449.423 927.673 449.476C925.763 449.415 931.565 447.656 935.538 443.635C938.13 441.159 939.788 438.065 940.617 436.266C940.939 435.586 941.167 435.083 941.304 434.869C941.297 434.888 941.289 434.907 941.282 434.926ZM131.508 791.955C131.564 792.202 138.357 797.742 138.609 797.739C143.506 798.991 130.017 788.065 131.508 791.955ZM811.582 378.216C811.864 377.714 810.313 357.35 809.943 356.706C805.689 346.559 808.87 387.376 811.582 378.216ZM61.6041 246.897C61.7756 245.601 61.992 244.28 62.2534 242.951C63.0559 238.866 64.2968 234.677 65.9702 230.84C67.8008 226.625 70.2356 222.726 72.8757 220.135C70.9774 223.807 69.2095 227.7 67.6124 231.513C65.9799 235.407 64.4717 239.326 62.9943 243.223C62.5291 244.45 62.0664 245.676 61.6041 246.897Z" fill="black"/>
</svg>
