<svg width="924" height="924" viewBox="0 0 924 924" fill="none" xmlns="http://www.w3.org/2000/svg">
<rect width="924" height="924" rx="462" fill="#020202"/>
<path d="M585.088 326.007C640.526 329.022 696.141 336.12 750.7 336.12C765.575 336.12 755.999 345.324 746.886 347.349C734.372 350.13 724.18 363.272 714.892 371.715C697.057 387.928 680.217 405.162 663.665 422.701C693.373 461.203 721.723 500.641 747.945 541.215C767.12 570.885 787.498 598.906 797.525 632.746C798.832 637.157 801.125 656.476 794.559 656.476C789.315 656.476 779.699 650.775 775.066 648.636C743.935 634.269 710.983 623.066 679.296 609.863C632.21 590.244 585.513 569.52 539.205 547.893C507.636 577.511 476.026 607.341 445.381 637.407C422.435 659.92 403.064 686.026 380.122 708.597C359.463 728.923 334.913 744.686 314.016 763.261C303.816 772.328 306.388 756.534 306.388 749.913C306.388 703.006 308.315 656.45 312.109 609.651C315.572 566.942 320.509 524.444 325.458 481.89C326.921 469.305 329.201 456.757 331.683 444.217C336.877 417.982 342.96 391.784 344.315 365.359C345.015 351.708 346.177 338.156 347.738 324.678C351.572 291.573 357.809 258.918 365.503 226.368C374.819 186.956 380.688 144.16 397.073 107.294C401.633 97.0337 395.944 94.4554 403.641 103.692C410.208 111.572 415.095 122.92 421.227 131.448C449.343 170.546 480.977 207.401 512.971 243.318C537.188 270.504 561.337 298.038 585.088 326.007Z" fill="#020202"/>
<path d="M111.017 300.448C113.063 298.473 117.009 299.28 119.18 299.723C119.22 299.73 119.259 299.737 119.299 299.744C119.814 299.849 120.302 299.876 120.872 299.906C122.234 299.977 124.073 300.073 127.912 301.332C129.029 301.285 130.146 301.26 131.263 301.26C131.549 301.26 131.836 301.261 132.123 301.263C143.898 301.339 155.673 302.949 167.448 304.868C167.601 304.858 167.756 304.847 167.912 304.837C170.249 304.68 173.02 304.493 175.246 304.749C175.901 304.824 176.51 304.938 177.046 305.102C180.043 306.018 182.078 306.868 183.75 307.601C193.33 309.183 202.911 310.597 212.491 311.181C214.45 311.3 216.41 311.385 218.369 311.429C219.413 311.452 220.456 311.464 221.5 311.464C224.265 311.464 227.031 311.401 229.796 311.284C231.406 310.854 232.937 310.343 234.357 309.87C236.351 309.206 238.128 308.616 239.595 308.423C243.129 307.959 247.139 308.691 250.116 309.235C250.603 309.324 251.062 309.409 251.487 309.481C253.852 309.212 256.217 308.923 258.582 308.628C258.74 308.792 258.899 308.964 259.06 309.139C259.794 309.935 260.589 310.438 261.492 310.753C263.071 311.305 264.98 311.285 267.465 311.259C269.165 311.241 271.136 311.222 273.457 311.38C274.952 311.482 275.72 312.35 276.348 313.058C276.532 313.266 276.706 313.461 276.881 313.618C277.481 314.157 278.115 313.575 278.863 312.887C279.833 311.994 280.997 310.922 282.535 311.891C287.436 314.977 289.595 312.883 291.229 311.299C291.708 310.835 292.142 310.415 292.587 310.182C294.029 309.426 296.083 310.175 297.636 311.203C298.867 312.018 301.329 311.21 303.197 310.182C303.595 309.963 304.073 309.864 304.615 309.818C305.034 309.782 305.493 309.778 305.984 309.774C307.148 309.764 308.495 309.756 309.936 309.319C313.577 308.217 315.512 307.683 317.068 307.256C317.511 307.134 317.924 307.023 318.337 306.907C319.641 306.541 321.259 306.24 322.898 305.936C324.859 305.572 326.849 305.202 328.363 304.709C332.288 305.231 336.213 305.877 340.137 306.521C342.153 306.855 344.087 308.739 345.512 311.844C346.937 314.951 347.738 319.003 347.738 323.203C347.738 327.402 346.937 331.454 345.512 334.562C344.087 337.667 342.153 339.553 340.137 339.888C336.076 340.554 332.015 341.221 327.953 341.752C323.006 342.399 318.059 342.845 313.112 342.845C310.28 342.845 307.447 342.778 304.615 342.655C303.986 342.627 303.358 342.597 302.729 342.565C302.373 342.546 302.017 342.526 301.661 342.506C298.753 343.54 295.851 344.48 293.807 344.815C292.119 345.092 290.888 344.54 289.834 344.068C289.109 343.743 288.467 343.456 287.818 343.502C287.469 343.526 286.993 343.59 286.418 343.667C284.073 343.98 280.089 344.511 276.454 343.502C274.842 343.054 272.968 342.171 271.18 341.329C268.622 340.124 266.238 339.001 265.034 339.346C263.911 339.668 262.701 339.674 261.492 339.541C260.424 339.424 259.357 339.198 258.353 338.985C256.309 338.552 254.522 338.173 253.505 338.873C252.291 339.709 251.255 339.368 249.715 338.864C248.647 338.513 247.337 338.086 245.555 337.914C243.498 337.716 242.043 337.13 240.807 336.632C239.066 335.931 237.756 335.404 235.804 336.373C233.636 337.451 231.37 338.136 229.585 337.796C228.772 337.641 227.843 337.678 226.875 337.718C225.594 337.77 224.247 337.824 223.017 337.438C222.003 337.119 221.165 336.304 220.424 335.583C220.193 335.358 219.971 335.143 219.756 334.954C219.293 334.96 218.831 334.967 218.369 334.977C218.024 334.985 217.679 334.993 217.334 335.004C217.203 335.135 217.065 335.28 216.922 335.43C216.202 336.183 215.317 337.105 214.222 337.565C212.487 338.293 210.966 337.838 209.361 337.354C208.111 336.977 206.81 336.584 205.32 336.725C204.303 336.821 203.146 337.154 201.998 337.485C200.294 337.975 198.612 338.457 197.442 338.151C197.004 338.036 196.628 337.524 196.255 337.014C196.253 337.011 196.252 337.008 196.25 337.005C196.225 336.971 196.199 336.937 196.174 336.902C193.327 337.293 190.479 337.723 187.632 338.176C187.385 338.307 187.135 338.437 186.888 338.565C185.681 339.189 184.508 339.795 183.743 340.657C182.914 341.59 180.83 342.133 178.633 342.705C177.48 343.005 176.296 343.313 175.246 343.69C174.986 343.784 174.734 343.881 174.494 343.984C173.784 344.287 173.111 343.759 172.418 343.215C171.772 342.708 171.108 342.187 170.383 342.316C170.019 342.38 169.627 342.599 169.208 342.832C168.839 343.038 168.45 343.256 168.041 343.39C167.662 343.513 166.818 343.226 165.735 342.86C165.066 342.635 164.305 342.379 163.507 342.169C161.398 342.498 159.288 342.813 157.178 343.106C156.738 343.569 156.357 344.169 156.054 344.94C155.837 345.493 155.653 346.154 155.463 346.829C155.205 347.749 154.938 348.699 154.57 349.457C154.282 350.049 153.943 350.284 153.715 350.039C153.609 349.924 153.528 349.708 153.454 349.513C153.369 349.289 153.293 349.09 153.201 349.095C153.134 349.1 153.065 349.258 152.98 349.45C152.844 349.757 152.667 350.152 152.397 350.166C151.395 350.219 150.256 350.092 149.14 349.967C147.899 349.828 146.687 349.693 145.72 349.811C144.638 349.944 143.095 349.355 141.55 348.769C140.472 348.359 139.393 347.952 138.467 347.785C137.559 347.621 136.614 347.947 135.699 348.264C134.601 348.646 133.544 349.014 132.646 348.498C132.502 348.414 132.33 347.994 132.123 347.423C132.07 347.277 132.014 347.12 131.957 346.957C131.756 346.391 131.525 345.745 131.263 345.148C130.12 345.148 128.977 345.122 127.834 345.074C127.794 345.16 127.752 345.248 127.71 345.338C127.71 345.34 127.709 345.342 127.708 345.344C126.77 347.374 125.485 350.151 123.68 348.495C123.222 348.074 122.933 347.296 122.673 346.596C122.417 345.908 122.189 345.293 121.855 345.164C121.475 345.017 121.027 345.44 120.538 345.899C119.852 346.543 119.085 347.263 118.316 346.593C118.264 346.547 118.207 346.497 118.148 346.446C117.591 345.969 116.766 345.264 115.944 343.844C113.508 343.465 111.071 343.021 108.635 342.537C104.573 341.729 100.511 340.808 96.4499 339.888C94.4742 339.435 92.5794 337.501 91.1823 334.406C89.7852 331.306 88.9998 327.323 89.0003 323.203C88.9999 319.083 89.7853 315.102 91.1823 312.003C92.5794 308.907 94.4741 306.974 96.4499 306.521C99.6717 305.791 102.895 305.059 106.117 304.386C106.286 304.3 106.455 304.217 106.624 304.14C107.88 303.562 109.046 302.403 110.212 301.242C110.48 300.975 110.748 300.708 111.017 300.448ZM367.937 300.448C369.815 298.473 373.435 299.28 375.426 299.723C375.462 299.73 375.499 299.737 375.535 299.744C376.008 299.849 376.455 299.876 376.979 299.906C377.697 299.947 378.559 299.996 379.832 300.269C380.774 300.472 381.939 300.797 383.437 301.332C384.462 301.285 385.487 301.26 386.511 301.26C394.983 301.26 403.455 302.222 411.926 303.556C414.521 303.964 417.115 304.407 419.709 304.868C419.849 304.858 419.991 304.847 420.135 304.837C422.91 304.633 426.352 304.381 428.514 305.102C431.264 306.018 433.131 306.868 434.665 307.601C437.783 308.162 440.902 308.703 444.021 309.192C449.692 310.082 455.362 310.804 461.033 311.181C463.788 311.364 466.543 311.464 469.298 311.464C471.57 311.464 473.843 311.414 476.115 311.319C476.38 311.308 476.644 311.296 476.909 311.284C478.386 310.854 479.791 310.343 481.093 309.87C482.923 309.206 484.553 308.616 485.899 308.423C489.141 307.959 492.82 308.691 495.551 309.235C495.998 309.324 496.419 309.409 496.809 309.481C498.979 309.212 501.149 308.923 503.318 308.628C503.463 308.792 503.609 308.964 503.757 309.139C504.974 310.577 506.375 311.058 508.209 311.207C509.166 311.285 510.24 311.273 511.468 311.259C513.028 311.241 514.836 311.222 516.965 311.38C518.337 311.482 519.041 312.35 519.617 313.058C519.787 313.266 519.945 313.461 520.106 313.618C520.657 314.157 521.238 313.575 521.924 312.887C522.815 311.994 523.883 310.922 525.294 311.891C529.79 314.977 531.771 312.883 533.27 311.299C533.709 310.835 534.108 310.415 534.516 310.182C535.838 309.426 537.723 310.175 539.147 311.203C539.459 311.427 539.856 311.529 540.303 311.536C541.49 311.555 543.054 310.931 544.336 310.194C545.002 309.809 545.897 309.806 546.951 309.807C547.267 309.807 547.596 309.808 547.938 309.799C548.78 309.776 549.696 309.694 550.661 309.398C552.854 308.726 554.393 308.285 555.601 307.949C556.282 307.76 556.857 307.606 557.387 307.464C557.806 307.352 558.196 307.251 558.586 307.145C559.818 306.81 561.345 306.55 562.891 306.293C563.023 306.271 563.154 306.249 563.286 306.227C565.006 305.941 566.722 305.649 568.057 305.239C569.02 305.411 569.981 305.593 570.94 305.783C573.466 306.284 575.983 306.837 578.493 307.402C578.659 307.439 578.826 307.477 578.992 307.514C580.856 307.938 582.565 309.911 583.722 313.082C584.88 316.254 585.396 320.341 585.168 324.534C584.94 328.727 583.987 332.733 582.53 335.768C581.072 338.801 579.231 340.596 577.396 340.843C577.233 340.865 577.069 340.886 576.905 340.908C574.435 341.237 571.97 341.572 569.512 341.875C568.454 342.005 567.398 342.129 566.342 342.244C564.946 342.396 563.552 342.532 562.16 342.644C559.716 342.842 557.28 342.967 554.85 342.98C554.233 342.983 553.617 342.979 553.001 342.968C551.189 342.933 549.379 342.872 547.57 342.787C546.289 342.727 545.002 342.655 543.729 342.574C543.413 342.554 543.098 342.532 542.782 342.51C541.954 342.838 541.119 343.159 540.303 343.454C538.547 344.08 536.91 344.587 535.635 344.815C534.086 345.092 532.957 344.54 531.99 344.068C531.325 343.743 530.736 343.456 530.14 343.502C529.82 343.526 529.383 343.59 528.856 343.667C526.704 343.98 523.049 344.511 519.715 343.502C518.236 343.054 516.517 342.171 514.876 341.329C512.53 340.124 510.342 339.001 509.237 339.346C508.902 339.451 508.559 339.522 508.209 339.566C506.537 339.777 504.734 339.361 503.108 338.985C501.233 338.552 499.593 338.173 498.661 338.873C497.547 339.709 496.596 339.368 495.184 338.864C494.204 338.513 493.001 338.086 491.367 337.914C489.48 337.716 488.145 337.13 487.011 336.632C485.414 335.931 484.212 335.404 482.421 336.373C480.432 337.451 478.353 338.136 476.716 337.796C476.522 337.756 476.322 337.728 476.115 337.711C475.525 337.66 474.887 337.689 474.229 337.718C473.054 337.77 471.818 337.824 470.69 337.438C469.76 337.119 468.991 336.304 468.311 335.583C468.099 335.358 467.895 335.143 467.698 334.954C466.957 334.964 466.216 334.979 465.476 335.004C465.356 335.135 465.23 335.28 465.098 335.43C464.438 336.183 463.626 337.105 462.621 337.565C461.03 338.293 459.634 337.838 458.161 337.354C457.014 336.977 455.821 336.584 454.454 336.725C453.521 336.821 452.459 337.154 451.407 337.485C449.843 337.975 448.3 338.457 447.227 338.151C446.825 338.036 446.479 337.524 446.137 337.014C446.136 337.011 446.134 337.008 446.133 337.005C446.11 336.971 446.086 336.937 446.063 336.902C445.382 337.004 444.702 337.108 444.021 337.215C442.089 337.518 440.158 337.841 438.226 338.176C438 338.307 437.771 338.437 437.544 338.565C436.436 339.189 435.36 339.795 434.658 340.657C433.898 341.59 431.986 342.133 429.97 342.705C428.651 343.079 427.286 343.466 426.173 343.984C425.522 344.287 424.904 343.759 424.268 343.215C423.675 342.708 423.067 342.187 422.401 342.316C422.068 342.38 421.708 342.599 421.324 342.832C420.985 343.038 420.628 343.256 420.253 343.39C419.905 343.513 419.131 343.226 418.137 342.86C417.523 342.635 416.826 342.379 416.093 342.169C414.705 342.405 413.315 342.634 411.926 342.853C411.38 342.939 410.834 343.024 410.287 343.106C409.884 343.569 409.533 344.169 409.256 344.94C409.057 345.493 408.887 346.154 408.713 346.829C408.477 347.749 408.232 348.699 407.894 349.457C407.63 350.049 407.319 350.284 407.11 350.039C407.012 349.924 406.938 349.708 406.87 349.513C406.792 349.289 406.723 349.09 406.638 349.095C406.577 349.1 406.513 349.258 406.435 349.45C406.31 349.757 406.148 350.152 405.901 350.166C404.982 350.219 403.937 350.092 402.913 349.967C401.774 349.828 400.662 349.693 399.775 349.811C398.782 349.944 397.367 349.355 395.949 348.769C394.96 348.359 393.97 347.952 393.121 347.785C392.288 347.621 391.421 347.947 390.581 348.264C389.574 348.646 388.604 349.014 387.781 348.498C387.614 348.393 387.407 347.755 387.148 346.957C386.964 346.391 386.752 345.745 386.511 345.148C385.463 345.148 384.414 345.122 383.365 345.074C383.328 345.16 383.29 345.248 383.252 345.338C383.252 345.34 383.251 345.342 383.25 345.344C382.438 347.259 381.343 349.839 379.832 348.735C379.741 348.668 379.649 348.589 379.555 348.495C379.134 348.074 378.869 347.296 378.63 346.596C378.396 345.908 378.187 345.293 377.88 345.164C377.531 345.017 377.12 345.44 376.672 345.899C376.042 346.543 375.339 347.263 374.634 346.593C374.585 346.547 374.534 346.497 374.48 346.446C373.968 345.969 373.211 345.264 372.458 343.844C370.222 343.465 367.987 343.021 365.751 342.537C362.025 341.729 358.298 340.808 354.573 339.888C352.76 339.435 351.022 337.501 349.74 334.406C348.458 331.306 347.738 327.323 347.738 323.203C347.738 319.083 348.458 315.102 349.74 312.003C351.022 308.907 352.76 306.974 354.573 306.521C357.529 305.791 360.485 305.059 363.441 304.386C363.596 304.3 363.752 304.217 363.907 304.14C365.059 303.562 366.128 302.403 367.198 301.242C367.444 300.975 367.69 300.708 367.937 300.448ZM370.749 337.26C372.355 338.211 371.867 339.577 371.36 340.533C371.276 340.691 371.191 340.838 371.116 340.969C371.107 340.986 371.098 341.003 371.089 341.02C370.963 341.24 370.915 341.455 370.862 341.707C370.735 342.308 370.563 343.117 369.157 344.724C369.159 345.228 369.141 345.73 369.098 346.231C369.079 346.451 369.057 346.671 369.033 346.89C368.796 349.063 368.314 351.218 367.672 353.368C367.029 355.518 366.227 357.664 365.352 359.816C365.018 360.635 364.674 361.456 364.324 362.278C364.33 362.347 364.336 362.418 364.342 362.49C364.457 363.758 364.603 365.298 364.016 366.369C363.967 366.462 363.912 366.552 363.852 366.637C362.861 368.037 361.948 368.994 361.162 369.776C359.758 373.275 358.382 376.624 357.308 379.973C356.93 381.149 356.59 382.326 356.299 383.504C355.948 384.925 355.67 386.35 355.482 387.785C355.309 389.106 355.19 390.433 355.12 391.767C355.378 392.442 355.691 393.102 355.997 393.727C356.066 393.868 356.134 394.008 356.202 394.145C356.718 395.195 357.172 396.133 357.254 396.863C357.451 398.625 356.419 400.422 355.647 401.745C355.52 401.961 355.401 402.165 355.295 402.354C355.373 403.52 355.465 404.689 355.56 405.86C355.385 405.906 355.203 405.952 355.017 405.999C353.986 406.255 353.378 406.627 352.994 407.123C352.514 407.745 352.386 408.562 352.222 409.586C352.094 410.388 351.943 411.318 351.584 412.376C351.353 413.059 350.432 413.258 349.681 413.42C349.46 413.467 349.253 413.512 349.083 413.564C348.501 413.745 349.017 414.148 349.627 414.626C350.417 415.246 351.366 415.993 350.276 416.529C347.199 418.039 348.31 419.307 349.58 420.323C349.743 420.453 349.908 420.579 350.067 420.7C350.479 421.013 350.851 421.296 351.038 421.549C351.647 422.368 350.722 423.181 349.57 423.702C348.657 424.116 349.22 425.419 350.053 426.49C350.368 426.895 350.289 427.34 350.192 427.865C350.093 428.408 349.975 429.035 350.267 429.789C351.005 431.698 351.346 432.699 351.619 433.505C351.696 433.734 351.766 433.948 351.841 434.162C351.89 434.303 351.936 434.45 351.978 434.602C352.137 435.176 352.25 435.817 352.364 436.463C352.537 437.441 352.712 438.431 353.054 439.226C352.176 440.928 351.179 442.601 350.187 444.271C349.674 445.128 347.651 445.642 344.475 445.69C341.298 445.737 337.25 445.319 333.131 444.504C329.011 443.689 325.11 442.531 322.194 441.26C319.281 439.99 317.611 438.715 317.472 437.709C317.199 435.682 316.928 433.658 316.79 431.668C316.691 430.237 316.66 428.823 316.747 427.438C316.807 426.476 316.923 425.527 317.113 424.595C317.436 423.003 317.854 421.438 318.348 419.893C318.399 419.734 318.452 419.575 318.504 419.416C317.757 417.886 317.097 416.384 316.951 415.393C316.861 414.776 317.208 414.369 317.623 414.04C317.759 413.933 317.902 413.834 318.039 413.739C318.422 413.473 318.761 413.239 318.773 412.936C318.78 412.774 318.759 412.547 318.735 412.273C318.634 411.153 318.458 409.263 319.756 407.822C320.333 407.182 321.357 406.505 322.334 405.857C323.731 404.93 325.03 404.06 324.788 403.459C324.6 402.994 324.631 402.541 324.777 402.104C324.962 401.551 325.331 401.024 325.674 400.533C326.261 399.694 326.77 398.959 326.157 398.388C325.425 397.707 325.838 397.304 326.45 396.701C326.874 396.283 327.392 395.769 327.69 395.003C328.034 394.12 328.715 393.564 329.293 393.089C330.107 392.423 330.718 391.915 329.89 390.901C329.574 390.515 329.304 390.132 329.103 389.766C328.719 389.064 328.59 388.423 328.885 387.936C329.09 387.599 329.111 387.182 329.131 386.749C329.157 386.176 329.184 385.575 329.64 385.083C330.015 384.678 330.871 384.414 331.63 384.177C331.866 384.103 332.092 384.032 332.291 383.961C332.327 383.601 332.357 383.24 332.378 382.879C332.255 382.804 332.119 382.725 331.978 382.643C331.271 382.231 330.402 381.728 330.004 381.192C329.372 380.343 329.902 379.732 330.462 379.08C330.898 378.573 331.351 378.043 331.281 377.372C331.276 377.327 331.269 377.282 331.26 377.236C331.178 376.809 330.926 376.32 330.675 375.837C330.262 375.041 329.851 374.263 330.203 373.782C330.335 373.601 330.86 373.483 331.381 373.366C331.385 373.365 331.388 373.365 331.391 373.364C331.426 373.356 331.461 373.348 331.496 373.34C331.22 372.052 330.892 370.788 330.53 369.541C330.406 369.426 330.285 369.311 330.165 369.196C329.579 368.637 329.008 368.096 328.171 367.714C327.263 367.301 326.779 366.378 326.261 365.385C326.091 365.06 325.918 364.727 325.725 364.405C325.535 364.06 325.326 363.726 325.084 363.421C324.8 363.064 325.344 362.766 325.905 362.46C326.429 362.174 326.967 361.88 326.858 361.52C326.804 361.34 326.596 361.137 326.375 360.92C326.179 360.729 325.973 360.527 325.851 360.321C325.738 360.131 326.048 359.739 326.445 359.238C326.689 358.929 326.966 358.578 327.199 358.206C327.132 357.942 327.065 357.678 326.999 357.414C326.808 356.642 326.627 355.87 326.459 355.098C326.011 354.856 325.425 354.631 324.666 354.434C324.121 354.292 323.467 354.158 322.8 354.021C321.891 353.834 320.951 353.64 320.208 353.41C319.627 353.23 319.403 353.048 319.656 352.954C319.773 352.91 319.992 352.886 320.189 352.863C320.415 352.837 320.616 352.814 320.614 352.769C320.611 352.737 320.456 352.692 320.267 352.637C319.966 352.55 319.578 352.436 319.573 352.304C319.555 351.813 319.72 351.268 319.884 350.735C319.976 350.437 320.066 350.142 320.123 349.862C320.179 349.586 320.203 349.323 320.162 349.086C320.069 348.551 320.713 347.847 321.356 347.145C321.805 346.655 322.252 346.166 322.454 345.732C322.653 345.308 322.366 344.825 322.085 344.357C321.76 343.815 321.447 343.291 321.924 342.904C321.94 342.891 321.957 342.878 321.976 342.865C322.088 342.786 322.733 342.731 323.539 342.663C324.111 342.614 324.765 342.558 325.37 342.483C325.417 341.935 325.491 341.389 325.587 340.845C325.503 340.818 325.417 340.791 325.329 340.763C325.327 340.762 325.325 340.762 325.323 340.761C323.34 340.134 320.63 339.264 322.359 338.544C322.799 338.362 323.586 338.294 324.294 338.234C324.99 338.174 325.613 338.121 325.756 337.973C325.919 337.805 325.519 337.551 325.084 337.275C324.473 336.886 323.79 336.45 324.493 336.145C324.538 336.125 324.588 336.104 324.638 336.082C324.64 336.081 324.643 336.08 324.646 336.078C325.146 335.857 325.887 335.529 327.338 335.274C327.828 334.148 328.385 333.032 328.985 331.924C329.4 331.158 329.836 330.395 330.284 329.636C330.916 328.564 331.573 327.499 332.232 326.438C332.786 325.556 334.808 324.879 337.958 324.578C341.112 324.278 345.111 324.374 349.204 324.848C353.296 325.322 357.209 326.14 360.216 327.123C363.219 328.106 365.044 329.171 365.397 330.108C365.814 331.233 366.235 332.357 366.635 333.476C366.778 333.875 366.918 334.272 367.055 334.67C367.132 334.754 367.207 334.839 367.276 334.923C367.792 335.545 368.892 336.184 369.995 336.821C370.248 336.968 370.502 337.114 370.749 337.26ZM330.42 276.047C330.028 274.548 330.01 272.677 330.211 270.687C330.623 266.605 331.971 262.031 332.855 259.092C332.879 259.011 332.902 258.931 332.925 258.85C333.237 257.812 333.463 256.817 333.727 255.651C333.843 255.138 333.968 254.593 334.111 253.996C334.747 251.359 335.746 247.712 338.128 241.542C338.387 240.216 338.656 238.893 338.935 237.572C339.137 236.614 339.345 235.658 339.558 234.703C340.576 230.142 341.704 225.499 342.872 221.019C344.566 214.533 346.218 208.218 347.973 201.622C349.718 195.072 351.519 188.451 353.414 181.779C355.152 175.662 356.969 169.505 358.896 163.325C358.957 163.012 359.02 162.694 359.083 162.372C359.133 162.116 359.184 161.857 359.235 161.597C360.426 155.52 362.042 148.174 363.964 143.691C364.357 142.767 364.74 141.893 365.112 141.059C367.134 136.539 368.829 133.298 370.308 130.584C371.546 127.434 372.83 124.292 374.165 121.159C376.982 114.555 380.204 107.583 383.496 101.26C383.496 101.26 383.496 101.26 383.496 101.26C383.853 100.594 384.004 100.305 384.131 100.103C384.297 99.7773 384.438 99.4525 384.54 99.2049C384.645 98.9332 384.715 98.8156 384.784 98.4784C362.4 102.584 433.674 84.0067 411.896 91.1218C412.277 91.7553 412.644 92.337 413.04 92.9281C413.407 93.4811 413.815 94.0636 414.347 94.7699C414.347 94.7699 414.347 94.7699 414.347 94.7699C415.668 96.4725 417.149 98.6094 418.246 100.35C419.406 102.174 420.452 103.955 421.439 105.693C421.554 105.894 421.666 106.094 421.779 106.294C422.639 107.821 423.454 109.312 424.246 110.764C425.141 112.406 426.007 113.997 426.864 115.526C427.72 117.054 428.566 118.518 429.415 119.897C429.81 120.539 430.209 121.167 430.601 121.761C431.03 122.411 431.441 123.012 431.96 123.73C431.96 123.73 431.96 123.73 431.96 123.73C434.68 127.481 437.423 131.127 440.235 134.745C442.51 137.083 444.767 139.233 446.868 141.217C447.071 141.409 447.273 141.6 447.474 141.789C450.18 144.343 452.597 146.619 454.419 148.674C457.45 152.092 460.36 156.104 462.947 159.863C464.385 161.953 465.721 163.965 466.916 165.753C467.462 166.571 467.979 167.343 468.462 168.053C471.603 171.506 474.78 174.931 477.98 178.336C478.05 178.411 478.12 178.485 478.19 178.56C478.267 178.91 478.34 179.266 478.414 179.629C479.334 184.157 482.571 187.993 487.715 193.984C488.848 195.303 490.075 196.726 491.391 198.285C492.679 199.81 494.052 201.463 495.51 203.274C497.41 205.633 497.774 207.377 498.072 208.802C498.16 209.221 498.243 209.614 498.357 209.986C498.749 211.259 500.032 211.847 501.547 212.539C503.321 213.348 505.413 214.299 506.78 216.666C506.929 216.923 507.07 217.198 507.2 217.491C511.445 227.003 515.935 228.894 519.318 230.323C520.311 230.742 521.212 231.123 521.987 231.643C522.694 232.118 523.378 232.746 524.026 233.471C525.686 235.328 527.109 237.822 528.072 240.017C529.079 242.311 532.666 245.323 535.846 247.486C536.025 247.607 536.203 247.726 536.379 247.842C537.627 248.666 538.928 250.121 540.458 251.838C542.042 253.615 543.87 255.673 546.146 257.595C547.255 258.533 548.262 259.387 549.183 260.171C553.035 263.448 555.373 265.487 557.326 267.192C558.016 267.794 558.656 268.357 559.299 268.916C560.464 269.928 561.75 271.114 563.095 272.38C564.098 273.324 565.133 274.313 566.173 275.309C569.085 278.096 572.037 280.929 574.442 282.95C575.037 283.733 575.63 284.518 576.222 285.304C579.915 290.208 583.549 295.162 587.166 300.129C587.718 300.887 588.269 301.645 588.82 302.403C591.253 305.757 592.394 309.996 591.92 314.23C591.445 318.465 589.413 322.334 586.213 325.052C583.011 327.77 578.867 329.148 574.623 328.957C570.38 328.763 566.397 327.002 563.48 324.111C562.821 323.457 562.161 322.802 561.502 322.148C557.177 317.86 552.849 313.576 548.557 309.261C547.674 308.373 546.792 307.483 545.912 306.591C542.518 303.153 539.153 299.69 535.838 296.184C532.244 292.383 528.708 288.532 525.257 284.605C524.698 283.97 524.141 283.333 523.584 282.696C519.586 278.122 515.635 273.506 511.72 268.855C511.648 268.77 511.577 268.684 511.505 268.599C511.039 268.045 510.573 267.489 510.108 266.934C505.501 263.265 500.973 259.565 497.949 256.699C497.89 256.643 497.832 256.587 497.774 256.532C495.273 254.139 494.009 251.885 492.926 249.952C492.181 248.622 491.522 247.444 490.604 246.475C490.111 245.954 489.416 245.264 488.578 244.43C486.925 242.785 484.715 240.582 482.405 238.029C479.936 235.301 477.354 232.174 475.216 228.914C473.38 226.114 471.528 222.619 469.772 219.277C469.469 218.699 469.168 218.126 468.87 217.561C466.706 213.459 464.72 209.83 463.083 208.362C459.85 205.465 457.063 201.37 454.618 197.716C454.588 197.672 454.559 197.628 454.529 197.584C452.175 194.067 450.134 190.981 448.267 189.801C446.036 188.39 444.95 186.515 443.348 183.727C442.466 182.19 441.427 180.377 439.958 178.201C439.578 177.637 439.168 177.048 438.725 176.434C436.241 172.988 434.85 170.262 433.673 167.946C432.019 164.683 430.787 162.231 427.571 159.622C427.004 159.161 426.441 158.689 425.889 158.209C422.964 155.667 420.325 152.882 418.702 150.218C417.822 148.773 416.642 147.24 415.423 145.645C413.808 143.532 412.129 141.312 410.967 139.035C410.941 138.984 410.915 138.932 410.89 138.881C410.89 138.881 410.89 138.881 410.89 138.881C409.851 136.862 409.377 134.672 409.147 132.985C409.125 132.841 409.104 132.698 409.083 132.556C409.023 132.153 408.964 131.765 408.902 131.394C408.054 130.025 407.244 128.676 406.453 127.351C406.373 127.217 406.292 127.082 406.212 126.948C405.962 126.776 405.692 126.6 405.413 126.416C404.301 125.682 402.997 124.82 401.769 123.676C401.452 123.381 401.141 123.068 400.839 122.734C399.884 121.677 399.148 120.623 398.532 119.569C397.683 118.117 397.063 116.664 396.424 115.246C396.393 115.177 396.362 115.109 396.331 115.041C395.698 113.696 395.277 112.686 394.369 111.419C394.369 111.419 394.369 111.419 394.369 111.419C393.78 110.629 393.118 109.787 392.339 108.833C392.284 108.766 392.231 108.702 392.169 108.626C391.552 107.881 390.832 107.021 390.169 106.237C370.351 110.804 430.562 93.3961 411.724 99.8067C411.753 100.519 411.757 101.292 411.728 102.083C411.702 102.87 411.644 103.669 411.562 104.432C411.393 105.994 411.12 107.471 410.775 108.838C410.353 110.468 409.871 111.83 409.464 112.802C409.464 112.802 409.464 112.802 409.464 112.802C409.162 113.537 408.848 114.198 408.513 114.757C408.07 115.493 407.317 115.96 406.572 116.421C406.568 116.423 406.564 116.425 406.56 116.426C406.509 116.458 406.46 116.49 406.409 116.521C404.862 121.148 403.476 125.933 402.243 130.781C402.109 131.305 401.978 131.829 401.848 132.355C401.82 132.852 401.791 133.351 401.762 133.846C401.619 136.267 401.517 138.622 401.906 140.294C402.324 142.102 401.684 146.118 401.106 150.394C401.083 150.56 401.061 150.726 401.038 150.893C400.682 153.535 400.356 156.245 400.277 158.532C400.228 159.953 399.397 161.103 398.543 162.299C397.747 163.414 396.932 164.566 396.725 165.994C396.621 166.709 396.655 167.515 396.694 168.377C396.721 168.981 396.75 169.613 396.735 170.259C396.731 170.424 396.724 170.591 396.713 170.758C396.665 171.519 396.01 173.089 395.181 175.118C394.669 176.371 394.091 177.801 393.544 179.319C393.055 182.842 392.572 186.381 392.08 189.933C391.985 190.618 391.89 191.303 391.795 191.988C392.064 192.956 392.492 193.838 393.121 194.596C393.572 195.14 394.142 195.643 394.725 196.158C395.517 196.859 396.336 197.585 396.925 198.473C397.384 199.168 397.474 199.893 397.138 200.297C396.982 200.485 396.737 200.604 396.514 200.712C396.26 200.835 396.034 200.945 396.001 201.131C395.977 201.265 396.104 201.436 396.256 201.646C396.499 201.981 396.812 202.416 396.713 202.958C396.345 204.974 395.741 207.241 395.143 209.466C394.958 210.157 394.773 210.845 394.596 211.52C394.14 213.262 393.735 214.932 393.513 216.364C393.167 218.594 391.906 221.616 390.611 224.694C389.709 226.834 388.804 228.952 388.2 230.79C388.105 231.08 388.021 231.375 387.948 231.673C387.575 233.183 387.478 234.786 387.392 236.337C387.269 238.555 387.164 240.667 386.265 242.305C386.083 242.635 385.362 242.933 384.459 243.309C383.82 243.575 383.088 243.884 382.391 244.266C382.187 245.183 381.979 246.097 381.769 247.012C381.467 248.324 381.16 249.635 380.848 250.944C380.915 251.041 380.984 251.14 381.054 251.24C381.056 251.242 381.058 251.244 381.059 251.246C382.648 253.51 384.829 256.578 382.48 259.751C381.883 260.558 381.005 260.964 380.215 261.331C379.44 261.692 378.746 262.015 378.486 262.643C378.443 262.748 378.412 262.857 378.39 262.972C378.262 263.639 378.467 264.469 378.688 265.361C379.052 266.828 379.463 268.462 378.512 269.834C378.447 269.928 378.376 270.029 378.305 270.134C377.624 271.132 376.621 272.61 374.921 273.955C374.497 275.52 374.07 277.085 373.641 278.649C372.781 281.788 371.914 284.927 371.049 288.069C370.465 290.189 369.882 292.311 369.301 294.434C367.861 299.704 366.44 304.984 365.076 310.282C364.956 310.75 364.836 311.217 364.717 311.685C363.729 315.529 361.333 319.028 357.92 321.441C354.503 323.851 350.366 324.981 346.272 324.509C342.18 324.036 338.407 321.978 335.682 318.721C332.961 315.467 331.547 311.285 331.662 307.132C331.677 306.627 331.692 306.122 331.708 305.617C331.885 299.894 332.13 294.17 332.473 288.455C332.506 287.913 332.539 287.371 332.573 286.83C332.546 286.467 332.522 286.104 332.504 285.743C332.364 283.057 331.631 280.458 330.909 277.849C330.743 277.249 330.578 276.649 330.42 276.047ZM612.552 303.489C613.124 303.089 613.798 302.834 614.528 302.689C617.067 302.182 620.277 302.988 622.236 303.484C622.282 303.494 622.328 303.505 622.375 303.516C622.973 303.667 623.545 303.738 624.215 303.82C625.81 304.015 627.969 304.278 632.373 305.89C633.686 305.948 634.998 306.028 636.306 306.133C638.259 306.29 640.207 306.479 642.15 306.696C651.336 307.721 660.425 309.374 669.466 311.24C672.357 311.837 675.241 312.455 678.124 313.081C678.301 313.084 678.481 313.087 678.663 313.09C682.179 313.148 686.527 313.206 689.197 314.11C692.443 315.21 694.679 316.172 696.515 317.002C696.6 317.04 696.683 317.078 696.766 317.115C705.685 318.972 714.616 320.628 723.573 321.675C725.611 321.913 727.654 322.12 729.694 322.291C733.143 322.578 736.598 322.76 740.02 322.816C743.178 322.868 746.35 322.836 749.549 322.724C749.936 322.635 750.32 322.543 750.7 322.447C752.26 322.105 754.574 321.78 757.293 321.9C757.433 321.906 757.572 321.913 757.712 321.921C760.423 322.532 764.939 321.508 771.545 329.721C776.285 336.684 774.152 344.745 772.826 347.317C771.755 349.687 770.636 351.188 769.634 352.407C767.205 355.245 765.111 356.682 763.039 357.943C760.922 359.19 758.861 360.059 756.853 360.721C755.377 361.203 753.717 361.64 752.149 361.944C751.391 362.087 750.74 362.176 750.194 362.237C750.194 362.237 750.194 362.237 750.194 362.237C750.11 362.236 750.031 362.237 749.957 362.237C748.928 362.743 748.781 363.046 747.686 363.82C747.422 364.027 747.154 364.248 746.875 364.485C746.702 364.395 746.521 364.303 746.334 364.21C745.098 363.604 743.98 363.681 742.808 364.236C741.751 364.737 740.649 365.624 739.288 366.83C739.025 367.063 738.75 367.31 738.464 367.568C737.392 368.536 736.156 369.674 734.637 370.981C734.353 371.225 734.071 371.414 733.791 371.56C732.846 372.055 731.934 372.059 731.157 372.062C730.86 372.064 730.582 372.067 730.328 372.099C729.459 372.206 729.349 373.142 729.213 374.253C729.138 374.848 729.058 375.491 728.841 376.095C728.535 376.951 727.955 377.719 726.742 378.107C724.943 378.689 723.506 379.416 722.496 380.079C719.928 381.739 719.665 383.923 719.454 385.689C719.369 386.402 719.291 387.047 719.077 387.565C718.575 388.782 717.267 389.674 715.822 390.256C715.276 390.477 714.709 390.653 714.16 390.785C712.573 391.165 711.079 393.707 710.252 395.936C709.938 396.779 709.157 397.548 708.238 398.456C708.084 398.607 707.927 398.762 707.767 398.923C706.937 399.756 706.044 400.721 705.311 401.956C703.203 405.509 702.023 407.449 701.084 408.981C701.04 409.054 700.996 409.125 700.953 409.196C700.679 409.642 700.423 410.057 700.171 410.475C699.374 411.795 698.28 413.329 697.176 414.885C696.184 416.283 695.184 417.7 694.383 418.994C694.117 419.424 693.872 419.84 693.658 420.237C690.941 422.453 688.175 424.637 685.401 426.824C684.578 427.473 683.754 428.122 682.931 428.772C681.079 430.23 678.172 430.559 674.777 429.629C671.381 428.696 667.793 426.596 664.738 423.714C661.684 420.832 659.381 417.369 658.276 414.015C657.172 410.663 657.375 407.707 658.777 405.752C659.402 404.883 660.028 404.013 660.657 403.145C662.872 400.087 665.117 397.043 667.441 394.063C667.638 393.81 667.835 393.558 668.033 393.307C670.568 390.086 673.201 386.943 675.989 383.943C677.003 382.852 678.037 381.78 679.095 380.73C680.946 378.893 682.835 377.089 684.759 375.318C685.884 374.283 687.021 373.258 688.169 372.244C688.489 371.961 688.811 371.68 689.133 371.399C690.293 369.359 691.492 367.352 692.62 365.666C693.239 364.74 693.837 363.912 694.394 363.228C695.689 361.637 697.162 361.026 698.425 360.503C699.293 360.145 700.058 359.832 700.602 359.272C700.894 358.971 701.272 358.539 701.727 358.022C701.84 357.893 701.957 357.759 702.08 357.621C703.118 356.405 704.216 355.008 706.091 353.283C707.101 352.357 708.262 351.422 709.552 350.613C710.244 350.18 711.038 349.749 711.89 349.324C713.128 348.706 714.492 348.097 715.849 347.503C717.007 346.996 718.159 346.501 719.217 346.018C721.148 345.135 722.768 344.297 723.496 343.429C724.174 342.619 725.009 341.876 725.945 341.201C727.747 339.897 729.93 338.846 732.071 337.982C732.794 337.688 733.502 337.421 734.197 337.161C736.52 336.29 738.414 335.653 739.791 334.618C741.13 333.591 742.453 333.188 743.716 333.085C743.716 333.085 743.716 333.085 743.716 333.085C744.051 333.105 744.311 333.185 744.466 333.318C744.574 333.474 744.937 333.573 745.352 333.591C745.716 333.61 746.131 333.565 746.528 333.435C746.722 333.372 746.906 333.325 747.069 333.3C747.682 333.211 748.093 333.326 748.108 333.876C748.109 333.912 748.108 333.95 748.105 333.991C748.645 334.44 745.409 337.283 748.675 344.074C750.317 346.596 751.699 347.186 752.123 347.763C752.535 348.208 752.558 348.43 752.473 348.632C752.366 349.072 751.799 349.282 750.7 349.321C750.203 349.336 749.726 349.309 749.274 349.236C748.311 349.078 747.208 349.111 746.056 349.143C744.532 349.184 742.923 349.222 741.455 348.815C740.244 348.479 739.255 347.647 738.383 346.91C738.111 346.68 737.85 346.46 737.597 346.267C736.635 346.259 735.672 346.254 734.713 346.256C734.555 346.383 734.389 346.525 734.215 346.671C733.343 347.403 732.268 348.299 730.952 348.723C728.868 349.393 727.072 348.88 725.182 348.33C724.347 348.087 723.495 347.837 722.59 347.679C721.9 347.559 721.179 347.492 720.412 347.522C719.203 347.57 717.819 347.845 716.445 348.114C714.402 348.514 712.386 348.901 711.016 348.525C710.503 348.384 710.082 347.851 709.668 347.319C709.666 347.316 709.664 347.313 709.662 347.31C709.634 347.274 709.606 347.238 709.578 347.203C706.192 347.42 702.802 347.661 699.412 347.911C699.113 348.025 698.811 348.137 698.511 348.247C697.048 348.784 695.625 349.302 694.666 350.104C694.585 350.172 694.496 350.236 694.398 350.298C693.236 351.033 690.924 351.388 688.495 351.753C686.771 352.012 684.99 352.276 683.52 352.692C682.66 352.935 681.903 352.352 681.126 351.751C680.401 351.19 679.657 350.614 678.793 350.68C678.361 350.713 677.883 350.897 677.372 351.094C676.923 351.267 676.448 351.451 675.958 351.548C675.503 351.638 674.53 351.278 673.284 350.817C672.514 350.533 671.639 350.21 670.718 349.929C669.29 350.008 667.862 350.082 666.435 350.148C665.362 350.198 664.29 350.245 663.218 350.286C662.665 350.707 662.17 351.27 661.755 352.01C661.457 352.541 661.188 353.183 660.912 353.839C660.537 354.731 660.148 355.653 659.656 356.374C659.272 356.938 658.855 357.141 658.608 356.875C658.492 356.75 658.414 356.527 658.343 356.326C658.261 356.095 658.188 355.889 658.08 355.886C658.001 355.885 657.907 356.036 657.792 356.219C657.608 356.512 657.369 356.89 657.052 356.878C655.873 356.836 654.549 356.603 653.253 356.373C651.812 356.117 650.404 355.868 649.265 355.894C647.99 355.923 646.235 355.19 644.48 354.459C643.256 353.949 642.03 353.44 640.965 353.186C640.134 352.988 639.251 353.096 638.375 353.265C638.15 353.308 637.925 353.355 637.703 353.402C636.393 353.679 635.134 353.947 634.132 353.348C633.929 353.227 633.719 352.57 633.454 351.748C633.266 351.165 633.05 350.499 632.792 349.88C631.463 349.773 630.137 349.641 628.813 349.487C628.76 349.57 628.705 349.653 628.649 349.739C628.648 349.741 628.647 349.743 628.646 349.745C627.395 351.682 625.687 354.332 623.726 352.517C623.227 352.056 622.953 351.254 622.706 350.533C622.463 349.824 622.246 349.19 621.869 349.031C621.44 348.851 620.888 349.232 620.286 349.646C619.442 350.227 618.5 350.877 617.661 350.141C617.603 350.091 617.542 350.036 617.478 349.98C616.869 349.456 615.967 348.68 615.123 347.193C613.857 346.926 612.593 346.646 611.33 346.357C609.806 346.008 608.283 345.645 606.761 345.271C602.123 344.133 597.492 342.9 592.859 341.693C590.605 341.101 588.533 339.043 587.088 335.861C585.645 332.675 584.945 328.648 585.168 324.534C585.391 320.42 586.528 316.495 588.354 313.494C590.179 310.496 592.54 308.698 594.908 308.39C598.768 307.895 602.629 307.417 606.483 307.008C606.688 306.936 606.894 306.867 607.099 306.804C608.623 306.331 610.081 305.272 611.543 304.213C611.879 303.969 612.215 303.725 612.552 303.489ZM610.458 318.475C612.607 317.96 613.225 319.945 613.565 321.036C613.571 321.055 613.578 321.075 613.585 321.094C613.666 321.353 613.797 321.552 613.953 321.783C614.324 322.334 614.825 323.079 615.059 325.315C615.443 325.7 615.811 326.099 616.159 326.514C616.248 326.621 616.337 326.728 616.425 326.836C620.038 331.263 622.462 336.684 624.627 342.304C624.682 342.355 624.738 342.406 624.795 342.458C625.639 343.23 626.639 344.146 627.13 345.141C627.274 345.434 627.375 345.734 627.414 346.039C627.633 347.742 627.605 349.044 627.554 350.136C629.286 354.724 631.134 359.206 633.612 363.168C634.119 363.978 634.653 364.766 635.218 365.529C635.518 365.936 635.828 366.335 636.146 366.727C636.991 367.765 637.883 368.765 638.818 369.731C639.642 370.065 640.506 370.32 641.306 370.557C642.43 370.89 643.43 371.188 644.027 371.621C645.464 372.662 646.114 374.635 646.594 376.1C646.673 376.34 646.746 376.566 646.819 376.772C647.747 377.496 648.689 378.209 649.636 378.919C649.556 379.081 649.471 379.249 649.383 379.419C648.984 380.195 648.833 380.81 648.86 381.348C648.907 382.29 649.5 382.999 650.272 383.923C650.799 384.555 651.41 385.289 651.986 386.266C652.358 386.896 651.911 387.728 651.546 388.406C651.438 388.606 651.338 388.793 651.268 388.957C651.027 389.52 651.674 389.397 652.437 389.252C653.428 389.064 654.619 388.839 654.323 390.025C653.381 393.801 655.668 393.318 657.402 392.957C657.91 392.85 658.37 392.755 658.686 392.779C659.713 392.859 659.742 394.105 659.401 395.332C659.13 396.305 660.503 396.741 661.871 396.816C662.162 396.832 662.383 396.953 662.582 397.131C662.735 397.269 662.876 397.441 663.026 397.626C663.382 398.063 663.792 398.571 664.567 398.852C666.524 399.56 667.523 399.971 668.325 400.302C668.554 400.396 668.765 400.486 668.979 400.572C669.657 400.846 670.379 401.279 671.108 401.72C671.98 402.246 672.866 402.782 673.707 403.06C674.467 404.885 675.126 406.787 675.783 408.688C676.118 409.667 675.203 411.563 673.168 414.007C671.13 416.453 668.158 419.234 664.833 421.799C661.509 424.365 658.065 426.535 655.189 427.894C652.313 429.251 650.255 429.673 649.401 429.116C647.685 427.989 645.967 426.864 644.356 425.659C642.393 424.191 640.587 422.603 639.129 420.743C638.295 419.678 637.512 418.572 636.772 417.432C636.608 417.179 636.446 416.925 636.286 416.669C636.195 416.523 636.106 416.377 636.016 416.231C634.344 415.779 632.747 415.274 631.879 414.716C631.162 414.255 631.231 413.452 631.288 412.764C631.328 412.291 631.363 411.872 631.134 411.658C631.012 411.542 630.82 411.403 630.59 411.236C629.648 410.552 628.05 409.392 627.758 407.406C627.629 406.524 627.761 405.274 627.886 404.08C628.065 402.372 628.229 400.779 627.6 400.544C627.013 400.325 626.646 399.877 626.388 399.342C626.161 398.87 626.017 398.33 625.883 397.821C625.609 396.787 625.368 395.883 624.517 395.941C623.501 396.011 623.456 395.412 623.387 394.521C623.34 393.903 623.279 393.146 622.877 392.373C622.414 391.481 622.432 390.571 622.447 389.797C622.468 388.707 622.483 387.887 621.141 387.769C619.649 387.639 618.434 387.227 618.159 386.348C618.034 385.948 617.725 385.625 617.402 385.29C616.974 384.847 616.525 384.38 616.453 383.678C616.394 383.101 616.773 382.275 617.109 381.543C617.213 381.315 617.313 381.097 617.394 380.898C617.249 380.73 617.104 380.563 616.956 380.397C616.846 380.273 616.734 380.15 616.622 380.028C616.481 380.063 616.326 380.103 616.167 380.145C615.365 380.352 614.382 380.606 613.693 380.49C612.604 380.306 612.496 379.453 612.384 378.551C612.297 377.849 612.207 377.117 611.645 376.653C611.262 376.337 610.652 376.118 610.049 375.902C609.152 375.581 608.267 375.263 608.149 374.636C608.105 374.4 608.386 373.936 608.666 373.475C608.668 373.472 608.67 373.47 608.672 373.467C608.691 373.436 608.71 373.405 608.728 373.374C607.561 372.566 606.362 371.784 605.145 371.019C604.968 371.011 604.792 371.001 604.618 370.991C603.768 370.941 602.943 370.893 602.045 371.158C601.072 371.445 600.019 371.021 598.908 370.575C598.326 370.34 597.727 370.1 597.116 369.953C596.965 369.917 596.813 369.886 596.661 369.863C596.211 369.794 596.412 369.21 596.62 368.607C596.814 368.046 597.013 367.469 596.692 367.283C596.531 367.191 596.243 367.185 595.935 367.18C595.664 367.175 595.378 367.171 595.15 367.106C594.939 367.045 594.902 366.55 594.853 365.918C594.822 365.527 594.786 365.084 594.704 364.656C593.806 364.089 592.918 363.514 592.047 362.925C591.557 363.059 590.979 363.302 590.294 363.684C589.802 363.958 589.238 364.313 588.66 364.675C587.875 365.168 587.063 365.678 586.368 366.028C585.825 366.301 585.54 366.327 585.66 366.086C585.715 365.974 585.856 365.806 585.984 365.654C586.13 365.479 586.26 365.324 586.227 365.294C586.203 365.273 586.06 365.348 585.887 365.44C585.61 365.586 585.252 365.774 585.159 365.685C584.812 365.35 584.561 364.851 584.316 364.362C584.043 363.818 583.776 363.287 583.389 363.008C582.956 362.696 582.936 361.753 582.912 360.811C582.896 360.153 582.877 359.496 582.721 359.049C582.569 358.611 582.029 358.474 581.505 358.343C580.875 358.185 580.269 358.034 580.389 357.374C580.408 357.268 580.678 356.934 581.051 356.492C581.147 356.378 581.25 356.257 581.358 356.131C581.729 355.694 582.154 355.194 582.53 354.715C582.179 354.296 581.847 353.86 581.533 353.41C581.454 353.451 581.374 353.492 581.292 353.535C581.291 353.536 581.289 353.537 581.287 353.538C579.443 354.499 576.923 355.816 577.636 354.09C577.817 353.651 578.324 353.045 578.779 352.499C579.227 351.963 579.627 351.483 579.623 351.278C579.618 351.044 579.157 351.152 578.655 351.269C577.951 351.432 577.164 351.616 577.44 350.902C577.459 350.854 577.48 350.801 577.5 350.747C577.693 350.235 577.979 349.479 578.811 348.264C578.349 347.127 577.936 345.949 577.554 344.745C576.916 342.738 576.362 340.656 575.805 338.576C575.538 337.56 576.426 335.617 578.351 333.103C580.28 330.586 583.072 327.719 586.213 325.052C589.353 322.385 592.632 320.097 595.432 318.607C598.229 317.119 600.297 316.568 601.261 317.005C602.827 317.723 604.394 318.442 605.916 319.2C606.034 319.207 606.15 319.216 606.263 319.229C607.096 319.321 608.347 319.005 609.599 318.688C609.887 318.615 610.175 318.542 610.458 318.475ZM671.095 450.197C671.567 452.443 669.405 453.827 668.047 454.627C667.977 454.668 667.909 454.708 667.844 454.746C667.82 454.761 667.797 454.776 667.773 454.791C667.457 454.976 667.211 455.2 666.925 455.464C666.242 456.093 665.319 456.943 662.615 458.001C662.131 458.59 661.63 459.165 661.111 459.723C658.411 462.626 655.426 465.276 652.262 467.769C648.858 470.452 645.247 472.953 641.563 475.39C641.499 475.473 641.433 475.558 641.367 475.644C640.092 477.3 638.505 479.354 636.866 480.041C636.499 480.194 636.148 480.334 635.811 480.463C634.234 481.063 632.968 481.406 631.876 481.679C626.998 484.852 622.192 488.091 617.748 491.678C617.008 492.275 616.278 492.881 615.56 493.499C613.981 494.856 612.458 496.267 611.001 497.745C609.659 499.106 608.357 500.509 607.089 501.947C606.606 503.04 606.216 504.151 605.853 505.181C605.49 506.207 605.153 507.153 604.777 507.922C604.622 508.237 604.461 508.522 604.289 508.771C602.867 510.83 600.358 512.261 598.492 513.313C598.187 513.485 597.899 513.648 597.635 513.802C596.638 515.143 595.64 516.504 594.647 517.861C594.454 517.819 594.256 517.772 594.053 517.723C591.524 517.112 590.298 518.32 588.363 520.196C588.262 520.293 588.16 520.392 588.055 520.493C587.29 521.23 586.406 522.057 585.293 522.911C584.478 523.536 583.502 523.262 582.705 523.039C582.47 522.974 582.251 522.913 582.056 522.88C581.388 522.767 581.471 523.488 581.569 524.339C581.662 525.143 581.768 526.065 581.268 526.511C581.081 526.678 580.81 526.778 580.421 526.782C575.869 526.82 576.226 529.356 576.496 531.274C576.575 531.837 576.645 532.346 576.583 532.724C576.499 533.236 576.182 533.606 575.733 533.862C575.108 534.217 574.229 534.351 573.37 534.336C572.2 534.316 571.526 536.056 571.298 537.678C571.212 538.291 570.743 538.744 570.189 539.276C569.895 539.559 569.576 539.864 569.278 540.229C568.997 540.573 568.735 540.971 568.532 541.453C567.472 543.956 566.873 545.249 566.391 546.287C566.253 546.583 566.123 546.857 565.997 547.134C565.739 547.701 565.396 548.31 565.021 548.937C564.817 549.278 564.604 549.624 564.39 549.971C563.663 551.152 562.925 552.35 562.508 553.416C561.311 554.168 560.092 554.895 558.861 555.61C557.717 556.276 556.563 556.932 555.409 557.588C554.178 558.285 551.927 557.813 549.094 556.214C546.259 554.613 543.088 552.031 540.215 548.969C537.341 545.907 534.968 542.578 533.551 539.645C532.137 536.715 531.81 534.435 532.585 533.249C533.315 532.139 534.045 531.029 534.784 529.929C535.632 528.667 536.492 527.419 537.379 526.199C538.301 524.93 539.251 523.693 540.246 522.502C541.434 521.082 542.684 519.729 544.024 518.473C544.888 517.664 545.768 516.873 546.664 516.099C547.557 515.328 548.465 514.573 549.386 513.832C549.576 513.679 549.768 513.528 549.959 513.376C550.604 511.537 551.295 509.751 551.984 508.529C552.086 508.349 552.187 508.181 552.289 508.027C552.939 507.037 553.929 506.866 554.777 506.718C555.36 506.617 555.876 506.527 556.167 506.191C556.324 506.01 556.518 505.741 556.751 505.417C557.278 504.686 558.008 503.672 558.979 502.749C559.763 502.004 560.703 501.318 561.82 500.888C562.928 500.462 564.463 500.232 565.929 500.012C566.822 499.877 567.689 499.747 568.418 499.578C569.395 499.357 570.12 499.066 570.323 498.603C570.941 497.185 572.467 496.441 573.813 495.782C575.096 495.154 576.217 494.6 576.219 493.626C576.22 492.461 576.952 492.228 578.045 491.87C578.802 491.622 579.731 491.315 580.706 490.601C581.832 489.777 582.939 489.509 583.882 489.279C584.586 489.107 585.198 488.957 585.655 488.611C586.058 488.307 586.34 487.85 586.457 487.093C586.734 485.299 587.326 483.737 588.415 483.127C588.911 482.849 589.326 482.378 589.758 481.888C590.328 481.239 590.928 480.556 591.786 480.238C592.493 479.976 593.47 480.146 594.335 480.295C594.605 480.342 594.864 480.386 595.1 480.415C595.475 480.018 595.847 479.618 596.212 479.211C596.18 479.056 596.141 478.888 596.102 478.714C595.905 477.84 595.664 476.767 595.851 475.917C596.148 474.572 597.19 474.155 598.293 473.714C598.512 473.626 598.734 473.538 598.953 473.441C599.589 473.158 600.199 472.803 600.645 472.191C601.053 471.63 601.357 470.836 601.658 470.048C602.104 468.878 602.544 467.724 603.312 467.366C603.6 467.232 604.146 467.402 604.688 467.573C604.691 467.574 604.694 467.575 604.697 467.577C604.734 467.588 604.77 467.599 604.807 467.611C605.859 465.949 606.879 464.258 607.879 462.548C607.899 462.337 607.921 462.125 607.944 461.916C608.054 460.893 608.161 459.899 607.892 458.931C607.601 457.882 608.176 456.486 608.781 455.013C608.789 454.993 608.797 454.972 608.806 454.952C609.194 454.006 609.589 453.031 609.772 452.098C609.881 451.541 610.577 451.571 611.295 451.602C611.964 451.631 612.652 451.66 612.895 451.214C613.016 450.99 613.039 450.647 613.063 450.28C613.084 449.957 613.106 449.615 613.198 449.322C613.284 449.05 613.885 448.83 614.654 448.544C615.129 448.367 615.668 448.166 616.192 447.914C616.93 446.644 617.679 445.383 618.443 444.136C618.309 443.602 618.047 443.002 617.624 442.326C617.32 441.841 616.923 441.299 616.517 440.743C615.964 439.988 615.394 439.207 615.01 438.507C614.711 437.961 614.695 437.631 614.98 437.686C615.113 437.712 615.309 437.819 615.486 437.915C615.689 438.026 615.87 438.124 615.908 438.074C615.936 438.038 615.852 437.896 615.751 437.723C615.59 437.446 615.383 437.088 615.497 436.945C615.923 436.412 616.543 435.932 617.152 435.463C617.233 435.4 617.314 435.338 617.394 435.275C617.983 434.817 618.532 434.362 618.851 433.868C619.255 433.239 620.401 432.872 621.548 432.501C622.348 432.243 623.147 431.981 623.699 431.633C624.24 431.292 624.441 430.598 624.634 429.925C624.865 429.117 625.086 428.338 625.881 428.241C626.043 428.221 626.614 428.543 627.33 428.945C627.838 429.23 628.419 429.556 628.977 429.83C629.509 429.259 630.06 428.705 630.627 428.166C630.583 428.087 630.538 428.007 630.491 427.924C630.49 427.923 630.489 427.921 630.487 427.919C629.438 426.067 628.004 423.532 630.058 423.757C630.58 423.814 631.284 424.199 631.917 424.546C632.54 424.887 633.096 425.191 633.347 425.112C633.631 425.022 633.531 424.51 633.423 423.952C633.307 423.35 633.18 422.693 633.514 422.455C633.614 422.383 633.756 422.349 633.952 422.366C634.01 422.37 634.073 422.376 634.138 422.381C634.747 422.427 635.649 422.494 637.071 423.051C638.486 422.089 639.95 421.17 641.445 420.28C643.937 418.797 646.515 417.391 649.095 415.989C650.354 415.31 652.655 415.687 655.564 417.113C658.477 418.542 661.742 420.886 664.738 423.714C667.735 426.542 670.262 429.663 671.868 432.478C673.47 435.291 673.999 437.55 673.412 438.836C672.45 440.927 671.489 443.021 670.488 445.079C670.472 445.221 670.454 445.361 670.433 445.498C670.272 446.515 670.579 447.884 670.888 449.255C670.959 449.57 671.03 449.886 671.095 450.197ZM711.53 445.966C711.943 446.201 712.358 446.484 712.772 446.807C716.594 449.783 720.373 456.167 722.526 459.848C722.571 459.922 722.616 459.996 722.66 460.07C723.228 461.039 723.822 461.913 724.52 462.936C725.232 463.981 726.051 465.185 727.051 466.81C728.387 468.98 730.049 471.901 732.2 476.206C733.632 478.16 735.044 480.129 736.43 482.116C737.702 483.94 738.962 485.773 740.208 487.616C744.802 494.405 749.224 501.316 753.5 508.322C757.762 515.306 761.939 522.48 765.918 529.6C768.714 534.619 771.497 539.588 774.347 544.716C775.148 546.158 775.95 547.606 776.751 549.06C776.94 549.33 777.132 549.604 777.326 549.882C779.423 552.883 781.808 556.324 783.876 559.638C785.509 562.254 786.943 564.789 787.887 566.926C789.477 570.526 790.674 573.529 791.638 576.123C792.323 577.968 792.89 579.606 793.397 581.118C795.276 585.087 797.097 589.112 798.835 593.197C801.264 598.903 803.532 604.727 805.575 610.66C807.583 616.489 809.513 622.875 810.973 628.761C810.973 628.761 810.973 628.761 810.973 628.761C811.674 631.506 811.836 633.199 812.054 634.976C812.25 636.747 812.379 638.44 812.462 640.185C812.544 641.919 812.576 643.678 812.535 645.519C812.522 646.069 812.503 646.623 812.474 647.193C812.407 648.532 812.296 649.921 812.086 651.444C811.745 653.63 811.409 655.979 809.893 659.438C809.546 662.006 801.913 670.681 794.559 669.736C794.559 669.736 794.559 669.736 794.559 669.736C791.78 669.735 789.106 669.097 787.501 668.634C785.726 668.121 784.239 667.567 782.847 667.01C782.609 666.915 782.37 666.817 782.139 666.721C781.021 666.257 779.967 665.787 778.953 665.318C777.728 664.752 776.559 664.185 775.432 663.63C774.305 663.075 773.216 662.529 772.19 662.02C771.137 661.498 770.252 661.067 769.484 660.73C769.484 660.73 769.484 660.73 769.484 660.73C768.205 660.164 766.928 659.609 765.658 659.067C762.435 658.084 759.326 657.277 756.408 656.535C755.351 656.266 754.323 656.008 753.329 655.755C750.477 655.03 747.908 654.352 745.745 653.614C742.971 652.668 740.112 651.504 737.314 650.27C733.025 648.377 728.876 646.319 725.431 644.622C724.501 644.163 723.622 643.731 722.806 643.336C722.486 643.231 722.166 643.126 721.846 643.021C717.378 641.559 712.885 640.116 708.376 638.671C708.12 638.396 707.864 638.113 707.604 637.825C707.112 637.279 706.58 636.773 706.004 636.296C702.782 633.622 698.19 631.878 691.523 629.286C691.127 629.132 690.725 628.975 690.315 628.815C687.172 627.585 683.61 626.162 679.512 624.337C676.891 623.169 675.653 621.912 674.728 620.828C674.604 620.682 674.485 620.539 674.37 620.399C674.085 620.055 673.817 619.732 673.531 619.442C672.55 618.449 671.074 618.463 669.327 618.478C667.063 618.497 664.338 618.517 661.668 616.341C657.475 612.921 654.122 611.212 651.333 610.369C648.47 609.503 646.204 609.55 644.255 609.588C643.126 609.611 642.103 609.629 641.134 609.467C637.989 608.941 634.231 606.508 631.58 604.241C630.594 603.398 628.935 602.652 627.029 602.027C624.868 601.32 622.391 600.769 620.219 600.417C618.673 600.167 616.789 599.354 614.573 598.392C612.279 597.396 609.627 596.24 606.62 595.39C605.099 594.959 603.721 594.567 602.465 594.206C597.443 592.764 594.357 591.837 591.776 591.06C590.856 590.782 590 590.522 589.143 590.265C586.435 589.455 583.138 588.306 579.801 587.137C579.145 586.907 578.488 586.677 577.833 586.448C574.502 585.284 571.238 584.163 568.59 583.413C563.872 580.909 559.181 578.35 554.503 575.765C551.776 574.259 549.054 572.744 546.334 571.226C542.542 569.105 539.565 565.646 538.103 561.54C536.642 557.432 536.803 553.034 538.581 549.23C540.358 545.425 543.623 542.479 547.691 540.945C551.759 539.414 556.29 539.438 560.329 540.936C563.224 542.012 566.12 543.084 569.015 544.159C574.253 546.104 579.487 548.055 584.7 550.045C587.417 551.082 590.128 552.13 592.832 553.193C599.942 555.989 607.001 558.89 613.974 561.983C614.742 562.324 615.51 562.666 616.277 563.008C622.236 565.668 628.17 568.382 634.087 571.137C634.775 571.457 635.462 571.779 636.149 572.1C637.319 572.393 638.487 572.688 639.641 572.983C644.486 574.225 649.067 575.476 652.4 576.614C655.808 577.777 657.996 579.313 659.873 580.627C661.008 581.422 662.029 582.136 663.135 582.636C663.287 582.705 663.441 582.769 663.597 582.83C664.289 583.097 665.247 583.435 666.401 583.842C671.126 585.508 679.106 588.299 685.871 592.211C686.078 592.33 686.287 592.453 686.498 592.579C689.316 594.263 692.333 596.382 695.287 598.416C697.235 599.758 699.137 601.055 700.873 602.148C703.186 603.604 705.203 604.697 706.633 605.046C709.926 605.846 713.345 607.359 716.581 608.938C717.668 609.468 718.734 610.006 719.766 610.528C723.684 612.504 727.123 614.237 729.41 614.372C730.602 614.443 731.647 614.696 732.686 615.099C734.03 615.62 735.365 616.388 737.004 617.334C739.02 618.498 741.495 619.926 745.01 621.507C746.186 622.036 747.248 622.557 748.22 623.067C750.602 624.315 752.438 625.489 754.067 626.537C757.266 628.598 759.666 630.16 763.88 630.933C763.919 630.94 763.958 630.947 763.997 630.954C768.753 631.804 773.594 633.182 777.037 635.115C778.087 635.705 779.272 636.264 780.517 636.825C780.517 636.825 780.517 636.825 780.517 636.825C781.207 637.136 782.056 637.54 782.699 637.848C783.204 638.09 783.688 638.326 784.163 638.56C785.238 639.091 786.256 639.612 787.209 640.141C788.095 640.633 788.924 641.132 789.668 641.65C789.748 641.705 789.826 641.761 789.902 641.817C790.816 642.49 791.516 643.228 792.103 643.934C792.429 644.327 792.721 644.711 792.987 645.065C793.233 645.391 793.458 645.691 793.664 645.95C793.741 645.972 793.815 645.993 793.886 646.012C794.653 646.211 794.623 646.157 794.559 646.167C794.559 646.167 794.559 646.167 794.559 646.167C794.385 646.149 793.351 646.042 791.85 646.661C790.789 646.958 789.99 647.358 789.436 647.645C788.157 648.353 787.475 648.965 787.016 649.157C786.409 649.441 786.12 649.159 785.933 648.567C785.903 648.465 785.877 648.355 785.854 648.243C785.708 647.486 785.7 646.535 785.751 645.533C785.804 644.49 785.925 643.373 786.032 642.213C786.06 641.91 786.087 641.608 786.111 641.303C786.178 640.457 786.225 639.575 786.22 638.706C786.23 637.674 786.074 636.355 786.003 636.16C786.003 636.16 786.003 636.16 786.003 636.16C785.896 635.807 785.78 635.453 785.654 635.098C784.956 633.136 783.931 631.071 782.886 629.097C781.447 626.357 779.905 623.624 779.204 621.456C779.145 621.274 779.093 621.096 779.046 620.922C778.82 620.073 779 619.185 779.174 618.296C779.176 618.292 779.177 618.288 779.179 618.284C779.19 618.223 779.201 618.163 779.213 618.103C777.195 614.169 775.009 610.302 772.688 606.49C772.003 605.365 771.307 604.245 770.599 603.128C770.248 602.747 769.896 602.361 769.546 601.98C767.838 600.115 766.144 598.325 764.628 597.398C763.728 596.846 762.55 595.577 761.2 593.957C760.088 592.624 758.859 591.052 757.582 589.447C755.734 587.12 753.784 584.72 752.005 582.87C751.406 582.247 751.051 581.499 750.797 580.687C750.609 580.089 750.475 579.457 750.339 578.815C750.04 577.407 749.725 575.954 748.789 574.745C748.32 574.14 747.687 573.565 747.01 572.953C746.414 572.414 745.783 571.844 745.199 571.194C744.657 570.591 743.921 568.939 742.962 566.812C742.796 566.443 742.623 566.06 742.443 565.665C741.982 564.653 741.478 563.569 740.929 562.458C738.184 558.878 735.387 555.191 732.668 551.527C732.549 551.455 732.43 551.386 732.309 551.321C731.52 550.898 730.693 550.617 729.829 550.514C729.114 550.429 728.347 550.46 727.562 550.491C726.493 550.534 725.388 550.578 724.33 550.342C723.503 550.157 722.916 549.689 722.861 549.155C722.835 548.906 722.923 548.645 723.001 548.408C723.092 548.137 723.172 547.895 723.061 547.736C722.981 547.622 722.768 547.587 722.51 547.543C722.097 547.472 721.563 547.378 721.242 546.915C720.05 545.192 718.842 543.127 717.648 541.1C716.323 538.847 715.019 536.649 713.79 535.025C713.77 534.999 713.75 534.972 713.731 534.946C712.375 533.119 711.072 530.141 709.751 527.161C708.816 525.052 707.872 522.942 706.907 521.236C705.963 519.564 704.567 518.106 703.21 516.697C702.523 515.984 701.846 515.282 701.243 514.571C700.419 513.598 699.735 512.607 699.356 511.539C699.224 511.164 699.476 510.41 699.79 509.464C700.012 508.794 700.264 508.024 700.436 507.228C699.054 505.248 697.689 503.255 696.338 501.252C696.219 501.232 696.096 501.211 695.972 501.191C695.97 501.191 695.967 501.191 695.965 501.191C693.161 500.737 689.335 500.132 688.479 496.072C688.347 495.448 688.397 494.855 688.512 494.295C688.587 493.928 688.691 493.575 688.79 493.237C689.036 492.399 689.256 491.648 688.95 490.998C688.602 490.26 687.707 489.735 686.732 489.163C685.363 488.361 683.833 487.468 683.426 485.759C683.398 485.642 683.369 485.516 683.337 485.385C683.034 484.151 682.583 482.324 682.711 480.084C681.119 477.513 679.537 474.933 677.963 472.345C676.845 470.508 675.731 468.667 674.619 466.824C671.577 461.782 668.552 456.72 665.515 451.658C664.094 449.289 662.67 446.92 661.241 444.553C659.065 440.939 658.156 436.57 658.798 432.325C659.444 428.079 661.571 424.317 664.834 421.8C668.095 419.283 672.276 418.182 676.565 418.678C680.851 419.176 684.872 421.249 687.812 424.371C689.735 426.418 691.656 428.471 693.57 430.53C696.418 433.595 699.252 436.675 702.061 439.778C702.347 440.02 702.632 440.265 702.912 440.511C704.994 442.347 707.425 443.685 709.857 445.031C710.416 445.34 710.976 445.65 711.53 445.966ZM516.096 602.962C514.923 605.455 512.383 608.26 509.62 610.863C506.935 613.392 504.039 615.73 501.977 617.397C501.901 617.46 501.825 617.523 501.748 617.585C500.756 618.388 499.866 619.2 498.827 620.154C497.457 621.409 495.822 622.909 493.335 624.954C491.32 626.611 488.744 628.627 485.298 631.165C483.344 633.112 481.378 635.046 479.398 636.963C478.65 637.686 477.9 638.409 477.15 639.131C471.982 644.102 466.798 648.987 461.539 653.876C457.762 657.383 454.321 660.678 450.621 664.318C446.978 667.899 443.326 671.572 439.645 675.31C435.963 679.048 432.251 682.851 428.487 686.688C424.722 690.524 420.905 694.395 417.01 698.266C416.846 698.43 416.681 698.594 416.515 698.758C416.267 699.054 416.013 699.355 415.757 699.66C412.8 703.173 409.35 707.2 405.995 710.708C403.732 713.076 401.535 715.186 399.574 716.789C397.152 718.771 395.014 720.423 393.125 721.813C390.133 724.023 387.407 725.892 385.113 727.375C383.626 728.568 382.133 729.741 380.638 730.895C376.64 733.979 372.621 736.932 368.612 739.802C364.604 742.672 360.606 745.46 356.649 748.213C352.691 750.966 348.772 753.685 344.921 756.415C341.07 759.146 337.289 761.887 333.606 764.682C331.349 766.393 329.1 768.152 326.963 769.883C325.617 770.974 324.266 772.096 322.904 773.26C321.786 774.19 319.877 775.904 316.725 777.465C315.377 779.102 302.231 781.557 296.92 773.309C293.061 767.582 293.569 765.211 293.089 762.926C292.868 760.738 292.872 759.041 292.891 757.444C292.9 756.873 292.915 756.321 292.933 755.788C292.966 754.844 293.008 753.956 293.047 753.119C293.111 751.753 293.159 750.774 293.157 749.913C293.13 745.145 293.095 740.333 293.054 735.538C292.738 732.326 292.379 729.237 292.034 726.312C291.946 725.566 291.859 724.83 291.773 724.106C291.183 719.101 290.682 714.639 290.572 710.959C290.492 708.267 290.531 705.467 290.648 702.665C290.917 696.24 291.603 689.809 292.178 684.633C292.313 683.419 292.442 682.272 292.557 681.212C292.553 680.507 292.549 679.803 292.545 679.099C292.518 673.874 292.5 668.647 292.501 663.419C292.685 663.032 292.875 662.643 293.071 662.247C294.045 660.278 294.678 658.11 295.123 655.596C295.795 651.805 296.034 647.226 296.377 641.362C296.539 638.576 296.726 635.5 296.996 632.082C297.137 630.289 297.301 628.403 297.497 626.415C297.865 622.692 298.875 620.839 299.698 619.325C299.94 618.88 300.167 618.462 300.357 618.037C301.008 616.58 300.549 614.957 300.009 613.04C299.636 611.714 299.224 610.246 299.115 608.598C299.115 608.598 299.115 608.598 299.115 608.598C299.021 607.158 299.158 605.578 299.758 603.829C302.428 596.038 302.701 590.996 302.228 587.244C301.976 585.237 301.511 583.604 301.094 582.136C300.743 580.901 300.428 579.782 300.301 578.654C299.89 574.997 301.135 569.962 302.545 566.211C302.609 566.042 302.668 565.862 302.724 565.673C303.64 562.537 303.452 556.777 302.948 552.307C302.745 550.515 302.985 548.145 303.275 545.356C303.317 544.953 303.359 544.541 303.402 544.121C303.665 541.532 303.92 538.626 303.884 535.515C303.817 529.776 303.799 525.729 303.796 522.548C303.794 520.663 303.797 519.081 303.801 517.631C303.804 516.521 303.81 515.486 303.811 514.453C303.814 511.186 303.972 507.15 304.136 503.067C304.164 502.376 304.191 501.684 304.219 500.994C304.384 496.802 304.526 492.687 304.478 489.429C305.035 486.166 305.606 482.907 306.187 479.649C306.568 477.485 306.995 475.173 307.429 473C307.867 470.799 308.326 468.611 308.802 466.438C309.279 464.264 309.772 462.104 310.279 459.957C310.297 459.88 310.315 459.804 310.333 459.727C310.838 457.594 311.621 455.557 312.637 453.696C313.845 451.481 315.383 449.517 317.176 447.925C317.452 447.68 317.733 447.444 318.02 447.218C321.751 444.278 326.117 443.116 330.236 443.931C334.356 444.746 337.939 447.486 340.329 451.506C340.514 451.816 340.689 452.132 340.857 452.452C341.946 454.539 342.683 456.842 343.057 459.223C343.372 461.224 343.431 463.28 343.228 465.317C343.22 465.39 343.213 465.463 343.206 465.536C343.001 467.585 342.811 469.628 342.637 471.664C342.463 473.7 342.305 475.729 342.165 477.75C342.022 479.796 341.91 481.729 341.799 483.79C341.598 487.433 341.386 491.073 341.157 494.709C340.937 498.199 340.703 501.687 340.448 505.17C339.928 512.283 339.325 519.38 338.597 526.456C338.429 528.092 338.254 529.727 338.072 531.361C337.467 536.794 336.831 542.22 336.172 547.641C335.799 550.708 335.419 553.774 335.033 556.838C334.923 557.711 334.812 558.584 334.701 559.457C334.829 562.681 334.944 565.898 335.02 568.92C335.115 572.689 335.149 576.155 335.065 578.954C334.941 583.117 334.109 586.08 333.4 588.62C333.262 589.117 333.128 589.598 333.004 590.069C332.695 591.252 332.455 592.369 332.385 593.511C332.332 594.367 332.291 595.541 332.243 596.955C332.119 600.561 331.958 605.676 331.448 611.219C331.448 611.219 331.448 611.219 331.448 611.219C331.139 614.574 330.706 618.039 330.075 621.356C329.332 625.256 328.122 629.79 326.985 634.117C326.984 634.119 326.983 634.122 326.983 634.124C325.354 640.317 323.875 646.111 324.045 649.091C324.192 651.666 324.063 654.409 323.809 657.158C323.548 659.992 323.155 662.832 322.792 665.496C322.109 670.499 321.537 674.882 322.13 677.413C322.365 678.417 322.473 679.366 322.489 680.325C322.522 682.253 322.18 684.219 321.749 686.737C321.301 689.352 320.759 692.564 320.45 696.945C320.274 699.441 320.02 701.575 319.739 703.46C319.451 705.395 319.133 707.07 318.843 708.607C318.04 712.879 317.444 716.102 318.33 720.932C318.681 722.842 318.986 724.781 319.215 726.684C319.63 730.124 319.802 733.447 319.561 736.277C319.389 738.277 319.412 740.561 319.442 742.943C319.471 745.232 319.505 747.613 319.375 749.913C319.329 750.983 319.202 752.227 319.057 753.07C318.978 753.549 318.884 753.981 318.779 754.392C318.425 755.77 317.953 756.863 317.5 757.8C317.331 758.152 317.164 758.474 317.006 758.779C316.786 759.197 316.585 759.579 316.417 759.906C316.43 760.086 316.446 760.252 316.463 760.389C316.365 760.858 317.129 761.39 315.5 758.797C314.896 757.984 313.587 756.791 311.911 756.187C310.654 755.567 309.232 755.334 308.321 755.284C306.942 755.218 306.261 755.319 305.857 755.25C305.151 755.089 304.893 754.89 305.616 753.811C305.857 753.475 306.115 753.138 306.392 752.799C309.268 749.299 312.66 747.049 316.118 744.845C316.412 744.657 316.709 744.468 317.006 744.279C319.445 742.724 321.964 741.094 324.519 738.922C325.795 737.838 327.129 736.586 328.475 735.287C329.19 734.597 329.907 733.895 330.623 733.195C333.687 730.2 336.688 727.274 339.146 725.751C339.156 725.744 339.166 725.738 339.176 725.732C340.09 725.176 341.123 725.013 342.146 724.854C342.151 724.854 342.156 724.854 342.161 724.854C342.231 724.843 342.301 724.831 342.371 724.82C345.149 722.388 347.888 719.948 350.57 717.489C352.972 715.288 355.329 713.07 357.631 710.83C357.993 710.349 358.359 709.865 358.72 709.386C359.207 708.74 359.685 708.098 360.138 707.469C361.328 705.817 362.34 704.249 362.873 702.92C363.512 701.37 365.361 699.02 367.763 696.034C368.506 695.112 369.272 694.162 370.03 693.209C372.121 690.572 374.25 687.794 375.855 685.33C376.227 684.758 376.685 684.286 377.198 683.87C377.972 683.242 378.872 682.743 379.787 682.231C381.208 681.437 382.669 680.608 383.747 679.223C384.287 678.529 384.759 677.679 385.261 676.768C385.703 675.966 386.17 675.117 386.728 674.288C386.983 673.91 387.492 673.395 388.183 672.761C388.901 672.103 389.815 671.318 390.845 670.428C392.095 669.348 393.516 668.112 394.966 666.769C396.377 664.929 397.793 663.082 399.219 661.23C400.994 658.923 402.783 656.608 404.594 654.29C404.973 653.155 405.155 652.036 405.078 650.955C405.024 650.179 404.835 649.392 404.645 648.586C404.387 647.488 404.122 646.351 404.174 645.147C404.191 644.764 404.267 644.403 404.39 644.092C404.569 643.639 404.847 643.29 405.185 643.129C405.45 643.002 405.75 642.99 406.022 642.979C406.333 642.965 406.611 642.953 406.763 642.773C406.873 642.643 406.873 642.405 406.875 642.114C406.879 641.65 406.886 641.048 407.337 640.523C409.017 638.569 411.087 636.468 413.147 634.414C414.038 633.526 414.926 632.646 415.778 631.789C417.117 630.443 418.367 629.154 419.392 627.977C421.229 625.859 424.676 623.161 427.926 620.786C428.149 620.622 428.372 620.459 428.594 620.297C430.578 618.864 432.534 617.434 434.134 616.081C435.873 614.611 437.342 612.724 438.757 610.903C440.459 608.715 442.096 606.612 444.066 605.421C444.148 605.372 444.25 605.335 444.369 605.309C444.825 605.209 445.533 605.264 446.375 605.329C447.129 605.387 447.993 605.451 448.878 605.424C450.927 603.44 452.997 601.478 455.084 599.535C455.096 599.403 455.11 599.267 455.122 599.131C455.122 599.128 455.121 599.125 455.121 599.123C455.391 596.118 455.765 592.032 459.843 590.044C459.953 589.99 460.067 589.938 460.183 589.887C461.301 589.398 462.359 589.461 463.312 589.518C464.247 589.573 465.084 589.624 465.776 589.14C466.561 588.592 467.076 587.514 467.639 586.34C468.431 584.692 469.315 582.852 471.165 582.013C471.292 581.956 471.428 581.895 471.569 581.83C472.903 581.216 474.879 580.307 477.34 579.925C477.867 579.482 478.395 579.04 478.924 578.599C483.063 575.142 487.24 571.727 491.44 568.343C492.881 567.182 494.325 566.024 495.771 564.869C501.433 560.348 507.132 555.871 512.835 551.406C513.658 550.762 514.481 550.119 515.304 549.475C519.192 546.44 523.948 544.626 528.597 544.508C533.249 544.392 537.396 545.964 540.214 548.969C543.033 551.974 544.336 556.21 543.93 560.842C543.521 565.471 541.42 570.097 538.162 573.782C537.471 574.562 536.78 575.342 536.09 576.122C531.464 581.346 526.84 586.569 522.197 591.764C522.055 591.967 521.912 592.17 521.767 592.371C521.663 592.517 521.558 592.662 521.453 592.806C519.59 595.362 518.292 598.187 516.996 601.015C516.699 601.664 516.401 602.315 516.096 602.962ZM510.977 561.399C508.464 562.395 505.591 560.14 504.014 558.9C503.984 558.878 503.955 558.856 503.926 558.834C503.551 558.54 503.166 558.326 502.713 558.078C501.635 557.487 500.177 556.687 497.596 554.06C496.667 553.668 495.747 553.256 494.839 552.822C494.605 552.71 494.373 552.598 494.14 552.484C484.595 547.832 475.735 541.762 467.044 535.387C466.916 535.336 466.786 535.284 466.655 535.232C464.694 534.45 462.37 533.522 460.682 532.41C460.185 532.083 459.742 531.74 459.381 531.38C457.361 529.369 456.091 527.798 455.065 526.476C448.025 521.25 440.931 516.157 433.483 511.788C431.96 510.894 430.422 510.031 428.866 509.203C428.037 508.762 427.203 508.331 426.365 507.911C424.142 506.797 421.891 505.737 419.617 504.725C418.13 504.458 416.671 504.294 415.318 504.141C413.416 503.927 411.724 503.733 410.459 503.31C407.411 502.289 404.524 500.005 402.383 498.307C402.033 498.029 401.703 497.767 401.395 497.529C399.377 496.805 397.35 496.097 395.321 495.393C395.269 495.183 395.219 494.965 395.169 494.743C394.943 493.734 394.534 492.961 393.955 492.311C392.941 491.173 391.404 490.411 389.403 489.416C388.034 488.735 386.448 487.943 384.665 486.85C383.515 486.145 383.298 485.058 383.12 484.17C383.067 483.909 383.018 483.665 382.95 483.453C382.716 482.727 381.944 482.984 381.031 483.288C379.848 483.683 378.426 484.157 377.64 482.663C375.14 477.901 372.458 478.87 370.425 479.602C369.829 479.817 369.289 480.01 368.827 480.033C367.328 480.108 366.032 478.593 365.266 477.038C364.659 475.805 362.322 475.502 360.358 475.639C359.939 475.669 359.513 475.558 359.059 475.374C358.708 475.231 358.34 475.045 357.947 474.844C357.014 474.37 355.936 473.818 354.585 473.605C351.172 473.068 349.382 472.734 347.944 472.465C347.534 472.388 347.153 472.314 346.77 472.244C345.561 472.024 344.131 471.616 342.684 471.2C340.953 470.703 339.195 470.198 337.76 470C334.876 467.895 332.051 465.678 329.23 463.46C327.783 462.317 327.124 459.839 327.444 456.495C327.766 453.149 329.027 449.232 330.993 445.522C332.958 441.81 335.488 438.566 338.069 436.415C340.649 434.267 343.059 433.408 344.809 433.954C348.331 435.059 351.855 436.162 355.315 437.38C359.531 438.864 363.653 440.52 367.572 442.566C369.815 443.738 372.028 444.967 374.216 446.244C374.702 446.528 375.186 446.814 375.67 447.102C375.944 447.265 376.217 447.43 376.49 447.595C379.272 447.875 382.006 448.234 383.781 448.776C385.247 449.223 385.97 450.218 386.589 451.07C387.016 451.656 387.393 452.175 387.929 452.4C388.217 452.522 388.625 452.66 389.116 452.827C391.122 453.511 394.527 454.669 396.953 457.05C398.029 458.107 399.115 459.657 400.153 461.136C401.636 463.251 403.023 465.222 404.138 465.405C405.179 465.575 406.145 466.062 407.047 466.672C407.843 467.21 408.59 467.845 409.294 468.443C410.724 469.659 411.977 470.721 413.104 470.51C414.451 470.257 415.122 470.98 416.121 472.053C416.814 472.798 417.665 473.709 419.008 474.583C420.559 475.592 421.455 476.702 422.218 477.646C423.29 478.974 424.099 479.973 426.095 479.894C428.311 479.806 430.429 480.105 431.702 481.126C432.281 481.591 433.041 481.931 433.832 482.284C434.879 482.752 435.98 483.244 436.79 484.082C437.457 484.774 437.762 485.838 438.031 486.78C438.116 487.074 438.197 487.355 438.284 487.61C438.657 487.79 439.03 487.968 439.404 488.145C439.684 488.276 439.964 488.407 440.244 488.535C440.408 488.47 440.583 488.395 440.765 488.319C441.677 487.934 442.798 487.462 443.88 487.488C445.592 487.53 446.606 488.545 447.675 489.618C448.507 490.453 449.373 491.323 450.629 491.791C451.486 492.11 452.561 492.272 453.627 492.432C455.21 492.671 456.772 492.906 457.572 493.645C457.872 493.922 457.947 494.53 458.02 495.134C458.02 495.138 458.02 495.141 458.019 495.145C458.024 495.186 458.03 495.226 458.035 495.267C460.49 496.047 462.963 496.789 465.447 497.508C465.703 497.487 465.96 497.469 466.215 497.452C467.459 497.369 468.667 497.288 469.661 496.817C470.737 496.307 472.647 496.641 474.66 496.991C475.717 497.175 476.802 497.364 477.81 497.437C478.059 497.456 478.304 497.467 478.542 497.469C479.244 497.476 479.552 498.214 479.869 498.974C480.164 499.684 480.468 500.412 481.107 500.58C481.426 500.665 481.837 500.622 482.276 500.576C482.662 500.536 483.07 500.493 483.456 500.533C483.815 500.57 484.366 501.159 485.076 501.911C485.514 502.376 486.012 502.902 486.561 503.403C488.399 503.932 490.231 504.472 492.054 505.031C492.609 504.786 493.178 504.395 493.757 503.819C494.172 503.406 494.609 502.883 495.056 502.349C495.664 501.622 496.293 500.871 496.918 500.332C497.407 499.911 497.782 499.83 497.858 500.14C497.893 500.284 497.864 500.511 497.838 500.715C497.809 500.949 497.783 501.158 497.859 501.189C497.915 501.211 498.039 501.095 498.191 500.955C498.434 500.732 498.748 500.445 498.97 500.537C499.797 500.879 500.656 501.435 501.497 501.98C502.433 502.586 503.348 503.177 504.175 503.445C505.102 503.745 506.085 504.872 507.072 505.998C507.76 506.783 508.452 507.567 509.124 508.076C509.782 508.573 510.683 508.645 511.556 508.711C512.604 508.791 513.612 508.866 514.112 509.677C514.192 509.808 514.148 510.253 514.069 510.847C514.048 511 514.025 511.163 514.001 511.332C513.918 511.92 513.825 512.592 513.779 513.231C514.699 513.671 515.608 514.134 516.507 514.618C516.577 514.555 516.648 514.491 516.72 514.426C516.722 514.425 516.723 514.423 516.725 514.421C518.355 512.95 520.584 510.937 521.323 513.124C521.511 513.68 521.41 514.493 521.318 515.225C521.228 515.944 521.148 516.587 521.362 516.832C521.605 517.11 522.147 516.9 522.738 516.673C523.568 516.354 524.494 515.997 524.826 516.897C524.849 516.958 524.873 517.025 524.898 517.093C525.143 517.737 525.505 518.69 525.559 520.287C527.361 521.562 529.137 522.893 530.897 524.26C533.83 526.539 536.72 528.918 539.614 531.291C541.019 532.451 541.732 534.92 541.553 538.253C541.372 541.59 540.324 545.497 538.58 549.23C536.837 552.963 534.514 556.271 532.063 558.547C529.613 560.818 527.248 561.845 525.444 561.5C522.506 560.929 519.568 560.354 516.654 559.725C516.48 559.738 516.306 559.747 516.136 559.752C514.866 559.792 513.421 560.391 511.973 560.992C511.641 561.129 511.308 561.268 510.977 561.399ZM301.524 455.618C298.846 456.426 295.857 453.911 294.215 452.528C294.184 452.503 294.154 452.479 294.123 452.454C293.733 452.126 293.33 451.879 292.857 451.591C292.731 451.515 292.6 451.435 292.462 451.35C291.374 450.674 289.906 449.658 287.53 447.11C286.556 446.639 285.592 446.148 284.64 445.636C284.393 445.503 284.146 445.368 283.9 445.234C280.849 443.562 277.867 441.763 274.938 439.866C272.012 437.97 269.129 435.972 266.297 433.914C263.189 431.628 260.519 429.574 257.427 427.364C257.12 427.142 256.813 426.922 256.505 426.702C256.379 426.654 256.252 426.606 256.123 426.558C253.628 425.617 250.506 424.527 248.858 423.059C248.461 422.703 248.086 422.361 247.735 422.034C246.243 420.64 245.162 419.492 244.239 418.494C242.319 417.309 240.366 416.155 238.378 415.041C235.02 413.158 231.566 411.39 228.018 409.774C225.494 408.625 222.922 407.553 220.307 406.571C219.247 406.173 218.178 405.79 217.103 405.422C215.488 404.871 213.856 404.354 212.208 403.875C210.06 403.25 207.886 402.673 205.681 402.133C204.651 401.881 203.108 401.319 201.626 400.455C198.045 398.561 196.762 397.367 195.245 396.182C194.499 395.571 193.849 395.009 193.268 394.5C192.144 393.51 191.238 392.673 190.467 391.924C189.644 391.122 188.982 390.418 188.487 389.781C188.116 389.304 187.781 388.82 187.481 388.347C186.758 387.204 186.223 386.103 185.837 385.185C185.421 384.185 185.175 383.409 185.154 383.021C185.153 382.993 185.152 382.966 185.154 382.942C185.161 382.812 185.204 382.739 185.289 382.721C185.05 382.707 186.433 383.915 186.402 383.902C184.976 383.293 183.484 382.616 181.986 381.902C181.924 381.669 181.864 381.43 181.804 381.185C181.051 378.124 178.857 376.731 175.565 374.482C174.971 374.076 174.356 373.652 173.704 373.182C172.764 372.505 171.772 371.752 170.723 370.872C169.578 369.912 169.488 368.767 169.41 367.83C169.387 367.554 169.366 367.296 169.321 367.068C169.167 366.284 168.326 366.387 167.33 366.504C166.036 366.656 164.49 366.842 163.878 365.179C163.463 364.053 163.012 363.192 162.53 362.532C160.748 360.087 158.593 360.446 156.886 360.744C156.249 360.855 155.675 360.957 155.204 360.903C153.677 360.728 152.585 359.025 152.013 357.37C151.734 356.555 150.731 356.003 149.55 355.694C148.829 355.505 148.036 355.403 147.297 355.379C146.56 355.356 145.852 354.9 145.018 354.375C144.159 353.834 143.158 353.213 141.881 352.949C139.02 352.36 137.426 352.102 136.196 351.9C136.038 351.874 135.887 351.85 135.74 351.828C135.37 351.77 135.029 351.718 134.689 351.674C133.614 351.534 132.362 351.258 131.133 351.038C129.659 350.772 128.207 350.589 127.074 350.7C126.328 350.249 125.597 349.813 124.861 349.393C123.306 348.502 121.766 347.692 120.209 347.007C119.041 346.486 118.107 344.511 117.246 341.363C116.411 338.213 115.707 334.168 115.697 329.968C115.686 325.773 116.486 321.701 118.304 318.67C120.101 315.641 122.768 313.971 125.33 314.036C128.707 314.116 132.054 314.455 135.3 315.024C137.001 315.323 138.657 315.678 140.299 316.096C144.769 317.235 148.988 318.798 152.872 320.706C154.027 321.274 155.159 321.875 156.258 322.506C159.601 324.425 162.712 326.514 165.647 328.693C165.949 328.917 166.249 329.144 166.548 329.37C166.814 329.444 167.078 329.517 167.341 329.591C170.159 330.389 172.805 331.274 174.53 332.138C176.088 332.92 176.762 334.098 177.332 335.101C177.723 335.791 178.066 336.401 178.609 336.746C178.901 336.931 179.317 337.159 179.815 337.433C180.109 337.594 180.432 337.773 180.775 337.966C182.815 339.119 185.567 340.846 187.391 343.263C188.338 344.518 189.218 346.255 190.048 347.889C190.284 348.351 190.516 348.804 190.745 349.237C191.675 351.003 192.582 352.445 193.446 352.698C195.372 353.279 196.756 354.803 198.032 356.132C199.035 357.181 200.048 358.154 201.001 358.353C201.395 358.507 201.816 358.655 202.24 358.789C205.542 360.039 206.987 362.058 208.103 364.138C208.135 364.198 208.168 364.259 208.2 364.32C209 365.856 209.7 367.581 210.666 369.428C210.671 369.438 210.677 369.449 210.682 369.459C211.644 371.306 211.913 372.696 212.091 373.864C212.119 374.051 212.143 374.23 212.165 374.404C212.34 375.759 212.457 376.811 213.227 377.539C213.463 377.762 213.749 377.938 214.111 378.072C214.89 378.354 215.552 378.543 215.882 378.512C216.13 378.426 216.539 378.233 214.392 377.218C213.745 376.951 213.158 376.828 212.922 376.789C213.419 376.951 213.957 377.081 214.508 377.214C215.715 377.506 216.99 377.816 218.038 378.522C218.9 379.103 219.457 380.114 219.949 381.009C220.103 381.288 220.25 381.555 220.398 381.795C221.155 382.006 221.918 382.214 222.68 382.415C222.839 382.325 223.009 382.224 223.186 382.12C223.501 381.935 223.843 381.735 224.204 381.549C224.861 381.21 225.582 380.914 226.334 380.83C228.177 380.624 229.484 381.498 230.854 382.428C231.923 383.153 233.031 383.911 234.479 384.224C235.002 384.337 235.581 384.4 236.187 384.44C236.728 384.476 237.29 384.494 237.851 384.513C239.614 384.573 241.366 384.651 242.376 385.319C242.754 385.569 242.946 386.175 243.132 386.778C243.133 386.781 243.133 386.785 243.134 386.788C243.147 386.829 243.16 386.869 243.172 386.91C244.834 387.238 246.503 387.567 248.178 387.901C249.342 388.133 250.51 388.369 251.679 388.608C251.959 388.572 252.241 388.539 252.52 388.508C253.882 388.354 255.216 388.219 256.256 387.701C257.381 387.14 259.561 387.415 261.87 387.752C261.878 387.753 261.886 387.754 261.895 387.755C263.413 387.976 264.986 388.222 266.352 388.248C267.151 388.263 267.59 389.031 268.026 389.818C268.435 390.554 268.853 391.311 269.591 391.503C269.961 391.6 270.422 391.569 270.916 391.539C271.35 391.511 271.813 391.485 272.255 391.543C272.607 391.589 273.157 392.062 273.854 392.713C273.968 392.819 274.087 392.931 274.208 393.046C274.739 393.549 275.342 394.122 275.998 394.677C278.09 395.332 280.266 396.079 282.372 396.852C282.997 396.657 283.633 396.314 284.274 395.782C284.734 395.4 285.215 394.907 285.708 394.404C286.379 393.72 287.074 393.015 287.77 392.529C288.313 392.149 288.733 392.108 288.821 392.436C288.823 392.443 288.825 392.451 288.826 392.459C288.853 392.608 288.821 392.823 288.792 393.019C288.756 393.254 288.725 393.464 288.806 393.501C288.864 393.528 288.999 393.42 289.162 393.291C289.424 393.084 289.762 392.818 289.996 392.929C290.867 393.343 291.768 393.975 292.648 394.596C293.628 395.285 294.587 395.958 295.459 396.296C296.145 396.563 296.854 397.245 297.57 398.051C297.874 398.393 298.178 398.756 298.483 399.12C299.199 399.972 299.917 400.823 300.62 401.393C301.309 401.951 302.262 402.096 303.186 402.234C304.295 402.399 305.363 402.557 305.877 403.42C305.958 403.557 305.907 403.993 305.814 404.575C305.788 404.737 305.759 404.91 305.729 405.091C305.63 405.68 305.518 406.354 305.458 406.999C306.424 407.52 307.379 408.063 308.322 408.626C308.397 408.568 308.474 408.51 308.552 408.449C308.554 408.448 308.555 408.446 308.557 408.445C310.313 407.085 312.713 405.223 313.455 407.502C313.644 408.081 313.52 408.898 313.409 409.633C313.3 410.354 313.203 411 313.425 411.266C313.529 411.391 313.689 411.435 313.886 411.431C314.165 411.426 314.517 411.324 314.886 411.217C315.772 410.96 316.761 410.673 317.095 411.613C317.118 411.677 317.142 411.747 317.168 411.818C317.414 412.492 317.78 413.488 317.805 415.112C319.192 416.171 320.562 417.26 321.922 418.371C322.41 418.771 322.897 419.173 323.382 419.577C325.607 421.43 327.806 423.334 329.998 425.251C330.824 425.973 331.649 426.697 332.474 427.421C333.939 428.712 334.642 431.273 334.38 434.638C334.116 438.006 332.921 441.88 330.992 445.521C329.064 449.162 326.532 452.326 323.888 454.432C321.245 456.535 318.72 457.384 316.82 456.887C315.753 456.605 314.686 456.323 313.619 456.039C311.594 455.499 309.572 454.95 307.562 454.378C307.378 454.377 307.194 454.373 307.013 454.364C305.67 454.302 304.129 454.793 302.586 455.286C302.429 455.335 302.273 455.385 302.117 455.435C301.919 455.497 301.721 455.559 301.524 455.618Z" fill="#FFF200"/>
</svg>
