<svg width="254" height="352" viewBox="0 0 254 352" fill="none" xmlns="http://www.w3.org/2000/svg">
<path d="M33.4396 291.017C33.5346 290.985 33.6319 290.956 33.7313 290.929C34.4564 290.732 35.2453 290.664 36.113 290.704C36.9364 290.743 37.8265 290.877 38.8567 291.104C39.9228 291.342 41.0996 291.657 42.8301 292.175C43.8369 292.482 44.97 292.815 46.9001 293.499C53.1112 296.191 49.4816 295.566 57.2653 301.271C58.2104 302.15 58.9787 303.094 59.7039 303.961C62.392 304.858 69.404 322.561 65.8762 327.864C65.1175 330.213 63.2911 326.845 62.5663 329.02C61.7805 331.16 60.9398 332.719 60.1643 334.027C57.1651 338.728 55.4036 340.49 53.5157 342.013C53.3313 342.148 53.1445 342.276 52.9548 342.396C51.2994 343.43 49.902 344.109 48.6068 344.698C47.1632 345.348 45.8559 345.861 44.6101 346.328C43.369 346.791 42.1801 347.21 41.0501 347.594C39.9727 347.951 38.6255 348.442 38.0879 348.514C36.1261 349.584 25.1155 353.693 16.5408 348.961C12.4911 346.966 9.87408 344.152 8.24526 341.834C6.5781 339.447 5.93559 337.091 5.53774 335.049C5.02313 332.285 4.9531 330.073 3.95227 328.361C3.74957 328.014 1.64653 328.732 1.45228 328.701C-1.53413 328.127 2.91555 327.569 3.35202 326.75C3.46913 326.531 3.57791 326.315 3.67864 326.102C5.05246 323.236 4.93766 320.849 4.0198 318.756C4.001 318.713 3.98186 318.67 3.96241 318.628C3.51826 317.666 -0.787321 318.988 1.59827 317.797C1.75976 317.718 4.11912 317.804 4.3507 317.52C4.86908 316.868 4.39012 315.77 4.55706 315.29C4.89067 314.397 4.86201 314.235 4.86636 313.409C4.87702 312.995 5.04094 312.524 5.21813 312.073C5.51972 311.275 5.85889 310.486 5.53166 309.709C5.41402 309.453 3.00318 309.766 2.59877 309.349C2.19406 308.9 2.42423 307.779 3.00719 307.377C3.58771 307.013 5.47271 307.246 5.90838 307.194C8.59765 306.874 6.64296 306.003 5.35924 305.494C4.89727 305.111 4.54112 304.7 4.52257 304.561C4.23604 302.883 5.04052 298.762 7.29956 295.945C10.3553 291.76 15.5656 290.153 18.3296 290.162C21.3927 290.077 23.1993 290.765 24.6887 291.39C26.1626 292.048 27.2585 292.761 28.325 293.428C28.8827 293.78 29.426 294.122 29.9915 294.459C30.477 294.747 30.9709 295.042 31.4884 295.368C32.446 295.959 34.1212 297.112 35.5234 298.674C36.8027 299.901 38.3057 302.249 38.8712 303.517C39.1616 304.135 39.3881 304.727 39.5544 305.296C39.8124 306.187 39.9402 307.007 40.0017 307.775C40.1065 309.117 40.0098 310.297 39.9378 311.397C39.8649 312.482 39.8123 313.491 39.9517 314.493C39.9557 314.522 39.9599 314.551 39.9643 314.58C40.0027 314.859 42.8066 314.349 42.8593 314.701C42.9881 315.576 43.0604 316.418 43.0728 317.223C43.0871 318.137 43.0216 319.055 42.8711 319.817C42.8711 319.817 42.8711 319.817 42.8711 319.817C42.728 319.896 42.5032 320.054 42.2425 320.855C42.0116 321.456 41.7255 322.204 41.347 323.04C41.1783 323.407 38.6682 323.131 38.3505 323.499C38.3073 323.55 38.2626 323.602 38.2167 323.655C37.4576 324.531 36.3515 325.622 35.8044 326.752C35.2276 327.963 35.2967 329.114 36.776 331.109C37.5764 332.198 38.7563 333.61 40.4196 335.452C39.4782 337.107 37.8874 339.295 35.4682 340.935C31.8084 343.719 25.7647 343.692 24.9773 342.155C24.963 342.142 24.949 342.128 24.9355 342.114C23.6941 340.67 25.0796 338.098 23.3836 339.122C22.9052 339.323 23.3038 341.768 22.4881 341.867C19.019 342.071 16.0523 340.16 13.6251 338.591C13.0341 338.218 12.4602 337.87 11.8573 337.552C11.2261 337.223 9.73106 338.733 9.30336 338.822C5.54696 339.206 8.50082 334.111 8.75561 333.731C9.0154 332.358 9.12759 331.374 9.09553 330.568C9.0389 328.819 8.21877 327.7 7.94632 326.253C7.86037 325.767 5.19171 326.94 5.00544 326.469C4.83157 326.005 4.68991 325.533 4.58461 325.075C4.14097 323.136 4.30117 321.269 5.15994 319.597C5.18634 319.545 5.21341 319.494 5.24114 319.443C5.50386 318.976 7.95338 319.254 8.2036 319.029C9.28365 318.088 4.69007 318.066 5.6556 317.15C5.85406 316.962 7.93657 317.014 8.16416 316.975C11.7379 316.406 6.65105 316.067 6.53715 315.931C6.17312 315.556 6.18747 315.194 6.41297 314.875C7.14963 313.814 10.1359 312.976 9.5728 311.948C9.47935 311.788 6.84304 312.121 6.74118 311.674C6.67434 311.407 6.62052 311.12 6.57748 310.865C5.99714 308.129 7.82385 300.821 12.4188 297.873C13.3172 297.217 14.2909 296.686 15.2681 296.313C16.2594 295.95 16.8843 297.969 17.0994 298.11C19.981 300.697 17.4919 296.258 17.7384 295.879C19.3763 293.347 22.3438 296.923 22.2494 290.706C23.1479 290.691 23.9427 290.701 24.7404 290.709C28.7737 290.793 32.0689 290.848 35.1803 291.611C38.1868 292.376 40.9119 293.93 42.5408 297.248C42.587 297.335 41.5207 299.615 41.6124 299.776C41.6216 299.793 41.6308 299.809 41.64 299.825C42.6927 301.688 43.873 297.976 47.0725 294.235C47.9253 293.308 46.2698 298.926 46.1191 299.327C45.6728 300.848 43.7046 304.042 43.6535 304.355C43.1961 306.787 48.8405 295.775 49.9612 296.389C49.9836 296.425 48.7321 298.333 48.7098 298.58C48.6286 299.349 49.3434 298.717 49.2078 299.546C48.9253 301.257 46.5193 305.587 47.8588 304.751C48.0239 304.651 48.2464 304.476 48.5389 304.214C48.8961 303.908 52.5243 297.887 53.3093 298.816C53.6073 299.169 55.3511 300.301 55.5207 301.045C55.7081 301.782 53.9453 303.262 53.9211 303.369C53.1703 306.638 51.9068 307.205 49.3444 310.843C46.6445 314.348 53.9079 306.748 54.9744 306.146C56.053 305.554 55.0089 308.038 54.4828 308.749C53.9869 309.483 52.7172 310.215 52.478 310.678C52.3331 310.954 52.2475 311.152 52.2155 311.285C51.8981 312.615 56.9862 307.687 58.4287 307.058C62.3096 305.581 56.7407 311.221 56.5475 312.361C56.519 312.704 57.8995 311.561 58.1772 311.694C59.2771 312.285 57.4007 313.909 59.8871 313.876C60.1464 313.871 62.1508 313.364 62.8097 313.594C63.1739 313.717 63.116 314.054 62.0793 314.752C61.6578 315.026 59.7882 315.599 59.5508 316.145C59.196 316.963 59.1762 318.082 59.9944 318.472C60.6051 318.773 63.4555 317.205 62.7174 318.135C62.3815 318.537 60.4456 318.641 59.9543 319.326C59.4632 319.992 59.872 321.151 60.0379 321.598C60.2107 322.043 62.5189 321.249 62.6865 321.247C63.289 321.267 64.044 321.566 64.5292 321.829C64.8254 321.986 65.0235 322.135 65.0288 322.169C65.7096 324.926 64.5505 327.884 63.2653 330.592C62.3294 332.527 61.4503 334.346 60.411 336.759C60.1978 337.216 62.4294 338.508 62.4199 338.592C61.9095 340.892 57.6862 335.335 55.493 334.36C59.255 337.93 58.1813 337.761 57.5413 338.912C57.2147 339.47 58.5661 340.984 58.643 341.182C58.6895 341.371 58.7206 341.539 58.7384 341.688C58.8975 344.085 56.5399 341.268 56.1828 340.596C54.5423 338.082 55.2168 341.553 54.2294 339.772C53.4547 337.94 53.1308 335.005 52.5953 335.18C52.7328 337.056 54.619 341.619 53.9047 342.581C52.0047 344.865 48.5094 343.964 46.7622 342.545C45.5251 341.64 44.6737 340.597 44.0016 340.172C42.4477 339.133 41.7537 339.145 41.2511 338.148C40.7116 337.084 40.1018 337.767 39.3334 338.722C38.8157 339.449 38.2187 340.32 37.5304 340.745C35.9517 341.773 40.5201 334.15 41.3092 332.408C42.0832 330.66 41.0432 332.33 41.3865 331.325C41.7313 330.32 42.6692 329.351 42.4997 328.814C42.3166 328.271 39.7722 330.755 38.6892 332.437C36.4125 336.01 34.7549 340.159 34.5248 338.26C34.5123 338.147 35.8143 336.199 35.7096 335.873C35.2746 334.489 34.5593 333.546 33.86 332.57C33.3374 331.819 32.7895 331.027 32.4438 330.015C32.3329 329.693 33.8441 327.569 33.7957 327.357C33.318 325.147 31.5777 329.203 28.3181 332.92C31.8207 327.473 33.4479 323.836 32.5159 323.218C31.9472 322.838 30.5526 325.298 29.1146 326.749C28.6785 327.185 29.2926 325.278 28.5057 326.353C28.3651 326.544 28.2254 326.738 28.0872 326.933C25.6871 330.314 23.7232 334.104 23.6823 331.901C23.6858 331.794 25.1234 329.891 25.0415 329.666C24.5293 328.208 21.9025 331.923 20.4331 331.594C19.2686 331.33 19.2715 327.939 18.561 326.84C19.6062 325.449 20.292 324.428 20.6883 323.734C21.9519 321.524 20.2683 322.601 17.6291 325.383C17.1248 324.731 16.2532 324.392 16.0944 323.352C16.0406 322.997 17.5353 321.502 17.6556 321.306C19.5996 318.274 16.1682 321.757 15.8979 321.775C14.208 321.868 14.1055 320.305 13.3464 319.531C12.8842 319.058 12.2105 318.849 10.7339 319.156C10.5993 319.198 6.66365 322.381 9.09761 319.539C9.281 319.361 11.462 318.389 10.9995 317.55C10.4776 316.627 11.759 313.815 9.08793 313.719C8.46034 313.756 4.1942 314.349 6.87385 312.296C7.24648 312.043 8.65338 311.676 9.36881 311.276C10.08 310.885 10.1032 310.77 9.90732 310.712C9.48309 310.619 7.94655 310.671 10.7924 309.685C14.9179 308.038 18.1825 308.246 15.2414 307.682C15.1508 307.705 11.2025 306.719 11.4042 306.254C11.6983 305.627 12.8412 305.283 13.1253 304.87C13.2731 304.647 11.2489 303.157 11.2416 303.09C11.5237 301.773 12.179 301.299 13.0428 301.056C13.0428 301.056 13.0428 301.056 13.0428 301.056C14.1568 300.774 15.6706 301.024 16.9484 301.056C17.2891 301.09 17.1642 297.436 18.7837 299.752C20.4679 302.322 23.6603 314.249 23.8519 311.126C23.8823 310.866 23.7509 310.018 23.5782 308.891C22.8263 304.556 21.8384 295.986 24.137 302.103C25.4444 300.475 27.1952 301.655 28.7113 301.734C29.4734 301.772 30.2104 301.536 30.955 300.543C31.0478 300.41 31.1934 296.027 31.4792 296.075C31.8945 296.155 32.1806 298.19 32.462 298.317C33.593 298.879 34.6299 297.292 35.7442 297.44C35.7891 297.446 35.8341 297.455 35.879 297.467C36.3126 297.581 36.0827 299.686 36.5771 299.826C37.0608 299.965 37.5735 297.207 38.1845 298.599C38.6532 299.661 38.6213 305.366 39.1205 306.087C39.7509 300.516 40.1834 300.674 41.2138 299.321C41.416 299.059 41.5103 297.102 41.6215 296.878C42.0959 295.929 42.1574 297.574 42.6343 296.542C42.7513 296.294 43.0621 294.404 43.1796 294.096C43.5433 293.124 43.8245 293.081 44.012 293.457C44.3528 294.124 44.3813 296.1 44.3776 296.589C44.3686 299.494 45.1453 297.116 45.3304 298.311C45.48 299.5 44.5546 300.72 44.852 301.492C45.4506 303.084 46.6237 303.112 47.4573 303.52C47.7899 303.67 48.4701 301.195 48.537 301.16C49.1315 300.986 49.2927 301.865 49.7806 301.781C50.1445 301.722 50.6889 301.146 51.8774 299.336C46.2906 311.281 52.9161 298.403 52.9007 301.496C52.8979 301.75 49.4454 306.93 48.7799 307.587C48.1366 308.257 48.8152 306.398 47.8287 307.491C47.5457 307.719 44.7026 312.826 44.5735 313.157C44.5657 313.171 44.558 313.184 44.5506 313.197C43.3201 315.506 46.7786 306.982 46.9278 306.493C48.6396 301.231 45.6686 306.84 45.4671 307.236C44.1576 308.895 43.9349 307.48 42.9565 308.704C42.3323 309.5 40.9922 315.447 40.794 315.214C40.58 314.974 40.5486 314.001 40.512 312.978C40.4529 310.71 40.3126 308.189 38.9727 313.142C38.5604 314.676 37.9815 321.312 37.9203 316.035C37.9388 315.704 37.8263 310.877 37.2337 313.871C37.1629 314.249 37.0105 316.184 36.9486 316.343C36.5421 317.37 36.4248 315.812 36.0105 316.532C35.7304 317.027 35.4192 317.697 35.1309 317.849C34.9994 317.918 34.8708 317.881 34.7455 317.674C34.5144 317.275 34.2043 313.655 34.0611 312.77C33.6577 310.218 33.2911 314.406 32.9976 311.323C32.6547 308.226 33.1148 303.497 32.2828 301.513C32.4072 306.555 32.5125 311.731 32.6485 316.802C31.8143 316.711 30.9403 316.001 30.0621 315.654C29.6272 315.48 29.1895 315.397 28.7958 315.524C28.6492 315.577 29.1581 318.244 29.0207 318.369C28.4757 318.878 27.6132 317.062 27.1632 317.937C26.8617 318.538 26.9928 320.824 27.0191 321.899C27.0216 322.056 27.0205 322.187 27.0129 322.285C25.2926 316.769 25.2776 318.825 25.0001 318.375C24.8801 318.226 24.3143 316.793 24.0731 316.348C23.1763 314.708 25.3254 319.336 25.6846 320.054C27.7979 322.839 22.607 312.483 22.4193 312.884C22.4114 312.898 23.9933 315.145 25.1887 316.672C25.1887 316.672 25.1887 316.672 25.1887 316.672C25.7523 317.445 26.2315 318.034 26.3133 318.133C28.0379 319.994 24.9556 316.48 24.7427 316.096C24.4491 315.249 23.7091 314.244 26.2992 313.519C27.0195 313.468 31.4598 312.953 28.8709 310.929C28.5307 310.684 26.5332 310.291 26.4406 310.165C24.7805 308.275 31.0901 308.799 33.2213 307.085C35.1903 305.309 30.9002 304.385 29.4592 304.778C29.3868 304.786 29.3205 304.794 29.2612 304.802C27.5356 305.065 27.2903 305.29 27.3849 305.408C27.4735 305.522 27.8619 305.64 27.7166 305.693C25.2239 306.524 24.6573 306.408 24.443 306.3C24.3411 306.242 24.3109 306.164 24.1923 306.141C18.2812 308.23 18.7553 308.401 23.8478 306.116C24.4106 305.881 23.9102 306.201 24.1923 306.141C29.9524 303.915 30.0881 302.365 25.1214 305.302C22.8336 306.716 20.0913 308.275 21.3586 308.101C21.9355 308.019 25.3736 305.408 26.3853 304.797C28.4003 303.455 26.3855 305.768 26.7563 306.372C26.7921 306.433 26.8483 306.465 26.9383 306.467C27.2675 306.469 28.7707 304.634 29.0445 304.569C29.7573 304.371 28.8403 305.939 29.8033 305.581C29.8904 305.544 31.4594 303.631 31.5816 303.698C32.5012 304.138 32.3728 305.928 33.3525 306.835C33.3856 306.866 33.4199 306.895 33.4556 306.924C33.9829 307.346 35.7707 306.947 36.2157 307.583C36.8674 308.511 36.5348 311.5 37.3681 312.298C37.5082 312.434 37.6799 312.504 37.8924 312.487C38.8367 312.418 40.0041 310.23 41.1611 308.965C43.3773 306.497 41.2876 312.066 40.972 312.932C40.9623 312.961 40.0844 313.115 39.7403 314.388C38.5638 316.767 40.9609 312.939 40.972 312.932C40.748 313.482 41.6385 314.659 42.1083 314.382C42.3633 314.232 43.4688 312.164 43.5785 312.124C44.348 311.841 45.0832 311.691 45.7099 311.639C47.218 311.548 48.3222 312.087 49.118 313.388C49.1236 313.445 47.8345 315.727 47.8651 315.833C48.3061 317.395 50.4037 314.877 52.3555 313.765C52.7376 313.572 53.0547 313.444 53.3097 313.39C54.1479 312.994 53.856 314.066 52.3966 317.432C53.0089 317.09 52.3278 318.938 51.9617 320.087C51.6309 321.246 53.2889 316.422 53.304 316.32C53.5627 315.144 53.5461 314.771 53.326 314.774C52.9038 314.78 52.2666 315.906 51.0764 316.175C50.3276 316.325 47.1657 315.943 44.6097 316.714C44.0982 316.838 43.6911 317.074 43.3509 317.346C42.428 318.094 42.0009 319.042 40.7611 319.478C40.5277 319.567 39.0856 317.797 38.9739 317.785C35.4832 317.533 40.3789 320.447 40.8804 321.363C42.9306 324.573 44.4984 325.698 42.5709 325.741C42.1863 325.62 34.4541 323.371 33.7772 323.964C32.9971 324.5 35.8292 325.019 35.0185 325.401C34.9544 325.431 33.2269 325.037 33.23 325.41C33.2325 325.604 33.2511 325.787 33.2817 325.958C33.5204 327.252 34.3725 327.655 34.221 327.813C34.2066 327.843 31.4108 328.069 31.3468 328.145C31.2076 328.317 31.1665 328.426 31.2919 328.451C31.4322 328.477 31.7816 328.395 32.4325 328.15C32.7433 328.03 34.6278 327.479 35.1838 327.304C38.521 326.152 33.5942 327.581 33.5119 327.645C32.5854 327.836 32.6452 327.746 32.9214 327.507C33.4261 327.193 34.2393 326.168 33.4786 327.452C33.3558 327.511 29.1956 331.064 32.7302 327.928C32.8524 327.82 33.8876 326.906 34.4626 326.307C35.0225 325.784 35.2001 325.549 34.0019 326.596C33.8548 326.743 31.9746 328.351 32.1908 328.236C32.3503 328.071 31.5907 329.684 33.6573 327.867C34.3428 327.327 37.4047 323.614 34.8707 326.499C34.6243 326.648 29.4903 333.631 32.8949 328.716C33.4506 327.904 37.0489 322.694 34.9761 325.212C34.5879 325.71 33.8864 326.938 33.3045 327.611C33.2403 327.686 33.1845 327.748 33.1356 327.799C32.5255 328.462 32.9388 327.228 31.4429 329.389C31.1393 329.791 28.988 333.51 30.403 330.571C30.618 330.107 31.6392 328.256 31.6683 328.005C31.7808 326.787 30.7489 327.865 30.8834 326.34C30.8879 326.273 30.913 326.165 30.9537 326.026C31.2357 325.051 32.3047 322.552 32.413 321.733C32.5441 320.8 32.3601 319.793 31.6266 321.194C30.9183 322.602 29.3633 327.823 29.0123 328.165C28.3178 328.887 28.1005 328.575 28.0059 327.984C27.9248 327.333 27.9389 326.359 28.2529 326.121C28.3622 326.052 28.2368 328.002 28.4875 328.035C28.7098 328.061 29.0322 328.16 29.5552 328.208C30.8051 328.843 37.8829 326.481 38.1724 320.916C38.1849 320.503 38.1471 320.14 38.075 319.821C36.9905 316.529 33.5061 317.297 33.6398 315.148C33.4794 314.333 39.471 316.557 39.821 316.292C42.7988 314.971 40.6191 311.211 41.3612 310.953C41.5359 310.844 44.1022 311.12 44.2226 311.011C44.4483 310.819 44.2217 310.769 44.0058 310.865C43.8091 311.331 43.5964 311.808 43.6915 312.233C43.7871 312.611 45.747 312.565 45.5919 312.889C45.2441 313.605 44.4157 314.123 42.5793 314.678C42.4124 314.732 39.9844 314.377 39.8848 314.811C39.8846 314.812 39.8844 314.813 39.8842 314.814C39.7449 315.496 37.9475 316.354 39.8451 316.928C40.4163 317.1 44.8872 316.873 41.8191 317.385C41.8144 317.386 41.8096 317.387 41.8045 317.387C41.1017 317.489 35.84 317.764 40.4704 317.85C41.2503 317.94 47.5273 317.776 43.5302 318.334C42.4782 318.491 38.1386 319.236 38.8419 319.257C38.9523 319.248 41.3225 318.838 41.5633 318.858C41.5969 318.86 41.6286 318.863 41.6587 318.865C42.341 318.896 42.1608 318.893 42.6777 318.133C42.8146 317.892 45.2769 317.406 45.3838 317.012C45.4243 316.842 45.4238 316.648 45.3877 316.441C45.2078 315.319 43.6626 313.257 40.9876 311.289C39.8106 310.458 38.9993 312.607 38.7536 312.671C37.2998 313.252 36.9264 313.03 36.8843 312.412C36.8423 311.501 37.5599 309.711 37.347 309.335C35.3543 305.551 29.2843 305.795 26.237 305.142C25.5743 304.951 26.1914 302.624 26.0701 302.409C24.885 300.351 25.6024 304.575 25.0545 305.046C25.0103 305.096 24.9707 305.145 24.9354 305.19C24.6037 305.638 15.2585 307.059 10.9907 311.127C9.45239 312.334 8.12899 313.687 7.11347 314.938C5.54141 316.986 4.94125 313.024 3.56063 314.991C1.8316 317.604 1.05091 319.734 0.597991 321.26C-0.14047 323.926 -0.0306408 325.096 0.159156 325.723C0.382564 326.335 0.80176 326.344 1.3681 326.056C1.37019 326.054 1.37228 326.053 1.37437 326.052C1.65217 325.897 3.74997 325.836 4.22577 325.773C7.55238 325.29 2.94314 325.039 2.49469 324.911C1.85632 324.737 1.59267 324.548 1.51937 324.341C1.35755 323.869 2.12441 323.448 1.82786 322.562C1.59216 321.791 1.39452 320.61 1.28065 319.817C1.28065 319.817 1.28065 319.817 1.28065 319.817C1.04264 319.099 0.915826 318.618 0.86445 318.143C0.814759 317.699 0.837019 317.339 0.906445 317.07C0.977355 316.797 1.09632 316.62 1.24903 316.568C1.41227 316.513 1.61252 316.6 1.85821 316.873C1.91311 316.934 1.97052 317.005 2.0304 317.084C2.26795 317.401 2.58326 317.863 3.05205 318.52C3.4158 318.974 5.20978 321.61 6.13184 322.188C7.77623 323.992 9.68923 325.2 10.2445 325.371C11.0682 325.739 11.6764 325.91 12.3841 326.124C13.0893 326.328 13.8383 326.561 15.1182 326.867C16.3986 327.116 18.0394 327.621 21.7561 327.398C22.747 327.318 23.8928 327.162 25.2263 326.829C27.4745 326.185 25.933 329.605 28.136 328.925C31.7242 327.761 36.1119 324.913 38.9291 321.348C43.5414 316.225 44.5348 307.895 44.2915 307.784C44.1721 308.898 43.8261 310.143 44.3849 311.523C44.433 311.644 45.9882 311.521 46.8031 311.567C47.0543 311.582 47.2351 311.611 47.28 311.669C47.689 312.179 47.5621 312.798 46.7396 313.332C46.3435 313.594 44.0618 313.358 43.71 313.628C42.8864 314.265 42.7379 314.925 43.206 315.461C43.3824 315.655 45.3814 315.254 45.9717 315.332C46.0674 315.344 46.1261 315.368 46.1338 315.408C46.3733 316.498 46.708 317.394 46.3828 318.032C46.1173 318.547 45.4351 318.89 43.8452 319.063C43.5885 319.061 38.4367 320.977 39.3922 320.53C40.7995 319.94 42.4572 319.253 43.9605 318.621C43.958 318.579 43.9536 318.535 43.9472 318.489C43.6058 317.646 42.9516 313.596 34.26 309.383C25.6094 305.17 15.2414 310.629 16.9863 310.531C18.3956 309.931 18.7187 309.898 19.4055 309.581C19.4384 309.566 19.4697 309.552 19.5018 309.537C19.6248 309.48 17.9781 307.067 18.2012 306.948C18.6503 306.707 18.9913 306.396 19.3192 306.193C19.7009 305.956 20.0582 305.868 20.5257 306.23C20.798 306.441 21.1073 306.806 21.4804 307.394C21.6189 307.648 24.968 311.525 24.4039 310.99C24.3676 310.962 24.2811 310.903 24.1326 310.833C23.8353 310.663 23.1474 310.567 22.4198 310.251C22.2539 310.186 20.6672 308.367 20.2777 308.705C19.6705 309.293 18.8115 310.211 17.6779 312.454C14.5119 313.14 15.1012 335.333 21.7346 337.712C36.3364 348.797 33.8415 343.269 35.4352 344.385C35.4658 344.373 35.4949 344.36 35.5227 344.347C35.8603 344.148 35.8809 341.583 36.0704 341.412C36.3323 341.099 36.297 340.958 36.1987 340.909C36.0713 340.85 35.8258 340.916 35.5553 340.906C35.2769 340.896 34.9646 340.806 34.6484 340.412C34.5112 340.238 34.3653 340.005 34.2285 339.693C33.7735 338.673 33.6531 336.387 33.4374 333.701C33.3349 332.345 33.1988 330.888 32.9982 329.444C32.6489 325.255 33.1365 338.667 32.4619 315.428C31.7972 332.106 30.8018 308.512 29.1425 306.493C32.1461 363.495 32.7357 325.71 31.8763 338.849C31.7408 371.802 28.9354 269.71 30.765 300.253C30.9412 299.414 30.3256 296.885 30.7518 295.798C30.9851 295.176 31.2627 295.611 31.5379 295.856C31.7437 296.038 31.9627 296.115 32.1729 295.577C32.6734 294.302 32.3432 291.391 33.4396 291.017ZM50.9129 325.386C50.6442 327.83 52.1061 318.973 51.8182 321.104C51.8015 321.218 50.9317 325.267 50.9129 325.386ZM29.3768 308.423C29.368 308.388 29.3591 308.353 29.3504 308.32C28.3431 304.653 28.5889 310.408 29.3245 313.373C29.7335 315.11 29.7562 313.564 29.6809 311.726C29.6236 310.397 29.5028 308.917 29.3768 308.423ZM35.8287 305.347C35.7224 304.827 35.6145 304.741 35.5186 304.948C35.0956 305.842 34.9538 312.164 35.2863 312.678C35.3451 312.767 35.4198 312.684 35.516 312.372C35.5579 312.228 35.8652 305.53 35.8287 305.347ZM35.0184 328.15C35.0141 328.03 34.6172 327.918 34.6112 328.037C34.4578 330.888 35.1905 331.111 35.0184 328.15ZM42.9107 302.973C42.9642 301.982 42.6228 302.147 42.3227 302.88C42.0954 303.429 41.8935 304.298 41.8549 305.223C41.8504 305.329 41.8497 305.422 41.8525 305.502C41.8837 306.729 42.7817 304.997 42.9107 302.973ZM52.8691 314.739C52.9785 314.661 52.9131 314.334 52.2867 314.758C50.2695 316.12 51.0341 316.045 52.8691 314.739ZM52.0946 307.172C52.3233 306.49 57.1688 296.706 59.0248 300.165C59.2323 300.7 55.7352 301.559 55.5462 302.738C54.8252 304.453 60.8095 301.415 58.4945 304.58C57.9232 304.851 51.9646 307.016 52.0815 307.179C52.0859 307.177 52.0903 307.175 52.0946 307.172ZM49.0034 335.994C48.9926 336.115 49.4245 336.302 49.451 336.185C50.0566 333.399 49.4089 333.06 49.0034 335.994ZM40.3805 299.042C40.4469 298.792 39.4255 298.178 39.3128 298.39C37.3097 302.62 39.1083 303.779 40.3805 299.042ZM18.6616 326.672C18.4758 326.844 18.3004 327 18.1363 327.139C16.4134 328.606 15.9161 328.22 17.6288 325.388C17.9054 325.824 18.2733 326.153 18.575 326.553C18.6044 326.592 18.6333 326.632 18.6616 326.672Z" fill="currentColor"/>
<path d="M199.837 276.72C199.898 276.694 199.956 276.671 200.013 276.65C200.83 276.358 201.454 276.515 201.876 276.902C202.204 277.201 202.413 277.639 202.529 278.124C202.609 278.483 202.508 280.071 202.563 280.39C202.569 280.427 202.574 280.459 202.58 280.487C202.675 280.924 202.696 280.273 202.624 280.968C202.603 281.22 202.701 283.737 202.691 283.944C202.68 284.205 202.651 284.37 202.59 284.481C202.39 284.853 201.884 284.57 200.607 285.315C200.593 285.323 200.579 285.331 200.565 285.34C199.882 285.832 195.723 287.807 193.514 290.748C193.42 291.254 193.006 292.241 193.278 292.342C193.404 292.623 193.579 292.797 193.699 293.039C193.821 293.287 193.893 293.572 193.874 294.211C193.885 294.889 193.667 295.792 193.823 298.34C193.796 300.442 195.506 306.942 200.528 310.18C203.727 312.406 206.953 312.744 208.265 312.684C208.622 312.661 208.798 312.586 208.864 312.51C208.864 312.51 208.864 312.51 208.864 312.51C207.618 311.865 206.461 310.172 205.295 311.141C205.155 311.269 205.388 313.47 205.372 313.653C205.146 316.465 204.98 312.002 204.648 311.432C204.513 311.2 204.377 310.991 204.24 310.804C203.054 309.182 201.866 309.232 201.036 310.129C200.648 310.561 201.746 314.836 200.947 312.466C200.89 312.306 200.637 309.969 200.475 309.741C200.163 309.307 199.788 309.602 199.536 309.616C199.491 309.618 199.449 309.611 199.411 309.589C198.94 309.301 198.875 309.338 198.494 309.389C197.98 309.438 197.102 308.446 196.714 309.101C196.638 309.246 197.397 311.534 197.347 311.972C197.296 312.408 196.86 312.322 196.564 311.821C196.267 311.319 195.756 309.497 195.602 309.09C195.007 307.532 194.87 307.724 194.932 308.4C195.002 309.212 195.368 310.713 195.363 310.788C195.179 313.12 193.483 310.753 192.956 311.084C192.954 311.085 192.953 311.086 192.952 311.087C192.613 311.331 193.209 312.127 193.317 311.808C193.348 311.662 193.229 311.35 193.074 311.061C192.872 310.66 192.602 310.333 192.782 310.162C192.818 310.106 195.528 310.929 195.591 310.812C196.041 309.831 195.892 308.971 195.546 309.583C195.586 309.257 193.642 305.287 192.633 305.831C192.386 305.809 190.413 307.33 190.072 307.436C189.389 307.678 188.564 308.331 188.204 308.857C187.482 309.858 188.428 310.176 192.435 304.289C192.316 304.566 192.281 304.903 192.049 305.804C191.95 306.189 191.819 306.68 191.628 307.314C191.243 308.685 189.855 311.024 190.681 310.133C190.861 309.932 191.744 307.73 191.925 307.585C192.647 306.958 192.852 307.857 193.66 306.829C193.822 306.613 194.432 304.578 194.566 304.219C194.628 304.052 194.682 303.91 194.729 303.792C195.445 301.853 194.43 306.309 194.449 306.676C194.346 309.514 195.14 308.557 195.628 308.688C195.744 308.72 195.972 305.873 196.077 305.799C196.081 305.796 196.085 305.793 196.089 305.79C196.592 305.452 196.817 305.699 197.019 306.942C197.072 307.227 197.261 309.65 197.311 309.909C197.445 310.439 197.412 309.66 197.308 308.822C197.204 307.913 197.018 306.936 197.073 307.451C197.096 307.654 197.523 309.69 197.566 309.914C198.404 313.403 197.259 308.45 197.138 308.366C196.437 306.926 197.294 312.397 197.035 311.907C196.943 311.872 195.223 309.854 195.041 309.903C195.026 309.905 195.013 309.907 195 309.907C195 309.907 195 309.907 195 309.907C195.681 308.545 195.206 308.996 195.649 310.464C195.808 311.13 196.124 312.333 196.943 313.277C197.367 313.744 199.217 312.92 199.469 312.938C203.189 312.154 198.34 313.699 198.279 314.073C197.771 315.5 199.934 314.24 198.714 315.63C198.417 316.047 197.922 316.714 197.178 317.792C198.294 317.577 197.689 317.146 197.034 316.988C196.249 316.75 195.217 316.539 194.193 315.325C193.711 314.761 193.221 313.98 192.695 312.872C192.66 312.806 192.927 310.306 192.852 310.185C191.919 308.706 191.831 312.62 191.093 317.37C190.938 318.544 190.659 312.979 190.582 312.39C190.581 312.38 190.581 312.372 190.58 312.365C190.438 310.805 190.656 307.068 190.604 306.765C190.093 304.391 190.135 316.757 189.678 316.767C189.661 316.747 189.689 314.47 189.641 314.244C189.486 313.537 189.374 314.444 189.219 313.666C188.867 311.864 188.366 305.87 188.044 309.398C188.033 309.854 188.61 316.845 188.379 316.531C188.302 316.437 188.065 316.492 187.788 316.387C187.654 316.355 187.544 316.296 187.465 316.189C187.172 315.79 186.867 313.541 186.837 313.448C185.611 310.669 185.593 309.4 184.19 305.191C182.676 301.033 185.408 311.198 185.621 312.363C185.832 313.525 184.837 311.275 184.43 310.516C184.044 309.748 183.689 308.34 183.422 307.926C181.486 305.31 185.118 312.886 185.705 314.457C187.616 317.948 183.983 310.996 182.931 310.81C182.728 310.708 183.908 312.038 183.977 312.196C184.356 312.691 182.393 311.245 184.089 312.702C184.264 312.853 185.916 313.923 186.456 314.061C186.757 314.159 186.655 313.986 185.518 313.436C185.063 313.239 183.311 312.395 182.884 312.286C182.24 312.108 181.712 312.392 182.331 312.685C182.791 312.863 185.976 313.211 184.985 313.113C184.54 313.108 182.686 312.809 181.998 312.89C181.3 312.998 181.391 313.558 181.487 313.751C181.578 313.953 183.972 313.517 184.137 313.52C185.076 313.48 186.251 313.383 186.25 313.387C186.402 313.567 186.033 314.066 185.716 314.785C185.154 315.953 184.852 317.789 186.28 318.071C186.453 318.106 188.254 316.282 188.301 316.27C189.351 315.814 184.203 320.29 182.895 322.208C186.524 318.485 186.015 319.312 186.671 319.142C186.987 319.052 188.267 317.496 188.418 317.355C190.593 315.201 188.082 318.246 187.615 318.91C185.847 321.305 188.213 318.703 187.062 320.324C185.964 321.966 183.883 324.052 184.288 324.316C185.352 323.073 187.575 319.804 188.567 318.709C188.703 318.555 188.813 318.441 188.891 318.38C191.164 316.391 190.15 320.144 190.807 320.77C191.249 321.308 191.459 320.983 191.673 321.687C191.894 322.283 192.034 321.779 192.074 320.917C192.118 319.953 192.135 318.535 192.058 317.665C191.786 316.033 192.887 324.842 193.125 326.735C193.478 328.613 193.336 326.651 193.629 327.665C193.967 328.671 193.802 330.016 194.296 330.329C194.908 330.633 195.101 327.035 194.395 325.149C193.079 321.131 191.482 316.99 191.996 318.464C192.043 318.544 192.967 320.688 193.105 320.884C194.305 322.31 195.156 321.897 197.037 322.054C197.305 322.074 199.255 323.793 199.445 323.809C199.667 323.82 199.822 323.795 199.916 323.743C200.674 323.311 197.312 321.216 193.829 318.627C199.24 322.167 202.815 323.976 203.394 322.975C203.721 322.393 201.123 321.255 199.447 320.145C198.932 319.834 200.88 320.232 199.665 319.688C195.696 317.917 191.079 316.35 193.066 316.624C193.163 316.631 195.376 317.501 195.545 317.465C196.669 317.167 192.369 315.689 192.008 315.014C191.826 314.637 193.064 314.372 194.099 313.953C194.501 314.222 194.747 314.799 194.986 315.476C202.394 315.06 200.122 313.795 196.238 317.233C196.671 317.484 196.597 317.72 196.916 317.107C197.015 316.887 198.228 315.165 198.355 314.976C199.067 313.789 199.032 313.628 198.765 313.917C198.33 314.369 197.32 315.959 197.233 316.045C195.918 317.419 196.478 313.676 194.465 316.836C194.406 316.93 193.385 320.224 193.511 319.375C193.536 319.193 193.611 318.82 193.75 318.184C193.795 317.932 194.732 315.807 194.352 315.515C194.016 315.232 193.664 312.363 192.521 314.533C192.231 315.051 191.171 319.029 191.393 315.818C191.42 315.381 191.697 313.958 191.759 313.151C191.831 312.178 191.74 312.291 191.629 312.576C191.443 313.043 191.214 313.974 191.431 311.279C191.799 306.948 191.481 303.624 190.309 306.519C190.269 306.603 189.699 310.615 189.477 310.532C189.101 310.394 188.622 309.516 188.196 309.524C187.999 309.53 188.018 312.047 187.982 312.092C187.95 312.126 187.918 312.158 187.886 312.188C186.704 313.349 185.961 311.184 184.511 310.38C184.401 310.319 184.308 310.835 184.19 311.316C183.996 312.047 183.95 312.658 183.3 311.149C181.311 309.092 180.351 294.824 174.014 302.604C168.61 312.672 185.705 312.568 181.816 312.504C181.638 312.847 181.335 313.344 180.898 314.043C182.933 313.894 184.129 316.229 186.231 316.013C186.895 315.933 187.523 315.52 187.846 314.628C187.95 314.463 186.751 310.253 186.835 310.282C187.024 310.313 187.968 312.128 188.207 312.164C188.856 312.293 189.011 311.52 189.163 310.941C189.252 310.618 189.36 310.343 189.618 310.264C189.893 310.171 191.144 311.878 191.523 311.714C191.914 311.53 190.199 309.333 191.457 309.98C192.405 310.483 196.857 314.061 197.852 313.93C195.466 311.832 194.546 310.849 194.05 310.142C193.671 309.601 193.548 309.211 193.204 308.608C193.047 308.341 191.429 307.243 191.273 307.058C190.586 306.302 191.99 307.124 191.211 306.332C191.022 306.143 189.462 305.032 189.215 304.822C187.025 303.039 190.808 305.119 191.519 305.395C194.127 306.591 192.076 305.163 193.172 305.498C194.294 305.784 195.309 306.852 196.083 306.853C196.466 306.845 196.772 306.771 197.019 306.653C197.819 306.263 197.985 305.445 198.262 304.838C198.399 304.507 195.895 303.933 195.859 303.864C195.412 303.187 198.237 303.033 193.285 301.793C201.269 303.022 199.041 302.329 196.698 301.836C195.225 301.482 193.711 301.227 194.74 301.037C194.953 301.032 201.187 301.041 202.077 301.551C202.596 301.849 202.12 302.171 201.903 302.493C201.749 302.719 201.726 302.955 202.265 303.299C202.59 303.423 208.107 305.544 208.395 305.836C210.768 307.721 201.782 305.219 201.293 305.09C195.916 303.845 201.636 306.5 201.912 306.986C202.835 308.107 202.495 308.685 202.363 309.291C202.287 309.636 202.274 310 202.563 310.545C203.083 311.502 208.311 314.633 207.836 315.066C206.154 316.583 199.089 311.835 203.889 317.66C204.578 318.563 207.452 320.766 207.348 321.26C207.305 321.466 206.721 321.376 205.254 320.686C204.906 320.585 200.726 318.067 202.48 320.594C202.697 320.919 204.077 322.284 204.113 322.479C204.314 323.766 202.873 323.003 202.736 324.113C202.594 325.227 202.384 326.824 201.072 326.955C200.762 326.987 200.136 326.621 199.464 326.116C198.431 325.347 197.301 324.248 196.866 323.888C194.895 322.12 196.138 326.205 194.196 323.722C192.439 321.126 190.946 316.614 189.351 315.15C191.403 319.757 193.414 324.529 195.332 329.226C193.171 330.055 190.424 330.297 187.426 330.115C185.2 329.983 182.81 329.607 180.377 329.093C179.651 328.936 179.724 331.765 178.843 331.629C174.467 330.845 171.945 326.734 170.216 326.123C170.087 326.074 169.952 326.036 169.812 326.009C172.078 329.394 150.675 316.454 164.315 296.042C175.559 292.577 177.651 292.259 179.951 291.782C180.653 291.832 180.871 293.363 181.368 293.79C181.395 293.812 181.42 293.834 181.445 293.854C183.003 295.286 181.708 290.458 182.022 289.618C183.504 286.017 184.468 297.534 185.701 297.199C185.727 297.184 186.556 291.016 186.701 290.636C187.525 288.139 186.832 292.777 187.313 293.235C187.807 293.71 188.173 294.392 188.578 294.581C188.891 294.727 189.244 294.58 189.698 293.821C189.981 293.302 190.99 289.528 191.288 292.535C191.324 292.928 191.102 294.95 191.145 295.074C191.916 297.142 192.618 290.794 193.515 288.72C194.325 286.879 194.744 290.246 194.778 291.916C194.785 292.124 194.788 292.306 194.787 292.448C194.775 294.379 194.577 294.516 194.406 294.355C194.282 294.238 194.165 293.966 194.135 294.098C193.589 296.514 193.697 297.144 193.944 297.39C194.082 297.527 194.268 297.546 194.416 297.688C193.48 303.883 194.094 303.608 194.844 298.076C194.921 297.47 194.461 297.985 194.416 297.688C195.788 291.681 196.903 291.076 196.582 296.877C196.416 299.596 195.41 302.583 196.718 301.703C197.322 301.315 198.153 297.076 198.944 296.062C199.538 295.318 200.003 295.271 200.416 295.549C201.285 296.13 201.764 298.082 202.803 298.024C203.396 298.009 203.752 295.611 204.212 295.536C205.488 295.36 205.687 297.386 207.27 297.207C207.425 297.194 208.315 294.863 208.738 295.059C209.191 295.266 209.634 295.519 210.067 295.812C212.701 298.474 216.607 299.549 219.812 312.787C220.182 315.426 219.991 318.034 219.822 319.669C220.023 320.442 220.246 321.327 219.935 321.851C219.098 323.277 214.841 324.695 214.848 326.74C214.777 328.228 217.124 329.025 218.328 330.387C220.592 333.187 214.222 332.357 213.364 331.966C213.347 331.949 213.535 330.572 212.105 330.453C209.691 329.317 213.37 331.936 213.364 331.966C213.086 331.891 212.528 332.244 212 332.686C211.41 333.183 210.808 333.844 210.786 334.253C210.778 334.657 212.661 336.062 212.613 336.254C211.628 340.683 207 345.051 201.285 345.744C201.179 345.73 200.472 343.203 200.249 343.195C197.235 342.932 196.169 346.334 193.596 348.411C193.039 348.865 192.493 349.175 191.969 349.329C190.151 349.866 188.666 348.532 188.235 344.945C186.556 345.301 184.905 342.841 184.346 341.384C183.767 339.933 181.93 344.677 181.784 344.736C177.601 346.607 177.096 343.052 175.049 341.229C174.525 340.754 173.583 340.295 172.608 339.87C171.734 339.492 170.834 339.146 170.159 338.912C169.018 338.514 169.358 337.195 168.114 337.04C167.945 337.016 166.439 338.722 166.347 338.754C163.557 339.796 167.947 336.337 168.498 335.483C170.537 332.391 171.729 330.866 169.631 331.008C169.186 331.085 162.336 335.329 161.506 334.997C160.495 334.626 163.012 333.217 161.928 332.885C161.838 332.853 160.394 333.879 160.128 333.347C159.375 331.866 158.879 330.173 158.307 328.367C157.914 327.117 157.516 325.883 156.959 324.576C156.782 324.136 154.355 325.679 154.045 325.018C152.597 321.946 151.689 317.346 153.089 312.723C153.447 311.584 155.393 312.368 155.982 312.144C159.523 311.03 154.697 308.55 154.696 308.019C154.335 304.422 155.658 300.932 157.629 298.126C160.926 293.476 165.084 291.093 168.518 287.255C168.57 286.986 169.677 280.082 172.91 283.892C173.182 284.115 175.984 288.158 175.758 284.742C175.76 284.524 174.261 282.414 175.546 282.234C176.848 282.051 178.038 280.018 179.682 282.455C180.212 283.178 181.737 287.377 181.962 284.344C181.977 284.201 181.991 284.041 182.002 283.864C181.841 283.61 182.432 274.731 183.984 280.589C184.21 281.558 184.874 287.838 185.815 284.499C186.015 283.852 185.428 282.481 186.043 281.55C186.989 280.119 188.085 281.769 189.004 278.933C189.151 278.43 189.912 274.124 190.495 277.389C190.583 277.901 190.402 280.012 190.698 280.251C190.809 280.343 190.922 280.418 191.034 280.48C192.291 281.199 193.652 280.169 194.825 281.604C195.265 282.152 194.763 285.539 195.156 286.49C195.557 287.44 196.36 288.405 197.035 286.914C197.726 285.424 197.797 279.947 198.684 279.62C198.784 279.584 198.883 279.552 198.982 279.523C201.893 278.699 204.586 280.674 207.667 282.64C208.662 283.273 209.728 283.919 210.926 284.525C211.693 284.921 211.757 282.824 213.057 283.354C215.113 284.263 218.369 285.301 222.6 288.887C228.584 292.708 234.235 307.365 230.527 313.767C226.311 321.298 225.055 311.592 222.95 316.622C222.421 317.655 223.479 318.857 224.591 320.217C225.773 321.589 227.032 323.008 227.045 323.239C226.981 328.504 222.499 329.688 221.723 331.95C221.518 332.463 223.784 333.765 223.577 334.193C223.021 335.405 221.794 335.537 221.14 336.046C221.14 336.046 221.14 336.046 221.14 336.046C220.895 336.267 220.648 336.517 220.399 336.799C219.588 337.696 221.055 339.026 219.89 339.795C217.074 341.695 212.626 343.027 209.998 342.03C209.771 341.939 210.089 339.196 208.551 339.698C206.156 340.448 203.559 339.37 201.862 341.001C201.756 341.101 201.651 341.211 201.548 341.333C201.059 341.96 201.411 346.44 199.84 343.469C199.511 342.841 199.5 337.468 198.407 342.175C198.332 342.971 195.831 349.272 194.875 345.166C194.612 344.091 194.219 339.663 193.667 340.312C193.581 340.415 193.699 342.838 193.213 343.034C192.66 343.241 192.105 343.33 191.57 343.372C190.424 343.456 189.339 343.333 188.175 343.63C187.712 343.749 187.881 346.319 187.183 346.413C185.423 346.645 183.55 345.691 182.164 344.557C182.016 344.437 181.874 344.316 181.736 344.194C181.211 343.717 182.276 341.895 182.297 341.666C182.774 337.984 180.812 342.512 180.456 342.692C178.38 343.774 178.087 341.159 176.495 341.108C176.044 341.08 175.332 343.338 175.167 343.493C173.46 344.953 175.874 341.427 175.569 340.767C175.257 340.059 174.817 339.52 174.316 339.093C173.512 338.406 172.473 337.971 171.446 337.539C170.817 337.271 169.996 339.981 169.425 339.696C167.135 338.573 164.733 336.765 162.575 333.865C161.494 332.405 160.522 330.72 159.696 328.673C159.254 327.522 161.422 326.974 161.681 326.504C163.619 323.434 158.557 323.623 157.679 322.695C154.272 319.814 155.501 317.072 154.767 314.46C154.506 313.475 154.345 312.614 154.209 311.88C152.453 308.6 155.06 296.103 159.151 291.556C160.05 290.272 160.984 289.137 161.892 288.138C165.937 283.75 169.905 281.906 173.161 280.431C175.612 279.352 177.763 278.516 179.805 277.385C180.111 277.22 178.683 274.797 178.943 274.618C180.298 273.755 181.686 273.246 183.038 272.852C185.161 272.237 187.158 271.918 188.954 270.998C189.2 270.879 188.229 268.388 188.614 268.108C189.401 267.516 190.535 267.43 191.532 268.103C192.013 268.427 191.888 270.759 192.355 271.042C192.416 271.079 192.477 271.115 192.537 271.148C193.546 271.709 194.46 271.707 195.264 271.183C195.628 270.942 194.641 268.352 195.154 268.246C197.02 267.834 198.826 267.436 200.654 267.658C202.258 267.854 203.858 268.531 205.502 270.113C205.758 270.345 206.131 275.832 206.569 274.766C206.571 273.24 206.529 271.446 206.51 269.815C207.377 269.645 208.173 269.568 208.864 269.558C208.864 269.558 208.864 269.558 208.864 269.558C210.128 269.46 219.028 269.656 226.296 275.337C235.033 281.516 237.671 293.03 237.217 297.675C237.04 302.994 235.916 305.761 235.023 308.097C234.08 310.365 233.141 312.026 232.228 313.569C232.005 313.944 231.783 314.309 231.56 314.668C231.359 314.992 234.22 315.866 233.827 316.524C233.192 317.578 232.594 318.604 231.894 319.633C231.053 320.916 229.107 323.299 227.254 324.489C225.021 326.834 217.7 330.343 215.61 329.885C214.633 329.926 213.28 325.02 211.605 326.309C211.591 326.319 211.573 326.332 211.551 326.347C211.006 326.711 208.899 327.82 208.539 328.922C208.479 329.099 209.269 331.403 208.513 331.582C207.49 331.809 206.574 331.928 205.734 331.969C203.949 332.052 202.507 331.786 201.277 331.269C200.625 330.994 200.038 330.644 199.507 330.227C199.189 329.969 199.679 327.445 199.461 327.239C199.08 326.878 198.703 326.721 198.335 326.65C197.436 326.476 196.586 326.821 196.055 325.987C195.937 325.8 195.83 325.554 195.749 325.229C195.379 323.641 195.877 319.263 195.858 314.92C195.841 314.306 195.598 314.198 195.657 311.678C195.735 305.337 196.232 298.406 196.325 291.647C196.41 290.184 194.866 291.741 195.798 288.229C195.908 287.99 196.923 286.853 197.162 285.673C197.349 284.856 197.202 282.281 197.567 281.242C197.95 280.206 198.112 282.369 198.591 281.158C199.046 279.931 199.142 277.012 199.837 276.72ZM182.586 334.887C183.098 332.403 178.796 340.28 180.607 338.791C180.7 338.709 182.567 335.012 182.586 334.887ZM185.858 322.733C184.699 318.814 183.047 324.408 184.008 327.593C185.485 330.76 186.448 323.906 185.858 322.733ZM194.668 316.312C192.137 314.331 199.431 324.766 198.988 321.86C198.966 321.692 194.825 316.418 194.668 316.312ZM197.514 313.805C197.518 313.686 197.21 313.544 197.193 313.661C196.795 316.488 197.404 316.769 197.514 313.805ZM196.994 308.989C195.432 308.245 196.731 309.871 198.661 310.837C200.248 311.569 198.978 309.857 196.994 308.989ZM180.166 307.412C180.257 307.509 180.542 307.439 180.085 306.839C178.602 304.904 178.618 305.771 180.166 307.412ZM198.809 297.186C199.337 300.365 188.409 300.6 189.759 300.916C189.951 300.798 193.018 300.143 193.934 299.894C195.391 298.755 189.348 301.441 192.494 299.846C192.872 299.215 198.681 296.753 198.824 297.184C198.819 297.185 198.814 297.186 198.809 297.186ZM187.128 325.109C187.174 325 186.946 324.753 186.884 324.852C185.341 327.258 185.925 327.825 187.128 325.109ZM193.653 310.494C193.646 310.745 194.274 311.051 194.322 310.824C195.271 306.242 193.798 305.585 193.653 310.494ZM195.182 315.484C192.303 316.759 193.24 319.422 196.234 317.234C195.949 317.199 195.428 316.311 195.182 315.484Z" fill="currentColor"/>
<path d="M57.2097 309.325C57.0325 305 57.1925 299.326 57.4191 295.013C57.4894 293.661 57.8374 294.343 57.9013 293.41C58.0257 291.584 57.847 289.885 57.9958 288.08C58.0467 287.482 58.597 288.223 58.6379 287.596C58.8581 284.158 58.6971 280.911 58.788 277.428C58.8223 276.12 58.8542 274.815 58.884 273.511C59.213 259.104 59.2857 244.857 59.4129 230.295C59.4253 228.879 59.4382 227.46 59.4519 226.039C59.5062 220.31 59.9806 213.344 59.7623 207.426C59.7363 206.736 59.2574 207.148 59.2179 207.016C58.6131 204.954 59.5803 205.64 59.7092 204.294C60.2186 198.951 60.2804 193.011 60.1267 187.867C60.1145 187.467 60.0724 187.214 60.0151 187.053C59.7584 186.331 59.1947 187.465 59.6432 185.666C59.6803 185.513 60.1852 186.072 60.2436 185.472C60.3746 184.112 60.3042 181.53 60.3542 180.476C60.4529 178.444 60.4511 178.108 60.477 176.185C60.5172 173.557 60.8089 170.435 60.735 167.614C60.7177 167.011 60.1845 167.801 60.11 166.839C60.0353 165.877 60.1204 163.335 60.2584 162.48C60.3962 161.625 60.7997 161.997 60.8963 161.847C61.7101 160.614 60.668 157.654 60.6489 157.275C60.4226 152.473 60.7294 148.157 61.0027 143.798C61.1227 141.885 61.2365 139.965 61.2972 137.991C61.4465 133.075 61.4291 127.812 61.6499 123.136C61.9154 117.565 62.4184 112.858 62.6543 107.446C62.68 106.875 62.0322 107.511 62.0625 106.813C62.1542 104.712 62.2621 102.615 62.3911 100.523C62.7173 95.2294 63.1785 89.9598 63.8562 84.6977C63.9516 83.9615 64.4195 84.9529 64.5471 84.2201C65.3104 79.7278 66.9498 72.683 64.8533 69.7921C65.2083 66.7382 65.643 63.034 66.3773 60.3482C66.8506 58.6167 67.2675 60.3842 67.2302 58.1973C67.2229 57.7042 66.6491 58.2878 66.6769 57.5519C66.6787 57.5058 66.6805 57.4598 66.6825 57.4135C66.6838 54.7517 66.763 51.3956 66.5113 48.4295C66.5068 48.3763 66.5023 48.3315 66.4976 48.2823C66.4377 47.6762 65.9788 47.8436 65.8945 47.671C65.2115 46.1879 66.2984 43.7079 66.3748 43.1809C66.573 41.7285 66.6709 40.4431 66.7149 39.1915C66.797 36.8696 66.6924 34.7399 66.7069 32.2486C66.7128 31.3606 66.0918 32.4092 66.0756 31.5537C66.0665 31.0097 66.0604 30.4633 66.0574 29.9142C66.0406 26.8196 66.123 23.6739 66.3562 20.6037C66.4199 19.7573 66.4935 18.9517 66.5804 18.1299C66.6867 17.1492 67.1721 18.0762 67.2501 17.6107C67.5939 15.5908 66.6259 15.0708 66.9868 13.0903C67.0634 12.678 67.4943 12.9482 67.5497 12.8764C67.9862 12.3373 67.9535 11.7317 67.8126 11.2728C67.675 10.8152 67.4347 10.4718 67.4399 10.3136C68.2169 6.86939 66.854 4.79242 72.3706 1.25416C72.8866 1.27945 73.4322 1.2953 74.0164 1.2949C74.4831 1.29581 73.4502 0.674585 74.77 0.717269C75.4155 0.742591 76.0609 0.783096 76.7045 0.836469C78.124 0.954324 79.5351 1.13429 80.9373 1.35692C82.3266 1.57765 83.7062 1.84036 85.0736 2.1293C86.4377 2.41761 87.79 2.73222 89.1286 3.05903C90.4733 3.38728 91.8031 3.72776 93.12 4.06672C94.4532 4.40966 95.7567 4.74783 97.0629 5.07055C97.9364 5.2858 98.8037 5.50095 99.6637 5.71617C100.891 6.02171 99.925 6.2737 99.9928 6.34045C101.113 7.39385 102.143 6.46075 102.555 6.49517C103.963 6.6252 105.291 6.96939 106.541 7.24377C108.177 7.60305 109.68 7.84263 111.044 7.323C112.767 7.68376 114.495 8.02092 116.225 8.34265C119.419 8.93654 122.62 9.47782 125.822 10.0181C129.029 10.5594 132.237 11.0998 135.434 11.691C138.638 12.2832 141.833 12.9266 145.006 13.6723C147.199 14.1878 149.38 14.752 151.549 15.3823C151.718 15.43 151.303 15.9025 151.64 15.9952C152.969 16.3642 153.793 16.51 154.405 16.5202C155.658 16.5414 156.024 15.994 157.986 15.6909C158.722 15.578 160.546 17.2337 160.711 17.3617C161.312 17.8316 160.452 18.4802 160.663 18.5909C162.413 19.48 162.657 16.7936 165.161 17.3161C165.239 17.3369 164.809 17.7508 165.009 17.8427C165.222 17.9413 165.443 17.9994 165.665 18.0453C166.092 18.1333 166.524 18.1767 166.921 18.3739C168.302 19.0652 168.554 20.4482 170.941 20.1776C171.244 20.1412 171.127 18.5623 173.346 19.1057C173.865 19.2334 175.436 19.565 176.865 19.8859C177.874 20.1123 178.813 20.3331 179.262 20.471C180.344 20.8038 179.484 21.1202 179.558 21.1578C182.393 22.4295 181.21 22.45 182.495 23.7081C183.78 24.9632 183.85 22.6474 184.51 22.5304C185.141 22.4196 187.044 23.3185 187.65 23.6622C187.68 23.6793 187.707 23.695 187.73 23.7091C188.225 24.0075 187.492 24.1658 187.945 24.3724C190.947 25.7343 189.57 23.5712 190.686 23.4462C193.32 23.1496 194.861 25.223 197.063 25.8861C197.659 26.0656 197.249 25.5792 197.796 25.6652C198.145 25.7208 198.468 25.7884 198.774 25.863C200.375 26.2522 201.539 26.8293 203.667 26.8996C204.081 26.9132 206.274 26.3737 207.377 27.3946C207.532 27.541 206.926 27.8328 207.814 28.1352C208.333 28.3122 209.019 28.5206 209.751 28.7216C210.893 29.0348 212.148 29.3302 213.056 29.4566C214.157 29.6097 213.082 28.6425 214.388 29.1732C214.968 29.4097 213.758 29.5398 214.856 29.9513C215.948 30.3605 218.827 31.0328 219.924 31.2849C221.018 31.5355 220.545 30.8793 220.642 30.8662C220.709 30.8584 220.797 30.855 220.9 30.8551C221.211 30.8106 222.068 30.8264 222.658 30.8485C223.081 30.8649 223.42 30.8888 223.487 30.9004C223.828 30.9564 224.168 31.0151 224.507 31.0772C225.125 31.1903 225.737 31.3137 226.352 31.4535C226.97 31.5943 227.592 31.7513 228.213 31.9356C228.842 32.1244 229.466 32.3309 230.134 32.6331C230.72 33.1243 231.732 32.795 232.331 35.2049C232.409 35.5729 231.986 36.7685 231.395 37.077C230.826 37.4706 230.4 37.5288 230.051 37.6003C229.703 37.6588 229.415 37.6801 229.159 37.7046C228.905 37.7278 228.684 37.7517 228.517 37.7831C228.35 37.8121 228.249 37.8549 228.245 37.8487C228.212 37.9068 228.357 37.6192 228.263 37.7745C227.705 39.4738 227.354 41.1882 227.12 42.9922C226.89 44.7795 226.79 46.5996 226.79 48.4417C226.791 49.5944 226.832 50.7548 226.91 51.9235C226.959 52.6488 227.496 52.144 227.509 52.2546C227.79 54.3127 226.754 53.3416 226.161 53.9883C226.044 54.1172 225.945 54.3106 225.879 54.6053C226.991 54.2928 226.837 55.3325 227.078 57.0838C227.195 57.9278 227.599 57.4362 227.649 57.5106C228.15 58.3209 227.96 59.0114 227.733 59.4474C227.622 59.6629 227.501 59.8175 227.449 59.896C226.869 60.7772 227.695 61.6283 227.307 62.232C226.923 62.8311 226.196 61.5699 226.327 63.2619C226.763 63.7087 227.724 62.3747 227.986 63.6499C228.072 64.073 228.148 64.5233 228.214 65.0062C228.439 66.639 228.563 68.6205 228.534 70.6516C228.534 70.6516 228.534 70.6516 228.534 70.6516C228.464 74.7754 228.309 79.1125 228.388 81.516C228.499 84.9092 228.655 86.2904 228.706 88.0965C228.714 88.3577 228.72 88.628 228.724 88.9147C228.804 93.015 229.459 91.4544 230.05 93.9434C230.658 96.4355 228.623 95.4027 228.248 95.8087C227.874 96.2102 228.338 96.5598 228.16 97.0293C227.981 97.4986 227.598 96.5639 227.626 97.6211C227.651 98.6819 228.715 101.463 229.192 101.779C230.197 102.449 230.99 101.051 230.999 103.843C231 104.004 230.432 103.554 230.459 104.167C230.48 104.602 230.504 105.039 230.532 105.476C230.816 109.932 231.451 114.472 231.865 118.891C231.927 119.558 231.274 119.06 231.304 119.45C231.527 122.315 231.946 122.369 232.664 122.855C232.964 123.058 233.319 123.337 233.739 123.926C232.273 123.678 231.633 125.04 232.183 128.076C232.515 129.899 233.06 129.473 233.706 130.569C233.9 130.897 233.733 132.262 234.061 132.441C235.135 133.029 235.931 131.621 236.129 134.807C236.136 134.947 235.545 134.613 235.607 135.09C235.92 137.474 236.615 138.116 237.279 139.789C237.474 140.28 237.668 140.861 237.85 141.601C238.474 144.155 238.871 148.85 239.428 151.797C237.874 152.077 238.843 154.767 240.158 155.646C240.249 156.095 240.347 156.551 240.448 157.01C240.777 158.498 241.137 160.029 241.348 161.453C241.444 162.096 240.903 161.784 240.874 161.874C240.403 163.271 241.625 163.855 241.76 164.254C242.913 167.763 243.185 170.913 244.181 174.129C244.419 174.896 244.693 175.666 245.025 176.447C245.087 176.592 246.211 176.589 245.686 177.909C245.648 177.995 244.85 176.696 245.257 178.712C245.665 180.728 245.869 184.633 246.882 187.339C247.128 187.99 248.316 189.559 247.868 191.059C247.807 191.258 247.463 191.111 247.336 191.405C247.049 192.079 247.558 192.419 247.602 192.977C247.619 193.204 247.56 193.467 247.34 193.801C246.575 194.961 246.214 197.149 247.259 199.882C247.29 199.969 248.255 200.517 248.363 201.412C248.537 202.839 248.617 204.89 248.802 206.377C248.891 207.091 249.377 206.569 249.402 206.691C249.751 208.585 249.935 210.275 250.049 211.95C250.22 214.496 250.231 217 250.363 220.124C250.403 221.071 251.356 223.739 250.895 225.616C250.387 227.672 247.593 225.786 248.512 230.348C248.564 230.613 248.682 230.885 248.84 231.166C249.781 232.835 252.164 234.874 250.787 237.818C251.253 242.026 251.103 246.054 251.139 250.137C251.159 252.352 251.233 254.582 251.487 256.876C251.52 257.169 252.48 258.084 252.477 258.776C252.47 259.804 252.034 260.371 252.013 261.104C251.922 263.923 252.25 266.518 252.27 269.214C252.272 269.456 252.271 269.699 252.267 269.942C252.251 271.066 251.792 270.675 251.771 272.015C251.75 273.354 252.355 274.246 252.067 276.061C251.848 277.435 250.617 278.803 250.475 280.623C251.69 280.693 251.665 281.94 251.986 284.162C252.048 284.59 252.471 284.132 252.522 284.334C252.74 285.156 252.389 285.915 252.627 286.696C252.683 286.886 253.098 286.895 253.168 287.05C253.341 287.422 253.39 287.862 253.369 288.31C253.32 289.486 252.744 290.683 252.603 290.974C252.524 291.132 252.458 291.275 252.404 291.408C251.953 292.519 252.255 293.254 251.754 294.18C251.678 294.313 251.609 294.405 251.555 294.453C251.405 294.587 251.349 294.462 251.292 294.355C251.241 294.256 251.19 294.169 251.082 294.277C251.022 294.337 250.957 294.428 250.84 294.619C250.439 295.278 249.876 295.768 249.091 296.017C248.236 296.303 247.169 296.457 246.162 296.818C245.099 297.18 244.123 297.74 243.324 298.358C243.317 298.364 243.309 298.37 243.301 298.376C242.423 299.094 243.383 299.019 243.263 299.132C242.644 299.736 242.026 300.327 241.495 300.952C241.495 300.952 241.495 300.952 241.495 300.952C240.665 301.93 239.94 302.789 239.914 303.81C239.772 303.774 239.642 303.742 239.522 303.717C237.288 303.214 238.655 304.646 237.242 306.221C237.056 306.428 236.821 306.637 236.524 306.843C236.315 306.987 235.134 306.259 235.677 305.437C235.774 305.292 235.894 305.149 236.032 305.007C236.67 304.348 237.669 303.688 238.22 302.733C238.239 302.7 238.261 302.638 238.283 302.556C238.46 301.956 238.616 300.299 238.676 300.115C238.853 299.673 239.093 299.406 239.363 299.246C239.363 299.246 239.363 299.246 239.363 299.246C240.245 298.681 241.247 299.311 241.361 299.301C242.125 299.252 242.686 298.744 243.186 298.18C243.805 297.46 244.442 296.615 244.768 296.408C245.102 296.186 245.463 295.991 245.813 295.831C246.935 295.315 248.043 295.113 248.632 294.854C249.235 294.573 249.324 294.405 249.486 293.682C249.486 293.678 249.487 293.673 249.488 293.669C249.618 292.574 248.296 292.215 248.45 291.32C248.462 291.237 248.475 291.15 248.488 291.07C248.644 290.077 248.905 289.186 249.137 288.31C249.585 286.612 249.979 285.245 248.953 282.941C248.612 282.172 247.169 282.936 248.303 280.184C248.375 280.011 249.412 277.969 248.753 276.789C248.67 276.641 248.25 276.646 248.214 276.451C247.984 275.141 248.317 274.27 248.152 272.843C248.026 271.752 247.853 270.497 247.838 269.236C247.833 268.849 247.843 268.461 247.875 268.079C247.954 267.099 248.729 265.836 248.917 265.365C249.46 264.035 248.54 262.624 249.2 261.795C249.864 260.96 250.904 262.569 251.314 260.39C250.22 260.323 249.096 260.152 247.995 260.036C247.981 256.741 248.103 253.484 248.116 250.209C248.121 248.763 248.105 247.31 248.046 245.853C248.021 245.264 247.452 245.885 247.41 245.254C247.233 242.593 247.565 240.252 247.276 237.5C247.066 235.521 246.413 233.39 246.092 231.323C246.067 231.165 246.044 231.006 246.024 230.848C247.196 229.416 246.563 226.133 246.496 223.729C246.472 222.886 246.809 222.917 246.872 222.311C247.094 220.023 246.076 221.169 245.853 220.567C244.89 217.989 247.365 217.543 247.002 214.418C246.987 214.284 245.999 213.04 245.549 212.421C245.439 212.268 245.361 212.153 245.339 212.1C244.612 210.395 245.77 211.759 245.748 210.644C245.705 208.611 245.858 207.166 245.172 204.856C244.97 204.181 243.931 202.646 244.382 201.228C244.441 201.041 244.891 201.077 244.897 200.932C244.959 198.311 243.574 198.447 242.89 197.067C242.427 196.134 242.543 194.747 242.722 193.784C242.809 193.322 242.911 192.96 242.974 192.797C243.431 191.598 243.434 193.309 243.489 193.657C243.494 193.69 243.5 193.711 243.507 193.716C243.886 193.966 244.047 193.858 244.096 193.557C244.168 193.105 243.985 192.218 243.896 191.46C245.204 191.048 244.812 189.301 243.735 190.15C243.618 190.245 243.914 191.198 243.896 191.46C242.393 190.585 241.889 188.716 242.705 186.366C243.083 185.265 243.943 186.069 243.093 183.108C242.703 181.766 241.897 182.484 241.396 181.343C240.618 179.574 240.389 177.288 240.049 175.113C239.889 174.081 239.712 173.075 239.451 172.168C239.158 171.147 238.898 172.271 238.681 171.577C238.103 169.735 238.087 167.992 237.454 166.15C237.396 165.983 236.972 166.523 236.828 165.937C236.168 163.272 235.704 160.776 235.216 158.198C234.892 156.488 234.559 154.746 234.15 152.886C233.653 150.635 232.49 146.661 232.057 144.307C231.861 143.249 231.698 142.121 231.551 140.967C231.129 137.668 230.84 134.177 230.213 131.624C229.664 129.374 229.233 129.97 228.692 129.061C227.786 127.542 228.152 124.664 228.348 123.607C228.378 123.442 228.403 123.32 228.419 123.255C228.42 123.251 228.455 123.393 228.508 123.579C228.649 124.074 228.915 124.882 228.978 124.086C229.16 123.805 229.11 123.619 228.982 123.496C228.79 123.311 228.423 123.268 228.419 123.255C228.488 122.938 227.945 118.994 227.722 118.229C227.598 117.813 227.136 118.132 227.08 117.914C226.12 114.074 225.383 110.18 224.898 106.219C224.727 104.824 224.588 103.423 224.481 102.011C224.479 101.915 225.06 101.99 225.051 101.766C224.932 98.6222 224.031 96.7014 223.37 94.1544C222.79 91.9084 222.698 90.0305 223.271 88.5162C223.348 88.3126 223.437 88.1157 223.539 87.9255C223.266 85.9807 223.521 83.1483 223.701 81.5223C223.88 79.9004 222.769 79.7182 222.74 79.5769C222.042 76.1001 222.254 73.7373 222.414 70.7021C222.414 70.7021 222.414 70.7021 222.414 70.7021C222.46 69.8995 222.482 69.0728 222.463 68.1469C222.449 67.4342 222.387 66.4549 222.294 65.3895C222.134 63.5415 221.884 61.407 221.7 59.8864C221.685 59.765 221.67 59.6476 221.656 59.5344C221.426 57.6826 221.608 56.5353 221.346 54.8022C221.312 54.5672 220.833 54.8322 220.81 54.7611C220.741 54.5698 220.692 54.4058 220.659 54.2654C220.363 52.9897 221.392 53.6735 221.569 53.3007C222.286 51.8093 222.654 50.9151 222.296 48.4299C222.293 48.4109 222.291 48.3918 222.288 48.3726C222.202 47.7989 220.498 46.031 220.464 44.8861C220.425 43.4151 221.001 44.0115 220.988 42.4636C220.988 42.4308 220.965 42.4055 220.932 42.3719C220.832 42.2674 220.629 42.086 220.729 41.3557C220.95 39.7166 221.373 37.6507 221.916 35.9612C221.947 35.2856 223.364 33.0209 224.334 32.5226C225.412 31.7585 226.291 31.523 226.909 31.3654C227.537 31.2189 227.973 31.1741 228.286 31.1373C228.593 31.1054 228.785 31.0828 228.745 31.0946C228.702 31.1422 228.393 31.0746 227.395 31.7672C226.332 32.1848 225.391 35.1489 225.67 35.205C227.391 40.6506 227.762 38.2717 227.489 38.7919C227.374 38.7411 227.153 38.6614 226.907 38.5882C226.519 38.4744 226.846 39.2043 226.274 39.0547C226.265 39.0524 226.256 39.05 226.246 39.0477C225.807 38.9379 225.304 38.8265 224.78 38.7191C224.263 38.6132 223.723 38.5101 223.165 38.4075C222.611 38.3055 222.05 38.2058 221.467 38.1019C220.784 37.973 220.573 37.9621 219.245 37.6717C217.792 37.2759 216.368 36.861 215.02 36.4277C214.148 36.1454 214.804 35.8648 214.64 35.6958C213.631 34.6691 211.689 35.351 211.406 35.3064C210.345 35.1422 209.33 34.9514 208.346 34.742C204.521 33.9281 201.172 32.8316 197.403 31.9531C195.978 31.6213 194.493 31.3209 192.9 31.0799C192.524 31.0245 189.424 31.5572 188.374 30.2819C188.31 30.2061 187.491 29.1788 186.426 29.2635C186.289 29.2744 186.148 29.3035 186.005 29.3551C185.926 29.3838 186.595 30.08 185.24 29.7283C183.885 29.3767 181.61 29.2505 179.854 28.2683C179.298 27.9582 178.109 26.6364 176.158 27.0691C176.117 27.0794 175.76 27.2174 175.273 27.3495C174.255 27.6253 172.667 27.876 172.186 26.8783C172.072 26.6361 172.523 25.3292 170.254 25.5682C169.821 25.6159 170.494 26.0706 169.386 26.0319C167.871 25.9806 166.04 25.3254 164.144 25.3109C163.915 25.3091 163.686 25.3166 163.456 25.3356C163.083 25.368 161.398 25.9667 160.343 25.0253C160.178 24.8778 160.628 24.504 160.005 24.3219C157.785 23.671 155.421 23.3093 153.112 22.7714C152.346 22.593 151.589 22.3974 150.847 22.1671C149.796 21.8429 150.491 21.2268 149.409 20.81C148.331 20.3933 146.095 19.7678 144.853 19.8792C143.833 19.9703 144.374 20.9328 143.61 21.1409C143.445 21.1861 143.218 21.196 142.9 21.1541C139.927 20.7621 136.985 20.2323 134.048 19.6481C130.878 19.0172 127.714 18.3229 124.529 17.6715C122.983 17.3552 121.432 17.049 119.873 16.765C118.725 16.5556 119.609 17.1333 117.911 16.8539C116.983 16.7014 115.953 16.5394 114.854 16.3672C111.913 15.9064 108.477 15.3719 105.188 14.7536C101.52 14.0656 98.0008 13.2618 95.621 12.3999C95.5592 12.3777 95.4979 12.3554 95.4372 12.333C91.1098 10.7062 96.8381 11.3399 93.4991 10.3415C92.9394 10.1716 92.3295 10.1794 91.7548 10.2587C90.6945 10.4045 89.758 10.7955 89.5039 10.7677C88.787 10.6918 88.1233 10.5905 87.495 10.4734C86.072 10.2084 84.8299 9.86213 83.5888 9.54757C82.448 9.25883 81.307 8.99544 80.0491 8.86246C79.86 8.84267 79.7693 8.88179 79.7242 8.94602C79.611 9.10794 79.7803 9.42823 79.3795 9.38447C78.2184 9.26229 77.0569 9.04022 75.9338 8.87989C75.2158 8.77657 74.4874 8.69771 73.8499 8.6872C73.1115 8.68043 73.2517 9.10853 72.5287 9.06662C72.4762 9.06414 72.4233 9.0617 72.3708 9.05931C80.5291 4.47892 74.8377 7.63252 75.5554 8.58614C75.4939 8.73125 75.1402 7.66711 74.9182 8.86098C74.7581 9.7832 74.5486 10.808 74.386 11.9128C74.1804 13.3164 74.0528 14.8234 74.1968 16.2785C74.2761 17.081 75.2412 17.1121 74.4977 18.7774C74.3449 19.1239 73.1937 18.6141 74.1304 20.6169C74.1489 20.6571 74.1828 20.7399 74.2266 20.8577C74.5494 21.7124 75.4451 24.4625 74.655 25.8846C74.4178 26.3047 73.4492 27.3921 73.5902 28.3461C73.613 28.4749 74.1388 27.9647 74.1824 28.7511C74.2035 29.1527 74.2204 29.5578 74.2344 29.9655C74.3167 32.3723 74.2979 34.8546 74.4486 37.307C74.4969 38.0724 75.0306 36.9246 75.0856 38.0729C75.1025 38.4212 75.1162 38.7775 75.1272 39.1391C75.2148 42.0481 75.1246 45.4988 74.9953 48.2292C74.993 48.2784 74.9898 48.3198 74.986 48.3661C74.902 49.3282 74.4859 48.5943 74.44 48.6764C73.659 50.0206 74.7294 50.8141 74.7931 51.2624C75.1066 53.6761 74.8285 55.5334 74.6243 58.203C74.5915 58.5212 74.5659 58.846 74.5508 59.179C74.5179 59.8752 75.0725 59.4339 75.1041 59.5763C75.4059 61.0491 74.6001 59.8949 74.4121 60.7901C73.8829 63.2976 73.6623 66.1279 73.5012 68.694C73.4428 69.6368 74.1235 68.6333 74.0646 69.4783C73.7278 74.481 73.2582 79.6518 72.5776 84.513C72.4485 85.4279 72.0374 84.8166 71.92 85.0007C71.0994 86.2704 71.9517 88.2787 72.0154 88.7303C72.3058 90.7864 71.8526 91.5457 71.8104 93.341C71.7557 95.7882 71.6489 98.3932 71.5142 101.056C71.1641 107.934 70.636 115.208 70.2646 121.167C69.7439 129.559 69.2134 136.49 68.9338 144.016C68.8552 146.148 68.7977 148.327 68.7689 150.601C68.7601 151.255 69.3798 150.609 69.3801 151.174C69.3565 158.458 68.9976 165.627 69.0832 172.932C69.0892 173.531 69.6726 172.674 69.7016 173.636C69.7652 175.609 69.7081 178.108 69.5072 180.101C69.4104 181.073 68.9303 179.763 68.8429 180.742C68.6589 182.794 68.5929 184.98 68.6384 187.106C68.6434 187.342 68.6498 187.577 68.6576 187.811C68.6921 188.809 69.2869 187.308 69.2862 188.604C69.2943 197.433 69.3883 206.106 68.6502 215.038C68.5996 215.65 67.4097 216.19 67.6419 217.492C67.9727 217.589 68.3616 217.582 68.715 217.624C68.7899 221.841 68.8058 226.044 68.7947 230.244C68.7719 238.86 68.6351 247.466 68.6597 256.149C68.6614 256.694 69.2852 255.748 69.2917 256.802C69.3265 262.366 69.5145 267.783 69.1067 273.434C69.0673 273.98 69.0223 274.529 68.9711 275.079C68.9143 275.7 67.8017 275.389 67.9829 277.214C68.0159 277.536 68.1835 280.286 68.4293 280.995C68.4663 281.091 68.9811 280.586 69.0022 281.472C69.1161 286.623 69.0302 292.021 68.737 297.168C68.6887 297.999 68.1328 297.117 68.0936 297.708C67.8195 301.903 68.2537 306.465 67.7592 310.474C67.4258 313.158 66.4702 312.166 65.5327 313.592C65.4005 313.794 65.3804 315.454 64.834 315.54C63.4603 315.76 61.9556 314.957 60.4914 315.288C60.1761 315.358 60.516 317.577 59.7537 316.263C59.7028 316.171 59.4492 314.562 59.1903 314.166C59.0113 313.89 58.456 314.388 58.2268 313.825C57.9977 313.262 58.4629 312.643 58.1927 311.71C57.9192 310.777 57.2879 311.189 57.2097 309.325ZM224.593 74.2149C225.092 72.7198 223.144 72.525 223.643 74.1342C223.67 74.212 224.569 74.2921 224.593 74.2149ZM249.688 250.603C249.751 250.454 249.801 250.308 249.839 250.168C250.305 248.477 249.154 247.481 248.577 248.749C248.319 249.314 248.42 249.828 248.646 250.196C248.968 250.722 249.544 250.951 249.688 250.603ZM250.563 270.56C250.733 269.986 250.68 269.535 250.517 269.222C250.17 268.561 249.328 268.52 249.051 269.23C248.946 269.5 248.923 269.878 249.039 270.373C249.071 270.512 250.525 270.692 250.563 270.56ZM65.254 306.984C65.2283 307.005 65.206 308.198 65.2316 308.226C65.8505 308.86 65.8948 306.474 65.254 306.984ZM251.217 290.372C251.64 289.704 251.209 287.677 250.743 288.553C250.384 289.238 250.712 291.188 251.217 290.372ZM196.916 26.8256C196.899 26.7922 196.071 26.5798 196.052 26.7435C195.993 27.2707 197.187 27.3857 196.916 26.8256ZM229.533 313.862C229.644 313.669 229.758 313.485 229.876 313.309C230.649 312.146 231.555 311.318 232.308 310.826C233.869 309.841 234.682 310.116 233.487 311.757C233.276 312.061 233.005 312.416 232.677 312.835C232.076 313.573 233.299 310.771 232.418 311.612C231.658 312.333 231.344 313.186 231.087 314.02C230.784 315.013 230.56 315.956 229.718 316.93C229.389 317.28 229.309 314.135 229.534 313.853C229.534 313.856 229.533 313.859 229.533 313.862ZM226.91 73.3213C226.934 73.2911 226.938 72.1065 226.913 72.0786C226.285 71.4431 226.276 73.8345 226.91 73.3213ZM148.328 15.2912C148.275 15.2231 145.58 14.6575 145.482 14.6923C143.888 15.4155 149.325 16.5587 148.328 15.2912ZM239.397 151.852C240.283 152.98 240.691 154.464 240.157 155.64C239.915 154.38 239.64 153.121 239.397 151.852Z" fill="currentColor"/>
</svg>
