<svg width="286" height="375" viewBox="0 0 286 375" fill="none" xmlns="http://www.w3.org/2000/svg">
<path d="M1.15271 362.662C1.71676 360.783 2.43904 358.796 3.27075 356.807C4.36506 354.185 5.64827 351.559 6.95872 349.107C8.07673 347.014 9.2125 345.046 10.2657 343.292C11.011 342.053 11.1109 342.295 11.3977 342.045C11.5 341.956 11.6262 341.806 11.8143 341.506C13.1863 339.318 14.2338 337.167 15.6012 335.068C15.6252 335.031 15.6494 334.994 15.6736 334.957C16.1384 334.253 16.0934 335.433 16.5689 334.69C17.8971 332.608 19.0644 330.599 20.1944 328.529C21.3086 326.485 22.3739 324.452 23.5306 322.334C23.6053 322.197 23.6799 322.061 23.7544 321.924C24.9552 319.719 26.1338 317.502 27.2975 315.275C28.4639 313.043 29.6154 310.801 30.7592 308.553C31.9047 306.301 33.0426 304.042 34.1806 301.779C35.319 299.515 36.4576 297.248 37.6038 294.978C38.7479 292.714 39.9064 290.434 41.0717 288.174C41.0717 288.174 41.0717 288.174 41.0717 288.174C41.4074 287.522 41.7019 286.917 42.0213 286.238C42.3346 285.571 42.6473 284.885 42.9686 284.182C43.2896 283.48 43.6192 282.761 43.9681 282.03C44.3169 281.3 44.6851 280.557 45.0851 279.809C45.4847 279.062 45.9164 278.309 46.3918 277.562C46.8485 276.84 47.4279 276.016 47.9559 275.354C47.9451 275.225 47.1131 276.68 47.3855 277.697C47.5923 278.817 48.0681 279.189 48.1871 279.33C48.3437 279.474 48.3466 279.453 48.2925 279.42C48.2357 279.38 48.1177 279.31 47.9614 279.224C47.8024 279.135 47.6092 279.034 47.3443 278.886C47.0971 278.725 46.7027 278.586 45.9411 277.868C45.3113 277.268 44.6753 276.216 44.4169 275.588C44.1051 274.881 43.9174 274.242 43.7711 273.649C43.627 273.057 43.5288 272.509 43.4476 271.989C43.3671 271.471 43.3048 270.982 43.247 270.524C43.1894 270.066 43.1363 269.637 43.0798 269.262C43.0161 268.853 42.9798 268.647 42.9157 268.408C42.9157 268.408 42.9157 268.408 42.9157 268.408C42.1442 265.78 41.4094 263.124 40.7095 260.435C39.2952 255.021 38.0547 248.78 36.8914 242.739C36.3371 239.871 35.7962 237.053 35.2408 234.392C35.0396 233.427 34.673 234.09 34.6007 233.913C33.4889 231.12 34.6134 231.915 34.4144 230.002C33.9774 225.73 33.4275 221.213 32.8543 216.791C32.4082 213.354 31.9461 209.974 31.4947 206.811C31.0591 203.732 30.4674 206.937 30.6462 203.765C30.6581 203.545 31.2509 204.273 31.2106 203.42C31.1156 201.486 30.6463 197.853 30.5412 196.359C30.3509 193.654 30.2972 193.073 30.0883 190.758C30.0751 190.61 30.0613 190.455 30.0469 190.293C29.7215 186.58 29.6068 182.146 29.1867 178.174C29.0955 177.326 28.6615 178.492 28.4696 177.142C28.2765 175.792 28.0582 172.198 28.0964 170.979C28.1335 169.76 28.5789 170.247 28.6575 170.026C29.1421 168.705 28.5452 166.192 28.1614 164.713C28.0172 164.158 27.9026 163.749 27.8855 163.604C26.8718 154.723 26.8927 146.952 26.4475 138.709C26.4062 137.944 26.361 137.176 26.3104 136.401C25.8584 129.473 25.14 122.111 24.6394 115.539C24.5689 114.606 24.5018 113.691 24.437 112.789C24.216 109.866 23.8969 107.008 23.6063 104.126C23.309 101.229 23.0154 98.3273 22.7277 95.2791C22.6716 94.6847 22.6151 94.076 22.5597 93.4674C22.4873 92.6524 21.955 93.6608 21.8668 92.661C21.6857 90.5675 21.5476 88.4639 21.4741 86.3489C21.3706 83.3195 21.3927 80.2721 21.6538 77.1838C21.9216 74.1062 22.411 70.9728 23.4294 67.8619C24.3087 65.2329 25.5542 62.5707 27.7344 60.2308C28.6015 59.3549 27.9148 60.8729 28.7905 60.0627C28.9501 59.9213 29.1137 59.7833 29.2811 59.6492C34.3122 55.6297 42.167 49.9551 43.528 45.8427C43.631 45.7587 43.7347 45.6741 43.8392 45.5889C47.156 42.88 51.1715 39.7183 54.4265 37.7335C56.5884 36.4187 55.0277 38.3858 57.3087 36.2884C57.8263 35.817 56.7941 35.9661 57.5948 35.2906C58.3731 34.6351 59.1858 33.9835 60.0182 33.3356C62.777 31.1869 65.7378 29.0981 68.3772 27.0124C69.0755 26.4597 68.6147 26.2201 68.775 26.0082C70.1403 24.2382 73.709 23.2028 74.3973 22.8585C75.1864 22.4527 75.9369 22.0556 76.6587 21.6642C80.7345 19.4634 83.9023 17.3893 87.9921 15.1823C89.1138 14.5831 87.4956 14.75 88.5678 14.1547C90.4084 13.1406 92.3187 12.1537 94.2444 11.233C98.1374 9.36986 102.187 7.73651 106.184 6.48294C107.516 6.07062 106.488 6.99843 107.132 6.82864C109.957 6.10452 110.281 4.95591 113.052 4.36234C113.637 4.24072 113.437 4.76688 113.555 4.78463C113.629 4.79613 113.702 4.8049 113.774 4.81113C115.471 4.96155 116.537 3.65515 116.95 3.53129C122.271 1.94525 126.018 2.51711 131.285 2.01058C131.92 1.95695 130.46 1.4584 132.251 1.34822C132.87 1.31409 133.489 1.28913 134.107 1.27342C136.347 1.21433 138.609 1.08417 140.922 0.955451C143.212 0.827008 145.528 0.697957 147.863 0.614775C150.195 0.531677 152.545 0.493351 154.897 0.544935C157.27 0.597301 159.648 0.740407 162.002 1.03131C164.078 1.28824 166.132 1.65911 168.143 2.19776C168.745 2.36024 168.995 2.49241 169.058 2.58575C169.093 2.63827 169.072 2.68033 169.025 2.71492C168.901 2.80463 168.601 2.84649 168.65 2.88498C168.745 2.95672 168.839 3.02222 168.931 3.08198C170.433 4.06653 171.789 3.51815 172.367 3.68998C173.64 4.08075 174.857 4.65142 175.898 5.26847C178.69 6.91823 181.087 8.7053 183.562 9.18428C184.841 10.0706 186.102 10.9721 187.35 11.889C190.909 14.5045 194.353 17.2431 197.687 20.0974C201.028 22.9573 204.256 25.932 207.365 29.0165C210.479 32.1065 213.472 35.3068 216.327 38.6149C219.187 41.9295 221.907 45.3502 224.471 48.8835C224.815 49.3578 225.154 49.831 225.494 50.311C225.638 50.5128 224.936 50.5076 225.225 50.9081C228.666 55.7465 228.616 54.3364 231.835 56.8499C232.221 57.1556 232.607 58.0367 232.906 58.8987C232.906 58.8987 232.906 58.8987 232.906 58.8987C233.236 59.8458 233.47 60.7754 233.514 60.9156C233.818 61.8945 232.571 61.5697 232.711 61.8691C233.888 64.331 235.787 62.3842 237.928 65.3173C237.991 65.4117 237.312 65.3168 237.452 65.5918C237.883 66.4468 238.591 67.0896 238.995 67.9402C239.913 69.8887 239.295 71.2533 241.774 73.4507C241.823 73.4934 241.885 73.4968 241.961 73.4817C242.382 73.3996 243.254 72.7529 244.773 75.0401C245.496 76.1119 248.741 80.8311 249.536 82.2328C250.338 83.6248 249.322 82.9758 249.368 83.083C251.191 87.0456 250.067 85.8249 250.427 88.1529C250.438 88.2266 250.45 88.2963 250.464 88.3621C250.874 90.3687 252.399 88.7755 253.063 89.3661C253.752 89.9767 254.958 92.9525 255.194 93.7136C255.436 94.4731 254.67 93.8066 254.935 94.4502C256.679 98.7208 256.933 95.5972 258.012 96.7154C259.602 98.3774 260.151 100.292 260.674 102.201C260.987 103.341 261.29 104.481 261.804 105.584C262.175 106.384 262.181 105.569 262.577 106.247C264.136 108.948 264.503 110.849 266.453 113.84C266.712 114.237 268.181 115.763 268.74 117.412C268.866 117.783 268.946 118.159 268.957 118.527C268.962 118.811 268.281 118.294 268.72 119.55C269.38 121.421 270.632 124.757 271.506 126.701C272.154 128.138 272.176 126.203 272.662 128.141C272.872 129.001 271.935 127.609 272.359 129.21C272.625 130.22 273.28 132.183 273.825 133.879C274.141 134.859 274.422 135.742 274.599 136.3C275.077 137.822 275.326 136.836 275.398 136.948C275.827 137.635 276.911 140.525 276.975 140.794C277.858 143.978 278.567 147.138 279.14 150.263C280.009 155.001 280.836 159.694 281.624 164.385C282.413 169.083 283.17 173.782 283.909 178.587C283.964 178.942 284.018 179.298 284.072 179.654C284.227 180.687 284.689 179.927 284.719 180.084C285.381 183.617 283.584 180.988 283.372 183.514C284.45 183.036 284.423 184.517 284.756 187.02C284.913 188.225 285.295 187.533 285.348 187.639C286.148 189.401 285.356 190.717 285.198 191.047C284.889 191.699 284.971 192.358 285.053 192.961C285.126 193.49 285.198 193.98 285.005 194.365C284.592 195.181 283.93 193.342 283.974 195.736C284.382 196.411 285.423 194.603 285.605 196.445C285.886 199.38 285.759 203.428 285.153 207.493C284.378 213.071 282.52 218.565 281.283 221.591C281.277 221.606 281.271 221.622 281.265 221.637C279.115 226.842 278.162 228.442 276.324 231.172C275.123 232.86 274.504 233.718 274.171 234.334C274.171 234.334 274.171 234.334 274.171 234.334C273.554 235.451 273.943 235.637 272.664 237.645C270.663 240.725 270.266 238.132 269.617 238.284C268.974 238.42 268.952 239.119 268.372 239.462C267.794 239.802 268.448 238.577 267.436 239.658C266.438 240.743 264.319 244.273 264.272 244.952C264.195 246.392 266.167 245.685 263.212 248.378C263.042 248.531 263.18 247.645 262.544 248.247C262.292 248.487 262.039 248.726 261.786 248.966C257.186 253.325 252.369 257.739 247.295 261.49C247.07 261.657 246.844 261.822 246.619 261.986C245.848 262.541 246.159 261.572 245.707 261.889C240.972 265.123 243.164 264.605 241.233 267.338C240.978 265.775 239.1 266.151 235.502 268.532C233.323 269.945 234.025 270.212 232.816 271.476C232.625 271.675 232.037 271.937 231.5 272.197C231.015 272.433 230.571 272.667 230.503 272.866C230.011 274.228 232.088 274.295 227.903 276.149C227.719 276.227 228.028 275.471 227.409 275.772C223.395 277.666 223.367 278.795 218.998 280.901C217.947 281.394 216.608 281.922 215.135 282.433C211.79 283.609 207.744 284.633 204.852 285.376C204.498 283.853 200.756 285.247 199.377 286.648C198.406 286.853 197.41 287.062 196.403 287.257C194.581 287.609 192.732 287.909 191 288.054C190.076 288.13 190.617 287.594 190.495 287.562C188.634 287.033 187.564 288.203 186.963 288.305C183.487 288.865 180.324 288.872 177.21 288.827C177.21 288.827 177.21 288.827 177.21 288.827C174.979 288.794 172.758 288.805 170.426 289.021C169.97 289.063 169.51 289.114 169.044 289.173C168.826 289.201 168.472 290.296 166.828 289.497C166.722 289.442 168.753 288.943 165.861 288.905C165.229 288.896 164.476 288.862 163.642 288.818C161.651 288.714 159.201 288.558 156.858 288.584C155.688 288.597 154.545 288.654 153.499 288.787C152.838 288.87 151.49 289.307 150.074 289.361C149.408 289.386 148.727 289.325 148.096 289.103C147.833 289.009 148.121 288.695 147.741 288.52C146.515 287.963 145.845 289.07 144.404 288.13C144.1 287.932 143.727 287.744 143.29 287.577C141.754 286.992 139.425 286.664 136.506 287.048C136.312 287.073 136.116 287.101 135.917 287.131C135.792 287.148 134.828 288.02 133.545 287.95C133.103 287.926 132.621 287.889 132.117 287.842C130.724 287.713 129.158 287.504 127.759 287.334C127.333 287.283 126.921 287.235 126.535 287.196C125.524 287.092 126.113 287.702 125.936 287.694C125.036 287.638 124.171 287.568 123.333 287.49C121.82 287.349 120.392 287.18 118.985 287.009C117.542 286.833 116.12 286.653 114.651 286.498C113.26 286.352 111.834 286.227 110.3 286.164C110.3 286.164 110.3 286.164 110.3 286.164C109.756 286.142 109.196 286.037 108.659 285.909C108.139 285.785 107.619 285.633 107.09 285.471C107.078 285.467 107.066 285.463 107.054 285.459C106.704 285.351 106.16 285.242 105.508 285.113C105.027 285.019 104.487 284.916 103.924 284.812C103.416 284.719 102.887 284.624 102.374 284.556C101.86 284.49 101.37 284.445 100.976 284.514C100.536 284.608 100.169 284.737 99.7599 284.886C99.4241 285.009 99.1447 285.085 98.8951 285.112C97.7056 285.29 97.195 284.092 95.604 285.182C95.1328 285.52 94.5858 286.079 93.9813 286.946C93.7644 287.257 93.5403 287.606 93.3085 287.998C93.136 288.289 92.9997 288.615 92.8855 288.966C92.66 289.658 92.5213 290.449 92.3419 291.273C92.1761 291.999 92.0051 292.736 91.6408 293.442C90.8709 294.868 89.7561 296.222 87.8226 297.108C87.6221 297.328 87.4219 297.545 87.2199 297.762C85.797 299.291 84.3492 300.748 82.8847 302.164C81.3962 303.604 79.8911 305.001 78.3793 306.389C76.8672 307.777 75.3485 309.156 73.8304 310.561C72.3371 311.942 70.8446 313.348 69.357 314.813C69.0312 315.134 68.7069 315.456 68.3815 315.783C68.0894 316.076 67.7204 317.655 66.9654 318.285C66.2939 318.844 65.7034 319.129 65.1618 319.409C64.804 319.592 64.4687 319.778 64.1492 320.043C63.5999 320.495 63.0751 320.961 62.5687 321.438C61.7577 322.202 60.9978 322.99 60.2689 323.794C59.5289 324.611 58.8214 325.445 58.1289 326.291C57.4396 327.134 56.7645 327.99 56.0897 328.86C55.989 328.99 55.8885 329.12 55.7882 329.25C54.8622 330.484 54.7831 329.822 53.7732 331.257C53.7497 331.291 53.7259 331.327 53.7016 331.364C53.0687 332.326 52.7884 333.236 52.3887 334.268C52.3887 334.268 52.3887 334.268 52.3887 334.268C52.1263 334.949 51.7287 335.685 51.0441 336.451C50.7038 336.831 50.2939 337.156 49.8496 337.448C48.7708 338.159 47.4979 338.68 46.2651 339.52C46.0438 339.671 45.8222 339.833 45.6021 340.009C46.1915 340.77 45.4917 341.666 44.0421 343.093C43.6632 343.467 43.2329 343.876 42.7622 344.332C42.3258 344.754 43.0965 344.686 42.9033 344.903C42.4244 345.449 41.838 345.803 41.2901 346.194C40.9425 346.442 40.6095 346.705 40.3294 347.04C40.1538 347.249 40.3985 347.585 40.27 347.774C39.8817 348.357 39.2556 348.878 38.5968 349.324C37.4135 350.118 36.1354 350.7 35.8179 350.856C35.5142 351 35.2466 351.159 35.0181 351.316C33.8174 352.145 33.4283 353.003 32.3491 353.759C31.183 354.573 32.2735 353.153 31.4417 353.731C31.3553 353.791 31.2483 353.872 31.1157 353.98C30.186 354.734 29.2006 355.586 28.195 356.475C27.1497 357.398 26.0823 358.362 25.0343 359.302C23.9357 360.286 22.8585 361.244 21.8561 362.104C21.8442 362.114 21.8324 362.125 21.8205 362.135C20.6691 363.121 21.8134 362.866 21.6572 363.017C20.7906 363.832 19.8444 364.562 18.9658 365.255C17.6545 366.29 16.4934 367.24 15.9597 368.308C15.9597 368.308 15.9597 368.308 15.9597 368.308C15.9001 368.422 15.8455 368.534 15.7943 368.649C14.9537 368.435 14.5163 368.264 14.1782 368.262C13.6738 368.243 13.427 368.581 12.8973 369.003C12.5641 369.271 12.1174 369.556 11.5078 369.783C11.1067 369.936 10.6411 370.061 10.0957 370.199C9.90938 370.247 9.71271 370.297 9.50445 370.355C9.2367 370.443 8.04227 369.439 9.4953 368.657C9.52628 368.642 9.55758 368.628 9.58948 368.614C10.0686 368.401 10.6426 368.28 11.2134 368.197C11.7078 368.125 12.2021 368.075 12.6644 367.984C13.1059 367.898 13.5182 367.771 13.8737 367.569C14.029 367.481 14.179 367.376 14.3029 367.262C14.3793 367.192 14.4912 366.983 14.6604 366.637C14.6604 366.637 14.6604 366.637 14.6604 366.637C15.1472 365.753 15.7626 364.442 15.9155 364.248C16.3782 363.667 16.8259 363.337 17.2409 363.164C18.3611 362.696 19.2444 363.381 19.3768 363.377C20.27 363.318 21.0629 362.679 21.7075 361.933C22.5198 360.994 23.0957 359.886 23.4004 359.544C23.7129 359.193 24.0251 358.855 24.3363 358.528C25.3585 357.455 26.3713 356.496 27.3452 355.564C28.3924 354.562 29.3944 353.593 30.3077 352.547C30.3591 352.489 30.4102 352.429 30.461 352.37C31.8031 350.804 31.0215 349.719 32.2029 348.625C32.2358 348.594 32.2687 348.564 32.3014 348.534C33.5884 347.352 34.8278 346.586 35.881 345.996C37.2048 345.255 38.366 344.707 39.4818 343.865C40.4125 343.162 41.3198 342.257 42.2021 340.899C42.2111 340.885 42.2195 340.871 42.2274 340.858C42.7304 339.948 41.1889 339.519 44.5749 338.008C44.6029 337.995 44.673 337.966 44.7747 337.921C45.3736 337.67 47.0847 336.815 47.6642 335.649C47.7355 335.509 47.7897 335.367 47.8239 335.223C47.8694 335.03 47.5338 334.777 47.6419 334.576C48.1233 333.679 48.442 333.323 48.9001 332.524C48.9001 332.524 48.9001 332.524 48.9001 332.524C49.2092 331.956 49.5936 331.264 49.977 330.502C50.1854 330.087 50.4081 329.66 50.6436 329.231C51.2052 328.209 51.8497 327.161 52.5763 326.172C53.043 325.536 53.5419 324.926 54.0703 324.362C54.3328 324.081 54.6501 323.813 54.9878 323.564C55.9652 322.843 57.1072 322.307 57.5665 322.032C57.7468 321.924 57.9163 321.807 58.079 321.68C59.0454 320.93 59.739 319.894 60.4826 319.213C60.8258 318.898 61.1776 318.662 61.5621 318.571C62.9128 318.272 61.8401 320.568 64.4762 318.848C64.2613 318.532 64.0582 318.202 63.8611 317.866C63.4898 317.234 63.1373 316.58 62.7648 315.956C64.2319 314.729 65.6749 313.526 67.1279 312.299C68.681 310.988 70.2252 309.666 71.7542 308.318C73.2783 306.974 74.7869 305.603 76.2732 304.19C76.7512 303.735 77.227 303.276 77.7002 302.812C78.2937 302.228 77.2736 302.398 77.8983 301.761C78.6858 300.959 79.4728 300.215 80.2607 299.49C81.7547 298.115 83.2517 296.807 84.756 295.286C85.1144 294.924 85.4723 294.551 85.8317 294.161C86.837 293.067 87.8087 291.839 88.7913 290.593C89.0197 290.234 89.2473 289.808 89.6 289.211C89.9304 288.64 90.2919 288.016 90.6863 287.387C90.7777 287.241 90.8727 287.092 90.9685 286.945C91.4651 286.742 91.9829 286.362 92.5382 285.854C93.0817 285.359 93.6563 284.745 94.3165 284.055C94.9054 283.444 95.5549 282.769 96.3878 282.08C97.1243 281.457 98.4314 280.571 99.7485 280.218C101.416 279.799 102.376 280.04 103.085 280.137C103.147 280.148 103.206 280.159 103.265 280.171C104.461 280.43 104.548 280.687 104.963 280.936C105.09 281.018 105.244 281.102 105.453 281.188C105.919 281.381 106.269 281.513 106.548 281.598C108.162 282.09 107.457 281.017 108.179 281.07C108.222 281.072 108.264 281.075 108.306 281.078C108.869 281.119 109.281 281.196 109.591 281.299C110.064 281.439 110.058 281.596 110.3 281.81C110.3 281.81 110.3 281.81 110.3 281.81C111.534 282.307 112.701 283.08 114.845 283.344C115.116 283.378 115.404 283.404 115.711 283.422C115.95 283.425 119.031 282.353 119.447 282.32C119.448 282.32 119.449 282.32 119.451 282.32C122.073 282.046 119.829 282.824 121.418 283.091C122.266 283.235 123.031 283.386 123.775 283.525C125.157 283.782 126.469 284 128.082 284.059C128.56 284.076 129.064 284.079 129.603 284.063C130.178 284.044 131.237 283.814 132.364 283.765C133.142 283.732 133.966 283.786 134.687 284.07C134.921 284.161 134.78 284.598 134.971 284.629C135.562 284.717 136.068 284.742 136.506 284.723C138.685 284.633 139.05 283.614 140.799 283.225C141.541 283.059 142.426 283.071 143.29 283.167C144.88 283.344 146.398 283.809 146.828 283.987C148.562 284.7 145.499 284.292 145.405 284.362C144.302 285.194 146.677 285.051 148.492 285.121C148.64 285.884 149.507 286.192 150.074 286.102C150.516 286.031 150.776 285.718 150.374 285.188C150.347 285.154 150.234 285.138 150.074 285.13C149.612 285.109 148.763 285.167 148.492 285.121C148.934 284.752 149.468 284.472 150.074 284.286C151.655 283.803 153.729 283.963 155.956 284.863C156.508 285.086 156.649 285.323 156.858 285.518C157.196 285.831 157.711 286.032 160.416 285.878C162.404 285.765 161.636 284.831 163.391 284.576C163.474 284.564 163.558 284.552 163.642 284.541C165.705 284.276 168.066 284.373 170.426 284.509C172.611 284.635 174.796 284.794 176.741 284.729C176.95 284.722 177.102 284.706 177.21 284.684C177.21 284.684 177.21 284.684 177.21 284.684C177.873 284.544 176.928 284.162 177.795 284.114C180.455 283.955 182.777 284.228 185.356 283.811C185.588 283.771 184.975 283.288 185.775 283.21C189.079 282.87 192.214 282.498 195.363 281.97C197.988 281.527 200.65 280.97 203.476 280.165C205.95 279.477 209.897 277.954 212.869 276.714C213.521 276.447 214.129 276.198 214.67 275.983C219.563 274.075 225.619 271.717 229.681 269.165C229.95 268.998 230.211 268.831 230.462 268.664C233.086 266.896 232.202 266.799 233.134 265.766C234.919 263.786 239.369 262.137 239.99 261.899C240.013 261.898 237.888 263.603 239.224 262.97C240.247 262.932 239.967 261.918 239.99 261.899C240.324 261.792 243.297 259.655 244.779 258.399C245.122 258.114 245.389 257.879 245.533 257.735C245.95 257.317 245.372 257.137 245.595 256.926C249.694 253.053 253.685 249.089 257.65 245.02C258.795 243.844 259.939 242.658 261.08 241.464C261.175 241.374 261.467 241.899 261.684 241.682C264.731 238.632 265.908 236.105 267.77 233.079C268.3 232.212 268.824 231.412 269.348 230.683C269.348 230.683 269.348 230.683 269.348 230.683C270.616 228.913 271.718 227.657 273.004 226.843C274.086 224.818 275.9 221.846 276.869 219.934C276.912 219.851 276.954 219.77 276.995 219.692C277.959 217.788 276.962 217.158 277.003 216.984C277.714 212.94 278.408 210.194 279.052 206.722C279.298 205.346 279.518 203.85 279.655 202.128C279.843 199.989 279.842 196.234 279.627 193.147C279.559 192.082 279.475 191.09 279.395 190.279C279.141 187.776 279.263 186.238 278.854 183.933C278.798 183.621 278.344 183.991 278.314 183.898C277.439 181.384 278.771 182.484 278.923 181.924C279.184 180.942 279.374 180.137 279.408 179.199C279.444 178.189 279.301 177.023 278.843 175.319C278.642 174.555 276.568 172.6 276.221 171.224C275.774 169.432 276.508 170.007 276.011 168.127C275.968 167.966 275.6 168.071 275.395 166.892C275.322 166.473 275.248 166.051 275.173 165.626C274.389 161.138 273.53 156.305 272.58 151.605C272.449 150.952 272.311 150.307 272.167 149.672C271.996 148.913 271.618 150.011 271.359 148.923C270.335 144.642 269.095 140.11 267.878 135.811C267.655 135.02 267.434 134.24 267.219 133.475C266.877 132.262 267.535 132.868 267.566 132.568C267.738 130.722 265.857 128.861 265.697 128.509C264.405 125.618 263.285 122.934 262.184 120.312C260.093 115.348 258.092 110.583 254.927 105.358C254.817 105.178 254.706 104.996 254.593 104.815C254.319 104.359 251.307 101.448 251.264 99.3862C251.262 99.2482 251.248 97.1695 249.813 96.1866C249.723 96.1266 249.843 97.3556 248.879 95.6689C248.196 94.4796 247.02 92.9046 246.045 91.1836C245.637 90.4634 245.264 89.715 244.979 88.9575C244.675 88.1475 244.444 85.8847 242.335 84.2362C242.196 84.1244 238.446 81.945 238.712 80.0643C238.757 79.7582 240.024 79.1656 237.703 77.0768C237.331 76.7457 237.517 77.4124 236.989 76.9821C236.883 76.8962 236.749 76.7665 236.576 76.5765C234.987 74.8333 233.471 72.0865 231.279 70.1143C230.895 69.7692 228.885 68.5948 228.43 66.7874C228.359 66.5042 229.032 66.6453 228.532 65.8815C227.991 65.0534 227.417 64.2323 226.825 63.4142C226.825 63.4143 226.825 63.4139 226.825 63.414C224.835 60.6621 222.672 58.0549 220.768 55.2739C219.895 54.0043 220.963 54.1512 220.108 52.7781C220.062 52.7048 220.014 52.6278 219.962 52.5477C219.05 51.1241 217.254 48.7266 215.973 47.7245C214.624 46.6702 214.923 48.8243 213.214 46.9909C212.268 45.9818 211.327 44.9687 210.39 43.9576C207.511 40.8504 204.662 37.7453 201.744 34.7143C198.826 31.6831 195.838 28.7253 192.695 25.9401C191.967 25.2942 191.231 24.6594 190.485 24.0336C189.262 23.0171 190.022 24.1699 188.192 22.7151C186.59 21.4533 184.676 20.0275 182.588 18.572C179.301 16.2785 175.759 14.0389 172.154 11.9687C170.403 10.9818 168.98 10.4413 167.195 9.86524C165.706 9.39385 164.269 9.0303 163.021 8.70032C162.217 8.48924 161.676 8.33441 161.326 8.20203C160.363 7.84328 160.933 7.64994 161.393 7.48659C161.756 7.35906 162.048 7.24849 161.432 7.07397C161.201 7.00929 160.841 6.93667 160.3 6.86077C158.142 6.55452 155.737 7.90359 155.221 7.94527C155.106 7.95438 154.991 7.96318 154.877 7.97168C152.433 8.15641 150.305 8.18732 148.207 8.20923C146.045 8.23344 143.919 8.25741 141.495 8.48642C141.438 8.49177 141.388 8.49837 141.344 8.50608C140.592 8.6359 141.46 9.0856 140.647 9.15552C138.608 9.33371 136.339 9.34345 134.228 9.32298C133.383 9.31327 132.558 9.33073 131.767 9.38819C130.596 9.48093 130.836 9.89089 129.783 9.94381C127.268 10.0948 125.146 10.218 122.574 10.2998C122.339 10.3082 123.771 9.4957 121.878 9.84104C119.983 10.1984 117.76 10.5617 115.559 11.1608C114.2 11.5301 112.87 11.9789 111.604 12.5584C110.61 13.022 110.903 13.9303 108.502 14.0868C108.003 14.1274 108.157 12.8046 105.997 14.7212C105.607 15.0326 101.97 18.0092 99.5982 18.1775C99.2191 18.201 98.4283 18.1302 97.6096 18.2308C97.0663 18.2969 96.5157 18.4362 96.071 18.7232C95.9226 18.8237 96.791 18.9738 95.8415 19.5028C92.4944 21.3643 88.9381 23.258 85.6202 25.4224C84.7358 26.0024 86.3615 25.658 85.0383 26.5086C83.8594 27.2705 82.5759 28.081 81.2571 28.9118C78.5215 30.6323 75.6429 32.4442 73.221 33.9947C71.8986 34.8421 72.5309 33.8547 72.4097 33.88C70.4461 34.2909 70.177 35.8024 69.7204 36.2077C68.0584 37.6746 66.482 38.7463 64.9216 39.8268C63.7936 40.6088 62.683 41.3894 61.5511 42.3398C60.8065 42.9644 61.6628 42.9425 61.5382 43.0971C60.2377 44.6783 60.8456 43.0404 59.7881 43.744C56.8165 45.7232 53.7708 48.2636 51.049 50.6387C50.0558 51.5073 51.5703 51.0026 50.6742 51.7785C50.3726 52.0408 50.0709 52.3033 49.7694 52.5658C44.7947 56.8941 39.6573 61.3916 34.6852 65.5443C34.6525 65.5707 34.6208 65.5969 34.5896 65.6231C33.9187 66.2255 33.9925 65.4973 33.7889 65.5598C32.4494 65.9192 32.4851 68.0139 32.3943 68.5253C32.2337 69.2979 32.0821 69.8937 31.9095 70.4509C31.6177 71.4208 31.2694 72.2208 31.0696 73.5908C30.8804 74.9304 30.7466 76.365 30.6624 77.8618C30.5169 80.446 30.5183 83.205 30.6186 86.0392C30.7168 88.8114 30.9098 91.6547 31.153 94.4847C31.4023 97.3872 31.7053 100.278 32.0113 103.103C32.3182 105.968 32.6409 108.753 32.863 111.541C32.8773 111.726 32.8906 111.907 32.9028 112.084C33.5555 121.591 33.8881 129.84 34.3136 138.204C34.5624 143.122 34.8387 148.094 35.2168 153.419C35.2821 154.344 35.8261 153.372 35.8901 154.17C36.1495 157.51 36.371 160.833 36.5873 164.147C37.0378 171.047 37.4654 177.914 38.1693 184.828C38.2541 185.667 38.7217 184.407 38.8773 185.752C39.0275 187.03 39.1691 188.466 39.288 189.918C39.4258 191.603 39.5332 193.31 39.5828 194.817C39.6295 196.187 38.9595 194.41 39.0171 195.788C39.1513 198.996 39.4771 202.417 39.9501 205.672C40.1533 207.056 40.4887 204.893 40.7083 206.696C41.0751 209.662 41.468 212.612 41.8783 215.55C43.0613 224.011 44.3832 232.38 45.6875 240.913C45.8043 241.676 45.9208 242.439 46.0374 243.206C46.1664 244.048 45.1598 245.036 45.7834 246.759C46.1361 246.82 46.5136 246.726 46.8713 246.706C48.4069 253.132 50.0187 259.331 51.8989 265.674C51.8989 265.674 51.8989 265.674 51.8989 265.674C52.1236 266.413 52.271 267.232 52.3512 267.75C52.4397 268.317 52.5005 268.809 52.5582 269.258C52.6151 269.705 52.6674 270.107 52.7218 270.462C52.7758 270.815 52.8329 271.122 52.8864 271.35C52.9379 271.576 52.9916 271.725 52.9873 271.722C53.0623 271.834 52.7179 271.287 52.5898 271.219C51.8709 270.551 51.7784 270.616 51.8865 270.653C51.9731 270.703 52.1699 270.808 52.4129 270.941C52.6585 271.076 52.9561 271.241 53.326 271.477C53.6973 271.721 54.1395 272.008 54.747 272.593C55.2913 273.167 56.3136 274.161 56.6843 276.299C57.1544 278.293 55.7302 280.893 55.3785 281.127C54.9719 281.642 54.7242 281.992 54.3733 282.534C54.0483 283.04 53.7324 283.584 53.4217 284.162C53.111 284.74 52.8056 285.351 52.4994 285.992C52.1935 286.632 51.8867 287.302 51.5716 287.995C51.2564 288.687 50.9328 289.403 50.5909 290.138C50.2571 290.856 49.871 291.662 49.5004 292.388C49.5004 292.388 49.5004 292.388 49.5004 292.388C48.3564 294.63 47.2375 296.865 46.1191 299.134C45.991 299.393 45.863 299.653 45.7352 299.913C45.3972 300.602 46.5446 299.686 45.8934 301.021C45.0462 302.758 44.2149 304.494 43.3828 306.227C42.2867 308.511 41.1893 310.792 40.0528 313.071C38.9251 315.333 37.759 317.594 36.5173 319.854C35.7369 321.274 34.9267 322.693 34.0774 324.112C33.637 324.847 32.8957 324.029 31.9104 326.119C31.8741 326.196 31.8373 326.277 31.8002 326.362C31.6221 326.786 29.9343 330.342 29.6582 331.358C29.625 331.498 30.4212 331.107 29.8357 332.236C29.6325 332.626 29.4278 333.015 29.2217 333.403C27.9511 335.798 26.5609 338.225 25.1968 340.549C23.8277 342.881 22.4474 345.174 21.0976 347.432C20.2965 348.772 19.5055 350.1 18.7348 351.411C18.1566 352.396 18.2346 351.063 17.8188 351.764C17.3961 352.48 16.9873 353.214 16.5924 353.959C15.3816 356.243 14.2991 358.638 13.3141 360.986C12.3811 363.207 11.537 365.385 10.7147 367.418C10.6261 367.636 10.5418 367.836 10.462 368.015C9.38537 370.53 8.78532 369.324 7.53873 370.888C7.3349 371.129 6.94167 373.335 6.40246 373.383C4.99503 373.521 3.67033 372.152 2.15322 372.416C1.79128 372.462 1.78424 375.934 1.23143 373.823C1.17595 373.67 1.27255 371.14 1.1544 370.488C1.05953 370.028 0.36525 370.701 0.309933 369.776C0.261443 368.85 0.921489 367.992 1.03059 366.516C1.07689 365.897 0.973165 365.618 0.886075 365.291C0.769607 364.837 0.670224 364.291 1.15271 362.662ZM280.635 210.705C281.506 208.798 279.626 208.218 279.726 210.405C279.732 210.511 280.59 210.802 280.635 210.705ZM73.8469 308.566C76.4175 307.337 76.8882 305.135 75.0477 305.973C73.2108 306.803 73.0665 308.937 73.8469 308.566ZM53.8948 328.946C54.3046 328.568 54.5985 328.206 54.7969 327.871C55.6522 326.457 54.7078 325.448 53.4667 326.853C53.2548 327.098 53.0389 327.416 52.8303 327.818C52.7293 328.01 53.7497 329.081 53.8948 328.946ZM9.87644 362.147C9.83836 362.159 9.24251 363.705 9.25956 363.749C9.53985 364.773 10.7122 361.72 9.87644 362.147ZM35.4004 349.32C35.9808 349.086 36.8602 348.273 37.2816 347.712C37.5909 347.298 37.6388 347.015 37.1022 347.197C37.045 347.216 36.9847 347.241 36.9222 347.272C35.8597 347.763 34.2038 349.802 35.4004 349.32ZM261.006 106.105C261.017 106.062 260.472 104.983 260.339 105.082C259.914 105.403 260.83 106.814 261.006 106.105ZM8.65162 362.377C8.42942 362.706 8.22418 363.037 8.03202 363.367C7.58972 364.127 7.21606 364.874 6.89018 365.562C6.45839 366.474 6.10994 367.29 5.82157 367.918C5.1548 369.516 4.54325 369.961 4.56191 367.74C4.59852 367.064 4.74506 366.145 5.12546 365.017C5.14291 364.966 5.16089 364.914 5.17943 364.861C5.36168 364.362 5.37 364.623 5.35362 365.088C5.30896 365.958 5.34686 367.492 5.72804 366.362C5.85855 366 5.97521 365.649 6.0808 365.312C6.36036 364.424 6.57041 363.588 6.84564 362.76C7.13113 361.91 7.48787 361.058 8.10638 360.283C8.64532 359.61 9.41563 358.98 10.4367 358.69C10.8502 358.561 9.51246 359.954 9.11923 361.168C8.8695 361.77 8.72208 362.281 8.64789 362.388C8.64913 362.384 8.65037 362.381 8.65162 362.377ZM283.138 209.943C283.176 209.905 283.452 208.256 283.427 208.211C282.951 207.239 282.405 210.533 283.138 209.943ZM222.238 47.1599C222.225 47.0471 219.752 44.0313 219.625 43.9726C217.554 43.0774 222.537 49.1499 222.238 47.1599ZM204.776 285.354C203.165 286.463 201 287.083 199.385 286.647C201.191 286.278 202.984 285.825 204.776 285.354Z" fill="black"/>
</svg>
